<svg width="150" height="15" viewBox="0 0 150 15" fill="none" xmlns="http://www.w3.org/2000/svg">
<path d="M0.407292 14.4874C0.0537805 14.4874 -0.100411 14.1489 0.0688235 13.8387L10.3094 0.577277C10.5538 0.262313 10.9045 0.00188038 11.259 0.00188038H23.2727C23.7494 0.00188038 23.9214 0.390179 23.5548 0.864035L13.6959 13.6299C13.3321 14.1057 12.815 14.4874 12.3383 14.4874H0.407292ZM15.786 14.4874C15.4315 14.4874 15.2811 14.1489 15.4475 13.8387L25.6862 0.577277C25.9306 0.262313 26.2832 0.00188038 26.6358 0.00188038H32.1199C32.5947 0.00188038 32.7677 0.390179 32.401 0.864035L22.5422 13.6299C22.1727 14.1057 21.6603 14.4874 21.1855 14.4874H15.786ZM25.1465 14.4874C24.7892 14.4874 24.6379 14.1489 24.808 13.8387L35.0467 0.577277C35.2874 0.262313 35.6409 0.00188038 35.9963 0.00188038H40.0852C40.5609 0.00188038 40.7339 0.390179 40.3673 0.864035L30.5075 13.6299C30.1436 14.1057 29.6265 14.4874 29.1564 14.4874H25.1465ZM36.3855 14.4874C36.8613 14.4874 37.3746 14.1057 37.7366 13.6299L47.5992 0.864035C47.9649 0.390179 47.7919 0.00188038 47.3171 0.00188038H44.5154C44.1637 0.00188038 43.8102 0.262313 43.5705 0.577277L33.3262 13.8387C33.1607 14.1489 33.3168 14.4874 33.6693 14.4874H36.3855ZM43.2659 14.4874C43.736 14.4874 44.2531 14.1057 44.6179 13.6299L54.4795 0.864035C54.8434 0.390179 54.6704 0.00188038 54.1946 0.00188038H52.2259C51.8724 0.00188038 51.5207 0.262313 51.281 0.577277L41.0367 13.8387C40.8712 14.1489 41.0273 14.4874 41.3751 14.4874H43.2659ZM52.9338 14.4874H48.1953C47.8418 14.4874 47.6876 14.1489 47.854 13.8387L58.0964 0.577277C58.3362 0.262313 58.6878 0.00188038 59.0441 0.00188038H81.0634C81.6557 0.00188038 82.0224 0.4936 82.0224 1.08592V13.6271C82.0216 13.8549 81.9309 14.0731 81.7699 14.2343C81.6089 14.3954 81.3908 14.4864 81.163 14.4874H77.4963C77.2685 14.4862 77.0504 14.3951 76.8894 14.2341C76.7283 14.073 76.6373 13.8549 76.636 13.6271V11.8069C76.636 11.2964 76.589 11.0942 76.0766 11.0942H56.799C56.4417 11.0942 56.1916 11.35 55.9387 11.6565L55.8823 11.7317L54.4146 13.6328C54.0442 14.1094 53.5327 14.4911 53.0579 14.4911H52.9329L52.9338 14.4874ZM62.441 3.66016C62.206 3.66016 61.9869 3.83504 61.8224 4.04564L59.5612 6.97151C59.3986 7.18305 59.5048 7.35605 59.7464 7.35605H76.0766C76.5928 7.35605 76.6332 7.15673 76.636 6.6462V4.61539C76.636 3.92059 76.6548 3.66016 76.0766 3.66016H62.441ZM103.776 10.0976C103.373 10.3496 103.088 10.6025 102.618 10.6025H98.9749C98.5048 10.6025 98.2181 10.3496 97.8176 10.0976L90.8019 5.65806C90.4023 5.40609 90.0713 5.58285 90.0713 6.05764V13.6271C90.0713 13.8553 89.9807 14.0741 89.8194 14.2354C89.658 14.3968 89.4392 14.4874 89.2111 14.4874H85.5415C85.3135 14.4869 85.095 14.3961 84.9337 14.2349C84.7725 14.0736 84.6817 13.8551 84.6812 13.6271V0.863094C84.6812 0.390179 85.0695 0.00282057 85.5415 0.00282057H89.4715C89.9416 0.00282057 90.2236 0.208722 90.6251 0.463514L100.195 6.66125C100.592 6.9151 100.988 6.9151 101.386 6.66125L110.956 0.467274C111.356 0.211543 111.64 0.00658133 112.113 0.00658133H116.04C116.51 0.00658133 116.896 0.39394 116.896 0.866855V13.6309C116.896 14.1057 116.51 14.4911 116.04 14.4911H112.374C112.145 14.4912 111.926 14.4007 111.764 14.2395C111.602 14.0783 111.51 13.8595 111.509 13.6309V6.06141C111.509 5.58661 111.183 5.40985 110.783 5.66182L103.799 10.0854L103.78 10.0948L103.776 10.0976ZM150 6.56535C149.999 6.33774 149.908 6.11984 149.747 5.95908C149.585 5.79831 149.367 5.70769 149.14 5.70695H135.002C134.775 5.70818 134.557 5.79896 134.396 5.95962C134.235 6.12028 134.144 6.3379 134.142 6.56535V7.77537C134.142 8.24923 134.532 8.65727 135.002 8.65727H143.891C144.486 8.65727 144.457 8.9177 144.457 9.61156V9.75917C144.457 10.4483 144.485 10.5997 143.898 10.5997H125.801C125.689 10.5995 125.577 10.577 125.473 10.5336C125.369 10.4902 125.275 10.4268 125.196 10.3468C125.116 10.2669 125.053 10.1722 125.011 10.0679C124.968 9.96369 124.946 9.85207 124.947 9.73943V4.50633C124.947 4.0353 125.327 3.647 125.801 3.647H149.14C149.613 3.647 150 3.26152 150 2.78954V0.860274C149.999 0.632496 149.908 0.414398 149.747 0.253333C149.586 0.0922668 149.367 0.0012346 149.14 0L120.42 0C120.192 0.00123848 119.974 0.0923314 119.813 0.25345C119.653 0.414568 119.562 0.632668 119.561 0.860274V13.6252C119.561 14.1 119.947 14.4855 120.42 14.4855H149.14C149.613 14.4855 150 14.1 150 13.6252V6.41868" fill="#231F20"/>
</svg>
