<svg width="121" height="173" viewBox="0 0 121 173" fill="none" xmlns="http://www.w3.org/2000/svg">
<path fill-rule="evenodd" clip-rule="evenodd" d="M120.331 167.048C120.331 170.229 117.167 172.808 113.261 172.808H7.2038C3.29871 172.808 0.132812 170.229 0.132812 167.048V5.76065C0.132812 2.57879 3.29871 0 7.2038 0H113.261C117.166 0 120.331 2.57879 120.331 5.76065V167.048Z" fill="black"/>
<path fill-rule="evenodd" clip-rule="evenodd" d="M117.389 24.2365V18.2031H3.08203V24.2365H117.389Z" fill="#EC1B23"/>
<path fill-rule="evenodd" clip-rule="evenodd" d="M3.08203 10.5371V16.5709H117.389V10.5371H3.08203Z" fill="white"/>
<path fill-rule="evenodd" clip-rule="evenodd" d="M117.389 8.9056V7.44032C117.389 4.7894 114.75 2.64062 111.497 2.64062H8.97397C5.71957 2.64062 3.08203 4.7894 3.08203 7.44032V8.9056H117.389Z" fill="#00994D"/>
<path fill-rule="evenodd" clip-rule="evenodd" d="M3.08203 25.8691V165.367C3.08203 168.017 5.71957 170.167 8.97397 170.167H111.497C114.75 170.167 117.389 168.017 117.389 165.367V25.8691H3.08203Z" fill="#FFF100"/>
<path fill-rule="evenodd" clip-rule="evenodd" d="M53.6492 95.3892C53.6492 95.3892 53.5473 93.2727 54.0466 93.4346C54.5466 93.5985 61.3714 98.2623 61.9673 99.4008C62.5703 100.54 63.6399 99.9714 63.9692 99.1567C64.2959 98.3432 65.5957 94.7377 66.4947 94.5751C67.3926 94.4112 68.7932 94.6554 68.2938 95.553C67.7938 96.4468 67.1941 97.2844 67.0938 97.693C66.9946 98.0978 66.8943 99.4837 66.0929 100.46C65.2963 101.435 65.6246 102.086 64.4976 102.252C63.3668 102.414 62.9683 102.495 62.2694 102.495C61.5704 102.495 59.2708 102.086 58.8733 100.949C58.4726 99.8069 58.7462 99.1802 56.8429 97.6114C54.9505 96.0414 53.6492 95.3892 53.6492 95.3892Z" fill="white"/>
<path fill-rule="evenodd" clip-rule="evenodd" d="M54.8611 34.5452C55.213 35.2134 56.4435 35.7177 55.9409 36.5656C55.1958 36.6442 54.6331 36.2431 54.0034 36.0739C53.7754 35.9393 53.5271 35.8147 53.4659 35.6072C53.3136 35.0578 54.2582 34.8774 54.0677 34.3128C54.1117 34.2109 54.1638 34.1008 54.2909 34.0536C54.704 33.971 54.6079 34.3919 54.8611 34.5452Z" fill="black"/>
<path fill-rule="evenodd" clip-rule="evenodd" d="M58.5112 34.495C59.334 34.8511 59.5422 35.6548 60.4143 35.997C60.7962 36.2824 60.8607 36.7355 61.3085 36.9794C63.5626 36.7355 65.6256 37.2722 67.0889 38.7664C67.5884 39.2457 68.4021 39.115 69.1541 39.1802C69.97 39.1474 70.8658 39.2396 71.6651 39.1024C72.2567 39.1282 72.8435 39.2068 73.3827 39.4384C73.5495 39.549 73.5919 39.7496 73.5382 39.9322C73.3762 40.0983 73.034 40.0078 72.8403 40.1128C71.6506 40.3405 70.4533 40.5843 69.5365 41.2254C69.8107 41.4185 70.2489 41.4578 70.6465 41.5614C71.8909 41.9674 73.0259 42.7444 74.0156 43.6337C74.4479 43.8702 75.0101 43.8832 75.5401 44.0196C77.4132 44.3614 77.6547 46.0372 79.0664 46.9445C79.0445 46.9821 78.9834 47.0066 78.9705 47.0489C77.4385 47.2347 77.108 45.5535 75.7917 45.4696C73.9153 45.5972 72.3999 44.9242 70.9318 44.2521C70.6336 44.1927 70.2135 44.1236 70.0113 44.3294C70.0327 44.6341 70.4619 44.6341 70.7092 44.7975C71.8748 45.0029 72.4869 46.0644 73.3816 46.6871C73.7882 47.0271 74.4893 46.8658 75.0616 46.9712C76.7304 47.1626 78.2662 47.6608 79.5106 48.7821C79.6962 48.9434 79.7611 49.1894 79.7005 49.4294C79.6533 49.5233 79.4875 49.5504 79.413 49.508C78.9903 49.1815 78.6856 48.7808 78.2077 48.5497C77.8322 48.3923 77.4562 48.256 77.0619 48.2136C75.6619 48.3923 73.7651 48.8053 72.6177 47.9544L72.3308 47.8775V47.9811C72.7716 48.509 73.2104 49.303 74.1106 49.4564C75.2021 49.6479 76.1774 50.1259 77.1579 50.6464C77.4503 50.7662 77.8542 50.7019 78.2077 50.8007C78.2581 50.8623 78.3235 50.9672 78.271 51.0594C77.343 51.7686 76.2273 51.0375 75.2864 50.93C74.2635 50.6041 73.0184 50.7465 72.1404 50.2317L70.6459 49.6094C70.5 49.6011 70.3895 49.6662 70.3632 49.7663C70.9602 50.5197 71.9724 51.0192 72.7127 51.7603C73.4465 52.3057 73.7324 53.0167 74.0156 53.7518C74.7033 54.3304 75.8297 54.7569 75.6973 55.7433C76.0213 56.2982 76.7095 56.5884 77.2534 57.0128C77.2382 57.0615 77.211 57.1072 77.1733 57.1472C77.1357 57.1871 77.0885 57.2203 77.0345 57.2448C75.6785 57.2356 74.802 56.1733 73.9513 55.4338C72.3925 54.8347 70.9388 53.9821 69.6938 52.9739C69.6197 52.9468 69.5875 52.9914 69.5666 53.0277C69.5805 53.4446 70.0414 53.7151 70.3632 54.0629C71.7085 55.0445 73.962 55.5204 74.3627 57.1933C74.7177 58.27 76.1854 58.4125 77.2866 58.7206C77.4889 58.8718 77.9158 58.9833 77.8263 59.2904C77.1263 59.623 76.1151 59.5076 75.4124 59.394C74.4244 59.1572 73.5484 58.6201 72.8688 57.9711C71.93 57.3969 70.6759 57.4874 69.6938 57.0892C69.5548 57.1046 69.4078 57.1181 69.3756 57.2444C69.3134 57.5254 69.3826 57.8225 69.7549 57.9436C70.9382 58.2967 71.0632 59.6029 72.3935 59.7559C73.5661 60.1579 74.6802 61.1027 75.2542 62.0593C75.59 62.405 75.766 62.908 76.3318 63.1213C76.3351 63.2707 76.1714 63.3231 76.0491 63.3791C75.1233 63.2449 74.6373 62.3002 73.7908 62.1122C72.7728 61.9969 72.0888 61.2723 71.0284 61.3361C70.8492 61.3763 70.9436 61.4912 71.0284 61.5681L72.0454 62.4234C72.1285 62.5147 71.9885 62.6244 71.9172 62.6821C71.2301 62.7529 70.7709 62.2503 70.2023 62.1122C69.8343 61.9768 69.4465 61.9252 69.0887 61.8522C68.9192 61.881 68.8746 62.0239 68.9642 62.1375C69.8112 63.1025 71.3765 62.793 72.4906 63.3791C73.432 63.9817 74.3294 64.7002 75.5723 64.8046C75.7515 64.9078 75.8474 65.121 75.7327 65.2951C74.6572 65.6392 73.3843 65.3219 72.4268 64.9851C71.3765 64.469 69.9765 63.8472 68.8054 64.5193L68.9336 64.6229C69.9303 64.7137 70.9613 64.7788 71.8565 65.1656C72.6225 65.6973 73.3376 66.3762 74.205 66.7973C74.2044 66.8874 74.1143 66.9527 74.0478 67.031C72.9809 66.7849 72.0835 66.0923 70.9034 66.3292C69.6605 66.5055 68.2615 66.5055 66.9934 66.4343C66.9446 66.467 66.8497 66.4866 66.8991 66.5629C67.2917 66.8162 67.7686 66.971 68.2664 67.1335C69.9523 67.2504 71.3191 68.2668 72.4268 69.4112C73.5672 70.1163 75.236 69.8317 76.4273 69.359C76.562 69.2748 76.6489 69.0222 76.8752 69.1514C76.9675 69.3205 76.798 69.4687 76.7132 69.6182C75.4639 70.5426 73.4149 70.6582 71.8855 70.2123C70.5408 69.6626 69.2061 69.1325 67.6581 69.0744C66.9902 68.8733 66.3079 68.7258 65.6588 68.5828C65.5945 68.6148 65.5156 68.654 65.5628 68.7369C65.706 68.9131 65.97 68.887 66.199 68.9712C67.7477 69.4178 69.2689 69.9616 70.5214 71.0923C70.8197 71.3123 71.2665 71.5264 71.4408 71.8705C71.399 72.0304 71.5025 72.2902 71.2821 72.3607C70.7494 72.2191 70.3766 71.8097 69.9469 71.5604C69.123 71.0283 68.166 70.7319 67.1205 70.809C67.0466 70.8285 67.0326 70.8723 67.0578 70.9382C67.4671 71.2222 68.0716 71.1765 68.519 71.4814C69.1686 71.8809 69.9309 72.49 70.2028 73.1637C70.5107 73.5841 71.0905 73.9145 71.5701 74.1984C71.6221 74.3081 71.4371 74.3662 71.3802 74.4335C69.7571 74.0294 68.6381 72.6852 67.0584 72.283C66.1432 71.8887 65.0076 71.986 64.137 71.6106C63.5523 71.3834 63.0937 70.9689 62.4506 70.9643C62.229 71.0472 62.3057 71.2424 62.2618 71.405C62.1314 74.1527 64.0217 76.2418 65.7865 78.3909C66.9672 79.7547 68.3908 81.1263 69.9823 82.3262C71.3518 82.9771 72.695 83.7474 74.0478 84.5523C76.0754 85.8874 78.0516 87.3314 79.8282 89.0046C81.5068 90.7333 82.8979 92.5769 83.704 94.647C83.9468 94.8749 84.4076 94.8096 84.7882 94.8011C86.3765 94.647 87.7267 93.9883 89.0745 93.3016C91.9352 91.4828 93.5691 88.9994 93.4249 86.0538C93.4113 83.8643 93.0811 81.6838 92.4409 79.5569C91.8038 77.7825 90.8695 76.1263 90.8238 74.1984C90.347 69.8186 93.6004 65.9565 98.3186 64.0529H98.4468V64.2855C95.9763 65.9297 94.3897 68.0129 93.5563 70.2906C93.2534 71.1641 93.2534 72.2439 93.4249 73.1905C93.4602 73.2727 93.5868 73.2532 93.7134 73.2675C95.1838 72.0173 96.4924 70.5367 98.2865 69.5914C98.9933 68.9001 99.4396 68.1043 100.065 67.4175C100.097 67.3849 100.129 67.4325 100.191 67.4691C100.391 68.3295 99.8243 69.0039 99.5574 69.7474C98.6672 71.0342 97.1895 72.1355 96.5733 73.5267C96.0228 74.7018 95.4979 76.281 96.2864 77.537C96.3874 77.6454 96.5949 77.6852 96.7905 77.6415C97.5221 77.2654 97.474 76.5454 98.0654 76.0877C98.8106 75.1738 100.199 74.6711 100.668 73.6292C100.779 73.4013 100.779 73.0593 101.114 73.007C101.429 73.4333 101.517 74.0157 101.304 74.534C99.9621 75.8795 99.0069 77.3666 98.7321 79.0895C98.0966 81.6231 99.2361 83.9602 99.4605 86.441C99.547 88.2036 99.3275 89.9375 98.7946 91.5402C97.8081 93.9792 94.7912 95.9077 91.932 96.6904C91.6476 96.7616 91.8679 96.9496 91.8679 97.1049C92.1171 97.5521 92.3455 98.0228 92.5659 98.5294C92.8359 99.273 92.9489 100.333 92.5995 101.116C92.2822 102.112 92.3159 103.301 92.5659 104.353L92.5354 104.662C92.3455 104.653 92.2742 104.532 92.2494 104.456C91.1884 102.978 91.2509 101.154 90.8494 99.5126C90.5738 98.8513 89.9568 98.3336 89.3894 97.8296C89.2179 97.7323 89.0497 97.8231 89.0088 97.9582C88.9631 98.63 89.8879 99.0001 89.9311 99.6928C90.5682 101.852 89.6611 103.956 88.6298 105.801C87.4078 107.211 85.5391 108.419 85.6416 110.306C85.5391 110.381 85.39 110.316 85.2907 110.357C84.9525 110.096 84.922 109.757 84.8812 109.451C84.6985 108.271 85.2306 107.288 85.9918 106.423C87.048 104.753 88.0408 102.758 87.2315 100.806C87.1121 100.681 86.9286 100.657 86.8172 100.728C86.2162 101.316 86.5503 102.236 86.1176 102.903C85.8876 103.385 85.5887 103.853 85.6416 104.456C85.6585 104.757 85.6913 105.14 85.6112 105.466C85.5551 105.49 85.4846 105.462 85.4509 105.491C85.1304 105.251 85.1352 104.921 85.0374 104.662C84.66 103.185 85.4044 101.912 85.2586 100.445C85.2306 99.6725 85.2306 98.8983 84.5302 98.4243C84.3018 98.3734 84.1239 98.3466 83.9581 98.4504C83.5478 98.8336 83.7689 99.446 83.6391 99.9519C82.7224 104.326 77.8322 107.773 73.3816 110.229C71.9869 111.351 71.3175 113.059 72.1071 114.628C72.3683 115.523 73.5484 116.131 73.7287 117.114C73.6369 117.995 74.0333 118.926 73.5023 119.728C71.5551 120.653 69.5296 121.463 67.944 123.014C67.2439 123.9 66.1974 124.762 65.0554 125.267C64.5936 125.649 64.6247 126.224 64.2915 126.691C63.6795 127.461 62.7214 128.248 61.7157 128.682C61.3981 128.943 61.6197 129.395 61.5285 129.769C61.5188 131.205 59.6113 131.646 58.384 132.202C57.2699 132.492 55.9921 132.999 54.7922 132.565C54.3078 132.242 54.3341 131.71 54.4098 131.271C54.7777 129.861 55.6923 128.664 56.8574 127.569C57.6829 126.786 58.6828 126.219 59.2707 125.395C59.9541 124.698 60.8311 124.257 61.8117 124.075C63.5357 122.737 65.0758 121.314 66.7392 119.906C67.3855 119.101 68.2835 118.369 68.2299 117.397C66.4715 115.129 64.5994 112.924 63.657 110.432C62.8126 108.593 62.2425 106.402 62.8931 104.405C63.3126 102.888 64.2915 101.583 65.4985 100.366C66.3878 99.305 66.435 97.9647 66.612 96.6904C66.7966 96.1277 67.1908 95.6498 67.5964 95.1882C67.6559 95.0224 67.4504 94.9506 67.3732 94.9036C66.7209 94.8742 66.3063 95.4474 66.1019 95.8639C65.9571 96.5233 65.9748 97.2545 65.7216 97.9079C65.5205 98.5412 65.2045 99.1437 64.895 99.7705C64.4015 100.41 63.8941 101.427 62.7987 101.53C61.7334 101.354 60.5576 100.6 60.3848 99.7176C60.2953 98.0679 58.694 96.932 57.2388 95.8117C54.9585 93.987 52.2271 93.1077 49.8669 91.5402C46.3357 89.3239 42.5314 86.6505 40.6562 83.4647C40.5156 83.06 41.0708 82.9771 41.1336 82.6624L40.9431 82.5606C38.3475 82.7316 35.5688 82.6023 34.0786 80.6713C32.4002 79.6835 30.4471 79.2631 28.7741 78.3393C27.6906 77.9444 26.8876 76.9665 25.5642 77.2015C24.6588 77.6075 24.7767 78.449 24.8342 79.1959C25.1415 80.164 25.7616 81.0486 25.8807 82.1186C26.0545 83.1448 26.3415 84.1548 26.8661 85.0974C26.983 85.6948 27.8815 86.0519 27.9459 86.6988C28.1127 87.0866 27.8107 87.6611 28.3283 87.9431C29.627 88.0437 30.8977 88.9485 31.2185 90.0133C31.6219 91.4129 31.7957 93.2572 30.4552 94.3624C30.2959 94.4088 30.1526 94.4982 29.9805 94.5171C28.2704 94.1757 27.4304 92.6474 26.519 91.6192C25.6414 90.578 25.4982 89.2658 24.1019 88.4863C23.0382 87.68 23.4508 86.394 22.8618 85.4578C22.608 84.8089 22.5603 84.1156 22.417 83.4647C22.0518 81.6498 21.3528 79.9616 21.0513 78.1585C20.8373 77.0631 20.3443 75.854 20.862 74.7684C21.4177 73.9961 21.7578 73.0717 22.8618 72.5931C24.5375 71.5316 26.9905 72.2315 28.8046 72.5931C30.0486 72.5403 31.0882 72.93 32.2688 73.086C32.5596 72.8765 32.162 72.6636 32.0778 72.4893C31.8354 72.2896 31.6133 72.082 31.3456 71.9991C29.804 70.8912 28.5638 69.6097 27.4389 68.3491C26.8945 68.0579 26.2701 67.5089 25.6586 67.8817C25.1496 68.3746 25.3228 69.1122 25.023 69.6946C24.648 70.6568 23.926 71.9259 22.513 72.1525C20.155 73.3498 19.7962 75.6151 20.1958 77.7192C20.3369 78.5065 20.7826 79.2122 20.7971 80.0739C20.8856 80.414 20.9982 80.7627 21.0208 81.1615C20.8931 82.0761 19.7581 82.586 19.2093 83.387C18.7169 83.7383 18.2411 84.1861 17.5566 84.0862C17.1291 83.656 17.1924 83.0854 17.016 82.6102C16.9381 81.5206 17.0959 80.5296 17.3678 79.5823C17.3507 78.5711 17.1919 77.3993 17.6215 76.5016C18.9883 74.6039 19.2324 72.3418 20.3862 70.3931C20.8218 69.6802 21.0508 68.9118 21.1785 68.1154C21.5288 66.7386 22.1703 65.4629 22.8945 64.2321C22.9905 63.3013 23.9657 62.5204 24.9591 62.1362C26.9991 61.4475 29.1035 62.2158 30.5807 63.4565C31.9856 64.868 34.033 65.2565 35.7292 66.2522L37.2875 67.0532C37.8083 67.1192 38.2042 66.7647 38.6832 66.6406C39.4159 66.6008 39.8076 65.8638 40.4325 65.5778C41.9666 64.4406 44.0243 64.2143 45.3573 62.759C45.8674 60.8829 48.4373 60.0736 49.7102 58.513C52.3682 56.2698 53.5616 53.4949 54.8539 50.7749C54.8952 50.3567 54.8148 49.9044 54.3148 49.6868C52.9979 49.491 51.5759 49.5426 50.3454 49.2471C49.4936 49.1016 48.7394 48.8036 47.9605 48.5999C47.4316 48.7729 46.8989 48.6174 46.3716 48.5999C44.8906 48.9342 42.856 50.0469 41.5418 48.7804C41.5219 48.623 41.6431 48.4749 41.8271 48.4443C42.7573 48.1891 43.8011 48.1135 44.5945 47.6149C44.6439 47.5034 44.5907 47.3824 44.529 47.3055C44.3874 47.1608 44.1659 47.2382 44.0216 47.2784C42.8334 47.6665 41.5546 47.8718 40.2404 47.9794C39.306 47.6215 39.7512 46.6766 39.6075 46.0124C39.703 44.9107 40.9603 44.204 41.4447 43.2418C42.0235 42.3988 43.2374 42.685 44.2458 42.5946C47.3479 42.168 49.6378 40.1035 52.6626 39.4629C52.8231 39.2488 53.3021 39.2894 53.2677 38.9975C53.0762 38.744 52.3612 38.8804 52.6943 38.4272C52.4583 38.2332 52.1885 38.3503 51.901 38.3237C50.7611 37.9819 49.5906 37.5672 48.2802 37.78C48.0302 37.8128 47.8135 37.9098 47.5463 37.8844C47.4788 37.8259 47.5088 37.7415 47.5163 37.6782C47.9218 37.3806 48.4373 37.2883 48.9464 37.1595C49.5343 37.0038 50.0101 37.3273 50.6297 37.1844C50.7096 37.1323 50.716 37.0546 50.7273 36.9768C50.4178 36.7386 50.0058 36.7509 49.6443 36.6927C49.4871 36.6158 49.5263 36.4476 49.5799 36.3575C49.7982 36.1058 50.3046 36.2854 50.6618 36.202C52.5613 35.6653 54.0932 36.6486 55.7481 37.0546C56.3156 37.1284 56.9363 37.069 57.3332 36.7185C57.3981 36.2278 56.6579 35.9223 56.8859 35.3983C57.1669 34.9338 57.5928 34.5186 57.8745 34.0519C58.2553 33.9714 58.2333 34.3596 58.5112 34.495Z" fill="black"/>
<path fill-rule="evenodd" clip-rule="evenodd" d="M64.3609 38.7665C64.3185 38.8242 64.4065 38.85 64.392 38.9221C64.1898 39.0191 63.9366 38.9545 63.7886 38.871C63.5171 38.8317 63.2076 38.8439 63.0907 38.6367C63.081 38.4812 63.2875 38.4934 63.4071 38.4291C63.795 38.3733 64.1442 38.4698 64.3609 38.7665ZM64.8351 40.1637C64.7351 40.2402 64.6128 40.2946 64.4798 40.3218C64.3468 40.3491 64.2074 40.3481 64.075 40.3192C63.9489 40.3057 63.8535 40.2021 63.8202 40.1374C63.8658 39.9963 64.0433 39.9639 64.1989 39.932C64.422 39.9504 64.731 39.9504 64.8351 40.1637ZM56.989 40.5268C56.8913 40.8179 56.4971 40.9341 56.1956 40.9935C56.0148 40.9839 55.9017 40.9022 55.8748 40.7851C55.9017 40.5268 56.2439 40.4219 56.5126 40.3713C56.6779 40.3769 56.9509 40.3135 56.989 40.5268ZM50.8267 41.6635C50.7934 41.9882 50.3332 42.2132 50.0634 42.4164C49.1113 42.7652 48.1913 43.1327 47.1399 43.2442C46.8953 43.3595 46.5139 43.3346 46.28 43.2713C46.3224 43.127 46.5472 43.089 46.6974 43.0112C47.9129 42.3762 49.2394 41.9632 50.6347 41.6386L50.8267 41.6635ZM55.0842 42.3378C55.2977 42.693 55.5917 43.1585 55.3057 43.5802C54.7447 43.8638 54.0763 43.6051 53.5897 43.4264C53.1622 43.2629 52.8291 42.9775 52.4488 42.8041C52.2793 42.6087 52.4219 42.3837 52.5727 42.2355C52.9139 41.9629 53.3677 41.8776 53.844 41.8199C54.3268 41.8134 54.7822 41.9554 55.0842 42.3378ZM64.8684 43.2192C64.8839 43.4246 64.4065 43.6956 64.8684 43.814L66.3928 43.634C66.4889 43.6571 66.4942 43.8061 66.4567 43.8913C65.629 44.1815 64.811 44.4599 64.075 44.8746C63.8658 44.9131 63.6116 45.0031 63.4382 44.8995C62.992 44.4463 63.5241 44.0067 63.6941 43.6069C63.8588 43.2572 64.2965 43.0881 64.738 43.0632L64.8684 43.2192ZM42.8824 44.9533C42.9414 45.1586 43.0144 45.4104 42.8824 45.6254C42.4109 45.9921 41.8396 46.3281 41.2334 46.3757C40.9492 46.2451 40.9787 45.9418 41.0414 45.7294C41.2109 45.3147 41.4094 44.8165 41.9914 44.6426C42.3224 44.6517 42.6657 44.6666 42.8824 44.9533ZM44.5662 44.9782C44.6338 45.139 44.5008 45.3256 44.313 45.4178C44.1242 45.462 44.0303 45.3392 43.9311 45.2623C43.8244 45.1259 43.9499 45.0031 44.0271 44.8991C44.1639 44.6911 44.4514 44.8357 44.5662 44.9782ZM55.8748 46.5322C55.9017 46.8268 55.4162 46.887 55.3358 47.1523C55.2746 47.3712 55.1941 47.6038 54.9571 47.7475C54.2892 47.8043 53.7109 48.0241 53.0475 48.0587C52.931 48.0184 52.9862 47.935 52.9862 47.8781C53.8461 47.4114 54.6947 46.8918 55.5917 46.4531C55.6796 46.4456 55.8062 46.4268 55.8748 46.5322ZM46.6024 46.842C46.6513 46.9893 46.5006 47.1064 46.3771 47.179C46.1739 47.2226 46.1046 47.0933 46.0612 46.9989C46.1084 46.874 46.0323 46.6917 46.2521 46.6611C46.3809 46.6646 46.5257 46.7183 46.6024 46.842ZM66.4567 46.8674C66.572 47.0146 66.3376 47.085 66.2346 47.1523C66.0892 47.1506 65.9545 47.0671 66.0752 46.9718C66.1191 46.9258 66.1788 46.8913 66.2466 46.8727C66.3144 46.8541 66.3875 46.8523 66.4567 46.8674ZM59.1196 47.2808C59.1084 48.0757 57.9942 48.3204 57.3387 48.6019C57.1885 48.6517 57.0281 48.6001 56.9246 48.5498C57.1167 47.966 57.9191 47.6356 58.389 47.1781C58.5634 47.0024 59.0225 47.0273 59.1196 47.2808ZM66.9319 48.0587C66.9009 48.1303 66.8507 48.1954 66.7849 48.2492C66.7191 48.3031 66.6394 48.3443 66.5516 48.3698C66.44 48.4074 66.2812 48.3602 66.2657 48.2663C66.2563 48.2151 66.2708 48.1629 66.306 48.12C66.3413 48.0769 66.395 48.0463 66.4567 48.0338C66.5972 48.0298 66.8193 47.8878 66.9319 48.0587ZM60.451 48.5254C60.4918 48.9231 60.1399 49.2207 59.8158 49.4816C59.0456 49.7901 58.2522 50.023 57.3704 50.0767C57.2352 50.0423 57.0748 50.0296 57.0528 49.9221C57.1784 49.5239 57.7662 49.5624 58.1637 49.43C58.9652 49.2478 59.4806 48.5023 60.356 48.4205L60.451 48.5254ZM66.9019 49.4051C66.779 49.5838 66.5028 49.6529 66.2651 49.6642C66.145 49.6105 66.1772 49.4868 66.2341 49.43C66.3993 49.3378 66.8015 49.1302 66.9019 49.4051ZM66.8359 50.3635C66.7635 50.6842 66.3107 50.6707 66.0437 50.7778C65.8848 50.7113 65.9792 50.6362 66.0136 50.571C66.2018 50.3538 66.5591 50.2166 66.8359 50.3635ZM66.8359 51.6557C66.9137 51.8265 66.6803 51.9764 66.5216 52.0704C66.2984 52.0664 66.1144 52.1971 65.9191 52.1215C65.7958 51.9882 65.9481 51.886 66.0141 51.7846C66.2072 51.6076 66.5972 51.4214 66.8359 51.6557ZM66.9019 53.1057C66.9395 53.2708 66.7414 53.3421 66.617 53.4168C66.3204 53.4343 65.9384 53.5435 65.7266 53.3635C65.747 53.2455 65.8912 53.1284 66.0441 53.1057C66.256 52.9868 66.7023 52.8632 66.9019 53.1057ZM57.8799 53.4168C57.8864 54.1755 57.4337 54.8493 57.1167 55.5389C55.9564 57.398 54.3123 59.1648 52.3512 60.6895C52.2568 60.7241 52.1452 60.6974 52.0669 60.7149C51.8689 60.6397 51.9161 60.4719 51.9693 60.3801C53.2169 59.2662 53.4401 57.8192 54.4807 56.6529C55.1078 55.5608 55.9441 54.5456 56.7969 53.5458C56.9648 53.4457 57.0046 53.2398 57.2433 53.2346C57.4749 53.2132 57.7431 53.2189 57.8799 53.4168ZM66.712 54.4775C66.5972 54.7724 66.1455 54.8297 65.821 54.8918C65.7255 54.8808 65.6622 54.8563 65.6311 54.8144C65.6875 54.4932 66.0945 54.4097 66.426 54.3498C66.5414 54.3048 66.6454 54.3826 66.712 54.4775ZM66.7436 55.7976C66.55 56.1438 66.0232 56.1306 65.6306 56.1861C65.4852 56.1114 65.453 55.9882 65.5362 55.8999C65.8049 55.6849 66.4889 55.3659 66.7436 55.7976ZM66.712 57.169C66.7796 57.3783 66.572 57.4958 66.3928 57.5579C66.042 57.5531 65.5796 57.6707 65.3463 57.4535C65.3747 57.0947 65.8521 57.0291 66.1697 56.9102C66.381 56.8871 66.572 57.0043 66.712 57.169ZM66.1397 58.4368C66.0184 58.6981 65.6686 58.6924 65.4402 58.7999C65.231 58.8038 65.0647 58.7177 64.995 58.5923C64.8721 58.452 65.018 58.3428 65.121 58.2563C65.445 58.1496 65.9384 58.1737 66.1397 58.4368ZM65.6933 59.8099C65.7089 60.1083 65.2878 60.2189 65.0599 60.3535C64.8196 60.336 64.5803 60.3744 64.4574 60.2232C64.3513 59.9925 64.6125 59.8571 64.8039 59.7828C65.0647 59.7395 65.4611 59.4812 65.6933 59.8099ZM64.8684 61.4154C64.9059 61.4499 64.8726 61.5269 64.9 61.5946C64.7165 61.7978 64.4146 61.824 64.1694 61.7751C64.0246 61.6995 63.9935 61.5784 64.075 61.4923C64.1989 61.2218 64.6436 61.3118 64.8684 61.4154ZM64.5213 62.7855C64.465 62.9996 64.1522 63.0271 63.979 63.1224C63.8169 63.1232 63.6614 63.1036 63.6287 62.9917C63.6271 62.8654 63.6914 62.7479 63.8535 62.7076C64.0246 62.6316 64.3915 62.5805 64.5213 62.7855ZM26.7755 63.7184C26.7418 64.1004 26.1302 64.0029 25.7902 64.1061C25.5687 64.114 25.2736 64.0873 25.1556 63.926C25.0687 63.6935 25.3847 63.6232 25.5365 63.5358C25.9237 63.4676 26.5202 63.3758 26.7755 63.7184ZM63.9484 64.1323C63.9537 64.2748 63.787 64.346 63.6614 64.4172C63.4587 64.4557 63.2167 64.4303 63.1207 64.3395C63.0628 64.1729 63.2291 64.0348 63.4066 64.0025C63.5718 63.9583 63.8583 63.9182 63.9484 64.1323ZM52.7942 65.2698C52.8039 65.4133 53.0093 65.5687 52.8602 65.7358C52.4155 65.8918 51.988 65.6013 51.5873 65.5288C50.0816 65.2191 48.3013 64.9613 46.824 65.4518C46.4431 65.4264 45.9674 65.8533 45.741 65.4518C45.8182 65.019 46.4184 64.8503 46.8535 64.7275C48.4606 64.4032 50.6347 63.9382 52.1935 64.7275L52.7942 65.2698ZM63.4382 65.2178C63.4463 65.3369 63.2715 65.3754 63.1835 65.4257C63.0563 65.4596 62.9115 65.4335 62.8032 65.4525C62.6304 65.3813 62.6428 65.2257 62.7077 65.1431C62.9121 64.9683 63.3014 64.9739 63.4382 65.2178ZM23.9482 66.2796C24.0517 66.845 23.6386 67.3026 23.5662 67.8588C23.1762 68.3445 23.1687 69.0881 22.422 69.3603C22.1849 69.2239 22.3266 69.0169 22.2954 68.8172C22.48 68.163 22.5245 67.4769 22.8662 66.9004C22.9773 66.5584 23.3441 66.2489 23.6939 66.072C23.821 66.0668 23.8757 66.1921 23.9482 66.2796ZM30.9065 69.1266C30.8791 69.1801 30.9371 69.2637 30.8427 69.3087C30.2687 69.0959 29.6969 68.6559 29.4121 68.2205L29.4464 68.0925C30.0311 68.2081 30.5621 68.6938 30.9065 69.1266ZM55.9704 68.842C56.2187 69.1396 56.2814 69.6711 56.0331 70.0073C55.5836 70.2717 55.0697 69.9361 54.669 69.7997C54.4566 69.6515 54.2822 69.4759 54.4142 69.2813C54.543 68.9445 54.9624 68.7316 55.3711 68.6879C55.5841 68.6748 55.7756 68.746 55.9704 68.842ZM37.5151 69.3355C37.3804 70.2978 36.8596 71.1406 36.5286 72.0532C36.2706 72.7433 35.5636 73.513 34.6845 73.7858C34.5724 73.7911 34.5015 73.746 34.4951 73.682V73.528C35.2085 72.4645 35.8909 71.4056 36.2422 70.2403C36.4678 69.8153 36.804 69.4354 37.2275 69.1266C37.3804 69.1011 37.4539 69.2239 37.5151 69.3355ZM61.1516 73.8642C61.7324 75.9206 62.8407 77.8086 64.3604 79.5843C64.9793 80.3265 65.8044 81.0107 66.4561 81.7837C66.0103 81.7687 65.6359 81.4971 65.2781 81.3195C62.5945 79.7958 61.299 77.5435 60.356 75.3402C60.1565 74.7494 59.8405 74.1599 60.0717 73.5286C60.127 73.4229 60.2369 73.3073 60.3893 73.2949C60.7932 73.2544 60.9917 73.5972 61.1516 73.8642ZM23.3447 73.5528C23.3241 73.7499 23.254 73.9406 23.139 74.1149C23.0239 74.2885 22.8663 74.4413 22.6758 74.5634H22.5502C22.48 74.1155 22.6758 73.6566 23.1537 73.4242C23.224 73.4294 23.312 73.4679 23.3447 73.5528ZM32.9695 78.419C33.0468 78.5012 33.191 78.6109 33.0994 78.7558C33.0001 78.857 32.793 78.8263 32.6825 78.8068C31.3646 78.5149 30.4205 77.505 29.1899 77.1003C29.2592 77.052 29.5612 77.0265 29.6985 77.1251C30.8411 77.428 31.968 77.7766 32.9695 78.419ZM23.5356 80.4649C23.9862 81.3078 24.0662 82.3314 24.2002 83.2845C24.1696 83.4177 23.9862 83.3146 23.9159 83.3106C23.2234 82.3366 23.018 81.2177 22.8668 80.1013C22.8828 79.8278 22.9 79.5503 23.1537 79.4034C23.7175 79.4772 23.3924 80.0987 23.5356 80.4649ZM18.9938 81.5774C18.9681 81.6916 18.85 81.7876 18.7063 81.8352C18.5481 81.8202 18.3823 81.7354 18.3555 81.6276C18.3566 81.5036 18.5084 81.4573 18.6119 81.4213C18.761 81.4057 18.9043 81.471 18.9938 81.5774ZM96.2569 84.19C96.8523 86.0127 96.7561 88.2826 95.97 90.0394C95.3105 91.6597 93.8681 93.2245 92.0331 94.2586C91.8824 94.2867 91.6989 94.3206 91.5852 94.286C91.2558 93.8773 91.6989 93.4909 91.9361 93.1723C93.4378 91.6532 94.7648 90.0798 95.3041 88.2545C95.6062 86.5741 95.6062 84.7358 95.4307 83.0769C95.47 82.9907 95.615 82.9 95.7168 83.026C95.97 83.3661 96.0493 83.7865 96.2569 84.19ZM47.5218 85.9265C49.3795 87.3184 50.5172 89.0196 52.5727 90.2744C53.2577 90.922 54.1095 91.5115 54.669 92.2668V92.3177H54.5746C52.2471 91.1492 50.1427 89.583 47.9655 88.2036C46.9591 87.4352 46.2393 86.6016 45.3923 85.8221C45.3027 85.5152 45.0613 85.1138 45.3923 84.8644C45.7221 84.6855 46.1041 84.9048 46.4104 85.072L47.5218 85.9265ZM65.821 87.9177C66.299 88.6051 65.3629 89.0921 65.1559 89.7051C64.922 89.8951 65.0765 90.2561 64.7128 90.4017C64.6282 90.4102 64.5424 90.4004 64.4639 90.3736C64.3854 90.3468 64.317 90.3031 64.2654 90.2483C64.1131 89.6477 64.465 89.0915 64.5813 88.5411C64.5658 88.231 64.6366 87.9216 65.0261 87.8165C65.2497 87.6546 65.6134 87.714 65.821 87.9177ZM29.6985 92.0866C29.7747 92.212 29.6791 92.3791 29.5419 92.4744C29.389 92.5404 29.2194 92.4888 29.0945 92.449C28.9502 92.3066 28.7523 92.212 28.8386 92.0338C28.8966 91.9241 29.0285 91.8803 29.1599 91.8523C29.3895 91.8027 29.6186 91.8875 29.6985 92.0866Z" fill="white"/>
<path fill-rule="evenodd" clip-rule="evenodd" d="M55.5256 95.5802C57.7517 96.692 59.5519 98.5166 59.8142 100.627C60.3957 101.312 61.2931 101.759 62.0704 102.308C62.2597 102.464 62.3252 102.722 62.2624 102.983L62.1353 103.216C61.6466 104.929 61.7598 106.947 62.1653 108.701C62.6744 110.401 63.4822 112.032 64.4842 113.62C64.4929 114.192 63.8153 114.612 63.6598 115.197C63.5711 115.369 63.4267 115.518 63.242 115.627C63.0573 115.738 62.8393 115.804 62.6116 115.821C60.798 115.778 59.4248 114.91 57.911 114.397C55.9079 113.698 53.7858 113.254 51.6179 113.077C49.9373 112.381 47.6822 113.106 46.0274 112.455C45.5306 111.748 44.4889 112.225 43.8029 112.144C42.3793 112.556 40.5453 112.556 39.1956 112.041C37.5016 111.607 36.3162 110.202 35.4483 109.064C35.3683 108.901 35.4209 108.739 35.5432 108.649C36.5908 108.019 38.1126 108.034 39.3544 108.338C41.1391 108.222 42.8695 108.402 44.3726 108.985C45.2587 109.147 45.9973 108.627 46.9468 108.833C47.9209 108.959 48.8387 109.229 49.7141 109.66C52.0325 110.142 54.287 110.881 56.8897 110.824C57.7898 110.778 58.964 111.236 59.6554 110.591C60.1334 109.574 58.8369 108.984 58.4485 108.21C55.796 104.877 53.7796 101.351 52.8275 97.4943C52.7073 96.7116 52.4675 95.9086 52.6671 95.1663C52.7151 95.0625 52.7967 94.9711 52.9033 94.9026C53.0098 94.834 53.1374 94.7896 53.2721 94.7753C54.1599 94.725 54.8106 95.1859 55.5256 95.5802Z" fill="black"/>
<path fill-rule="evenodd" clip-rule="evenodd" d="M81.2638 98.0379C81.5443 98.6065 81.416 99.371 80.88 99.8495C80.69 99.8691 80.6147 99.7784 80.5963 99.6948C80.5354 99.1908 80.3134 98.7626 80.055 98.3748C79.9842 98.0379 80.1868 97.7794 80.533 97.6247C80.8375 97.5796 81.0899 97.8173 81.2638 98.0379ZM66.0761 102.516C66.0895 103.187 65.4303 103.705 65.2795 104.38C64.9866 104.798 64.9073 105.31 64.7389 105.803C64.6567 105.847 64.5816 105.904 64.4867 105.906C64.0898 105.295 64.3757 104.539 64.4867 103.939C64.7319 103.342 65.0338 102.761 65.6942 102.36C65.8438 102.307 65.9978 102.379 66.0761 102.516ZM39.6138 109.608C39.7024 109.755 39.4443 109.908 39.293 109.996C39.1327 110.077 38.8994 110.104 38.7202 110.074C38.5673 110.012 38.409 109.884 38.3726 109.789C38.2664 109.588 38.5281 109.58 38.6236 109.505C38.9256 109.398 39.3783 109.398 39.6138 109.608ZM47.203 109.996C47.2164 110.058 47.0951 110.077 47.0463 110.126C46.8388 110.111 46.6521 110.111 46.5373 110.023C46.4837 109.923 46.5861 109.863 46.6644 109.867C46.8597 109.837 47.0657 109.832 47.203 109.996ZM51.8751 111.032C52.3601 111.08 52.9023 111.08 53.4302 111.135C54.4237 111.299 55.505 111.339 56.4475 111.702C56.498 111.752 56.6567 111.798 56.6079 111.936C56.418 112.174 56.086 111.966 55.8489 112.014C54.8308 111.495 53.5369 112.039 52.6052 111.444C51.8446 111.107 50.8672 111.243 50.2209 110.772C50.1205 110.666 50.0879 110.569 50.2209 110.513C50.8136 110.557 51.3339 110.783 51.8751 111.032ZM67.0277 111.394C67.1404 112.104 66.9805 112.938 67.4102 113.595C67.4145 113.675 67.2423 113.701 67.1892 113.673C66.6463 112.951 66.3047 112.185 65.9812 111.444C65.949 111.093 65.9334 110.719 66.3309 110.591C66.8276 110.602 66.8759 111.066 67.0277 111.394ZM61.4699 111.264C61.5482 111.451 61.3005 111.585 61.1524 111.678C60.9513 111.676 60.7769 111.845 60.6117 111.73C60.5157 111.456 60.8794 111.307 61.0869 111.213C61.1996 111.132 61.338 111.185 61.4699 111.264ZM72.3672 118.408C72.3232 118.615 72.0528 118.785 71.8608 118.95C71.7685 118.973 71.643 118.895 71.6366 118.848C71.5357 118.643 71.5958 118.417 71.8608 118.356C71.9681 118.274 72.2835 118.209 72.3672 118.408ZM68.7464 119.884C68.7292 120.299 68.1633 120.622 67.8865 121.023C67.2423 121.709 66.3212 122.434 65.5043 122.988C65.0424 123.425 64.4074 123.616 63.9154 124.025L63.7894 124C63.7798 123.656 64.0254 123.418 64.2662 123.195C65.3064 122.239 66.4484 121.431 67.4102 120.528C67.8205 120.26 68.2416 119.997 68.7464 119.884ZM61.1824 125.733C61.2167 126.024 60.823 126.188 60.5806 126.353C60.4454 126.375 60.2695 126.466 60.167 126.381C60.0887 126.166 60.2378 125.986 60.3902 125.862C60.5634 125.656 60.969 125.429 61.1824 125.733ZM57.6883 129.743C57.706 130.068 57.5375 130.411 57.2441 130.702C56.9421 130.792 56.6267 130.929 56.2919 130.882C56.0388 130.552 56.4116 130.333 56.6079 130.131C56.9255 129.925 57.2757 129.416 57.6883 129.743Z" fill="white"/>
<path fill-rule="evenodd" clip-rule="evenodd" d="M104.558 145.591C106.449 145.591 107.986 145.135 107.986 144.588C107.986 144.025 106.449 143.586 104.558 143.586C102.677 143.586 101.142 144.025 101.142 144.588C101.142 145.135 102.678 145.591 104.558 145.591ZM18.6579 158.362V160.483H8.48047V158.362H10.3708C10.3708 158.362 11.3675 158.413 11.3675 157.419V146.436C11.3675 146.436 11.4382 145.921 10.7377 145.921H8.89732V143.653H98.2456V145.549H16.716C16.716 145.549 15.8213 145.574 15.8213 146.453L15.8111 151.148H17.0212C17.0212 151.148 17.6209 151.182 17.6209 150.644V149.799L19.5327 149.773L19.5123 154.371H17.6205V153.376C17.6205 153.376 17.6205 152.963 17.1736 152.946L15.8213 152.954V157.519C15.8213 157.519 15.7704 158.362 16.7665 158.362H18.6579Z" fill="black"/>
<path fill-rule="evenodd" clip-rule="evenodd" d="M28.6611 159.463C28.6611 159.463 27.5524 159.463 27.5524 158.388L27.5427 155.065H36.0948V150.609C36.0948 150.609 36.2042 148.158 32.5346 148.158H26.058C26.058 148.158 23.2734 147.951 23.2734 150.494V158.361C23.2734 158.361 23.3238 160.482 26.2415 160.482H33.1247C33.1247 160.482 36.0954 160.482 36.0954 158.361V156.731H31.9757V158.361C31.9757 158.361 31.9757 159.463 30.9383 159.463H28.6611ZM51.4544 154.909H47.7848V150.494C47.7848 150.494 47.9372 149.491 47.1862 149.939C46.4116 150.411 44.2064 151.396 44.1356 152.349V158.668H45.6896V160.482H38.4732V158.668H40.1608V149.74H38.6149V148.158H44.1866V149.939C44.1866 149.939 46.3912 148.282 48.3244 148.249C50.2765 148.199 51.4453 148.747 51.4549 150.295V154.909H51.4544ZM79.0077 148.158C79.0077 148.158 82.1396 148.001 82.1396 150.966V158.668H83.3288L83.36 160.482H72.6738C72.6738 160.482 70.0502 160.482 70.0502 158.361V155.033C70.0502 155.033 69.9794 153.294 72.684 153.294L77.9703 153.31V149.83C77.9703 149.83 77.9703 149.07 77.1265 149.061H75.093C75.093 149.061 74.1484 149.035 74.1484 149.897L74.158 151.727H70.2937V149.905C70.2937 149.905 70.0813 148.158 72.8057 148.158H79.0077V148.158ZM67.7425 154.909H64.0633V150.494C64.0633 150.494 64.2157 149.491 63.4534 149.939C62.6895 150.411 60.4849 151.396 60.4329 152.349V158.668H61.9676V160.482H54.7389V158.668H56.4377L56.4581 149.74H54.8912V148.158H60.4527L60.4731 149.939C60.4731 149.939 62.6692 148.282 64.611 148.249C66.5426 148.199 67.7023 148.747 67.742 150.295V154.909H67.7425ZM98.364 154.909H94.6868V150.494C94.6868 150.494 94.8374 149.491 94.085 149.939C93.3125 150.411 91.0976 151.396 91.0343 152.349V158.668H92.5697V160.482H85.3617V158.668H87.0397V149.74H85.5044L85.5148 148.158H91.076V149.939C91.076 149.939 93.2724 148.282 95.214 148.249C97.1468 148.199 98.3144 148.747 98.3648 150.295V154.909H98.364ZM106.733 158.296C106.733 158.296 106.794 158.669 107.221 158.669H108.155V160.483H100.968V158.669H101.904C101.904 158.669 102.464 158.669 102.432 158.264V150.097C102.432 150.097 102.512 149.649 102.076 149.649H101.051L101.06 148.159H108.288V149.666H107.11C107.11 149.666 106.733 149.649 106.733 150.046V158.296Z" fill="black"/>
<path fill-rule="evenodd" clip-rule="evenodd" d="M27.5547 153.965H32.0074L31.9774 150.181C31.9774 150.181 32.0283 149.352 30.8697 149.352H28.5202C28.5202 149.352 27.5547 149.352 27.5547 150.098V153.965ZM77.9731 154.372V159.465H75.1365C75.1365 159.465 74.252 159.465 74.252 158.67V155.159C74.252 155.159 74.222 154.372 75.2181 154.372H77.9731Z" fill="#F4EA27"/>
</svg>
