<svg width="150" height="150" viewBox="0 0 150 150" fill="none" xmlns="http://www.w3.org/2000/svg">
<path fill-rule="evenodd" clip-rule="evenodd" d="M0 0H150V150H0V0Z" fill="white"/>
<path fill-rule="evenodd" clip-rule="evenodd" d="M76.2983 44.0002C73.5116 47.4367 65.5632 58.5313 64.6574 59.9678C62.9135 62.7202 62.7594 64.0541 62.7081 64.9427C62.6575 65.8151 62.6575 67.3878 64.0761 68.6703C66.4527 70.79 69.7857 70.4476 72.7435 70.4476H97.1047C98.1474 70.4476 98.4556 70.1395 99.0198 69.3877C100.968 66.4127 101.841 63.1817 101.841 60.2923C101.841 54.1034 97.8237 46.3083 87.6513 42.7863L86.505 44.4274C94.574 48.2561 97.9085 53.2653 97.9085 60.2744C97.9599 62.1553 97.4634 64.1895 96.2323 66.0703H72.5373C71.1187 66.0703 70.9133 64.4634 71.4261 63.5568C73.4575 59.9415 75.7246 56.4638 78.2126 53.1462C80.6063 49.9494 82.965 46.9573 85.4443 43.829C86.1112 42.9575 85.6661 42.1193 84.3331 41.8462C81.5635 41.2649 78.6749 40.8548 75.1699 40.8548C55.7332 40.8548 48.6206 52.0179 48.6206 60.2923C48.6206 69.2679 55.7838 79.6792 75.2213 79.6792C86.0085 79.6792 93.0698 76.2077 97.1552 71.7464H93.0347C89.4613 75.0459 83.3238 77.389 75.2213 77.389C58.758 77.389 52.6897 68.1395 52.6897 60.1725C52.8088 53.0606 59.3222 43.2477 75.6322 42.9232C76.2477 42.9061 76.7271 43.4703 76.2983 44.0002V44.0002ZM134.766 95.2352C135.74 95.3721 136.493 96.141 136.493 97.0483C136.493 98.0724 135.57 98.8934 134.44 98.8934H113.551V85.2339H107.395V98.9284H96.0782C93.0184 98.9284 92.3865 97.0647 92.3865 95.355V85.1491H82.1806C81.1713 85.8331 80.197 86.5856 79.1542 87.2175L73.1023 90.9442L65.2387 85.2005H52.9979V88.6369H57.4249V86.7553L67.8363 94.2274L60.7245 98.688H52.9971V102.124H61.9377C62.8948 101.475 63.8014 100.791 64.7928 100.193L71.0152 96.4149L78.913 102.057H87.9065L76.0236 93.1154L82.1277 89.1334C83.4273 88.2774 84.7953 87.5607 86.1283 86.7747V95.7667C86.1283 99.5619 87.1026 102.194 94.7444 102.194L137.911 102.093C141.244 102.142 143.381 99.8358 143.381 97.0499C143.381 94.2788 140.919 92.0057 137.911 92.0057H122.32C122.526 90.1085 124.165 88.5194 125.824 88.5194H141.603L141.553 85.2199H124.816C119.516 85.2199 115.277 89.6135 115.157 94.7254C115.141 95.0842 115.379 95.306 115.773 95.306L134.766 95.2352V95.2352ZM52.9979 95.1846V91.6796H56.0406V95.1846H52.9979ZM52.9979 85.2005H41.441C38.3127 85.2005 35.9019 86.0214 34.1245 87.4222C30.9277 89.9528 29.9021 92.6189 29.9363 93.8165H34.1074C32.2779 95.1846 31.0468 96.8242 30.3978 98.723H16.7204C14.259 98.723 12.6684 96.9798 12.6684 95.2865V85.0806H6.61719V95.6803C6.61719 99.4918 10.242 102.124 16.0535 102.124H52.9979V98.688H38.3298C38.3983 96.9448 40.2613 95.1846 41.9538 95.1846H52.9979V91.6796H38.1586C37.954 90.654 39.8683 88.6369 41.3383 88.6369H52.9979V85.2005V85.2005Z" fill="black"/>
</svg>
