<svg width="150" height="150" viewBox="0 0 150 150" fill="none" xmlns="http://www.w3.org/2000/svg">
<path fill-rule="evenodd" clip-rule="evenodd" d="M0 0H150V150H0V0Z" fill="white"/>
<path fill-rule="evenodd" clip-rule="evenodd" d="M6.94715 111.868L6.90046 112.616H7.60005C8.11365 112.616 8.76655 112.662 8.76655 113.315L8.5331 125.96C8.5331 126.427 8.29964 126.941 7.3666 126.941H6.66779L6.62109 127.687H11.3338V126.941H10.5408C9.93383 126.941 9.51439 126.754 9.51439 125.96L9.74707 113.828L14.7874 126.893H15.3002L20.3864 113.688L20.6199 125.96C20.6199 126.38 20.1997 126.941 19.5468 126.941H18.567V127.687H24.4929V126.941H23.7925C23.2797 126.941 22.6727 126.66 22.6727 126.006L22.4393 113.502C22.4393 113.083 22.9062 112.616 23.3723 112.616H24.2587V111.868H20.0129L15.6263 123.348L11.2404 111.868H6.94715ZM26.9185 121.994H33.937C33.937 118.677 32.4716 115.989 29.2515 115.989C26.2656 115.989 24.5661 118.677 24.5661 121.994C24.5661 125.311 25.9847 127.999 29.2515 127.999C32.4242 127.999 33.358 126.427 33.8444 123.912L32.751 123.907C32.6576 124.84 32.0514 126.941 29.7184 126.987C27.0594 127.04 26.8718 123.627 26.9185 121.994ZM39.6574 127.687V127.081H39.1905C38.7703 127.081 38.024 126.941 38.024 126.1V119.988C38.024 118.074 39.0037 117.375 39.9835 117.375C40.3562 117.375 40.5905 117.562 40.4971 118.262C40.4037 118.962 41.0107 119.429 41.5235 119.381C42.0363 119.334 42.69 119.241 42.5966 117.935C42.5032 116.629 41.757 116.023 40.4504 116.023C39.424 116.023 38.5835 116.675 38.3501 117.002C38.0785 117.382 37.7439 117.236 37.6972 116.817C37.6505 116.396 37.4637 115.976 36.9976 116.116C35.9704 116.443 35.0373 116.583 34.2444 116.63V117.097C36.2046 117.003 36.0171 117.983 36.0171 118.449V126.102C36.0171 126.942 35.2708 127.082 34.8506 127.082H34.1977V127.689H39.6574V127.687V127.687ZM50.0081 116.732C49.3202 116.23 48.4556 115.943 47.4027 115.943C44.4168 115.943 42.7172 118.631 42.7172 121.948C42.7172 125.265 44.1359 127.936 47.4027 127.953C50.296 127.967 50.9956 126.333 51.4827 123.819L50.3886 123.815C50.2952 124.748 49.9684 126.894 47.8688 126.942C45.2098 126.999 45.0222 123.581 45.0689 121.949C45.0689 120.922 45.209 116.816 47.4486 116.816C49.3614 116.816 50.5287 118.168 50.5287 119.708H51.1349V115.789H50.6221L50.0081 116.732V116.732ZM72.0408 125.26V112.242C72.0408 111.705 71.7607 111.261 71.2946 111.401C70.2681 111.728 69.3343 111.868 68.5413 111.915V112.382C69.8946 112.289 70.0347 112.708 70.0347 113.175V117.188C69.4277 116.628 68.7281 116.068 67.4682 116.068C65.8815 116.068 62.9423 117.328 62.9423 121.761C62.9423 127.593 66.3484 127.967 67.3748 127.967C68.4013 127.967 69.7545 127.128 70.0347 126.685C70.058 126.591 70.1973 126.475 70.2448 126.685C70.2915 127.104 70.5942 127.735 71.0611 127.594C71.954 127.309 72.8789 127.137 73.8143 127.082V126.615C71.8541 126.707 72.0408 125.726 72.0408 125.26ZM99.2906 121.015V119.94H93.132V121.015H99.2906ZM84.6856 123.72V127.687H85.1992L85.6661 126.66C86.133 127.081 87.1112 127.78 88.3719 127.78C89.6325 127.78 91.4052 127.081 92.1048 125.774C92.8052 124.466 92.4783 122.32 90.8916 121.667C89.5026 121.096 88.2831 120.41 87.3454 119.94C86.5991 119.567 86.4186 118.821 86.505 118.355C86.6451 117.609 87.2987 116.815 88.7921 116.768C90.2846 116.721 91.0309 117.981 91.2177 119.428H91.7313V115.695H91.2644L90.7508 116.582C89.7703 115.928 89.3508 115.835 88.4645 115.835C87.5765 115.835 86.084 116.302 85.2435 117.609C84.4047 118.915 84.6373 120.967 86.6435 121.808C88.6497 122.647 89.5843 123.16 90.1438 123.441C90.7033 123.721 91.0301 124.84 90.6574 125.494C90.2839 126.148 89.5843 126.894 88.4645 126.894C87.3446 126.894 85.5704 126.1 85.1509 123.721H84.6856V123.72V123.72ZM101.391 125.307V113.781C101.391 112.615 100.178 112.473 99.4773 112.473V111.867H106.476C109.742 111.867 110.256 114.154 110.256 115.508C110.256 116.861 109.136 118.866 108.016 119.148C110.256 119.615 111.002 121.434 111.002 122.974C110.91 127.547 106.942 127.687 105.216 127.687H99.4766V127.033C101.344 127.033 101.391 125.96 101.391 125.307V125.307ZM129.946 119.194V126.1C129.946 126.941 129.2 127.081 128.781 127.081H128.501V127.687H133.587V127.081H133.12C132.7 127.081 131.954 126.941 131.954 126.1V119.241C131.907 116.115 129.108 116.022 128.127 116.022C127.101 116.022 125.981 116.674 125.747 117.001C125.476 117.381 125.14 117.235 125.094 116.816C125.047 116.395 124.86 115.975 124.394 116.115C123.368 116.442 122.435 116.582 121.642 116.629V117.096C123.601 117.002 123.414 117.982 123.414 118.448V126.101C123.414 126.942 122.667 127.082 122.248 127.082H121.594V127.688H127.054V127.082H126.587C126.168 127.082 125.42 126.942 125.42 126.101V119.988C125.42 118.963 125.793 117.329 127.707 117.189C129.62 117.048 129.946 118.308 129.946 119.194V119.194ZM134.613 119.428L135.454 116.255H143.386L136.573 127.034H140.212C141.053 127.034 141.706 126.707 142.593 124.561H142.966L142.22 127.688H134.1L140.865 116.908H137.833C137.087 116.908 136.247 116.908 135.079 119.428H134.613V119.428ZM54.9153 121.994H61.9338C61.9338 118.677 60.4677 115.989 57.2483 115.989C54.2624 115.989 52.5629 118.677 52.5629 121.994C52.5629 125.311 53.9823 127.999 57.2483 127.999C60.4217 127.999 61.3548 126.427 61.8419 123.912L60.7478 123.907C60.6544 124.84 60.0482 126.941 57.7152 126.987C55.0562 127.04 54.8686 123.627 54.9153 121.994ZM76.1925 121.994H83.2117C83.2117 118.677 81.7464 115.989 78.527 115.989C75.5403 115.989 73.8408 118.677 73.8408 121.994C73.8408 125.311 75.2602 127.999 78.527 127.999C81.6989 127.999 82.632 126.427 83.1183 123.912L82.0257 123.907C81.9331 124.84 81.3269 126.941 78.9924 126.987C76.3341 127.04 76.1473 123.627 76.1925 121.994V121.994ZM114.363 121.994H121.381C121.381 118.677 119.916 115.989 116.695 115.989C113.71 115.989 112.011 118.677 112.011 121.994C112.011 125.311 113.429 127.999 116.695 127.999C119.869 127.999 120.802 126.427 121.288 123.912L120.196 123.907C120.103 124.84 119.495 126.941 117.162 126.987C114.503 127.04 114.316 123.627 114.363 121.994Z" fill="black"/>
<path fill-rule="evenodd" clip-rule="evenodd" d="M26.9614 121.062C26.9614 120.036 26.868 117.002 29.3411 117.002C31.3006 117.002 31.5807 119.522 31.5807 121.062H26.9614ZM70.0301 123.862C69.9834 126.429 68.6301 127.222 67.5103 127.222C64.9906 127.175 65.1773 123.349 65.1773 121.716C65.1773 120.083 65.2707 116.863 67.557 117.142C69.8433 117.423 70.0301 119.85 70.0301 121.296V123.862V123.862ZM103.393 126.943H105.772C107.546 126.943 108.946 125.543 108.946 123.208C108.946 120.877 107.593 119.802 106.053 119.802H103.393V126.943V126.943ZM103.393 119.056H105.726C107.546 119.056 108.152 117.516 108.152 115.51C108.152 113.876 107.453 112.617 105.726 112.617H103.393V119.056ZM54.959 121.062C54.959 120.036 54.8656 117.002 57.3387 117.002C59.2989 117.002 59.5783 119.522 59.5783 121.062H54.959ZM76.2361 121.062C76.2361 120.036 76.1435 117.002 78.6166 117.002C80.5761 117.002 80.8554 119.522 80.8554 121.062H76.2361V121.062ZM114.405 121.062C114.405 120.036 114.313 117.002 116.786 117.002C118.745 117.002 119.026 119.522 119.026 121.062H114.405Z" fill="white"/>
<path fill-rule="evenodd" clip-rule="evenodd" d="M74.5181 101.615C52.2869 101.614 34.2656 83.7887 34.2695 61.8026C34.2719 39.8173 52.2978 21.9969 74.529 22C96.761 22.0031 114.781 39.8282 114.778 61.8135C114.774 83.7996 96.7501 101.62 74.5181 101.615V101.615Z" fill="black"/>
<path fill-rule="evenodd" clip-rule="evenodd" d="M41.5083 80.908L42.2157 80.347C40.1356 76.5354 38.3038 70.8142 38.201 70.6943C38.1544 70.8562 38.994 76.1704 41.5083 80.908Z" fill="black"/>
<path fill-rule="evenodd" clip-rule="evenodd" d="M75.0787 25.9556L80.5478 57.7873L74.8359 61.1421L74.6382 25.9688C74.6382 25.5462 74.3394 25.5501 74.2958 25.9688L71.0531 59.3336L68.6532 57.9398L73.8017 25.9633C53.8661 26.0878 38.1234 42.0944 38.1211 61.8767C38.1203 68.1247 40.086 74.6778 42.9147 79.7983L68.0314 58.9048L70.4392 60.2837L42.2276 80.5648C41.5506 81.0356 41.7537 81.2714 42.5031 80.8551L73.9955 62.6673L73.9947 69.2165L43.5902 80.8146C49.9495 91.2182 61.241 97.8406 74.4118 97.8421C87.5639 97.8437 99.039 91.205 105.408 80.8286L75.0437 69.2383V62.6875L105.331 80.1563C106.018 80.5438 106.226 80.3329 105.577 79.8691L78.6 60.3001L81.0061 58.9203L106.114 79.8333C108.987 74.6841 110.892 68.1115 110.894 61.8097C110.896 42.2835 94.6563 26.4886 75.0787 25.9556V25.9556Z" fill="white"/>
<path fill-rule="evenodd" clip-rule="evenodd" d="M113.05 54.8792C111.526 46.3285 107.141 40.0112 107.141 40.0112C100.185 29.6956 88.3321 22.9635 74.5995 22.9619C52.8056 22.9588 35.1867 40.6252 35.1836 62.4206C35.1828 67.5535 36.4925 72.4569 38.2745 76.9563C39.0932 79.0216 42.567 84.9787 42.7242 85.1063C42.7079 84.918 40.2566 80.1516 38.9671 76.9812C37.8621 74.263 36.4863 68.8453 36.4871 62.5622C36.4894 41.4189 53.632 24.2809 74.7738 24.2841C85.8217 24.2856 96.2012 29.6792 102.571 36.6712C103.928 38.1607 105.101 39.5124 106.152 40.8866C106.152 40.8859 108.921 43.478 113.05 54.8792V54.8792Z" fill="white"/>
<path fill-rule="evenodd" clip-rule="evenodd" d="M111.814 61.7076C111.814 68.2522 109.764 75.0341 106.741 80.3545C106.91 80.7934 106.752 81.0191 106.239 81.149C99.6514 91.7627 87.8876 98.708 74.495 98.7065C61.9304 98.7049 51.8793 91.9549 48.702 88.4671C46.1231 85.6368 44.2119 83.5202 42.7357 81.1171L41.8711 81.4502C47.5238 92.26 59.3826 100.116 74.5082 100.117C95.9752 100.12 113.116 82.7614 113.117 61.8088C113.117 61.8088 113.782 55.0744 107.936 45.4902C107.936 45.491 112.012 52.911 111.814 61.7076Z" fill="white"/>
<path fill-rule="evenodd" clip-rule="evenodd" d="M72.0138 61.2185L66.6568 65.5927C66.6568 65.5927 65.5261 66.5266 67.1486 65.6908L73.6355 62.1524L72.0138 61.2185ZM72.5539 60.1376L74.1266 36.2528C74.1266 36.2528 74.2736 33.3533 74.4215 36.3018C74.5662 39.1998 74.1266 61.1695 74.1266 61.1695L72.5539 60.1376V60.1376ZM75.4044 62.1524L77.1249 61.1695L97.4706 74.7839C97.4706 74.7839 98.9951 75.8158 97.2745 74.931L75.4044 62.1524Z" fill="black"/>
</svg>
