<svg width="150" height="76" viewBox="0 0 150 76" fill="none" xmlns="http://www.w3.org/2000/svg">
<g clip-path="url(#clip0)">
<path d="M97.3533 4.07554C95.0973 3.20159 92.7668 2.40217 90.4363 1.81954C87.1573 1.02012 83.8851 0.512013 80.5315 0.220699C78.9327 0.0784286 77.4016 0.00390625 75.796 0.00390625H75.6537C73.9804 0.00390625 72.5238 0.0784286 70.9182 0.220699C67.5714 0.505239 64.2992 1.01335 61.0202 1.81954C58.6897 2.40217 56.3592 3.20159 54.1032 4.07554C54.0287 4.15006 53.9609 4.15006 53.9609 4.15006C53.9609 4.15006 54.2523 21.0463 54.469 29.4199C54.5436 31.8927 54.9772 34.2977 55.7766 36.6283C56.725 39.2501 58.0326 41.7974 59.5637 44.1279C61.1625 46.533 63.134 48.7144 65.39 50.5368C66.2639 51.2617 67.2124 51.9189 68.1541 52.576C69.6852 53.5245 71.284 54.3239 72.8896 54.9811C73.3977 55.1979 73.9058 55.4147 74.3462 55.5637C74.7798 55.706 75.2201 55.855 75.7282 55.9973C76.1618 55.855 76.6767 55.7805 77.1103 55.5637C77.5439 55.4215 77.9842 55.1979 78.5669 54.9811C80.2402 54.3239 81.7713 53.5245 83.3024 52.576C84.2509 51.9934 85.1926 51.2685 86.0665 50.5368C88.3225 48.7144 90.2872 46.533 91.8928 44.1279C93.4239 41.7974 94.7315 39.2501 95.6799 36.6283C96.4793 34.2977 96.9197 31.8927 96.9874 29.4199C97.2042 21.0463 97.4956 4.15006 97.4956 4.15006C97.4278 4.07554 97.4278 4.07554 97.3533 4.07554Z" fill="url(#paint0_linear)"/>
<path d="M75.1458 47.038H62.7683C63.7167 48.0542 64.6584 49.0027 65.7559 49.8766C66.6299 50.6015 67.5038 51.2587 68.4523 51.8413C69.9089 52.7152 71.44 53.5146 73.0388 54.1718C73.5469 54.3886 73.9873 54.6054 74.4209 54.7544C74.7122 54.829 75.0035 54.9712 75.2203 55.0457L75.1458 47.038ZM75.1458 37.7904C73.2556 37.6482 71.5077 36.9165 70.1189 35.6767C70.0444 35.6022 69.9766 35.5344 69.8276 35.4599H56.1426C56.2171 35.7512 56.3594 36.0425 56.4339 36.3339C56.942 37.7904 57.5992 39.247 58.324 40.5545H75.1458V37.7904ZM96.3372 23.5905H84.251V28.9087H96.1949C96.2627 27.3776 96.2627 25.562 96.3372 23.5905ZM96.554 12.5273H75.9452V17.622H96.4794C96.4794 15.8741 96.4794 14.1262 96.554 12.5273Z" fill="#B12B28"/>
<path d="M96.3374 34.4403C96.0461 35.5311 95.6803 36.5541 95.6803 36.5541C94.7318 39.1759 93.4243 41.7232 91.8932 44.0537C90.2944 46.4588 88.3229 48.6402 86.0669 50.4627C85.193 51.1876 84.2445 51.8447 83.3028 52.5019C81.7717 53.4503 80.1729 54.2497 78.5672 54.9069C78.0591 55.1237 77.551 55.3405 77.1107 55.4895C76.6771 55.6318 76.2367 55.7808 75.7286 55.9231C75.295 55.7808 74.7802 55.7063 74.3466 55.4895C73.913 55.3473 73.4726 55.1237 72.89 54.9069C71.2166 54.2497 69.6855 53.4503 68.1544 52.5019C67.206 51.9192 66.2643 51.1943 65.3903 50.4627C63.5002 48.9316 61.82 47.1837 60.3635 45.219L60.438 45.2935C61.8946 47.3327 63.6424 49.1551 65.5326 50.6794C66.4065 51.4043 67.355 52.0615 68.3712 52.7186C69.8278 53.6671 71.3589 54.4665 72.9577 55.1237C73.4658 55.3405 73.974 55.5573 74.4143 55.7063C74.8547 55.8554 75.2883 55.9976 75.7964 56.1399C76.23 55.9976 76.7448 55.8486 77.1784 55.7063C77.612 55.564 78.0524 55.3405 78.635 55.1237C80.3084 54.4665 81.8395 53.6671 83.3705 52.7186C84.319 52.136 85.2607 51.4111 86.1347 50.6794C88.3906 48.857 90.3553 46.6756 91.9609 44.2705C93.492 41.94 94.7996 39.3927 95.748 36.7709C95.8971 36.0392 96.1139 35.2398 96.3374 34.4403ZM96.6965 5.09207C96.622 5.09207 96.622 5.01755 96.5542 5.01755H96.4797C94.2982 4.14361 92.0355 3.41871 89.7795 2.83608C86.6495 2.11118 83.4451 1.52855 80.2406 1.30498C78.6418 1.16271 77.2529 1.08819 75.6541 1.08819H75.5118C73.913 1.08819 72.5242 1.16271 70.9253 1.30498C67.7209 1.5963 64.5164 2.1044 61.3864 2.83608C59.1305 3.41871 56.9422 4.14361 54.7607 5.01755C52.5793 5.8915 54.6862 5.01755 54.6862 5.09207V4.80076L54.8285 4.72624C57.01 3.85229 59.1982 3.12739 61.4542 2.54476C64.5841 1.81986 67.7886 1.23723 70.9931 1.01367C72.5919 0.871397 73.9807 0.796875 75.5796 0.796875H75.7218C77.3207 0.796875 78.7095 0.871397 80.3084 1.01367C83.5128 1.30498 86.7173 1.81309 89.8472 2.54476C92.1032 3.12739 94.3592 3.85229 96.5475 4.72624H96.622C96.6965 4.72624 96.6965 4.80076 96.7643 4.80076L96.6965 5.09207ZM75.146 7.13128C73.7639 7.13128 72.4496 7.2058 70.9931 7.34807C67.7886 7.63938 64.5841 8.14749 61.4542 8.87917C59.1982 9.4618 56.9422 10.1867 54.754 11.0606V10.7693C56.9354 9.89538 59.1237 9.17048 61.4542 8.58785C64.5841 7.86295 67.7886 7.28032 70.9931 7.05675C72.3751 6.91448 73.6894 6.91448 75.146 6.83996V7.13128Z" fill="#613E18"/>
<path d="M90.5858 38.8109V38.9531C90.5858 39.0276 90.5858 39.0276 90.5112 39.0954C90.0031 39.2377 89.5628 39.4612 89.2037 39.7525L89.1292 39.8271V39.7525C89.1292 39.678 89.2037 39.6103 89.2714 39.5357C89.5628 39.2444 90.0031 39.0276 90.5858 38.8109C90.5858 38.8786 90.5858 38.8786 90.5858 38.8109ZM88.1807 37.4288C87.8149 37.5711 87.4558 37.8624 87.1645 38.1537C86.9477 38.3705 86.7987 38.5873 86.7309 38.8786V38.9531C86.8054 38.7363 86.9477 38.5195 87.1645 38.296C87.4558 38.0047 87.8216 37.7133 88.1807 37.5711L88.2552 37.4965L88.1807 37.4288ZM85.6334 36.9139C85.1253 37.2052 84.6172 37.7133 84.3259 38.296C84.1836 38.5873 84.1091 38.8786 84.1091 39.2444V39.319C84.1091 39.0276 84.1836 38.7363 84.3259 38.445C84.6172 37.8624 85.0508 37.4288 85.5657 37.1375C85.6402 36.9952 85.6402 36.9207 85.6402 36.7716C85.7011 36.8462 85.7011 36.8462 85.6334 36.9139ZM82.3544 37.5711C82.1376 37.7133 81.9886 37.9369 81.8463 38.1537C81.555 38.6618 81.4127 39.2444 81.4805 39.8271C81.4805 39.319 81.6227 38.8109 81.8463 38.3705C81.9886 38.1537 82.1376 37.9369 82.2799 37.7879C82.3544 37.7133 82.3544 37.6456 82.3544 37.5711ZM77.0362 41.9408C77.0362 41.9408 77.1108 41.9408 77.0362 41.9408C76.8194 41.724 76.6704 41.4327 76.6704 41.2159C76.5959 41.5072 76.7449 41.7985 76.9617 42.0153C76.9685 42.0153 77.0362 42.0153 77.0362 41.9408ZM88.1062 31.3112C87.7404 31.4535 87.449 31.677 87.2322 31.9683C87.0155 32.1851 86.7987 32.551 86.7241 32.8423V32.9168C86.8664 32.6255 87.0155 32.3342 87.2322 32.1174C87.449 31.8261 87.7404 31.6093 88.1062 31.4602C88.1807 31.3857 88.1807 31.318 88.1807 31.1689C88.1807 31.2367 88.1807 31.3112 88.1062 31.3112ZM91.3852 31.8193C90.9516 31.8938 90.5857 32.0361 90.2199 32.3274C89.9286 32.5442 89.7118 32.8355 89.495 33.1268C89.495 33.1268 89.4205 33.2013 89.495 33.2691C89.6373 32.9778 89.8608 32.761 90.1522 32.6119C90.518 32.3206 90.8771 32.1784 91.3174 32.1038C91.392 32.1038 91.3919 32.0293 91.3919 32.0293V31.8193C91.4597 31.8193 91.4597 31.8193 91.3852 31.8193ZM93.858 33.4927C93.858 33.4927 93.858 33.5672 93.858 33.4927C93.3499 33.5672 92.9095 33.7095 92.5504 34.0008C92.4759 34.0753 92.3336 34.143 92.2591 34.2176L92.1846 34.2921L92.2591 34.3666C92.3336 34.2921 92.4014 34.2243 92.4759 34.2243C92.8417 33.933 93.2753 33.7162 93.7834 33.7162C93.858 33.7095 93.858 33.5672 93.858 33.4927ZM79.2245 37.6456C79.2245 37.7133 79.2245 37.7133 79.2245 37.6456C79.2245 37.9369 79.0077 38.1537 78.7909 38.2282C78.4996 38.3705 78.1337 38.3027 77.9169 38.086C77.7747 38.3027 77.4834 38.3773 77.1921 38.3027C76.9753 38.2282 76.7585 38.1605 76.6839 37.9369C76.6094 37.8624 76.6094 37.7201 76.6094 37.7201C76.3926 37.7201 76.1013 37.7946 75.8845 37.7946V38.0114C76.1013 38.0114 76.3926 38.0114 76.6094 37.9369C76.6094 38.0114 76.6839 38.0792 76.6839 38.1537C76.8262 38.296 76.9753 38.445 77.1921 38.5195C77.4834 38.5941 77.7747 38.445 77.9169 38.3027C78.1337 38.5195 78.4996 38.5941 78.7909 38.445C79.0077 38.3705 79.1567 38.1537 79.2245 37.9369V37.6456ZM79.8816 43.98C79.5903 44.1968 79.1567 44.1968 78.8654 43.98C78.7231 43.9055 78.6486 43.7632 78.4996 43.6142L78.4251 43.5396C78.2083 43.7564 77.917 43.8309 77.6256 43.8309C77.3343 43.8309 76.9685 43.6142 76.8262 43.3974C76.6839 43.1806 76.6094 42.9638 76.6094 42.7402C76.6094 43.0315 76.6839 43.3228 76.8262 43.6142C76.9685 43.9055 77.2598 44.0477 77.5511 44.1223C77.8424 44.1223 78.1337 44.0477 78.4251 43.8309C78.4251 43.8309 78.4996 43.8309 78.4996 43.9055C78.5741 44.0477 78.7164 44.1968 78.8654 44.2713C79.1567 44.4881 79.5903 44.4881 79.8816 44.2713C80.1729 44.0545 80.3897 43.6887 80.3897 43.3228C80.3152 43.5396 80.1729 43.8309 79.8816 43.98ZM87.449 45.5111C87.2322 45.5856 87.0155 45.7279 86.7919 45.8769C86.5006 46.0937 86.2093 46.4596 86.067 46.8254C86.2093 46.5341 86.4328 46.2428 86.7241 46.026C86.9409 45.8837 87.1577 45.8092 87.3813 45.6601C87.5236 45.7279 87.5236 45.5788 87.449 45.5111C87.5236 45.5111 87.5236 45.5111 87.449 45.5111ZM85.7757 44.4881C85.7757 44.5626 85.7011 44.5626 85.7757 44.4881C85.0508 44.7049 84.4681 45.1453 84.1023 45.7956V45.8702H84.1768C84.5427 45.2875 85.0508 44.8539 85.7079 44.6304C85.7011 44.7049 85.7757 44.6371 85.7757 44.4881ZM82.7203 44.2713C82.4289 44.5626 82.1376 44.8539 81.9954 45.2198C81.8531 45.5111 81.7786 45.8024 81.8531 46.1682V46.2428C81.8531 45.9514 81.9276 45.7347 81.9954 45.5179C82.2122 45.152 82.4289 44.8607 82.7203 44.5694C82.7203 44.4136 82.7948 44.3458 82.7203 44.2713ZM80.0984 45.362C79.8071 45.7279 79.6648 46.1615 79.7326 46.6696C79.7326 46.3037 79.8071 45.8701 80.0984 45.5788C80.1729 45.4366 80.1729 45.362 80.0984 45.362C80.0984 45.2875 80.0984 45.2875 80.0984 45.362ZM78.7841 47.9094C78.8586 47.8348 78.8586 47.8348 78.7841 47.7671C78.7096 47.5503 78.5673 47.4012 78.5673 47.1845C78.4928 47.0422 78.4928 46.8186 78.4928 46.6018C78.4928 46.8186 78.4928 47.0354 78.5673 47.3267C78.6418 47.5435 78.6419 47.7671 78.7841 47.9094ZM80.0984 50.4567C79.8816 50.6735 79.5903 50.6735 79.3735 50.5989C79.1567 50.5244 78.9399 50.3821 78.7909 50.1654H78.7164C78.5741 50.5312 78.2828 50.748 77.9169 50.8902C77.7002 50.8902 77.4088 50.8157 77.2598 50.6735C77.1108 50.5312 76.9685 50.3076 76.9685 50.0908C76.9685 50.6735 77.043 50.748 77.2598 50.8902C77.4766 51.0325 77.6934 51.107 77.9847 51.107C78.3505 50.9648 78.6419 50.7412 78.7841 50.3821C78.7841 50.3821 78.8586 50.3076 78.8586 50.3821C79.0009 50.5989 79.2245 50.748 79.4413 50.8157C79.7326 50.8902 80.0239 50.8157 80.1662 50.6735C80.383 50.4567 80.4575 50.1653 80.4575 49.874C80.3897 50.0976 80.2407 50.3144 80.0984 50.4567ZM77.2598 49.3659C77.3343 49.3659 77.3343 49.2914 77.3343 49.2914V49.2169C77.043 49.0746 76.7517 48.7833 76.7517 48.492C76.7449 48.7833 76.9685 49.1491 77.2598 49.3659ZM55.9938 15.1466C55.9938 15.1466 56.0683 15.0721 55.9938 15.0721C55.9193 14.9298 55.9193 14.8553 55.9193 14.7062C55.9261 14.7808 55.9938 14.923 55.9938 15.1466ZM56.651 26.6502C56.7255 26.5756 56.7255 26.5756 56.7255 26.5079C56.651 26.3656 56.5832 26.2911 56.5087 26.142C56.5087 26.0675 56.4342 25.9998 56.4342 25.8507C56.4342 25.993 56.4342 26.2166 56.5087 26.3588C56.5019 26.5011 56.5765 26.5756 56.651 26.6502ZM59.7064 27.5986C59.7064 27.8899 59.5641 28.1067 59.2728 28.1812C59.056 28.3235 58.7647 28.398 58.4734 28.3235C58.2566 28.249 58.1075 28.1067 57.9653 27.9577C57.8908 27.8832 57.823 27.9577 57.823 28.0322C57.6807 28.1067 57.4572 28.249 57.3149 28.3235C56.9491 28.4658 56.5155 28.398 56.2987 28.0322C56.1564 27.8899 56.1564 27.6664 56.0819 27.5241C56.0819 27.8154 56.1564 28.0322 56.2242 28.249C56.441 28.6148 56.8813 28.6826 57.2404 28.5403C57.4572 28.4658 57.6062 28.398 57.7485 28.249C57.823 28.1745 57.823 28.1067 57.8908 28.1745C58.033 28.3167 58.2566 28.4658 58.3989 28.5403C58.6902 28.6148 58.9815 28.5403 59.1983 28.398C59.6386 28.3235 59.7809 27.9577 59.7064 27.5986ZM58.907 21.9146C58.907 22.2059 58.7647 22.4227 58.4734 22.5717C58.0398 22.8631 57.5249 22.714 57.3081 22.2804C57.0913 21.8468 57.1659 22.2059 57.1659 22.2804C56.9491 22.4227 56.5832 22.5717 56.2919 22.4972C56.0006 22.4972 55.7093 22.2804 55.6348 21.9891C55.5602 21.9146 55.5602 21.8468 55.5602 21.6978C55.5602 21.8401 55.5602 21.9891 55.6348 22.1314C55.7093 22.4227 56.0006 22.6395 56.2919 22.6395C56.5832 22.6395 56.9491 22.565 57.1659 22.3482H57.3081C57.5249 22.7818 58.1075 22.9308 58.5479 22.714C58.7647 22.6463 58.907 22.4972 58.907 21.9146ZM56.1429 20.8239C56.2174 20.8239 56.2174 20.8239 56.1429 20.8239C56.2174 20.7493 56.2174 20.7493 56.2174 20.6816C56.0751 20.5393 56.0006 20.3903 56.0006 20.1735C55.9938 20.3835 56.0683 20.6071 56.1429 20.8239ZM60.5126 22.2804C60.2213 22.5717 60.0045 23.0053 59.8554 23.4457C59.7809 23.737 59.7809 24.1028 59.8554 24.3942C59.8554 24.1774 59.8554 23.886 59.93 23.6693C60.0045 23.2357 60.2213 22.8698 60.5126 22.504V22.2804C60.5126 22.2804 60.5803 22.2059 60.5126 22.2804ZM63.2767 21.332C62.4027 21.8401 61.9692 22.7885 62.1114 23.737C62.0369 22.8631 62.4773 21.9891 63.2767 21.5555C63.3512 21.5488 63.2767 21.4065 63.2767 21.332ZM64.6587 23.0053L64.7333 23.0799H64.8078C65.0991 22.2804 65.6817 21.6233 66.3389 21.1152V20.8239C66.3389 20.8239 66.3389 20.8984 66.2644 20.8984C65.6072 21.4065 65.0246 22.1314 64.6587 23.0053ZM60.7294 16.82C60.5126 16.9622 60.2958 17.1858 60.1468 17.4026C59.8554 17.8362 59.7132 18.4188 59.7809 19.0014V19.076C59.7809 18.5679 59.8554 18.1275 60.1468 17.6939C60.289 17.4771 60.4381 17.2603 60.6549 17.1858L60.7294 16.82ZM63.6425 16.0883C63.3512 16.2306 63.0599 16.5219 62.8431 16.7455C62.5518 17.1113 62.4095 17.5449 62.2605 17.9852C62.2605 18.0598 62.2605 18.1275 62.335 18.1275C62.4095 17.7617 62.6263 17.4026 62.8431 17.0368C63.0599 16.7455 63.2767 16.5287 63.568 16.3119C63.6425 16.3119 63.6425 16.2373 63.6425 16.1696V16.0273C63.7171 16.0206 63.7171 16.0206 63.6425 16.0883ZM67.0638 16.0206C66.6302 16.0206 66.1898 16.1628 65.824 16.4541C65.3904 16.6709 65.0991 17.1113 65.0246 17.5449C65.0246 17.6194 65.0246 17.6871 65.0991 17.6871C65.2414 17.2536 65.5327 16.9622 65.8985 16.6709C66.2644 16.4541 66.6234 16.2373 67.0638 16.2373C67.1383 16.2373 67.1383 16.1628 67.1383 16.0951V15.9528L67.0638 16.0206ZM68.5204 17.6194L68.6626 17.5449C69.0962 17.2536 69.5366 17.1113 70.0447 17.0368C70.1192 17.0368 70.1192 17.0368 70.1192 16.8945V16.7522H70.0447C69.462 16.8945 68.8794 17.1181 68.3713 17.4771C68.2968 17.5516 68.229 17.6194 68.3713 17.6194H68.5204ZM61.4543 10.4856C61.0207 10.7769 60.5803 11.1427 60.289 11.5763C59.9977 12.0099 59.8554 12.5925 59.9232 13.1074H59.9977C59.9977 12.6738 60.14 12.2335 60.4313 11.7999C60.7971 11.3663 61.1562 11.0005 61.5966 10.7091V10.3433C61.5288 10.411 61.5288 10.4856 61.4543 10.4856ZM65.2414 9.61163C64.8078 9.90294 64.4419 10.1943 64.0761 10.5601C63.7103 10.9259 63.4935 11.434 63.4935 11.9421C63.4935 11.9421 63.4935 12.0167 63.568 12.0167H63.6425C63.7171 11.5831 63.9338 11.2172 64.2252 10.8514C64.591 10.4856 64.9501 10.1943 65.3159 9.97746V9.83519L65.2414 9.61163ZM69.1775 9.38806C68.5949 9.53033 68.0868 9.89617 67.5787 10.262C67.2873 10.6278 67.0706 10.9869 66.996 11.5018H67.0706C67.1451 11.1359 67.3619 10.7769 67.6532 10.5533C68.0868 10.1197 68.6694 9.82842 69.252 9.67937C69.3266 9.67937 69.3266 9.60485 69.3266 9.5371V9.32031C69.2453 9.32031 69.2453 9.38806 69.1775 9.38806ZM72.4497 10.9192C72.0161 10.9192 71.5013 10.9937 71.0677 11.0614C70.7764 11.1359 70.485 11.3527 70.2682 11.5695V11.6441L70.4105 11.7186C70.5528 11.5763 70.7764 11.4273 70.9931 11.3527C71.4267 11.2782 71.9416 11.2105 72.3752 11.2105L72.4497 11.1359V10.9192C72.5242 10.9192 72.5242 10.9192 72.4497 10.9192ZM58.9815 16.1628C58.907 16.5287 58.7647 16.5287 58.4734 16.7455C58.2566 16.8877 57.8908 16.9622 57.5994 16.8877C57.3827 16.8132 57.2336 16.7455 57.1659 16.5964H57.0913C56.9491 16.7387 56.7255 16.8132 56.5087 16.8877C56.1429 17.03 55.7093 16.8877 55.4925 16.5964C55.4925 16.5964 55.4925 16.5219 55.418 16.5219V16.3051V16.3796C55.418 16.5964 55.418 16.8132 55.5602 17.0368C55.777 17.3281 56.2174 17.4703 56.5765 17.4026C56.7932 17.3281 56.9423 17.1858 57.1591 17.1113H57.2336C57.5249 17.5449 58.1075 17.6194 58.5411 17.3281H58.6157C58.7579 17.2536 58.907 17.1113 58.9815 16.8945V16.1628C58.9815 16.1628 58.9815 16.0883 58.9815 16.1628ZM72.2329 14.0491C72.2329 14.1236 72.1584 14.1236 72.0907 14.1914C72.0161 14.1914 72.0161 14.1914 71.9484 14.1168C70.9999 13.3174 69.8347 12.8771 68.6017 12.8093C65.1804 12.8838 61.8269 13.7578 58.846 15.2821C58.846 15.2821 58.7715 15.3566 58.846 15.3566L58.9883 15.4989C62.0437 13.9678 65.3227 13.0939 68.7439 13.0261C69.9837 13.1006 71.149 13.5342 72.0907 14.3336C72.0907 14.4082 72.1652 14.4082 72.2329 14.4082C72.3007 14.4082 72.3075 14.2659 72.3075 14.2659C72.3075 14.0491 72.382 13.9001 72.382 13.6833C72.3074 13.8323 72.2329 13.9813 72.2329 14.0491ZM67.2061 19.3673C66.8402 19.225 66.4812 19.1505 66.1153 19.1505C63.568 19.225 61.0207 19.9499 58.7579 21.1897C58.7579 21.1897 58.6834 21.2642 58.6834 21.332C58.6834 21.3997 58.7579 21.4742 58.7579 21.5488L58.8324 21.4742C61.0884 20.1667 63.568 19.5096 66.1898 19.435C66.5557 19.435 66.847 19.5096 67.2061 19.6518H67.2806L67.2061 19.3673C67.2806 19.3673 67.2806 19.3673 67.2061 19.3673ZM67.2806 24.4619C67.2806 24.5364 67.2061 24.5364 67.2061 24.5364C65.8985 24.4619 64.5097 24.6109 63.2767 24.97C61.8946 25.4036 60.6549 25.9185 59.4151 26.6434C59.3406 26.7179 59.3406 26.7179 59.4151 26.7856L59.4896 26.8602C60.7294 26.1353 61.9624 25.6204 63.3512 25.1868C64.6587 24.821 65.973 24.6042 67.2806 24.6787H67.3551L67.2806 24.4619ZM80.8233 36.1145C80.3152 36.4803 79.7326 36.8394 79.0754 37.063L79.15 37.2052C79.7326 36.9884 80.2407 36.6226 80.7488 36.2568H80.8233C81.6973 36.04 85.193 34.8002 87.3068 34.7257C88.6143 34.7257 89.9286 35.017 91.0939 35.6741C91.6765 36.04 92.2591 36.4736 92.6927 36.9817C92.6927 36.9817 92.6927 37.0562 92.7672 37.0562C92.7672 37.0562 92.8417 37.0562 92.8417 36.9817C92.984 36.6158 93.0585 36.2568 93.0585 35.8164C93.0585 36.1077 92.984 36.4736 92.8417 36.7649L92.7672 36.8394C92.6927 36.8394 92.6927 36.7649 92.6927 36.7649C92.2591 36.2568 91.6765 35.8164 91.0939 35.4573C89.9286 34.8002 88.6211 34.5089 87.3068 34.5089C85.193 34.5089 81.6973 35.8164 80.8233 36.04C80.8978 36.1145 80.8233 36.1145 80.8233 36.1145ZM89.9286 42.3744C89.8541 42.4489 89.7863 42.4489 89.6373 42.4489C89.346 42.0831 89.0547 41.7917 88.6888 41.5004C88.2552 41.1346 87.7404 40.9178 87.2322 40.7755C86.4328 40.6333 85.5589 40.5587 84.7595 40.701C83.1606 40.9178 81.6295 41.4259 80.1729 42.2999L80.0984 42.3744L80.1729 42.4489C81.555 41.6495 83.1606 41.1414 84.7595 40.9178C85.5589 40.7755 86.4328 40.7755 87.2322 40.9923C87.7404 41.1346 88.2485 41.3582 88.6888 41.7172C89.0547 42.0085 89.346 42.2999 89.6373 42.6657C89.7118 42.6657 89.8541 42.6657 89.9286 42.5912C90.0031 42.3744 90.0709 42.2253 90.0709 42.0085C90.0709 42.1576 90.0031 42.3066 89.9286 42.3744ZM86.5073 48.492H86.3651C86.1483 48.2752 85.857 48.0584 85.5657 47.8348C84.8408 47.469 83.9668 47.3267 83.1606 47.469C81.9954 47.6858 80.8301 48.1261 79.8816 48.9256C79.8071 49.0001 79.8071 49.0678 79.8071 49.0678L79.8816 49.1424C80.8301 48.4175 81.9208 47.9026 83.1606 47.6858C83.96 47.6113 84.834 47.6858 85.5657 48.0516C85.857 48.1939 86.1483 48.4175 86.3651 48.7088H86.5073C86.7241 48.492 86.7987 48.2752 86.7987 47.9839C86.7987 48.1261 86.6496 48.3497 86.5073 48.492Z" fill="#432918"/>
<path d="M83.1544 33.7857L83.3712 33.7112L84.5365 33.4199C84.611 33.4199 84.611 33.3454 84.611 33.3454C84.7533 32.7627 84.9768 32.2546 85.3359 31.7465C85.9931 30.8726 87.2261 30.6558 88.1745 31.1639C88.249 31.2384 88.249 31.3062 88.1745 31.3062L88.1 31.3807C87.7342 31.523 87.4429 31.7465 87.2261 32.0378C87.0093 32.2546 86.7925 32.6205 86.718 32.9118V32.9863C86.7925 32.9863 87.3751 32.9863 87.5919 33.0608C87.6664 33.0608 87.6664 33.0608 87.6664 32.9863C87.8832 32.4037 88.1745 31.8211 88.6826 31.3875C89.1907 30.9539 89.8479 30.8794 90.505 31.0962C90.8709 31.1707 91.2299 31.462 91.379 31.8211C91.379 31.8211 91.379 31.8956 91.3045 31.8956C90.8709 31.9701 90.505 32.1869 90.1392 32.4037C89.8479 32.6205 89.6311 32.9118 89.4143 33.2031C89.4143 33.2031 89.3398 33.2776 89.4888 33.3454L90.3628 33.5622H90.505C90.8709 33.0541 91.379 32.6882 91.9616 32.6137C92.8356 32.4714 93.635 32.8305 93.784 33.4131C93.784 33.4876 93.8586 33.6299 93.784 33.5554C93.2759 33.5554 92.8356 33.7722 92.4765 34.0635L92.2597 34.2803L92.1852 34.3548C92.402 34.5716 93.0591 35.012 93.0591 35.6623C93.0591 36.0959 93.0591 36.4618 92.8423 36.9021L92.7678 36.9766C92.6933 36.9766 92.6933 36.9021 92.6933 36.9021C92.2597 36.394 91.6771 35.9537 91.0944 35.5946C89.9292 34.9374 88.6217 34.6461 87.3074 34.6461C85.1936 34.6461 81.6979 35.9537 80.8239 36.1772H80.7494C80.8239 36.1908 81.3388 35.6827 83.1544 33.7857ZM88.6894 38.0809C88.2558 38.2977 87.89 38.589 87.5987 39.0294C87.5987 39.0294 87.5242 39.1717 87.5242 39.1039C87.3074 39.1039 86.9415 39.0294 86.7247 39.0294C86.6502 39.0294 86.6502 38.9549 86.6502 38.9549C86.7247 38.6636 86.867 38.4468 87.0838 38.23C87.3751 37.9387 87.7409 37.6473 88.1 37.5051C88.1 37.5051 88.1745 37.5051 88.1745 37.4306C87.8832 37.1392 87.5174 36.9225 87.0838 36.9225C86.5757 36.9225 85.9931 37.0647 85.6272 37.5051C85.1936 37.9387 84.9023 38.5958 84.8278 39.253C84.8278 39.3275 84.7533 39.3275 84.7533 39.3275C84.5365 39.3275 84.3197 39.402 84.0961 39.402V39.3275C84.0961 38.9617 84.1706 38.6703 84.3129 38.379C84.6042 37.7964 85.0378 37.3628 85.6204 36.997C85.695 36.9224 85.695 36.8547 85.695 36.7802C85.0378 36.4889 84.3129 36.5634 83.6558 36.997C83.2899 37.2138 82.9309 37.5796 82.7073 37.9454C82.4905 38.5281 82.3415 39.1107 82.2737 39.7679C82.2737 39.8424 82.1992 39.8424 82.1992 39.8424C81.9079 39.9169 81.6911 39.9846 81.3998 40.0592C81.3998 40.0592 81.3252 40.0592 81.3252 39.9846C81.2507 39.402 81.3998 38.8194 81.6911 38.3113C81.8334 38.0945 81.9824 37.8777 82.1992 37.7286C82.2737 37.7286 82.2737 37.6541 82.1992 37.5864L82.1247 37.5119C81.6166 37.4373 81.1084 37.5119 80.5936 37.8032C80.0109 38.0945 79.6451 38.6771 79.5774 39.3343C79.5028 39.7678 79.5773 40.2827 79.6519 40.7163C79.6519 40.7163 79.6519 40.7908 79.5774 40.7908C79.4351 40.8654 78.9202 41.1567 78.7779 41.2244H78.7034C78.6289 40.8586 78.4121 40.5673 78.0463 40.425C77.6804 40.2827 77.3214 40.2827 77.03 40.4995C76.8133 40.6418 76.6642 40.7908 76.5219 41.0076C76.3797 41.3735 76.4474 41.8071 76.8133 42.0984C76.8133 42.0984 76.8878 42.1729 76.8133 42.1729C76.5965 42.3152 76.5965 42.3152 76.4474 42.5387C76.3051 42.9046 76.3051 43.2636 76.5897 43.5549C76.9555 44.0631 77.6059 44.2121 78.1208 43.8463C78.1953 43.8463 78.1953 43.7717 78.263 43.7717C78.263 43.7717 78.3376 43.7717 78.3376 43.8463C78.4121 43.9885 78.5544 44.1376 78.7034 44.2121C79.0692 44.4289 79.4283 44.4289 79.7941 44.2121C80.16 43.9953 80.3023 43.6295 80.3023 43.2636C80.3023 43.0468 80.2277 42.83 80.0109 42.681C80.0109 42.681 80.0109 42.6065 80.0855 42.6065C81.4675 41.8071 83.0731 41.2989 84.672 41.0754C85.4714 40.9331 86.3453 40.9331 87.1448 41.1499C87.6529 41.2922 88.161 41.5157 88.6013 41.8748C88.9672 42.1661 89.2585 42.4574 89.5498 42.8233C89.6243 42.8233 89.7666 42.8233 89.8411 42.7487C89.9834 42.3829 90.0579 41.9493 89.8411 41.509C89.6243 41.0009 89.333 40.4927 88.9672 40.1269V40.0524C88.9672 39.9779 88.9672 39.9779 89.1094 39.8356C89.4753 39.4698 89.9089 39.253 90.417 39.1107C90.4915 39.1107 90.4915 39.0362 90.4915 38.9684C90.2205 38.1555 89.4211 37.8641 88.6894 38.0809ZM97.5034 4.15293C97.5034 4.15293 97.2121 21.0492 96.9953 29.4228C96.9207 31.8956 96.4872 34.3006 95.6877 36.6311C94.7393 39.253 93.4317 41.8003 91.9006 44.1308C90.3018 46.5358 88.3303 48.7173 86.0744 50.5397C85.2004 51.2646 84.2519 51.9218 83.3102 52.5789C81.7791 53.5274 80.1803 54.3268 78.5747 54.984C78.0666 55.2008 77.5585 55.4176 77.1181 55.5666C76.6845 55.7089 76.2442 55.8579 75.7361 56.0002C75.3025 55.8579 74.7876 55.7834 74.354 55.5666C73.9204 55.4243 73.4801 55.2008 72.8974 54.984C71.2241 54.3268 69.693 53.5274 68.1619 52.5789C67.2134 51.9963 66.2717 51.2714 65.3978 50.5397C63.1418 48.7173 61.1771 46.5358 59.5715 44.1308C58.0404 41.8003 56.7329 39.253 55.7844 36.6311C54.985 34.3006 54.5446 31.8956 54.4769 29.4228C54.2601 21.0492 53.9688 4.15293 53.9688 4.15293C53.9688 4.15293 54.0433 4.15293 54.111 4.07841C56.367 3.20446 58.6975 2.40504 61.0281 1.82241C64.3003 1.01621 67.5725 0.508107 70.926 0.216792C72.5248 0.0745224 74.0559 0 75.6615 0H75.8038C77.4772 0 78.9338 0.0745224 80.5394 0.216792C83.8861 0.508107 87.1651 1.01621 90.4441 1.81564C92.7746 2.39827 95.1051 3.19769 97.3611 4.07163C97.4288 4.07841 97.5034 4.15293 97.5034 4.15293ZM55.9944 34.8765H69.2458C68.0061 33.5689 67.3557 31.8211 67.2812 29.9986V29.7819H55.195C55.2695 31.4552 55.5608 33.2031 55.9944 34.8765ZM75.1467 47.0372H62.7692C63.7176 48.0534 64.6593 49.0019 65.7568 49.8758C66.6308 50.6007 67.5047 51.2578 68.4532 51.8405C69.9098 52.7144 71.4409 53.5138 73.0397 54.171C73.5478 54.3878 73.9882 54.6046 74.4218 54.7536C74.7131 54.8281 75.0044 54.9704 75.2212 55.0449L75.1467 47.0372ZM75.1467 41.2854H58.6908C59.1243 42.0848 59.5647 42.8842 60.0728 43.6159C60.73 44.5644 61.3803 45.5061 62.1865 46.38H75.1467V41.2854ZM75.1467 37.7896C73.2565 37.6473 71.5086 36.9157 70.1198 35.6759C70.0453 35.6014 69.9775 35.5336 69.8285 35.4591H56.1435C56.218 35.7504 56.3602 36.0417 56.4348 36.333C56.9429 37.7896 57.6 39.2462 58.3249 40.5537H75.1467V37.7896ZM75.1467 6.91703C73.7646 6.91703 72.4503 6.99155 70.9937 7.13382C67.7893 7.42514 64.5848 7.93325 61.4549 8.66492C59.1989 9.24755 56.9429 9.97245 54.7546 10.8464C54.8291 16.2323 54.9714 24.1723 55.1205 29.1247H67.2066V24.6127H67.1389C65.8314 24.5382 64.4425 24.6872 63.2095 25.1208C61.8275 25.5544 60.5877 26.0693 59.3479 26.7942C59.2734 26.8687 59.2734 26.8687 59.3479 26.9365C59.4902 27.1532 59.6392 27.37 59.7138 27.5936C59.7883 27.8849 59.6392 28.2508 59.3479 28.393C59.1311 28.5353 58.8398 28.6098 58.5485 28.5353C58.3317 28.4608 58.1827 28.3185 58.0404 28.1695C57.9659 28.0949 57.9659 28.1695 57.8981 28.244C57.7558 28.3185 57.5323 28.4608 57.39 28.5353C57.0242 28.6776 56.5906 28.6098 56.3738 28.244C56.157 27.8781 56.157 27.4446 56.3738 27.1532C56.5161 27.011 56.6651 26.9365 56.8074 26.8619C56.8074 26.8619 56.8819 26.7874 56.8074 26.7874C56.7329 26.6451 56.6651 26.5706 56.5906 26.4216C56.4483 26.0557 56.5906 25.6967 56.8819 25.4054C57.1732 25.1886 57.539 25.1886 57.8981 25.3308C58.1149 25.4054 58.2639 25.6967 58.4062 25.9135C58.4062 25.988 58.4807 25.988 58.4807 25.988L58.7721 25.7712C58.8466 25.7712 58.7721 25.6289 58.7721 25.6289C58.4062 24.6805 58.264 23.9556 58.6298 23.2984C58.8466 22.8648 59.2869 22.5735 59.7205 22.4245C60.0118 22.3499 60.3032 22.3499 60.5945 22.499V22.5735C60.3032 22.8648 60.0864 23.2984 59.9373 23.7388C59.8628 24.1046 59.8628 24.5382 60.0118 24.904C60.0118 24.9785 60.0864 24.9785 60.1541 24.9785C60.2964 24.904 60.7367 24.7618 60.879 24.7618C60.9535 24.7618 60.879 24.6872 60.879 24.6195C60.7367 24.0369 60.7367 23.3797 60.9535 22.7971C61.3194 21.9977 62.1933 21.4895 63.0673 21.5573C63.2095 21.5573 63.4331 21.6996 63.284 21.7741C62.4101 22.2822 61.9765 23.2307 62.1188 24.1791L62.1933 24.2536C62.4846 24.1791 62.8505 24.1114 63.0673 23.9623C63.1418 23.9623 63.1418 23.8878 63.1418 23.8201C63.1418 23.0952 63.4331 22.3635 63.8667 21.7809C64.3748 21.1982 65.1742 20.9069 65.9804 20.9069C66.1227 20.9814 66.2717 21.0492 66.3462 21.1237V21.266C65.5468 21.7741 64.9642 22.5058 64.6729 23.3797L64.7474 23.4542C65.181 23.4542 65.6959 23.3797 66.1294 23.312C66.204 23.312 66.204 23.312 66.204 23.2374C66.3462 22.7293 66.7121 22.2212 67.2202 21.9299C67.2202 21.9299 67.2947 21.9299 67.2947 21.8554V19.6739H67.2066C66.8408 19.5316 66.4817 19.4571 66.1159 19.4571C63.5686 19.5316 61.0213 20.2565 58.7585 21.4963C58.7585 21.4963 58.684 21.5708 58.684 21.6386C58.9753 22.2957 58.8263 22.6548 58.3927 22.9461C57.9591 23.2374 57.4442 23.0884 57.1529 22.6548C57.1529 22.5803 57.0784 22.5803 57.0106 22.6548C56.7938 22.7971 56.428 22.9461 56.1367 22.8716C55.8454 22.8716 55.554 22.6548 55.4795 22.3635C55.3373 21.8554 55.6218 21.2728 56.1367 21.1237C56.2112 21.1237 56.2112 21.0492 56.1367 21.0492C55.8454 20.6833 55.8454 20.1752 56.2112 19.8839L56.2857 19.8094C56.7193 19.5926 57.3019 19.6671 57.5255 20.1007C57.5255 20.1752 57.6 20.243 57.6 20.3175C57.6 20.392 57.6 20.3175 57.6745 20.3175C57.8168 20.3175 57.9659 20.243 58.1081 20.1752C58.1827 20.1752 58.2504 19.9584 58.2504 19.8839C58.2504 18.7932 58.2504 18.0615 58.9753 17.3366C59.2666 17.0453 60.3574 16.754 60.6487 17.1198V17.1943C60.4319 17.3366 60.2151 17.5602 60.066 17.777C59.7747 18.2106 59.6325 18.7932 59.7002 19.3758C59.7002 19.3758 59.7002 19.4503 59.7747 19.4503C60.066 19.3758 60.4319 19.2335 60.7232 19.0845V19.01C60.6487 18.2851 60.8655 17.4789 61.3803 16.8963C61.8884 16.3881 63.0537 15.8055 63.6363 16.3136C63.7109 16.3881 63.6363 16.4559 63.5618 16.4559C63.2705 16.5982 62.9792 16.8217 62.7624 17.113C62.4711 17.4789 62.3288 17.9125 62.1798 18.3528C62.1798 18.4274 62.2543 18.4951 62.2543 18.4951C62.5456 18.4206 62.9792 18.3528 63.2705 18.2783C63.4128 18.2038 63.345 18.2038 63.4128 18.0615C63.4873 16.8963 64.429 15.9478 65.5942 15.8055C66.0278 15.731 66.3937 15.8055 66.7595 15.9478L66.9763 16.1646V16.3069C66.5427 16.3069 66.1024 16.4491 65.7365 16.7404C65.3029 16.9572 65.0116 17.3976 64.9371 17.8312C64.9371 17.9057 64.9371 17.9734 65.0116 17.9734H66.1024C66.1769 17.9734 66.1769 17.9734 66.1769 17.8989C66.3937 17.2418 66.9763 16.7337 67.6334 16.5169C68.3583 16.2256 69.2323 16.4423 69.8149 17.025C69.8894 17.0995 69.8894 17.1672 69.8149 17.1672C69.2323 17.3095 68.6497 17.5331 68.1416 17.8921C68.067 17.9667 67.9993 18.0344 68.1416 18.0344H74.9841L75.1467 6.91703ZM80.8239 36.1908C80.3158 36.5566 79.7332 36.9157 79.076 37.1392L79.1505 37.2815C79.2251 37.4238 79.2251 37.5728 79.2251 37.7896C79.2251 38.0064 79.0828 38.2232 78.7915 38.2977C78.5002 38.44 78.1343 38.3723 77.9175 38.1555C77.7753 38.3723 77.484 38.4468 77.1926 38.3723C76.9758 38.2977 76.7591 38.1555 76.6845 38.0064C76.61 37.9319 76.61 37.7896 76.61 37.7896C76.3932 37.7896 76.1019 37.8641 75.8851 37.8641V55.194C76.1764 55.1195 76.5423 54.9772 76.9758 54.8281C77.4094 54.6859 77.8498 54.4623 78.3579 54.2455C79.9567 53.5884 81.4878 52.7889 82.9444 51.915C83.8929 51.3324 84.7668 50.6752 85.6408 49.9503C87.8222 48.1279 89.7192 46.0887 91.2503 43.7582C92.7814 41.5022 93.9466 39.0226 94.8883 36.4753C95.6877 34.2938 96.0536 32.0311 96.1281 29.7006H84.1842V30.1341C84.1774 32.4782 82.9376 34.8087 80.8239 36.1908ZM96.3381 23.6642H84.2519V28.9824H96.1958C96.2636 27.3768 96.2636 25.5612 96.3381 23.6642ZM96.4059 18.4206H84.2452V22.9326H96.3381C96.4059 21.4082 96.4059 19.8771 96.4059 18.4206ZM96.5549 12.5265H75.9461V17.6212H96.4804C96.4804 15.8733 96.4804 14.1254 96.5549 12.5265ZM96.5549 10.8464C94.3734 9.97245 92.1107 9.24755 89.8547 8.66492C86.7247 7.94002 83.5203 7.35739 80.3158 7.13382C78.7847 6.99155 77.4027 6.91703 75.8716 6.91703V11.9439H96.4804C96.5549 11.5035 96.5549 11.2122 96.5549 10.8464ZM96.6972 4.87783C96.6227 4.87783 96.6227 4.80331 96.5549 4.80331C94.3734 3.92936 92.1852 3.20446 89.8547 2.62183C86.7247 1.89693 83.5203 1.3143 80.3158 1.09074C78.717 0.948467 77.3281 0.873944 75.7293 0.873944H75.587C73.9882 0.873944 72.5993 0.948467 71.0005 1.09074C67.796 1.38205 64.5916 1.89016 61.4616 2.62183C59.2056 3.20446 56.9496 3.92936 54.7614 4.80331C54.6869 4.80331 54.6191 4.87783 54.6191 4.87783C54.6191 4.87783 54.6191 7.0593 54.6937 10.196H54.7682C56.9496 9.32207 59.1379 8.59717 61.4684 8.01454C64.5984 7.28964 67.8028 6.70701 71.0073 6.48345C72.6061 6.34118 73.995 6.26665 75.5938 6.26665H75.7361C77.3349 6.26665 78.7237 6.40892 80.3226 6.48345C83.527 6.77476 86.7315 7.28287 89.8614 8.01454C92.1174 8.59717 94.3734 9.32207 96.5617 10.196H96.6362C96.6294 6.99155 96.6972 4.87783 96.6972 4.87783ZM85.4849 45.147C85.1191 45.3638 84.9023 45.7296 84.6855 46.0955C84.6855 46.0955 84.6855 46.17 84.611 46.17L84.1029 46.0277V45.9532C84.4687 45.2961 85.0514 44.8625 85.7017 44.6457V44.5712C85.4104 43.914 84.1706 43.9885 83.5203 44.4289C82.9376 44.7947 82.504 45.3774 82.355 46.1023V46.1768C82.2127 46.2513 81.9892 46.2513 81.8469 46.319C81.8469 46.319 81.7724 46.319 81.7724 46.2445C81.6979 45.9532 81.7724 45.5874 81.9146 45.2961C82.1314 44.9302 82.3482 44.6389 82.6395 44.3476C82.7141 44.2731 82.7141 44.2731 82.6395 44.2053C82.2737 43.9885 81.8401 43.9885 81.4743 44.2053C80.9662 44.4966 80.5258 44.9302 80.3835 45.5128C80.309 45.9464 80.309 46.3868 80.3835 46.8204V46.8949C80.2413 46.9694 80.0922 47.0372 79.8754 47.1117H79.8009C79.5096 46.5291 79.5841 45.8719 80.0177 45.3638C80.0922 45.3638 80.0922 45.2893 80.0177 45.2893C79.5841 45.2148 79.0692 45.3638 78.7779 45.7229C78.4121 46.1565 78.3443 46.7391 78.4866 47.254C78.5611 47.4708 78.6289 47.6875 78.7034 47.8366C78.7034 47.8366 78.7779 47.9111 78.7034 47.9111C78.5611 47.9856 78.4866 48.0534 78.3376 48.2024H78.263C78.1208 47.9111 77.8972 47.7688 77.6059 47.6198C77.3146 47.5453 77.0978 47.6198 76.881 47.8366C76.5152 48.1279 76.5152 48.7105 76.881 49.0018C76.9555 49.0764 77.0978 49.1441 77.2468 49.2186C77.2468 49.2186 77.3214 49.2186 77.2468 49.2932C77.03 49.4354 76.881 49.5845 76.8133 49.8013C76.671 50.0926 76.7387 50.5262 77.03 50.7497C77.2468 50.892 77.4636 50.9665 77.6872 50.9665C78.053 50.8243 78.3443 50.6007 78.4866 50.2416C78.4866 50.2416 78.5611 50.1671 78.5611 50.2416C78.7034 50.4584 78.927 50.6075 79.1438 50.6752C79.4351 50.7497 79.7264 50.6752 79.8687 50.5329C80.16 50.3162 80.2345 49.9503 80.16 49.5845C80.0177 49.3677 79.8687 49.2186 79.7264 49.0764C79.7264 49.0764 79.7264 49.0018 79.8009 48.9341C80.7494 48.2092 81.8401 47.6943 83.0799 47.4775C83.8793 47.403 84.7533 47.4775 85.4849 47.8434C85.7763 47.9856 86.0676 48.2092 86.2844 48.5005C86.2844 48.5005 86.4266 48.575 86.4266 48.5005C86.7925 48.1347 86.8602 47.6266 86.5012 47.193C86.3589 47.0507 86.2098 46.9017 85.9931 46.8272C86.1353 46.4613 86.3589 46.17 86.718 45.8787C86.9347 45.7364 87.1515 45.6619 87.3751 45.5128C87.4496 45.5128 87.4496 45.4383 87.3751 45.4383C87.2328 44.7812 86.0676 44.7812 85.4849 45.147ZM71.3596 9.97245C71.9422 10.047 72.3758 10.406 72.5993 10.9209L72.5248 10.9954C72.0912 10.9954 71.5764 11.07 71.1428 11.1377C70.8515 11.28 70.5601 11.429 70.3434 11.6458V11.7203C70.8515 11.8626 71.3596 12.0862 71.7999 12.5198C72.2335 12.8856 72.4571 13.536 72.308 14.1186C72.308 14.1931 72.2335 14.1931 72.1658 14.2609C72.0912 14.2609 72.0235 14.2609 72.0235 14.1864C71.075 13.3869 69.9098 12.9466 68.6768 12.8788C65.2555 12.9533 61.902 13.8273 58.9211 15.3516C58.9211 15.3516 58.8466 15.4261 58.9211 15.4261C59.0634 15.6429 59.1379 15.8597 59.1379 16.151C59.0634 16.5169 58.9211 16.5169 58.6298 16.7337C58.264 17.025 57.6813 17.025 57.3223 16.5914V16.5304H57.2477C57.1055 16.6727 56.8819 16.7472 56.6651 16.8217C56.2993 16.964 55.8657 16.8217 55.6489 16.5304C55.4321 16.0223 55.5744 15.3652 56.0825 15.1484C56.5906 14.9316 56.157 15.0738 56.0825 15.0738C55.8657 14.6403 56.008 14.1254 56.3738 13.9086C56.7396 13.6918 57.5391 13.5427 57.7558 14.2744C57.7558 14.2744 57.7558 14.3489 57.8304 14.3489C58.0472 14.2744 58.1962 14.2067 58.3385 14.1322C58.413 14.1322 58.413 13.9899 58.413 13.9154C58.1962 13.0414 58.3385 12.0929 58.8466 11.2935C59.5715 10.4196 60.5199 10.0537 61.4684 10.4196C61.5429 10.4196 61.4684 10.4941 61.4684 10.5619C61.1026 10.9277 60.5945 11.219 60.3032 11.6526C60.0118 12.0862 59.8696 12.6688 59.8696 13.1837H59.9441C60.4522 13.0414 61.0348 12.8178 61.6175 12.6011C61.692 12.6011 61.7597 12.6011 61.692 12.5265C61.692 12.2352 61.692 11.8694 61.7665 11.5781C61.9088 10.7041 62.4914 9.9047 63.3653 9.53886C63.948 9.24755 64.6051 9.24755 65.2555 9.53886C65.33 9.53886 65.33 9.61339 65.2555 9.68113C64.8219 9.97245 64.4561 10.2638 64.0902 10.6296C63.7244 10.9954 63.5076 11.5035 63.5076 12.0117V12.0862C64.0157 11.9439 64.5238 11.8694 65.1065 11.7949C65.181 11.7949 65.181 11.7203 65.181 11.7203C65.2555 11.2122 65.6891 9.89793 66.3462 9.46434C67.0711 8.95623 67.9451 8.80719 68.7513 9.03076C68.9681 9.10528 69.1171 9.24755 69.1849 9.39659C69.1849 9.39659 69.1849 9.47112 69.1103 9.53886C68.5277 9.75566 68.0196 10.047 67.5115 10.4128C67.2202 10.7786 67.0034 11.1377 66.9289 11.6526H68.3854C68.3854 11.6526 68.46 11.6526 68.46 11.5781C68.6768 10.9954 69.1171 10.5619 69.6252 10.2705C70.1943 9.97245 70.7769 9.9047 71.3596 9.97245Z" fill="url(#paint1_linear)"/>
<path d="M90.5844 3.27974C92.3323 3.71333 94.0057 4.29596 95.6113 4.95311C95.6858 4.95311 95.6858 5.02763 95.6858 5.09538V5.82705C95.6858 5.90157 95.6113 5.90157 95.5435 5.90157C94.5273 5.53574 93.0708 5.02763 91.7565 4.66179H91.6819V5.09538C91.6819 5.09538 91.6819 5.1699 91.7565 5.1699C93.064 5.53574 94.3783 5.96932 95.5435 6.40968C95.5435 6.40968 95.6181 6.40968 95.6181 6.4842V7.64946C94.4528 7.21588 93.0708 6.77552 91.6887 6.40968H91.6142V6.84326C91.6142 6.84326 91.6142 6.91779 91.6887 6.91779C92.9962 7.28362 94.3105 7.71721 95.5503 8.15757L95.6248 8.23209V9.18056C95.6248 9.18056 95.6248 9.25508 95.5503 9.25508C93.877 8.59793 92.2036 8.08982 90.5234 7.65624L90.4489 7.58171C90.5099 6.04384 90.5099 4.73632 90.5844 3.27974ZM84.7581 6.33516C85.124 6.40968 85.483 6.47743 85.7743 6.47743C85.7743 6.47743 85.8489 6.47743 85.8489 6.40291V4.95311H85.9234C86.7973 5.09538 87.5967 5.24442 88.4707 5.46121C88.4707 5.46121 88.613 5.46121 88.613 5.53574V6.99231C88.613 7.06683 88.613 7.06683 88.6875 7.06683C89.0533 7.14135 89.3446 7.2091 89.6359 7.28362H89.7105C89.785 6.26741 89.785 4.51952 89.785 3.1307V3.05618C89.4192 2.98165 89.1278 2.91391 88.7688 2.83938L88.6943 2.91391C88.6943 3.42201 88.6943 3.93012 88.6197 4.445C87.7458 4.30273 86.8719 4.07916 85.9979 3.93689V3.86237V2.33128C85.9979 2.33128 85.9979 2.25676 85.9234 2.25676C85.5575 2.18223 85.2662 2.18223 84.9749 2.11449C84.6836 2.04674 84.9004 2.11449 84.9004 2.18901C84.8259 2.83938 84.7581 5.53574 84.7581 6.33516ZM80.3139 1.53186C79.8803 1.53186 79.4399 1.82317 79.3654 2.33128V5.09538C79.3654 5.38669 79.5822 5.67801 79.948 5.75253C81.4046 5.8948 82.7867 6.04384 84.3923 6.26064C84.3923 6.26064 84.4668 6.26064 84.4668 6.18611V5.23765L84.3923 5.16313C83.3015 5.02086 81.9195 4.87181 80.6797 4.72954C80.6052 4.72954 80.5374 4.65502 80.5374 4.58727V2.69711C80.5374 2.62259 80.6797 2.55485 80.7542 2.55485C81.994 2.62937 83.227 2.84616 84.4668 2.98843C84.4668 2.98843 84.5413 2.98843 84.5413 2.91391V2.03996C84.5413 1.96544 84.5413 1.96544 84.4668 1.96544C83.0102 1.82317 81.9872 1.74865 80.3139 1.53186ZM78.4237 1.45733C77.0417 1.38281 75.5851 1.38281 74.203 1.38281C73.9117 1.38281 73.5459 1.5996 73.5459 1.89092V3.42201C73.5459 3.71333 73.9795 4.00464 74.2708 4.00464C75.3615 4.00464 76.31 4.00464 77.3262 4.07917C77.4007 4.07917 77.4685 4.15369 77.4685 4.22143V4.51275C77.4685 4.58727 77.394 4.58727 77.394 4.58727C76.1542 4.58727 74.9212 4.51275 73.6814 4.66179C73.6069 4.66179 73.6069 4.66179 73.6069 4.73632L73.5323 5.61026V5.68478C74.9889 5.61026 76.4455 5.61026 77.9021 5.68478C78.2679 5.68478 78.5592 5.39347 78.627 5.10215V3.63881C78.627 3.34749 78.2611 3.1307 78.0443 3.1307C77.0281 3.05618 75.8629 3.1307 74.7653 3.05618C74.6908 3.05618 74.6908 2.98165 74.6908 2.91391V2.54807C74.6908 2.47355 74.7653 2.47355 74.7653 2.47355C75.7816 2.39903 77.3127 2.47355 78.4034 2.54807C78.4779 2.54807 78.5457 2.47355 78.5457 2.4058V1.67413C78.566 1.53186 78.4915 1.45733 78.4237 1.45733ZM72.2316 4.15369C72.5229 4.01142 72.7397 3.7201 72.6652 3.42879C72.6652 2.9952 72.6652 2.55485 72.5906 2.12126C72.5161 1.82995 72.2248 1.53863 71.8658 1.53863C70.8495 1.53863 68.7358 1.82995 67.496 1.97222V6.26741L68.5868 6.12514V4.87859L70.7682 4.66179C70.985 4.66179 71.2018 4.73632 71.3509 5.02763C71.4931 5.24442 71.5677 5.53574 71.6422 5.82705L72.7329 5.75253H72.8074C72.8887 5.09538 72.6719 4.51275 72.2316 4.15369ZM71.4322 3.20522C71.4322 3.42201 71.2899 3.57106 71.1408 3.57106L68.6681 3.78785V2.91391L71.2899 2.69711C71.3644 2.69711 71.5067 2.77164 71.5067 2.83938L71.4322 3.20522ZM66.9134 2.83938C66.9134 2.62259 66.8389 2.47355 66.6966 2.4058C66.5543 2.26353 66.3308 2.18901 66.1885 2.18901C64.9487 2.4058 63.6412 2.62259 62.4014 2.91391C62.1846 2.98843 62.0356 3.05618 61.8933 3.27974C61.751 3.42201 61.6765 3.57106 61.6765 3.78785V6.40968C61.6765 6.62647 61.751 6.84326 61.8933 6.99231C61.9678 7.13458 62.1846 7.28362 62.4014 7.28362C63.6412 6.99231 64.9487 6.77552 66.1885 6.55873C66.4053 6.4842 66.6221 6.34193 66.8457 6.19289C66.9879 6.05062 67.0624 5.82705 67.0624 5.68478L66.9134 2.83938ZM65.6804 5.24442C65.6804 5.31895 65.6059 5.46121 65.5381 5.46121C65.4636 5.53574 65.3959 5.53574 65.2468 5.60348C64.5897 5.74575 63.5734 5.8948 62.9163 6.03707C62.8418 6.03707 62.774 6.03707 62.6995 5.96255C62.625 5.88802 62.625 5.82028 62.625 5.74575V4.07917C62.625 4.00464 62.625 3.93689 62.6995 3.86237C62.774 3.78785 62.8418 3.7201 62.9908 3.7201C63.648 3.57783 64.5219 3.42879 65.2468 3.28652C65.3213 3.28652 65.3891 3.28652 65.5381 3.36104C65.6126 3.43556 65.6804 3.50331 65.6804 3.57783V5.24442V5.24442ZM61.0939 4.07917C61.0939 3.86237 60.9516 3.71333 60.8026 3.64558C60.5858 3.50331 60.369 3.42879 60.1454 3.50331C58.6143 3.86915 57.09 4.45178 55.5589 5.03441C55.4844 5.03441 55.4844 5.10893 55.4844 5.17668V9.39735C55.4844 9.39735 56.5751 8.96376 56.7919 8.88924V7.58171C56.7919 7.58171 56.7919 7.50719 56.8664 7.50719L60.6535 6.34193C60.7958 6.26741 60.8703 6.19966 60.9448 6.12514C61.0194 6.05062 61.0871 5.90835 61.0871 5.7593L61.0939 4.07917ZM59.8541 5.31894C59.8541 5.39347 59.7118 5.53574 59.6373 5.61026L56.8732 6.4842H56.7987V5.67801C56.7987 5.60348 56.8732 5.60348 56.8732 5.60348C57.8217 5.23765 58.6956 4.94633 59.7118 4.65502C59.7864 4.65502 59.8541 4.72954 59.8541 4.79729V5.31894Z" fill="url(#paint2_linear)"/>
<path d="M56.8664 5.75041C56.7919 5.75041 56.7919 5.82493 56.7919 5.82493V5.60814C56.7919 5.53362 56.8664 5.53362 56.8664 5.53362C57.8149 5.16778 58.6888 4.87647 59.6305 4.58515C59.705 4.58515 59.7728 4.65968 59.7728 4.72742V4.94422C59.7728 4.86969 59.6983 4.80195 59.556 4.80195C58.7634 5.09326 57.8149 5.38457 56.8664 5.75041ZM61.1616 5.67589C61.1616 5.81816 61.0871 5.9672 61.0193 6.04172C60.9448 6.11625 60.8026 6.25852 60.728 6.25852L56.9409 7.42377L56.8664 7.4983V7.71509V7.64057L60.6535 6.47531C60.7958 6.40079 60.8703 6.33304 60.9448 6.25852C61.0193 6.18399 61.0871 6.04172 61.0871 5.89268V5.67589H61.1616ZM56.8664 8.73807C56.8664 8.73807 56.8664 8.8126 56.8664 8.73807C56.5751 8.88034 55.4844 9.3207 55.4844 9.3207V9.53749C55.4844 9.53749 56.5751 9.10391 56.7919 9.02939V8.73807H56.8664ZM65.5313 3.34538C65.4568 3.27085 65.3891 3.27085 65.24 3.27085C64.5151 3.34537 63.6412 3.56217 62.984 3.70444C62.9095 3.70444 62.7672 3.77896 62.6927 3.84671C62.6182 3.91445 62.6182 3.98898 62.6182 4.0635V4.28029C62.6182 4.20577 62.6182 4.13802 62.6927 4.0635C62.7672 3.98898 62.835 3.92123 62.984 3.92123C63.6412 3.77896 64.5151 3.62991 65.24 3.48764C65.3145 3.48764 65.3823 3.48764 65.5313 3.56217C65.6059 3.63669 65.6736 3.70444 65.6736 3.77896V3.63669C65.6804 3.49442 65.6804 3.4199 65.5313 3.34538ZM66.114 6.48208C64.8742 6.69888 63.5667 6.91567 62.3269 7.20698C62.1101 7.20698 61.961 7.13246 61.8188 6.91567C61.6765 6.7734 61.602 6.54983 61.602 6.33304V6.54983C61.602 6.76662 61.6765 6.98341 61.8188 7.13246C61.961 7.2815 62.1101 7.42377 62.2524 7.42377C63.4921 7.13246 64.7997 6.91567 66.0394 6.69888C66.2562 6.62435 66.473 6.48208 66.6966 6.33304C66.8389 6.19077 66.9134 5.9672 66.9134 5.82493V5.60814C66.9134 5.82493 66.8389 5.97398 66.6966 6.11625C66.5543 6.25852 66.3308 6.40756 66.114 6.48208ZM71.2153 2.62048L68.5935 2.83727V3.05406L71.2153 2.83727C71.2899 2.83727 71.4321 2.91179 71.4321 2.97954V2.76275C71.4321 2.695 71.3576 2.62048 71.2153 2.62048ZM72.6719 3.63669V3.34538C72.6719 3.63669 72.5297 3.928 72.2383 4.07027L72.3806 4.21254C72.5974 4.15157 72.6719 3.86026 72.6719 3.63669ZM72.8887 5.67589L71.798 5.75041C71.798 5.4591 71.6557 5.16778 71.5067 4.95099C71.3644 4.65968 71.0731 4.51741 70.924 4.58515L68.7426 4.80195V5.01874L70.924 4.80195C71.1408 4.80195 71.3576 4.87647 71.5067 5.16778C71.6489 5.38457 71.7235 5.67589 71.798 5.9672L72.8887 5.89268H72.9632L72.8887 5.67589ZM68.6613 6.11625L67.5705 6.25852V6.47531L68.6613 6.33304V6.11625C68.6613 6.11625 68.7358 6.04172 68.6613 6.11625ZM78.4237 2.695C78.4982 2.695 78.566 2.62048 78.566 2.55273V2.33594C78.566 2.41046 78.4914 2.47821 78.4237 2.47821C77.3329 2.47821 75.8019 2.40368 74.7856 2.40368C74.7111 2.40368 74.7111 2.40368 74.7111 2.47821V2.695C74.7111 2.62048 74.7856 2.62048 74.8534 2.62048C75.8019 2.62048 77.3262 2.695 78.4237 2.695ZM74.1962 4.21932C75.287 4.21932 76.2354 4.21932 77.2517 4.29384C77.3262 4.29384 77.3939 4.36836 77.3939 4.43611V4.21932C77.3939 4.1448 77.3194 4.07705 77.2517 4.07705C76.2354 4.00253 75.287 4.00253 74.1962 4.00253C73.9049 4.00253 73.4713 3.78573 73.4713 3.4199V3.63669C73.5459 3.928 73.9049 4.21932 74.1962 4.21932ZM77.9088 5.67589C76.4522 5.60137 74.9957 5.60137 73.5391 5.67589V5.89268C74.9957 5.81816 76.4522 5.81816 77.9088 5.89268C78.2746 5.89268 78.566 5.60137 78.6337 5.31005V5.09326C78.4914 5.38457 78.2001 5.67589 77.9088 5.67589ZM84.3177 3.05406C83.0779 2.91179 81.8449 2.68822 80.6052 2.62048C80.5306 2.62048 80.3884 2.62048 80.3884 2.76275V2.91179C80.3884 2.83727 80.5306 2.76952 80.6052 2.76952C81.8449 2.84404 83.0779 3.06084 84.3177 3.20311C84.3177 3.20311 84.3922 3.20311 84.3922 3.12858V2.91179C84.3922 3.05406 84.3922 3.05406 84.3177 3.05406ZM84.25 6.25852C82.6511 6.04172 81.2623 5.89268 79.8057 5.75041C79.5144 5.67589 79.2976 5.38457 79.2231 5.09326V5.31005C79.2231 5.60137 79.4399 5.89268 79.8057 5.9672C81.2623 6.10947 82.6444 6.18399 84.1754 6.47531C84.1754 6.47531 84.25 6.47531 84.25 6.40079V6.18399C84.3177 6.25852 84.3177 6.33304 84.25 6.25852ZM88.6129 5.75041V5.53362C88.6129 5.4591 88.5384 5.4591 88.4706 5.4591C87.5967 5.2423 86.7973 5.09326 85.9233 4.95099H85.8488V5.16778H85.9233C86.7973 5.31005 87.5967 5.4591 88.4706 5.67589L88.6129 5.75041ZM85.7743 6.54983C85.483 6.47531 85.0494 6.40756 84.7581 6.40756V6.54983C85.1239 6.62435 85.483 6.62435 85.7743 6.6921C85.7743 6.6921 85.8488 6.6921 85.8488 6.61758V6.47531C85.8488 6.54983 85.8488 6.54983 85.7743 6.54983ZM89.6359 7.35603C89.3446 7.2815 88.9787 7.21376 88.6874 7.13923C88.6129 7.13923 88.6129 7.06471 88.6129 7.06471V7.2815C88.6129 7.35603 88.6129 7.35603 88.6874 7.35603C89.0533 7.43055 89.3446 7.4983 89.6359 7.57282H89.7104V7.35603H89.6359ZM95.5299 5.89945C94.5137 5.53362 93.0571 5.02551 91.7428 4.65968H91.6683V4.87647H91.7428C93.0504 5.2423 94.5069 5.67589 95.4554 6.11625C95.5299 6.11625 95.5977 6.11625 95.5977 6.04172V5.82493C95.679 5.89946 95.6045 5.89945 95.5299 5.89945ZM95.6045 7.57282C94.4392 7.13923 93.0571 6.69888 91.6751 6.33304H91.6006V6.54983H91.6751C93.0571 6.91567 94.3714 7.34925 95.5367 7.78961V7.71509L95.6045 7.57282ZM95.5299 9.17166C93.8566 8.51451 92.1832 8.0064 90.5031 7.57282L90.4285 7.4983V7.71509C90.4285 7.71509 90.4285 7.78961 90.5031 7.78961C92.1764 8.22319 93.8498 8.80582 95.5299 9.38845C95.6045 9.38845 95.6045 9.38845 95.6045 9.31393L95.5299 9.17166C95.6045 9.17166 95.6045 9.17166 95.5299 9.17166Z" fill="#432918"/>
<path d="M132.23 67.2042V69.4602H150V71.3503H132.23V73.6063H150V75.4965H129.974V65.2395H150V67.1364H132.23V67.2042ZM125.021 69.3924H111.262V65.2395H109.006V75.5033H111.262V71.6416H125.021V75.5033H127.277V65.2395H125.021V69.3924V69.3924ZM87.8145 67.4955V73.2473C87.8145 74.487 88.8307 75.5033 90.0705 75.5033H106.452V73.2473H90.3618C90.2195 73.2473 90.0705 73.105 90.0705 72.9559V67.7868C90.0705 67.57 90.2872 67.4955 90.4363 67.4955H106.459V65.2395H90.145C88.8374 65.2395 87.8145 66.2625 87.8145 67.4955ZM82.7944 69.4669H68.3777C68.1609 69.4669 68.0118 69.3247 68.0118 69.1011V67.57C68.0118 67.3532 68.1541 67.2042 68.3777 67.2042H84.759V65.314H68.0118C66.7721 65.314 65.7558 66.3302 65.7558 67.57V69.1011C65.7558 70.3409 66.7721 71.3571 68.0118 71.3571H82.4285C82.6453 71.3571 82.7944 71.4994 82.7944 71.7229V73.254C82.7944 73.4708 82.6521 73.6199 82.4285 73.6199H66.0404V75.51H82.7876C84.0274 75.51 85.0436 74.4938 85.0436 73.254V71.7229C85.0504 70.4832 84.0274 69.4669 82.7944 69.4669ZM63.134 75.51H60.878V75.0764C60.878 73.8367 59.8618 72.8205 58.622 72.8205H45.9532V75.5168H43.6972V65.2395H60.8103C62.05 65.2395 63.0663 66.2557 63.0663 67.4955V69.7515C63.0663 70.9913 62.1178 72.0075 60.8848 72.0075C62.2601 72.6714 63.134 73.9789 63.134 75.51ZM60.8712 67.9358C60.8712 67.7191 60.729 67.57 60.5054 67.57H46.021V70.6254H60.5122C60.729 70.6254 60.878 70.4832 60.878 70.2596L60.8712 67.9358ZM40.9941 67.4955V73.2473C40.9941 74.487 39.9779 75.5033 38.7381 75.5033H24.2469C23.0071 75.5033 21.9909 74.487 21.9909 73.2473V67.4955C21.9909 66.2557 23.0071 65.2395 24.3214 65.2395H38.8126C39.9779 65.2395 40.9941 66.2625 40.9941 67.4955ZM38.7381 67.9358C38.7381 67.7191 38.5958 67.57 38.3723 67.57H24.6127C24.3959 67.57 24.2469 67.7123 24.2469 67.8613V73.0305C24.2469 73.1727 24.3891 73.3218 24.5382 73.3218H38.3723C38.589 73.3218 38.7381 73.1795 38.7381 72.9559V67.9358ZM19.2945 67.4955V70.5509C19.2945 71.7907 18.2783 72.8069 17.0385 72.8069H2.256V75.5033H0V65.2395H17.0385C18.2783 65.2395 19.2945 66.2625 19.2945 67.4955ZM17.0385 67.9358C17.0385 67.7191 16.8963 67.57 16.6727 67.57H2.256V70.6254H16.7472C16.964 70.6254 17.113 70.4832 17.113 70.2596L17.0385 67.9358ZM95.5309 5.38448V5.75032L95.2396 5.6758L95.0228 5.60128L93.7153 5.16769C93.2817 5.02542 92.9159 4.87638 92.55 4.80185L92.2587 4.72733L91.8929 4.65281L91.6015 4.57829V5.37771L91.7438 5.45223H91.8861L92.1029 5.52675L92.3197 5.60128C92.8278 5.74355 93.2681 5.89259 93.7762 6.03486C94.2844 6.17713 94.7247 6.32618 95.1583 6.46845L95.3006 6.54297L95.5174 6.61749V7.49143L95.3006 7.41691L95.1583 7.34239C94.6502 7.20012 94.1421 6.97655 93.6272 6.83428C93.1123 6.69201 92.5365 6.46845 92.0284 6.32618L91.5948 6.18391V6.9088L91.737 6.98333L92.1029 7.05785L92.3942 7.13237L92.5365 7.20689L92.6787 7.28142L93.9863 7.715C94.4199 7.85727 94.8602 8.00632 95.226 8.14859H95.4428L95.5851 8.22311V8.94801L95.3683 8.87349H95.226C94.4266 8.58217 93.695 8.36538 92.9701 8.14859C92.2452 7.93179 91.439 7.64048 90.7886 7.49143V5.89937C90.7886 5.31674 90.7886 3.64337 90.8631 3.56885C90.9376 3.56885 92.3942 4.00243 93.1191 4.226C93.844 4.44279 94.5757 4.73411 95.2328 4.9509L95.3751 5.02542L95.5919 5.09994C95.5309 5.09317 95.5309 5.31674 95.5309 5.38448ZM89.5623 3.27753C89.4878 3.27753 89.3456 3.20301 89.271 3.20301C89.1965 3.20301 88.9797 3.12849 88.8375 3.12849V4.72733L88.6207 4.65281H88.1871C87.8958 4.57829 87.6044 4.51054 87.2386 4.43602C86.8728 4.36149 86.5814 4.29375 86.2901 4.21922H86.1479L85.9311 4.1447L85.7143 4.07018H85.6398V2.47134H84.9149V6.47522C84.9894 6.47522 85.0571 6.47522 85.1317 6.54974H85.4975C85.572 6.54974 85.7143 6.54974 85.7888 6.62426V6.11616V5.82484V5.24221V5.09994H85.9311C86.0733 5.09994 86.4392 5.17447 86.8795 5.24221C87.3199 5.30996 87.828 5.45901 88.3361 5.53353H88.7697V6.84106L88.9865 6.91558L89.1288 6.9901H89.271L89.4878 7.06462V6.69879V5.16769V3.4198L89.5623 3.27753ZM81.7714 1.82096C81.1142 1.74644 80.6061 1.67869 80.3893 1.67869C80.1725 1.67869 79.9557 1.75321 79.8067 1.89548C79.6644 1.97 79.5154 2.1868 79.5154 2.32907V5.16769C79.5154 5.24221 79.5154 5.30996 79.5899 5.38448C79.5899 5.45901 79.6644 5.52675 79.6644 5.52675C79.7389 5.60128 79.8067 5.66902 79.9557 5.66902H80.2471C80.8297 5.74355 81.4868 5.81129 82.0695 5.81129C82.6521 5.81129 83.3092 5.95356 83.9596 6.02809L84.2509 6.10261V5.38448L83.8851 5.30996L83.5938 5.23544L82.0627 5.01865L80.5316 4.80185C80.5316 4.80185 80.4571 4.80185 80.4571 4.72733V2.54586C80.4571 2.47134 80.4571 2.40359 80.5316 2.32907C80.6061 2.25454 80.6739 2.25454 80.7484 2.25454C81.1142 2.25454 83.9528 2.68813 84.4609 2.76265V2.39681V1.96323C83.6683 2.03775 82.6453 1.96323 81.7714 1.82096ZM72.5983 4.87638C72.7406 5.09317 72.7406 5.38448 72.8151 5.60128L71.8667 5.6758C71.7922 5.38448 71.7244 5.16769 71.5754 4.9509C71.4331 4.65958 71.1418 4.51731 70.8505 4.51731C70.4846 4.59184 68.5199 4.73411 68.5199 4.73411V5.97389L68.0864 6.04841L67.6528 6.12293V2.11227C67.6528 2.11227 71.4399 1.67869 71.8057 1.67869C72.1715 1.67869 72.3138 1.89548 72.3138 2.11227C72.3883 2.54586 72.3883 3.06074 72.3883 3.49433C72.3138 3.71112 72.1715 3.92791 71.9547 4.07695C72.307 4.29375 72.4493 4.58506 72.5983 4.87638ZM71.6499 2.76265C71.6499 2.68813 71.6499 2.62038 71.5754 2.54586C71.5008 2.47134 71.3586 2.47134 71.284 2.47134L68.5877 2.76265V3.92791L69.8952 3.78564L71.2027 3.64337C71.345 3.64337 71.4941 3.56885 71.5686 3.5011C71.6431 3.42658 71.7109 3.28431 71.7109 3.13526L71.6499 2.76265ZM66.6975 2.83717V5.53353C66.6975 5.89937 66.4062 6.19068 66.0404 6.25843C65.6745 6.32618 62.6191 6.91558 62.3278 6.98333C62.0365 7.05107 61.6707 6.69201 61.6707 6.4007V3.71112C61.6707 3.4198 61.962 3.20301 62.2533 3.12849C62.5446 3.05397 65.7491 2.40359 65.9659 2.40359C66.4062 2.32907 66.6975 2.47134 66.6975 2.83717ZM65.8981 3.49433C65.8981 3.27753 65.8236 3.06074 65.4645 3.12849C65.0309 3.20301 63.5744 3.49433 63.0595 3.56207C62.6936 3.6366 62.4769 3.77887 62.4769 4.1447V5.82484C62.4769 6.04164 62.6191 6.25843 62.9104 6.19068C63.2017 6.11616 65.3155 5.7571 65.5323 5.68257C65.7491 5.60805 65.8981 5.46578 65.8981 5.17447V3.49433ZM78.0588 3.20301H74.563C74.563 3.12849 74.4885 3.12849 74.4885 3.06074V2.76943V2.40359C74.4885 2.32907 74.563 2.32907 74.7053 2.32907H78.3433V1.59739C77.9098 1.59739 77.6184 1.59739 77.2526 1.52287H74.2649C74.1227 1.52287 74.0481 1.59739 73.9736 1.66514C73.8991 1.73966 73.8314 1.80741 73.8314 1.88193V3.48078C73.8314 3.5553 73.9059 3.62305 73.9736 3.69757C74.0481 3.77209 74.1904 3.77209 74.3395 3.83984H76.4532C76.4532 3.83984 77.1781 3.83984 77.5439 3.91436C77.6184 3.91436 77.6862 3.98888 77.6862 4.05663V4.71378C77.6862 4.7883 77.6117 4.7883 77.4694 4.7883H74.6308C74.3395 4.7883 74.0481 4.7883 73.8314 4.86283V5.58773C74.1972 5.58773 74.6308 5.58773 74.9221 5.5132C75.2134 5.43868 75.5792 5.5132 75.796 5.5132H78.1265C78.2688 5.5132 78.3433 5.43868 78.4179 5.37093C78.4924 5.30319 78.5601 5.22866 78.5601 5.07962V3.49433C78.5601 3.4198 78.4856 3.27753 78.4179 3.27753C78.2011 3.27753 78.1333 3.20301 78.0588 3.20301ZM60.9458 4.07695L61.0203 5.6758V5.82484C61.0203 5.89937 60.9458 5.96711 60.878 6.04164C60.8035 6.11616 60.7357 6.18391 60.6612 6.18391L56.7319 7.42369V8.80574L55.7156 9.17157V7.28142V5.31674C55.7156 5.31674 55.7156 5.24221 55.7902 5.24221C55.8647 5.24221 57.0299 4.80863 58.5543 4.29375C58.9878 4.15148 60.0108 3.86016 60.2276 3.78564C60.3699 3.78564 60.5935 3.78564 60.7357 3.86016C60.8035 3.78564 60.9458 3.92791 60.9458 4.07695ZM60.0718 5.31674V4.73411C60.0718 4.65958 59.9973 4.59184 59.9973 4.51731C59.9228 4.44279 59.855 4.44279 59.7805 4.44279H59.706C59.706 4.44279 58.832 4.65958 58.3239 4.87638C57.8158 5.09317 56.6506 5.45901 56.6506 5.45901V6.62426L59.6382 5.6758C59.7127 5.6758 59.7805 5.60128 59.855 5.53353C59.9973 5.45901 59.9973 5.38448 60.0718 5.31674ZM73.1064 19.4421V20.5328C73.1064 20.6751 73.1065 20.7496 73.0319 20.8987C72.9574 20.9732 72.8897 21.041 72.7406 21.041C72.5916 21.041 72.5238 20.9664 72.4493 20.8987C72.3748 20.8242 72.3748 20.6819 72.3748 20.5328V19.4421C72.3748 19.3676 72.3003 19.2998 72.2325 19.2998C72.158 19.2998 72.0902 19.3744 72.0902 19.4421V20.4583C72.0902 20.6751 72.1648 20.8919 72.2325 21.041C72.3748 21.1832 72.5238 21.3323 72.7406 21.2577C72.9574 21.2577 73.1742 21.1832 73.2487 21.041C73.3232 20.8242 73.391 20.6751 73.391 20.4583V19.4421C73.391 19.3676 73.3165 19.2998 73.2487 19.2998C73.181 19.2931 73.1064 19.3676 73.1064 19.4421ZM74.6375 19.5844C74.7121 19.5844 74.7798 19.5099 74.7798 19.4421C74.7798 19.3744 74.7053 19.2998 74.6375 19.2998H73.8381C73.7636 19.2998 73.6959 19.3744 73.6959 19.4421C73.6959 19.5099 73.7704 19.5844 73.8381 19.5844H74.1294V21.1832C74.1294 21.2577 74.204 21.3255 74.2717 21.3255C74.3395 21.3255 74.414 21.251 74.414 21.1832V19.5844H74.6375ZM75.9451 19.5844C76.0196 19.5844 76.0873 19.5099 76.0873 19.4421C76.0873 19.3744 76.0128 19.2998 75.9451 19.2998H75.1457C75.0711 19.2998 75.0034 19.3744 75.0034 19.4421C75.0034 19.5099 75.0779 19.5844 75.1457 19.5844H75.437V21.1832C75.437 21.2577 75.5115 21.3255 75.5792 21.3255C75.647 21.3255 75.7215 21.251 75.7215 21.1832V19.5844H75.9451ZM77.4762 20.167H77.0426C76.9003 20.167 76.9003 20.2415 76.9003 20.3093C76.9003 20.3838 76.9748 20.4516 77.0426 20.4516H77.3339V20.5261C77.3339 20.8174 77.1916 21.0342 76.9681 21.1087C76.8258 21.1087 76.6767 21.0342 76.6022 20.8919C76.5277 20.7496 76.46 20.5261 76.5277 20.3838C76.5277 20.2415 76.6022 20.018 76.67 19.8757C76.7377 19.7334 76.8122 19.6589 76.9613 19.6589C77.1036 19.6589 77.1781 19.7334 77.2526 19.8757C77.2526 19.9502 77.3271 19.9502 77.3949 19.9502C77.4626 19.9502 77.4694 19.8757 77.4694 19.8079C77.3949 19.5912 77.1781 19.4421 76.8868 19.4421C76.67 19.4421 76.4532 19.5166 76.3787 19.7334C76.2364 19.9502 76.1619 20.167 76.1619 20.4583C76.1619 20.6751 76.2364 20.9664 76.3041 21.1832C76.3787 21.4 76.5955 21.5491 76.8122 21.5491C76.9545 21.5491 77.029 21.5491 77.1781 21.4745C77.3204 21.3323 77.4694 21.1087 77.5439 20.8919V20.5261C77.693 20.2415 77.6184 20.167 77.4762 20.167ZM82.2795 19.5844C82.354 19.5844 82.4217 19.5099 82.4217 19.4421C82.4217 19.3744 82.3472 19.2998 82.2795 19.2998H81.4801C81.4055 19.2998 81.3378 19.3744 81.3378 19.4421C81.3378 19.5099 81.4123 19.5844 81.4801 19.5844H81.7714V21.1832C81.7714 21.2577 81.8459 21.3255 81.9136 21.3255C81.9814 21.3255 82.0559 21.251 82.0559 21.1832V19.5844H82.2795ZM80.6061 20.6074C80.7484 20.5328 80.8229 20.4651 80.8974 20.3906C81.0397 20.2483 81.1142 20.0993 81.0397 19.957C81.0397 19.7402 80.9652 19.5912 80.8229 19.4489C80.6806 19.3744 80.5316 19.3066 80.3148 19.3066H79.8812C79.8067 19.3066 79.8067 19.3066 79.7389 19.3811C79.7389 19.3811 79.6644 19.4557 79.6644 19.5234V21.1968C79.6644 21.2713 79.7389 21.339 79.8067 21.339C79.8744 21.339 79.949 21.2645 79.949 21.1968V20.6887H80.2403L80.6739 21.2713C80.6739 21.3458 80.7484 21.3458 80.8161 21.3458C80.8839 21.3458 80.9584 21.2713 80.9584 21.2035C80.9584 21.1358 80.9584 21.129 80.8839 21.0613L80.6061 20.6074ZM80.0235 20.3161V19.5912H80.3893C80.5316 19.5912 80.6061 19.5912 80.6806 19.6657C80.7552 19.7402 80.8229 19.8079 80.8229 19.8825C80.8229 20.0993 80.6061 20.3161 80.3893 20.3161H80.0235ZM78.8582 19.4421C78.8582 19.3676 78.716 19.2998 78.6414 19.2998C78.5669 19.2998 78.4992 19.3744 78.4246 19.4421L77.9165 21.1155V21.2577L77.9911 21.3323C78.0656 21.3323 78.1333 21.3323 78.1333 21.2577L78.2078 20.9664H79.0073L79.0818 21.2577C79.0818 21.3323 79.1563 21.3323 79.2241 21.3323C79.2918 21.3323 79.2986 21.3323 79.3663 21.2577V21.1155L78.8582 19.4421ZM78.9327 20.6751H78.3501L78.6414 19.5844L78.9327 20.6751ZM70.4101 20.3161C70.1933 20.1738 69.9765 20.1738 69.7529 20.0993C69.6107 20.0993 69.5362 19.957 69.5362 19.8079C69.6107 19.6657 69.7529 19.5912 69.902 19.5912C70.0443 19.5912 70.1933 19.6657 70.2678 19.7334C70.3423 19.8079 70.4846 19.7334 70.4846 19.6589C70.4846 19.5844 70.3424 19.2931 69.902 19.2931C69.7597 19.2931 69.6107 19.3676 69.4684 19.4353C69.3261 19.5099 69.2516 19.6521 69.2516 19.8012C69.2516 19.9502 69.3261 20.167 69.3939 20.2348C69.4684 20.3093 69.6107 20.377 69.8275 20.377C69.9697 20.377 70.1933 20.4516 70.2611 20.5938C70.3356 20.6683 70.2611 20.8106 70.1865 20.8851C70.112 20.9597 69.9697 21.0274 69.8207 21.0274C69.6784 21.0274 69.5294 20.9529 69.4549 20.8851C69.3803 20.8106 69.3126 20.8106 69.2381 20.8106C69.1635 20.8106 69.1635 20.9529 69.1635 21.0274C69.3058 21.2442 69.5294 21.3932 69.7462 21.3187C69.963 21.3187 70.1798 21.2442 70.3288 21.1019C70.4033 20.9597 70.4711 20.8106 70.4711 20.6683C70.6337 20.5328 70.5591 20.3838 70.4101 20.3161ZM71.7244 19.5844C71.7989 19.5844 71.8667 19.5099 71.8667 19.4421C71.8667 19.3744 71.7921 19.2998 71.7244 19.2998H70.925C70.8505 19.2998 70.7827 19.3744 70.7827 19.4421C70.7827 19.5099 70.8572 19.5844 70.925 19.5844H71.2163V21.1832C71.2163 21.2577 71.2908 21.3255 71.3586 21.3255C71.4331 21.3255 71.5008 21.251 71.5008 21.1832V19.5844H71.7244ZM59.855 11.9425C60.0718 11.4343 60.4376 10.994 60.8712 10.7027C61.088 10.5604 61.088 10.4859 61.088 10.4859C61.088 10.4859 61.0135 10.4114 60.7222 10.4114C60.2886 10.4859 59.8482 10.6281 59.4824 10.9195C59.0488 11.2853 58.7575 11.7934 58.6085 12.3015C58.5339 12.8841 58.5339 13.5413 58.683 14.1917L57.6668 14.6998C57.5922 14.483 57.5245 14.3339 57.3755 14.1171C57.1587 13.9004 56.7928 13.9004 56.5015 14.0426C56.2847 14.1849 56.1357 14.4085 56.1357 14.6998C56.1357 14.9166 56.2102 15.0656 56.3525 15.2079C56.1357 15.2824 55.9866 15.4247 55.7698 15.5737C55.553 15.7905 55.4785 16.0818 55.553 16.2986C55.6276 16.5154 55.9189 16.6645 56.1357 16.6645C56.427 16.5899 56.7183 16.4477 57.0096 16.2309C57.0841 16.3731 57.2264 16.4477 57.3755 16.5967C57.5177 16.6712 57.6668 16.739 57.809 16.739C57.9513 16.739 58.0258 16.739 58.1749 16.6645C58.3917 16.5222 58.5407 16.2986 58.4662 16.0073C58.3917 15.6415 58.1004 15.4992 58.1004 15.3502C59.8482 14.4017 61.6707 13.6768 63.5608 13.2364C64.8683 12.8706 66.1826 12.6538 67.4902 12.5793C68.3641 12.5048 69.1635 12.5793 70.0375 12.8706C70.6946 13.0129 71.345 13.3787 71.8599 13.8868C71.8599 13.2297 71.4941 12.7215 70.9114 12.4302C70.4778 12.1389 69.963 11.9967 69.4549 11.9221C69.5971 11.7053 69.7462 11.4885 69.8884 11.3395C70.1798 11.0482 70.5456 10.9059 70.9047 10.8314C71.2637 10.7569 71.5618 10.7569 71.9209 10.7569C71.7786 10.4656 71.555 10.3233 71.196 10.2488C70.8301 10.1742 70.3965 10.2488 70.0307 10.3233C69.3736 10.6146 68.7909 11.1972 68.4996 11.8544C67.7747 11.7799 67.1176 11.8544 66.3859 11.8544C66.4604 11.2718 66.6772 10.7636 66.9685 10.2555C67.3344 9.82195 67.8425 9.45611 68.4251 9.30707C68.4996 9.30707 68.5674 9.23255 68.6419 9.1648C68.4996 9.02253 68.3506 8.94801 67.7679 8.94801C66.9685 8.94801 66.3114 9.38159 65.8778 9.96422C65.5119 10.5469 65.2952 11.1295 65.2952 11.8544C64.2044 12.0712 62.8901 12.3625 62.8901 12.3625C62.8901 11.9289 63.0324 11.414 63.1814 11.055C63.4727 10.5469 63.8386 10.1065 64.3467 9.74743L64.5635 9.60516C64.4212 9.53064 64.2722 9.53064 64.0554 9.53064C63.6895 9.53064 63.3305 9.67291 62.9646 9.82195C62.2397 10.1878 61.8739 10.9127 61.8739 11.7121V12.7283C61 12.9451 60.126 13.2364 59.3266 13.5277C59.5637 13.0332 59.6382 12.4506 59.855 11.9425ZM69.3194 16.7458C69.3194 16.7458 69.6107 16.6712 69.6852 16.6035C69.6107 16.529 69.5429 16.529 69.4684 16.4612C69.1771 16.3189 68.9603 16.2444 68.669 16.2444C68.3777 16.2444 68.0864 16.3189 67.795 16.3867C67.2124 16.678 66.8466 17.1861 66.6298 17.8433C66.6298 17.8433 65.9726 17.8433 65.6813 17.9178L64.7328 17.9923C64.7328 17.85 64.7328 17.701 64.8074 17.4842C64.8819 17.1929 65.0242 16.8271 65.241 16.6103C65.6068 16.1767 66.1149 15.8854 66.6975 15.8108H66.8398C66.623 15.6686 66.4062 15.594 66.1826 15.6686C64.9429 15.6686 63.9267 16.617 63.7776 17.85C63.7776 17.9246 63.7031 18.1414 63.7031 18.1414C63.7031 18.1414 63.195 18.2159 63.0459 18.2836C62.6801 18.3582 62.2465 18.4259 61.8807 18.5749C61.8807 18.1414 62.0229 17.6265 62.2465 17.2674C62.4633 16.9016 62.7546 16.5425 63.0459 16.2512C63.1205 16.1767 63.1882 16.1089 63.3372 16.0344C63.195 16.0344 63.1205 15.9599 62.9714 15.9599C62.2465 15.9599 61.5894 16.3935 61.3726 17.0506C61.1558 17.6333 61.0812 18.2904 61.0812 18.873C60.7154 18.9476 59.916 19.2389 59.5502 19.3811C59.4756 18.9476 59.4756 18.5072 59.5502 17.9991C59.6247 17.6333 59.8415 17.2742 60.1328 16.9829L60.3496 16.7661C60.3496 16.7661 60.2751 16.6916 59.916 16.7661C59.3334 16.9084 58.8253 17.3487 58.6762 17.9313C58.5339 18.514 58.5339 19.1711 58.5339 19.7538C58.3171 19.8283 57.66 20.1196 57.5855 20.1873C57.5855 20.0451 57.511 19.896 57.4432 19.7538C57.3009 19.6115 57.1519 19.4624 56.9351 19.4624C56.7928 19.4624 56.7183 19.4624 56.5693 19.537C56.4947 19.6115 56.3525 19.6792 56.3525 19.8283C56.2779 19.9705 56.2779 20.1196 56.3525 20.2619C56.427 20.3364 56.427 20.4041 56.4947 20.4786C56.5693 20.5532 56.637 20.6954 56.637 20.6954C56.4202 20.77 56.2034 20.8377 56.0544 20.9868C55.7631 21.129 55.6885 21.4949 55.8376 21.7862C55.9121 22.003 56.1289 22.0775 56.3457 22.0775C56.7115 22.0775 57.0028 21.9352 57.2196 21.6439C57.2196 21.6439 57.4364 22.0097 57.511 22.0775C57.5855 22.2198 57.8023 22.2943 58.0191 22.2943C58.0936 22.2943 58.2359 22.2943 58.3104 22.2198C58.5272 22.0775 58.6762 21.8539 58.6017 21.6371C58.6017 21.4203 58.5272 21.2035 58.3849 21.0545L58.3104 20.98L58.8185 20.7632C59.6179 20.3296 60.4173 19.9638 61.2235 19.6725C62.531 19.2389 63.9199 18.873 65.3019 18.724C65.5932 18.6495 65.8846 18.6495 66.1759 18.6495C66.5417 18.6495 66.9008 18.724 67.1921 18.8663V17.4097H67.7747C68.2286 17.1861 68.7367 16.8948 69.3194 16.7458ZM67.2802 22.1317V24.2454C67.0634 24.2454 66.7721 24.1709 66.623 24.1709C64.7328 24.2454 62.8359 24.7535 61.1625 25.4784C60.3631 25.8443 59.6315 26.2033 58.9066 26.6437C59.1979 26.786 59.3401 27.0095 59.4892 27.3008C59.6314 27.7344 59.3469 28.1003 58.7643 28.1003C58.2562 28.1003 58.1817 27.6667 57.9649 27.5176C57.8903 27.5176 57.5313 27.9512 57.3822 28.0257C57.24 28.1003 57.0909 28.1003 57.0164 28.168C56.7996 28.168 56.6506 28.0935 56.5083 27.9512C56.366 27.8089 56.366 27.6599 56.366 27.4431C56.4405 27.2263 56.5828 27.0773 56.7319 26.935C56.8741 26.8605 57.0232 26.7927 57.1654 26.6437C57.1654 26.5014 56.8741 26.2778 56.7996 26.0611C56.7251 25.7697 56.7996 25.4784 57.0164 25.2616C57.2332 25.1194 57.5245 25.1194 57.7413 25.2616C58.0326 25.4039 58.1749 25.9188 58.1749 25.9865C58.3171 25.912 58.7575 25.5529 59.0488 25.4039C58.7575 24.8213 58.5407 24.2386 58.6152 23.5815C58.7575 22.633 59.7805 21.9081 60.2141 22.1994C59.8482 22.633 59.5569 23.1479 59.5569 23.7305C59.4824 24.1641 59.5569 24.6045 59.7737 24.9703C59.7737 24.9703 60.8645 24.5367 61.2303 24.4622C60.939 23.8051 60.939 23.0056 61.1558 22.3485C61.5216 21.6913 62.172 21.2577 62.9037 21.2577C61.9552 21.9149 61.5216 23.0802 61.8874 24.0964C62.1042 24.0219 63.344 23.6628 63.4863 23.5883C63.4118 22.8634 63.6286 22.1317 64.0689 21.5491C64.4348 21.041 64.9429 20.7496 65.6 20.6006C65.7423 20.6006 65.8168 20.6006 65.9659 20.6751C65.9659 20.7496 65.9659 20.7496 65.8913 20.8174L65.8168 20.8919C65.3087 21.3255 64.8683 21.7659 64.5093 22.3485C64.367 22.7143 64.218 23.0734 64.218 23.4392V23.5137C64.218 23.5137 64.8751 23.3715 65.3832 23.3715C65.8913 23.3715 66.3317 23.297 66.3317 23.297C66.4062 23.0802 66.474 22.8634 66.623 22.7143C66.9143 22.423 67.0634 22.2807 67.2802 22.1317ZM87.7399 31.237C87.3064 31.3792 87.015 31.6028 86.7915 31.9619C86.4256 32.5445 86.2834 33.2017 86.5002 33.2017H87.0083C87.2996 33.2017 87.5164 33.2017 87.8077 33.2762C87.8822 33.2762 87.8822 33.2762 87.95 33.2017C88.0177 33.1271 88.0245 33.1271 88.0245 33.0594C88.2413 32.4022 88.6071 31.8196 89.1897 31.4605C89.4065 31.3183 89.6978 31.2437 89.9146 31.1692C90.3482 31.1692 90.7141 31.3115 91.0054 31.6028C91.0799 31.7451 90.5718 31.4605 89.6978 32.3277C89.4065 32.619 89.1897 32.9103 89.0407 33.2762C89.0407 33.2762 89.0407 33.3507 89.1152 33.3507C89.4811 33.493 90.206 33.642 90.5718 33.7843C90.6463 33.7843 90.7141 33.7843 90.7886 33.7098C91.0054 33.4184 91.2222 33.2017 91.5135 32.9849C91.8048 32.7681 92.1706 32.6935 92.5297 32.6935H92.6042C93.4036 32.7681 93.4782 33.2017 93.4782 33.2762C93.4782 33.3507 93.3359 33.3507 93.1868 33.3507C92.6042 33.493 92.1706 33.7843 91.8048 34.2246C91.7303 34.2992 91.9471 34.516 91.9471 34.516C92.5297 34.8818 92.8955 35.5322 92.7465 36.1893C92.7465 36.3316 92.7465 36.3316 92.672 36.3316C92.5297 36.2571 92.4552 36.1893 92.3806 36.1148L91.2899 35.2409C90.6328 34.8073 89.9824 34.5837 89.1762 34.4414C88.5936 34.3669 88.0109 34.2992 87.4283 34.2992C86.1208 34.2992 84.881 34.516 83.6412 34.8818C83.4244 34.9563 82.625 35.1731 81.8933 35.3899L81.4597 35.5322L81.751 35.3154C82.0424 35.0241 82.3337 34.7327 82.625 34.3669L82.8418 34.1501L83.2076 34.0756L84.6642 33.7843C84.8065 33.7098 84.9555 33.642 84.9555 33.493C85.03 32.9103 85.2468 32.4022 85.6127 32.0364C85.904 31.5283 86.4121 31.237 86.9947 31.1624C87.5977 30.9457 87.889 31.1624 87.7399 31.237ZM77.4762 41.9411C77.2594 41.7988 77.1103 41.5075 77.0426 41.2162C77.0426 40.9249 77.1849 40.6336 77.4762 40.559C77.7675 40.4168 78.0588 40.4845 78.3501 40.6336C78.6414 40.8504 78.716 41.0671 78.7837 41.433H78.8582C79.1495 41.2907 79.5831 41.0671 79.949 40.9249L80.0912 40.8504C80.0912 40.8504 80.1658 40.8504 80.1658 40.7081C80.0235 40.3423 80.0235 39.9832 80.0235 39.6173C80.0235 39.1838 80.1658 38.8179 80.3893 38.4521C80.8974 37.5781 81.8459 37.6527 81.7714 37.7272C81.4055 38.093 81.1887 38.6011 81.1142 39.1092C81.0397 39.4006 81.0397 39.6919 81.1142 39.9832C81.1142 40.1255 81.1142 40.2745 81.1887 40.2745C81.2633 40.2745 81.5546 40.1322 81.7714 40.0577C81.9882 39.9832 82.354 39.9154 82.5708 39.8409C82.7131 39.8409 82.6453 39.7664 82.6453 39.6986C82.6453 38.8992 82.8621 38.0998 83.3025 37.4427C83.6683 37.0091 84.1764 36.7178 84.6845 36.6432C84.9013 36.6432 85.1926 36.7178 85.1181 36.7855C84.9758 36.86 84.9013 36.9278 84.7523 37.0023C84.461 37.2191 84.1696 37.5104 83.9528 37.8762C83.736 38.3843 83.587 38.8925 83.6615 39.4751C84.0951 39.4751 84.5355 39.4006 84.9691 39.3328C85.0436 39.3328 85.1113 39.2583 85.1113 39.1905C85.2536 38.6824 85.4772 37.734 85.9853 37.3681C86.2766 37.1513 86.5679 37.0023 86.9337 37.0023C87.1505 37.0023 87.8077 37.2191 87.6586 37.2936C87.2251 37.4359 86.9337 37.7272 86.6424 38.093C86.4256 38.3843 86.2766 38.6757 86.2766 39.0415C86.2021 39.2583 86.4189 39.2583 86.4189 39.2583C86.7847 39.2583 87.1438 39.3328 87.5096 39.4006C87.5841 39.4006 87.7264 39.2583 87.7264 39.2583C87.8687 38.967 88.0922 38.7502 88.309 38.6011C88.5258 38.3843 88.8171 38.2353 89.183 38.2353C89.8401 38.2353 90.1992 38.7434 90.0569 38.7434C89.4743 38.8857 88.9662 39.2515 88.6003 39.6919C88.6003 39.6919 88.5258 39.7664 88.6003 39.8341C89.183 40.3422 89.6165 40.9994 89.6911 41.7988C89.6911 41.8733 89.7656 42.1647 89.6165 42.1647C89.183 41.6566 88.6681 41.2162 88.16 40.8571C87.4351 40.4913 86.5611 40.2745 85.6872 40.2745C84.671 40.2745 83.648 40.4168 82.6318 40.7081C81.541 41.0739 80.4503 41.5075 79.5018 42.0901C79.6441 42.2324 79.7931 42.3815 79.8677 42.5237C80.0099 42.815 79.9422 43.1809 79.6509 43.3977C79.5086 43.5399 79.285 43.5399 79.0682 43.4722C78.5601 43.3977 78.4856 42.8896 78.4111 42.7473C78.3366 42.8896 78.2688 43.0386 78.0453 43.1131C77.7539 43.3299 77.3204 43.3299 77.029 42.9709C77.029 42.9709 77.029 42.8963 76.9545 42.8963C76.7377 42.605 76.8122 42.2392 77.029 42.0224C77.4762 42.0156 77.4762 41.9411 77.4762 41.9411ZM79.1495 47.8351C79.075 47.6929 79.0073 47.5438 78.9327 47.327C78.7905 46.9612 78.716 46.6021 78.7905 46.2363C78.865 45.8027 79.2986 45.4369 79.7389 45.3623C79.5222 45.5791 79.3731 45.945 79.4476 46.3108C79.4476 46.6766 79.5899 46.968 79.7389 47.2593C79.8135 47.3338 79.8135 47.2593 79.8135 47.2593C80.1048 47.117 80.3216 46.968 80.6129 46.8934V46.8189C80.3961 46.1618 80.5384 45.5114 80.8297 44.9288C81.0465 44.4952 81.4868 44.2039 81.9949 44.1293C82.503 44.0548 82.2863 44.1293 82.3608 44.2716C81.9949 44.4884 81.7781 44.8542 81.5614 45.2201C81.4191 45.5859 81.4191 46.0195 81.4868 46.4599H81.5614C81.8527 46.3853 82.144 46.3176 82.5098 46.2431C82.5098 46.2431 82.5843 46.2431 82.5843 46.1685C82.7266 45.5859 83.0179 45.0778 83.4583 44.6374C83.8241 44.3461 84.1832 44.2039 84.6235 44.1293C85.2062 44.1293 85.2807 44.2716 85.2807 44.3461C85.3552 44.4207 85.1384 44.3461 84.9149 44.4207C84.6235 44.5629 84.3322 44.7865 84.1154 45.0778C83.8986 45.2946 83.7496 45.5859 83.7496 45.9518V46.0263C84.0409 46.1008 84.4068 46.1685 84.6981 46.2431H84.7726C84.9149 45.8772 85.2062 45.5859 85.4297 45.2946C85.7211 45.0778 86.0124 44.9288 86.3782 44.9288C86.595 44.9288 86.8118 45.0033 86.9608 45.1456C86.9608 45.1456 87.1776 45.2878 87.1031 45.3623C86.7373 45.4369 86.3782 45.6537 86.1546 45.945C85.7888 46.3786 85.7888 46.5276 85.7211 46.6021C85.6465 46.6767 85.7211 46.7444 85.7956 46.8189C86.3782 47.1848 86.4527 47.5438 86.5205 47.7674C86.5205 47.9842 86.446 48.35 86.2292 48.0587C86.0124 47.7674 85.6465 47.4761 85.213 47.3338C84.6303 47.117 84.0477 46.968 83.4651 46.968C82.8824 46.968 82.3743 47.0425 81.8662 47.2593C81.1413 47.4761 80.4842 47.7674 79.9015 48.2077C79.827 48.2823 79.7593 48.35 79.6102 48.4245C79.3934 48.5668 79.2444 48.7159 79.1021 48.8581C79.0276 48.9326 79.1766 49.0004 79.1766 49.0004C79.8338 49.2917 79.9015 49.7253 79.6847 49.9489C79.5425 50.0911 79.3189 50.1657 79.1021 50.0234C78.594 49.6575 78.6685 49.3662 78.445 49.4408C78.3027 49.5153 78.1536 49.8743 78.0114 50.0234C77.8691 50.2402 77.5033 50.3147 77.2865 50.0979C77.0697 49.8811 76.9952 49.5153 77.1442 49.2985C77.2865 49.1562 77.4355 49.0817 77.5778 48.9326C77.5778 48.9326 77.212 48.7159 77.0697 48.5668C76.8529 48.35 76.8529 47.9842 77.0697 47.7674C77.361 47.5506 77.7268 47.6251 77.9436 47.9097C78.1604 48.201 78.1604 48.2755 78.2349 48.2755H78.3095C78.5669 48.35 79.075 47.9842 79.1495 47.8351C79.1495 47.9097 79.1495 47.9097 79.1495 47.8351ZM82.354 28.6151H82.1372C82.0627 28.6151 81.9949 28.5406 81.9204 28.4729C81.8459 28.3983 81.8459 28.3306 81.8459 28.2561C81.8459 28.1816 81.9204 28.1816 81.9204 28.1138C82.0627 28.0393 82.1372 27.897 82.2117 27.8225C82.2863 27.6802 82.2863 27.6057 82.2863 27.4567H82.2117C82.1372 27.5312 82.0695 27.6734 81.9949 27.6734C81.9204 27.748 81.7781 27.748 81.7036 27.748C81.6291 27.748 81.5614 27.6734 81.4868 27.6734C81.4123 27.5989 81.4123 27.5312 81.4123 27.4567C81.4123 27.3821 81.4868 27.3821 81.5546 27.3144C81.6969 27.3144 81.8459 27.2399 81.9204 27.1721C81.9949 27.1044 82.0627 27.0298 82.0627 26.9553V26.664C81.9882 26.664 81.9204 26.7385 81.8459 26.7385C81.7036 26.8131 81.6291 26.7385 81.4801 26.7385C81.3378 26.664 81.2633 26.5217 81.1887 26.4472V26.3727C81.331 26.3727 81.4055 26.2304 81.4801 26.0814C81.4801 26.0814 81.4801 26.0069 81.5546 26.0069C81.5546 25.9323 81.6291 25.9323 81.6291 25.9323V25.641C81.6291 25.5665 81.5546 25.4987 81.5546 25.4242H81.4801C81.4055 25.4987 81.4801 25.641 81.4055 25.7155L81.1887 25.9323C81.1142 25.9323 81.1142 26.0069 81.0465 26.0069C80.972 25.9323 80.9042 25.8646 80.9042 25.7901C80.9042 25.6478 80.9042 25.5733 80.9787 25.4987C81.0533 25.282 81.1955 25.1329 81.3446 24.9161C81.4191 24.7738 81.5614 24.6993 81.6359 24.5503C81.7104 24.4758 81.7781 24.259 81.6359 24.1844C81.4936 24.1099 81.4936 24.3267 81.4191 24.4012C81.1278 24.5435 80.8365 24.6926 80.6197 24.8348C80.4774 24.9771 80.4029 25.2007 80.4029 25.3429C80.3284 25.4175 80.4029 25.6342 80.3283 25.7088C80.3283 25.7833 80.2538 25.7833 80.1861 25.7833C80.1116 25.7088 80.0438 25.5665 79.9693 25.4175V25.1261C79.9693 25.1261 79.9693 25.0516 79.8948 25.0516C79.7525 25.1261 79.678 25.1939 79.678 25.3429C79.6034 25.4852 79.678 25.7088 79.7525 25.851L80.1861 26.5082C80.3283 26.725 80.4774 26.9418 80.5519 27.1653C80.6942 27.3076 80.6942 27.5312 80.6942 27.748C80.6197 27.9648 80.5519 28.1138 80.4029 28.2561H80.3283C80.1861 28.1138 80.037 27.9648 79.8202 27.8225C79.6034 27.6802 79.3867 27.6057 79.0953 27.5312C78.804 27.5312 78.5127 27.4567 78.1469 27.5312C77.8556 27.5312 77.4897 27.6057 77.1984 27.6057C76.9071 27.6057 76.6903 27.6057 76.399 27.5312C76.1822 27.4567 76.0332 27.3144 75.9654 27.1653C75.8909 26.9485 75.8231 26.7995 75.8909 26.5827C75.8909 26.4404 75.9654 26.2169 76.0332 26.0746C76.1077 25.9323 76.1754 25.8578 76.3245 25.7833C76.4667 25.7088 76.6158 25.7088 76.8326 25.7088C76.9071 25.7088 76.9748 25.7833 77.0494 25.851L77.1916 25.9933H77.2662C77.2662 25.7765 77.2662 25.5597 77.1916 25.3362C77.1171 25.1939 77.0494 25.0448 76.9003 24.9026H77.0426C77.1849 24.9026 77.4084 24.9771 77.5507 25.0448L77.7675 25.2616C77.7675 24.9703 77.693 24.7535 77.5507 24.5367C77.4762 24.3945 77.3339 24.3199 77.2594 24.2454C77.1849 24.2454 77.3339 24.1709 77.4017 24.1709C77.5439 24.1709 77.693 24.1709 77.8352 24.2454C77.9098 24.2454 77.9098 24.3199 77.9775 24.3199L78.052 24.3945C78.052 24.3945 78.1265 24.3945 78.1265 24.3199C78.1265 24.2454 78.052 24.1777 78.052 24.1031C77.8352 23.8864 77.6184 23.7373 77.3949 23.5205C77.3949 23.5205 77.3204 23.5205 77.3204 23.446C77.2458 23.3715 77.1781 23.2292 77.1781 23.1547C77.1781 23.0802 77.1036 23.0802 77.1036 23.0124V22.8701C77.1781 22.7279 77.2458 22.7279 77.3949 22.6533C77.4694 22.6533 77.6117 22.5788 77.7607 22.5788H77.8352V22.5043C77.693 22.4298 77.5439 22.362 77.4017 22.362C77.1849 22.362 76.9681 22.362 76.7445 22.4366C76.6022 22.5111 76.4532 22.5788 76.2364 22.5788C76.0941 22.5788 76.0196 22.5788 75.8706 22.5043C75.796 22.5043 75.7283 22.4298 75.7283 22.2875C75.7283 22.1452 75.7283 21.9962 75.8028 21.9217L76.0196 21.7049C76.0941 21.7049 76.0941 21.6304 76.0941 21.6304H75.9518C75.7351 21.7049 75.586 21.7726 75.3692 21.8472L75.0034 22.213L74.9289 22.2875H74.7866L74.353 22.5043C74.2107 22.5788 74.1362 22.6466 73.9872 22.7211C73.9126 22.7211 73.7704 22.7956 73.6959 22.7956C73.4791 22.7956 73.1877 22.7956 73.1132 23.0124C73.1132 23.0869 73.1132 23.1547 73.1878 23.1547C73.2623 23.1547 73.2623 23.2292 73.33 23.2292L73.4723 23.3037C73.4723 23.3037 73.5468 23.3037 73.5468 23.3782C73.5468 23.4528 73.4723 23.4528 73.4723 23.4528C73.33 23.4528 73.2555 23.4528 73.1064 23.3782H72.9642C72.7474 23.595 72.4561 23.7441 72.2393 23.8864L72.1648 23.9609V24.1031C72.1648 24.1777 72.0902 24.1777 72.0902 24.1777C72.0157 24.1777 72.0157 24.2522 72.0157 24.3199V24.4622C72.0157 24.5367 72.0902 24.6045 72.158 24.6045H72.2325C72.307 24.6045 72.3748 24.53 72.4493 24.53H72.5238V24.6045C72.5238 24.679 72.4493 24.679 72.4493 24.7467C72.4493 24.8145 72.3748 24.8213 72.4493 24.889C72.5238 24.9568 72.6661 24.9635 72.7406 24.889C72.8151 24.8145 72.8151 24.8145 72.8151 24.7467C72.8151 24.679 72.8897 24.6722 72.9574 24.6045C73.0997 24.53 73.1742 24.53 73.3232 24.53C73.3978 24.53 73.4655 24.53 73.54 24.6045C73.54 24.6045 73.6146 24.6045 73.6146 24.679C73.6146 24.7535 73.54 24.8213 73.54 24.8958C73.54 24.9703 73.54 25.0381 73.4655 25.0381C73.391 25.0381 73.391 25.1803 73.391 25.1803C73.391 25.1803 73.391 25.2549 73.3165 25.2549C73.2419 25.3294 73.0997 25.3971 72.9506 25.5462C72.8084 25.6884 72.5848 25.912 72.517 26.1288C72.4425 26.2033 72.4425 26.2711 72.4425 26.3456C72.368 26.5624 72.368 26.7792 72.1512 26.6369C71.9344 26.4946 71.7176 26.4201 71.5686 26.2711L71.3518 26.0543C71.135 25.763 70.9182 26.0543 70.7692 26.1965L70.112 27.0705C70.0375 27.145 70.0375 27.145 70.0375 27.2128C70.0375 27.2805 69.963 27.355 69.8952 27.4296C69.8207 27.5041 69.8207 27.6463 69.8207 27.7209C69.8207 27.9377 69.7462 28.0867 69.6784 28.229C69.6039 28.3035 69.5362 28.4458 69.5362 28.5203V28.8116C69.5362 28.8861 69.5362 28.9539 69.6784 28.9539H69.7529L70.1865 28.7371C70.1865 28.7371 70.2611 28.7371 70.2611 28.6626C70.3356 28.588 70.3356 28.588 70.2611 28.5203V28.4458C70.2611 28.3712 70.1865 28.3712 70.1865 28.3712V28.2967V28.1816C70.1865 28.107 70.1865 28.107 70.2611 28.0393C70.3356 27.9648 70.4033 27.897 70.4778 27.897C70.5524 27.8225 70.6201 27.6802 70.5524 27.5312V27.4567V27.3821C70.5524 27.3076 70.5524 27.2399 70.6269 27.2399C70.7014 27.1653 70.7014 27.0976 70.7692 27.0231C70.8437 26.8808 70.9114 26.8063 71.0605 26.8063C71.2095 26.8063 71.3518 26.8063 71.4941 26.9485C71.6363 27.0908 71.7109 27.3144 71.7109 27.5312L71.9276 27.9648C72.0022 28.107 72.1444 28.107 72.219 28.0393H72.2935C72.368 28.0393 72.368 28.0393 72.4357 28.1138L72.6525 28.3306C72.7271 28.4051 72.6525 28.4729 72.578 28.4729H72.2867C71.9209 28.5474 71.5618 28.6151 71.2705 28.6151H71.196C71.1214 28.6151 71.1214 28.6151 71.1214 28.6897V28.7642C71.1214 28.7642 71.1214 28.8387 71.0469 28.8387V29.0555C71.1892 29.5636 71.1892 30.0717 71.1214 30.5866C71.0469 30.7289 71.1214 30.9524 71.2637 31.0947C71.3382 31.1692 71.3382 31.1692 71.406 31.1692C71.406 31.1692 71.4805 31.1692 71.4805 31.2437C71.555 31.3183 71.555 31.386 71.555 31.4605C71.555 31.5351 71.6296 31.6773 71.6973 31.7519C71.7718 31.8941 71.9141 31.9686 71.9886 32.0432H72.0631C72.1377 32.0432 72.2054 32.0432 72.2054 31.9686C72.2799 31.8264 72.3477 31.6028 72.2799 31.4605C72.2799 31.386 72.2054 31.3183 72.1377 31.3183H72.0631H71.9886C71.9141 31.3183 71.9141 31.2437 71.9141 31.176C71.8396 31.1015 71.8396 30.9592 71.9141 30.8847V30.8102V30.6679C71.9141 30.5934 71.9141 30.5934 71.8396 30.5256C71.7651 30.4511 71.7651 30.3834 71.6973 30.3834C71.6296 30.3834 71.6228 30.3834 71.6228 30.3088V30.214C71.6973 29.9972 71.6973 29.7804 71.6228 29.4891C71.6228 29.4146 71.6228 29.3468 71.6973 29.2723C71.8396 29.13 72.1309 29.2723 72.2799 29.3468C72.4967 29.4213 72.7135 29.4891 72.9371 29.4891C73.3029 29.5636 73.662 29.4146 74.0278 29.1978H74.1023C74.2446 29.2723 74.3191 29.34 74.3937 29.4146C74.685 29.6314 74.9763 29.7059 75.2676 29.8481C75.7012 29.9227 76.1415 29.9227 76.5751 29.8481C76.7174 29.8481 76.7919 29.8481 76.8664 29.9227C76.8664 29.9227 76.941 29.9227 76.941 29.9972C76.941 30.1395 76.8664 30.2885 76.8664 30.4308C76.8664 30.5053 76.941 30.573 76.941 30.6476C77.0155 30.7221 77.0155 30.7898 77.0155 30.8644L77.09 30.9389C77.3068 31.2302 77.3813 31.6638 77.09 32.0296C76.9477 32.1719 76.7242 32.3209 76.5819 32.4632C76.4396 32.6055 76.2161 32.68 75.9993 32.68C75.857 32.68 75.708 32.7545 75.6334 32.8223C75.4912 32.9645 75.3421 33.0391 75.1999 33.1136C75.1253 33.1136 75.0576 33.1881 75.0576 33.2558C74.9831 33.3981 74.9153 33.6217 74.9153 33.8385C74.9153 33.9807 74.9898 33.9807 75.0576 33.9807C75.1999 33.9807 75.3489 33.9062 75.4912 33.8385C75.5657 33.8385 75.6334 33.6962 75.5657 33.6217L75.4912 33.4794V33.4049V33.3304L75.5657 33.2558C75.6402 33.2558 75.6402 33.1813 75.708 33.1813H75.7825C75.9993 33.2558 76.2161 33.1813 76.2906 32.9645C76.2906 32.9645 76.2906 32.89 76.3651 32.89C76.4396 32.8155 76.4396 32.7477 76.5074 32.7477C76.941 32.4564 77.3813 32.2396 77.8149 32.0906C77.8894 32.0906 77.8894 32.0161 77.8894 32.0161V31.8738V31.3657C77.8894 31.2234 77.964 31.0744 78.1062 31.0744C78.1807 31.0744 78.2485 31.1489 78.2485 31.1489C78.3908 31.3657 78.6143 31.5147 78.8311 31.5825C78.9056 31.5825 78.9734 31.657 79.0479 31.657C79.1902 31.7315 79.3392 31.8738 79.4138 32.0906C79.4138 32.1651 79.4138 32.3074 79.3392 32.3819L78.9056 33.0391C78.8311 33.1813 78.7634 33.2558 78.6143 33.3304C78.4721 33.4726 78.2485 33.5472 78.1062 33.6962C77.964 33.7707 77.8894 33.913 77.8149 33.9875L77.5981 34.6447C77.5236 34.7869 77.6726 34.7869 77.7404 34.7869C77.8827 34.7124 78.1062 34.6447 78.2485 34.5702C78.2485 34.5702 78.323 34.5702 78.323 34.4956V34.4211C78.323 34.3466 78.323 34.2788 78.2485 34.2788C78.174 34.2043 78.174 34.1366 78.2485 34.062L78.323 33.9875C78.4653 33.913 78.5398 33.913 78.6889 33.913C78.8311 33.913 78.9802 33.8385 79.1224 33.6962L79.197 33.6217C79.3392 33.1136 79.7051 32.6732 80.1454 32.3819C80.22 32.3819 80.2199 32.3074 80.2199 32.2396V32.0228L79.8541 31.4402C79.7796 31.2979 79.7118 31.1489 79.6373 30.9321C79.6373 30.7153 79.7118 30.5663 79.7796 30.424C79.7796 30.3495 79.8541 30.3495 79.8541 30.2817C79.9286 30.1395 80.0709 30.0649 80.1454 29.9904C80.22 29.8481 80.3622 29.7736 80.4367 29.6246C80.5113 29.4823 80.579 29.2587 80.6535 29.1165C80.7281 28.9742 80.6535 28.8252 80.6535 28.6829C80.6535 28.6084 80.6535 28.6084 80.7281 28.5406L80.9449 28.3238H81.2362C81.453 28.3983 81.5275 28.4661 81.7443 28.4661H82.0356C82.1372 28.7574 82.2795 28.7574 82.354 28.6151ZM75.8028 25.5597C75.8028 25.702 75.7283 25.851 75.586 25.9256C75.5115 25.9256 75.4437 26.0001 75.3692 26.0001C75.2947 26.0001 75.2947 25.8578 75.2947 25.7088V25.492V25.2684V25.1261V24.9093V24.4758C75.2947 24.3335 75.2202 24.1099 75.1524 23.9677C75.1524 23.8931 75.0779 23.7509 75.0779 23.6763C75.0779 23.6018 75.0034 23.6018 75.0034 23.5341C75.0034 23.4595 74.9289 23.4595 74.9289 23.4595C74.8543 23.385 74.7866 23.385 74.7866 23.3173V23.2428C75.0034 23.1682 75.2202 23.1682 75.3692 23.3173C75.6605 23.5341 75.8028 23.8254 75.8028 24.1912C75.8706 24.6858 75.8706 25.1194 75.8028 25.5597ZM55.9934 34.8073H69.2448C68.0051 33.4997 67.3547 31.7519 67.2802 29.9294V29.7126H55.194C55.2685 31.4538 55.5598 33.1271 55.9934 34.8073ZM75.1457 41.2094H58.6898C59.1233 42.0088 59.5637 42.8083 60.0718 43.5399C60.729 44.4884 61.3793 45.4301 62.1855 46.304H75.1457V41.2094ZM96.4049 18.3514H84.2442V22.8634H96.3371C96.3371 21.4068 96.4049 19.8757 96.4049 18.3514ZM96.5539 10.7772C94.3724 9.90325 92.1097 9.17835 89.8537 8.59572C86.7237 7.87082 83.5193 7.28819 80.3148 7.06462C78.7837 6.92235 77.4017 6.84783 75.8706 6.84783V11.8747H96.4794C96.5539 11.5021 96.5539 11.1363 96.5539 10.7772ZM83.5193 18.2023H68.0118V29.7804C68.0118 31.8941 68.9603 33.8588 70.5591 35.1663C72.0157 36.4061 73.9059 37.131 75.8028 37.2055C77.2594 37.2055 78.6414 36.772 79.8812 36.0403C81.4123 35.1663 82.6453 33.7098 83.2279 32.0364C83.4447 31.4538 83.5193 30.8711 83.5938 30.2885L83.5193 18.2023ZM83.1534 30.1462C83.1534 30.7289 83.0112 31.3115 82.8621 31.8941C82.2795 33.493 81.1142 34.8818 79.6576 35.7557C78.4924 36.4806 77.1849 36.8465 75.796 36.8465C73.9736 36.8465 72.158 36.1216 70.7692 34.9563C69.2381 33.6488 68.3641 31.7519 68.2964 29.7872V18.6427H83.1534V30.1462ZM78.716 37.2055C78.2078 37.4223 77.6252 37.5714 77.1171 37.6391C77.1171 37.7136 77.1171 37.7136 77.1916 37.7814C77.2662 37.9237 77.3339 37.9982 77.4829 37.9982C77.6252 37.9982 77.7743 37.9237 77.9165 37.6323C77.9165 37.6323 77.9911 37.5578 78.0588 37.6323C78.2011 37.8491 78.4924 38.0659 78.716 37.9237C78.8582 37.8491 78.9327 37.5578 78.8582 37.4156L78.716 37.2055ZM106.459 4.00243H107.624C107.99 4.00243 108.349 4.07695 108.64 4.21922C108.931 4.43602 109.074 4.72733 109.006 5.09317C109.006 5.23544 109.006 5.38448 108.931 5.52675C108.857 5.66902 108.789 5.74355 108.715 5.81807C108.572 5.89259 108.423 6.03486 108.281 6.03486C107.99 6.10938 107.773 6.10938 107.482 6.10938H106.465L106.459 4.00243ZM105.652 3.27753V9.61193H106.452V6.77331H107.692L108.931 9.61193H109.805L108.498 6.62426C108.931 6.54974 109.297 6.33295 109.514 6.04164C109.731 5.75032 109.88 5.38448 109.88 5.02542C109.88 4.80863 109.88 4.59184 109.805 4.44279C109.731 4.226 109.663 4.00921 109.514 3.86016C109.372 3.64337 109.148 3.49433 108.857 3.42658C108.491 3.28431 108.132 3.28431 107.766 3.28431L105.652 3.27753ZM106.018 10.3368C105.002 9.90325 104.128 9.09705 103.762 8.08084C103.329 6.9901 103.329 5.75032 103.762 4.65958C104.196 3.64337 105.002 2.76943 106.018 2.40359C108.2 1.45512 110.679 2.40359 111.695 4.58506V4.65958C112.129 5.75032 112.129 6.9901 111.695 8.08084C111.262 9.09705 110.456 9.971 109.439 10.3368C108.274 10.7772 107.109 10.7772 106.018 10.3368ZM109.663 11.0685C110.246 10.7772 110.828 10.4114 111.262 9.97777C111.695 9.54419 112.061 8.96156 112.353 8.37893C112.861 7.13915 112.861 5.68257 112.353 4.44957C112.061 3.86694 111.695 3.28431 111.262 2.85072C110.828 2.41714 110.246 2.0513 109.663 1.75999C108.423 1.25188 106.967 1.25188 105.659 1.75999C105.077 2.0513 104.494 2.41714 104.06 2.85072C103.627 3.28431 103.261 3.86694 102.97 4.44957C102.461 5.68935 102.461 7.14592 102.97 8.37893C103.261 8.96156 103.627 9.54419 104.06 9.97777C104.494 10.4114 105.077 10.7772 105.659 11.0685C106.967 11.5766 108.423 11.5766 109.663 11.0685Z" fill="black"/>
</g>
<defs>
<linearGradient id="paint0_linear" x1="53.8966" y1="27.9963" x2="97.5016" y2="27.9963" gradientUnits="userSpaceOnUse">
<stop stop-color="#E1BE78"/>
<stop offset="1" stop-color="#E3AB36"/>
</linearGradient>
<linearGradient id="paint1_linear" x1="50.6421" y1="9.78431" x2="96.5131" y2="36.2682" gradientUnits="userSpaceOnUse">
<stop stop-color="#E1BE78"/>
<stop offset="0.34" stop-color="#FFFAD1"/>
<stop offset="0.75" stop-color="#C69632"/>
<stop offset="0.995" stop-color="#FCDC99"/>
</linearGradient>
<linearGradient id="paint2_linear" x1="55.4853" y1="5.39063" x2="95.6796" y2="5.39063" gradientUnits="userSpaceOnUse">
<stop stop-color="#FFE3A8"/>
<stop offset="1" stop-color="#D2A249"/>
</linearGradient>
<clipPath id="clip0">
<rect width="150" height="75.5115" fill="white"/>
</clipPath>
</defs>
</svg>
