<svg width="150" height="150" viewBox="0 0 150 150" fill="none" xmlns="http://www.w3.org/2000/svg">
<g clip-path="url(#clip0)">
<path fill-rule="evenodd" clip-rule="evenodd" d="M0 0H150V149.94H0V0Z" fill="white"/>
<path fill-rule="evenodd" clip-rule="evenodd" d="M117.514 100.352V118.193H110.944V100.352H117.514ZM96.4045 104.271C99.9663 104.271 102.886 106.451 102.886 109.125C102.886 111.811 99.9663 113.99 96.4045 113.99C92.8428 113.99 89.9238 111.811 89.9238 109.125C89.9238 106.451 92.8428 104.271 96.4045 104.271ZM98.1368 100.352L92.7548 94.2812H100.783L108.179 104.271C108.9 105.293 109.445 107.035 109.522 108.785C109.786 114.184 103.616 118.63 96.4045 118.63C89.1931 118.63 83.2867 114.204 83.2867 108.785C83.2859 103.357 88.5799 99.1157 98.1368 100.352V100.352ZM67.2685 110.343C67.2685 112.764 69.5159 113.99 71.3648 113.99C73.2138 113.99 75.6768 112.628 75.6768 110.343V100.352H81.8945V110.343C81.8945 117.268 75.7639 118.659 71.3648 118.659C66.9759 118.659 60.7185 117.268 60.7185 110.343V100.352H67.2685V110.343V110.343ZM47.5508 94.2812L62.6445 118.192H55.1116L52.4549 113.99H37.8585L35.1037 118.192H27.416L41.4685 96.5768L39.3386 94.2812H47.5508V94.2812ZM49.7702 109.69H40.6319L45.2645 102.579L49.7702 109.69V109.69Z" fill="#CC2229"/>
<path fill-rule="evenodd" clip-rule="evenodd" d="M116.714 75.9325C118.563 76.0787 120.295 75.8928 122.105 75.4751C123.13 75.1863 124.132 74.822 125.103 74.3853C126.039 73.9107 126.937 73.3643 127.789 72.751C128.614 72.1069 129.388 71.4011 130.106 70.6398C130.793 69.8507 131.42 69.0119 131.984 68.1304C132.665 66.9721 133.18 65.8053 133.619 64.5312C133.911 63.4709 134.135 62.4403 134.271 61.3598C134.33 60.5142 134.349 59.6959 134.33 58.8597C134.233 57.4689 133.989 56.1947 133.619 54.8529C133.356 54.1023 133.063 53.3622 132.742 52.6344C132.013 51.1945 131.157 49.9593 130.106 48.7333C129.385 47.9781 128.611 47.2757 127.789 46.6315C126.725 45.8609 125.583 45.2021 124.383 44.6658C123.389 44.2744 122.368 43.9559 121.328 43.7129C119.854 43.4519 118.357 43.3411 116.86 43.3823C114.349 43.5861 111.829 44.3547 109.707 45.7362C109.562 45.8427 109.397 45.9789 109.25 46.0854C110.924 48.6058 112.033 51.543 112.705 54.4709C112.899 55.4145 113.055 56.3596 113.152 57.3117C113.473 60.3361 113.172 63.4009 112.334 66.3195C111.624 68.7224 110.524 71.154 109.075 73.2068C111.274 74.7851 114.029 75.7372 116.714 75.9325V75.9325ZM104.676 54.278C104.4 53.5248 104.075 52.7905 103.704 52.0797C102.827 53.7335 102.195 55.4938 101.912 57.3522C101.757 58.4116 101.689 59.4828 101.757 60.5625C101.903 62.8681 102.644 65.1823 103.742 67.2164C104.443 65.8061 104.969 64.4137 105.29 62.8681C105.825 60.2218 105.659 57.4198 104.86 54.8319L104.676 54.278ZM91.8884 75.7777C93.942 75.437 95.7918 74.7455 97.6112 73.7529L98.3107 73.3352C97.9216 72.8093 97.5808 72.2065 97.2594 71.6417C96.1645 69.7052 95.333 67.6312 94.7871 65.4747C94.4776 64.218 94.2596 62.9405 94.135 61.6523C93.9793 59.7073 94.058 57.7507 94.3692 55.8244C94.963 52.3325 96.2579 49.0546 98.2508 46.136C97.4049 45.5814 96.5287 45.0656 95.5949 44.6767C94.0089 44.0147 92.3351 43.5675 90.6129 43.4407C87.0309 43.1684 83.5283 43.9953 80.5113 45.9415C82.6521 49.1612 83.9758 52.9354 84.5112 56.7587C84.6279 57.9161 84.7057 59.0153 84.6964 60.1821C84.638 62.469 84.2489 64.6969 83.5672 66.885C82.8373 69.2101 81.7572 71.3415 80.4343 73.3834C83.782 75.5824 87.9274 76.4 91.8884 75.7777V75.7777ZM76.0928 54.1326C75.8104 53.3523 75.4624 52.5974 75.0523 51.8759C74.4305 53.0723 73.8944 54.3076 73.5442 55.602C73.2034 56.9337 72.9901 58.3066 72.9901 59.6874C72.9995 60.5632 73.0773 61.4485 73.243 62.3041C73.6083 64.0793 74.2348 65.7906 75.1021 67.3821C75.6461 66.3211 76.1138 65.2126 76.4344 64.0645C76.7262 62.9062 76.941 61.7876 77.0095 60.6014C77.0772 58.9857 76.9604 57.3716 76.59 55.805C76.4639 55.2504 76.2787 54.6677 76.0928 54.1326V54.1326ZM66.0324 53.8603C66.6642 51.3796 67.6767 49.0841 69.019 46.9045L69.5358 46.1368L69.6136 46.0201C67.7537 44.872 65.7592 44.0746 63.6091 43.6561C62.0519 43.3543 60.3586 43.3248 58.7812 43.4516C56.5829 43.7635 54.4895 44.4449 52.6024 45.6117C52.3783 45.758 52.1347 45.9229 51.9309 46.0878C53.6156 48.6081 54.7136 51.5453 55.386 54.4733C55.7268 56.0343 55.9191 57.6241 55.9603 59.2214C55.9782 60.6703 55.874 62.1181 55.649 63.5495C55.486 64.4839 55.2746 65.4093 55.0156 66.3218C54.3059 68.7247 53.2055 71.1563 51.7558 73.2091C56.884 76.8776 64.3779 76.9157 69.5653 73.3258C67.5802 70.359 66.2269 67.0997 65.6339 63.5783C65.2415 61.1474 65.2186 58.6713 65.5662 56.2336C65.6907 55.4355 65.8464 54.6483 66.0324 53.8603V53.8603ZM47.2586 54.0151C47.006 53.353 46.7137 52.7067 46.3832 52.0797C45.517 53.7335 44.8836 55.4938 44.6019 57.3522C44.4455 58.4116 44.377 59.4828 44.4455 60.5625C44.5926 62.8681 45.3318 65.1823 46.4213 67.2164C46.9474 66.1562 47.3948 65.1154 47.7061 63.9672C48.6212 60.7857 48.4461 57.1196 47.2586 54.0151V54.0151ZM37.157 64.0645C36.802 62.1372 36.6748 60.1749 36.778 58.2179C37.0581 53.8918 38.4931 49.7197 40.9335 46.136C40.0962 45.5814 39.2106 45.0656 38.2861 44.6767C36.6901 44.0147 35.0162 43.5675 33.3034 43.4407C32.0287 43.3434 30.7634 43.4127 29.4981 43.5675C28.7011 43.7133 27.9119 43.8984 27.1332 44.1221C25.8772 44.5423 24.6676 45.0899 23.5232 45.7564C22.6428 46.3173 21.8066 46.9448 21.0221 47.6334C20.2583 48.3489 19.5521 49.1235 18.9101 49.9499C18.1391 51.0123 17.4833 52.1537 16.9537 53.3547C16.557 54.3473 16.235 55.3681 15.9903 56.4086L15.8542 57.216C15.7121 58.3125 15.6569 59.4184 15.6892 60.5236C15.7382 61.3504 15.8542 62.1579 15.9911 62.9747C16.3709 64.5701 16.8775 65.9905 17.6362 67.4498C18.0303 68.1304 18.4559 68.7923 18.9116 69.4333C19.7287 70.485 20.605 71.3889 21.6073 72.2648C22.4341 72.9126 23.3058 73.5011 24.2158 74.0259C25.4126 74.6295 26.6188 75.1149 27.9137 75.4751C28.6919 75.6595 29.5098 75.8158 30.3074 75.9123C31.2023 75.9706 32.0684 76.0095 32.954 75.9605C35.3241 75.7903 37.6352 75.1417 39.7476 74.0539L40.3016 73.7521L40.9927 73.3344C40.3406 72.4391 39.795 71.3889 39.2892 70.3964C38.3068 68.3871 37.5901 66.2586 37.157 64.0645V64.0645ZM132.373 78.8892C131.434 79.5616 130.463 80.1883 129.463 80.767C128.422 81.2932 127.357 81.7703 126.271 82.1967C125.151 82.5763 124.022 82.9069 122.864 83.1698L121.687 83.3838C119.624 83.6366 117.551 83.7439 115.487 83.5199C113.009 83.2435 110.588 82.5941 108.305 81.5939C106.689 80.8607 105.15 79.9677 103.711 78.9281C102.106 80.0467 100.451 81.0105 98.6415 81.7689C96.1569 82.7912 93.5253 83.4114 90.8456 83.6062C88.9752 83.7142 87.0987 83.6164 85.2497 83.3145C81.5416 82.644 78.0491 81.2041 74.9737 79.0059C73.6601 79.93 72.2874 80.7569 70.8182 81.4274C67.7825 82.8089 64.5702 83.5681 61.2325 83.6459C59.0334 83.6747 56.8529 83.4413 54.7113 82.8875C51.6951 82.0987 48.9403 80.7569 46.3917 78.9273C45.0478 79.8608 43.6953 80.6783 42.2261 81.3691C39.1795 82.7793 35.852 83.5774 32.4941 83.6459C31.0926 83.6653 29.7206 83.5487 28.3386 83.383C27.1641 83.1728 26.0011 82.9033 24.8539 82.5755C23.7447 82.1983 22.6536 81.77 21.5839 81.292C20.5526 80.7664 19.549 80.1882 18.577 79.5597C17.3245 78.6698 16.1373 77.6913 15.0246 76.6318C14.2278 75.7961 13.4713 74.9228 12.7578 74.015C12.0897 73.0753 11.4662 72.1048 10.8893 71.1066C10.3608 70.0638 9.8771 68.999 9.43957 67.9149C9.06073 66.7966 8.73611 65.6606 8.46683 64.511C8.25958 63.3223 8.11025 62.1242 8.01938 60.9211L7.98047 59.6951L8.01938 58.4599L8.10653 57.2441L8.26295 56.0469L8.46683 54.87L8.74932 53.7024L9.06059 52.5745L9.43957 51.466L9.87769 50.3669L10.3641 49.3066L10.8893 48.2752L11.473 47.2631L12.0862 46.2994L12.7578 45.3566L13.4682 44.462C14.227 43.5776 15.0246 42.7507 15.8518 41.9518C16.7301 41.201 17.6393 40.4871 18.577 39.8119C19.5538 39.1913 20.5571 38.6133 21.5839 38.0796C22.6537 37.5987 23.7448 37.1668 24.8539 36.7852C26.0033 36.4639 27.1604 36.1815 28.3386 35.9886C30.0615 35.7739 31.793 35.6572 33.526 35.7553C35.7251 35.9202 37.8659 36.348 39.9297 37.0683C41.9371 37.8024 43.8486 38.7758 45.6229 39.9675L46.0213 40.2498L46.3427 40.4832C49.7784 37.9248 53.895 36.3208 58.1579 35.8432C60.7072 35.6005 63.2861 35.7063 65.7966 36.2515C68.0401 36.7469 70.2046 37.549 72.2291 38.635C73.2026 39.1709 74.1271 39.7738 75.0321 40.4054C76.5604 39.2573 78.2732 38.3044 80.035 37.5654C83.4116 36.1349 87.178 35.5413 90.8472 35.756C92.0253 35.8432 93.2222 36.0088 94.37 36.2515C97.118 36.852 99.7396 37.9287 102.116 39.4331C102.632 39.7629 103.167 40.1238 103.654 40.4832C106.022 38.7399 108.681 37.4323 111.508 36.6218C113.649 36.0088 115.819 35.7366 118.048 35.707L119.312 35.7366L120.568 35.8346L121.793 35.9902C122.987 36.1968 124.169 36.4627 125.336 36.7867C126.459 37.1565 127.56 37.5886 128.635 38.0811C129.673 38.6014 130.68 39.1798 131.652 39.8134C132.586 40.484 133.482 41.184 134.348 41.9534C135.177 42.7383 135.96 43.5699 136.694 44.4441C137.401 45.3472 138.057 46.2889 138.659 47.2647L139.224 48.2767L139.75 49.3082L140.207 50.3684L140.625 51.4574L140.986 52.576L141.296 53.7039C141.559 54.8824 141.764 56.0391 141.909 57.2456C141.997 58.4715 142.025 59.6967 141.997 60.9226C141.908 62.1265 141.755 63.3248 141.539 64.5125L141.267 65.6801L140.946 66.8088L140.566 67.9165C140.142 69.0048 139.661 70.0701 139.126 71.1081C138.359 72.4416 137.494 73.7162 136.538 74.9213C135.788 75.7993 134.992 76.637 134.153 77.4307L133.277 78.1805L132.373 78.8892V78.8892Z" fill="white"/>
<path fill-rule="evenodd" clip-rule="evenodd" d="M46.762 73.1432C43.2197 69.6016 41.2058 65.0689 41.2058 59.6984C41.2058 54.5816 43.1225 50.0287 46.3628 46.5275C49.5456 49.9999 51.5113 54.6306 51.5113 59.6984C51.5113 63.2199 50.8304 66.1875 49.1752 69.0368C51.6382 61.2161 50.9269 55.7095 47.9106 51.3417C48.4554 52.1103 49.9347 56.4197 49.6623 59.6977C49.6623 63.3264 48.5527 66.7024 46.664 69.5035L46.762 73.1432V73.1432ZM141.287 59.6992C141.287 72.4921 130.845 82.9094 118.057 82.9094C112.705 82.9094 107.761 81.09 103.722 77.9979C99.6748 81.0527 94.7006 82.9094 89.3 82.9094C83.9663 82.9094 79.042 81.09 74.9845 78.0851C70.9263 81.1203 66.0323 82.9094 60.7375 82.9094C55.3851 82.9094 50.4421 81.09 46.4025 77.9979C42.3637 81.0527 37.381 82.9094 31.9897 82.9094C19.1917 82.9094 8.75 72.4914 8.75 59.6992C8.75 46.9071 19.1917 36.4688 31.9897 36.4688C37.381 36.4688 42.3637 38.3279 46.3527 41.4402C50.3534 38.3279 55.3454 36.4688 60.7375 36.4688C66.1288 36.4688 71.0438 38.317 75.0429 41.3523C79.1177 38.1811 84.1359 36.4622 89.3 36.4688C94.7006 36.4688 99.6748 38.3279 103.665 41.4402C107.673 38.3279 112.666 36.4688 118.057 36.4688C131.331 36.4688 141.287 46.8783 141.287 59.6992V59.6992ZM118.057 38.9012C114.125 38.9012 110.506 40.0198 107.381 41.9753C112.49 37.8985 120.694 37.0141 130.115 40.3021C126.719 38.24 122.339 36.9075 118.057 36.9075C112.617 36.9075 107.576 38.8817 103.644 42.092L103.703 44.7088C99.9557 41.1197 94.8757 38.902 89.2992 38.902C85.5273 38.8955 81.8313 39.9617 78.6428 41.9761C83.7336 37.8993 91.9474 37.0148 101.357 40.3029C97.9604 38.2408 93.5909 36.9083 89.2992 36.9083C83.8776 36.9083 78.9743 38.7371 75.0421 41.9567V44.7096C71.306 41.1205 66.3132 38.9027 60.7367 38.9027C56.9618 38.8961 53.2627 39.9622 50.0709 41.9769C55.1696 37.9001 63.374 37.0156 72.7939 40.3037C69.3971 38.2415 65.0284 36.909 60.7367 36.909C55.3057 36.909 50.2654 38.8833 46.3239 42.0936L46.3831 44.7104C42.6462 41.1212 37.5654 38.9035 31.9897 38.9035C28.2121 38.8981 24.5104 39.9641 21.3146 41.9777C26.4234 37.9008 34.627 37.0164 44.047 40.3045C40.651 38.2423 36.2713 36.9098 31.9897 36.9098C19.4353 36.9098 9.18812 47.163 9.18812 59.7016C9.18812 64.06 10.7056 68.826 13.2845 72.6687C8.07842 62.4062 10.7056 54.6041 14.0253 49.7502C12.7499 52.6003 11.0861 56.4135 11.174 59.7016C11.4954 71.0157 20.5356 80.5004 31.9905 80.5004C37.7997 80.5004 42.7046 78.4382 46.5589 74.5465C50.3736 78.5253 54.8412 80.5004 60.7383 80.5004C63.4154 80.501 66.0658 79.9688 68.5351 78.935C71.0044 77.9012 73.2431 76.3864 75.1207 74.4788C78.8303 78.1947 83.6659 80.5004 89.3008 80.5004C95.1208 80.5004 100.016 78.4382 103.869 74.5465C107.694 78.5253 112.151 80.5004 118.058 80.5004C129.513 80.5004 138.855 71.1519 138.855 59.7016C138.854 48.3275 129.434 38.9012 118.057 38.9012V38.9012ZM72.2982 73.0561C69.0918 75.8424 64.9861 77.3765 60.7375 77.3756C56.5625 77.3064 54.6933 76.5775 52.9128 75.7024C58.0123 79.6711 69.3403 78.1341 72.2297 75.6433C69.0773 77.91 65.1156 79.2145 60.7367 79.2145C55.3641 79.2145 50.839 77.2496 47.278 73.7375C50.937 70.0115 52.786 65.3326 52.786 59.7C52.786 54.223 50.6359 49.2142 47.1418 45.4882C49.818 42.803 55.112 40.1769 60.7375 40.1769C65.8564 40.1769 70.6734 42.502 74.1775 45.7504H71.5978C68.2991 49.6996 66.5171 54.1849 66.5171 59.7C66.5171 64.0584 68.0353 68.8245 70.6049 72.6672C65.3988 62.4047 68.0353 54.6026 71.3449 49.7486C70.0695 52.5988 68.4252 56.422 68.503 59.7C68.6205 64.7881 70.9263 69.5059 74.0499 73.1634L72.2982 73.0561ZM75.0328 72.7255C71.7434 69.2235 69.7878 64.8161 69.7878 59.6992C69.7878 54.5824 71.7823 49.9034 75.0421 46.4108C78.3611 49.8933 80.2591 54.5139 80.2591 59.6992C80.2591 63.2207 79.5774 66.1882 77.9229 69.0376C80.3851 61.2168 79.6739 55.7103 76.6576 51.3425C77.2031 52.111 78.6824 56.4205 78.4194 59.6984C78.4194 63.4346 77.242 66.9264 75.2468 69.7867L75.0328 72.7255V72.7255ZM76.0452 73.7554C79.491 70.0784 81.5431 65.1661 81.5431 59.6984C81.5431 54.2214 79.5392 49.4943 76.0452 45.7488C79.5486 42.3059 84.0255 40.1753 89.3 40.1753C94.3901 40.1753 99.1581 42.0912 102.633 45.3116L100.395 45.3218C97.0678 49.3748 95.2514 54.4565 95.2555 59.6992C95.2555 64.0577 96.7737 68.8237 99.3526 72.6664C94.1466 62.4039 96.7745 54.6018 100.093 49.7479C98.8172 52.598 97.162 56.4018 97.2406 59.6992C97.3574 65.1467 99.1876 69.6319 102.71 73.396L100.696 73.1829C97.6204 75.781 93.6306 77.3764 89.2992 77.3764C85.1243 77.3072 83.4208 76.4811 81.4847 75.7032C86.574 79.6719 97.9021 78.1348 100.792 75.6441C97.6391 77.9108 93.6781 79.2153 89.2992 79.2153C83.6846 79.2138 79.656 76.9859 76.0452 73.7554V73.7554ZM79.3929 73.5812C82.1757 75.585 85.6402 76.7526 89.2992 76.7526C92.9684 76.7526 96.5589 75.5165 99.3713 73.5423C96.5978 69.6996 94.8166 64.7873 94.8166 59.6992C94.8166 54.5925 96.4811 49.8552 99.3122 45.9635C96.4245 43.7966 92.9093 42.6289 89.2985 42.6373C85.6394 42.6373 82.252 43.7559 79.4692 45.7496C82.1446 49.5246 83.9554 54.6703 83.9554 59.6992C83.957 64.7873 82.1664 69.7385 79.3929 73.5812V73.5812ZM75.102 68.8828C76.8673 66.1453 77.8034 62.9561 77.7976 59.6992C77.7976 56.2556 76.8428 53.0359 75.0429 50.4386C73.3106 53.1721 72.2406 56.324 72.2406 59.6992C72.2406 63.0067 73.4468 66.2458 75.102 68.8828ZM70.6243 73.5127C67.7832 69.5634 66.0696 64.8161 66.0696 59.6992C66.0683 54.7002 67.6904 49.8359 70.692 45.8375C67.9085 43.9014 64.3568 42.6373 60.7468 42.6373C56.4154 42.3938 51.6864 44.8745 50.9954 46.0413C53.5649 49.7479 55.2186 54.7862 55.2186 59.6992C55.2186 64.7772 53.5649 69.4864 50.7222 73.3859C53.4965 75.5266 56.9804 76.7526 60.7367 76.7526C64.4059 76.7526 67.8322 75.585 70.6243 73.5127ZM45.3901 73.396L43.3754 73.1829C40.3 75.781 36.3203 77.3764 31.9897 77.3764C27.8148 77.3072 26.5775 76.3154 24.155 75.7032C29.256 79.6719 40.5825 78.1348 43.4828 75.6441C40.3202 77.9108 36.3593 79.2153 31.9897 79.2153C21.2461 79.2153 12.4581 70.4502 12.4581 59.7008C12.4581 48.9513 21.236 40.1777 31.9897 40.1777C37.0791 40.1777 41.8478 42.0936 45.3224 45.314L43.0742 45.3241C39.8728 49.2438 37.9359 54.2634 37.9359 59.7016C37.9359 64.06 39.4634 68.826 42.033 72.6687C36.8269 62.4062 39.4642 54.6041 42.7731 49.7502C41.4984 52.6003 39.8533 56.4041 39.9319 59.7016C40.0471 65.1467 41.8673 69.6311 45.3901 73.396V73.396ZM46.4313 68.7366C48.1432 66.0328 49.0508 62.8982 49.0484 59.6984C49.0484 56.3723 48.0857 53.2499 46.4017 50.5833C44.738 53.1907 43.668 56.3723 43.668 59.6984C43.668 62.9577 44.8251 66.168 46.4313 68.7366V68.7366ZM42.0618 73.5423C39.2883 69.6996 37.497 64.7873 37.497 59.6992C37.497 54.5925 39.1623 49.8552 41.9933 45.9635C39.1095 43.7966 35.5975 42.6288 31.9897 42.6373C22.5885 42.6373 14.9202 50.3025 14.9202 59.6992C14.9202 69.0975 22.5885 76.7526 31.9897 76.7526C35.6496 76.7526 39.2502 75.5165 42.0618 73.5423V73.5423ZM104.082 73.1432C100.54 69.6016 98.5254 65.0689 98.5254 59.6984C98.5254 54.5816 100.443 50.0287 103.673 46.5275C106.865 49.9999 108.821 54.6306 108.821 59.6984C108.821 63.2199 108.141 66.1875 106.485 69.0368C108.958 61.2161 108.237 55.7095 105.23 51.3417C105.766 52.1103 107.255 56.4197 106.982 59.6977C106.982 63.3264 105.873 66.7024 103.984 69.5035L104.082 73.1432V73.1432ZM104.598 73.7367C108.247 70.0107 110.106 65.3318 110.106 59.6992C110.106 54.2222 107.955 49.2135 104.451 45.4874C107.138 42.8022 112.422 40.1761 118.056 40.1761C128.801 40.1761 137.568 48.9498 137.568 59.6992C137.568 63.2207 136.897 66.1882 135.243 69.0376C137.705 61.2168 136.984 55.7103 133.978 51.3425C134.513 52.111 136.002 56.4205 135.729 59.6984C135.729 69.4359 127.788 77.3749 118.056 77.3749C113.881 77.3056 112.013 76.5768 110.222 75.7017C115.323 79.6704 126.649 78.1333 129.54 75.6425C126.387 77.9093 122.426 79.2138 118.056 79.2138C112.685 79.2138 108.159 77.2488 104.598 73.7367V73.7367ZM108.033 73.3859C110.816 75.5266 114.3 76.7526 118.057 76.7526C127.447 76.7526 135.117 69.0967 135.117 59.6992C135.117 50.3025 127.448 42.6373 118.057 42.6373C113.726 42.3938 108.997 44.8745 108.306 46.0413C110.875 49.7479 112.53 54.7862 112.53 59.6992C112.53 64.7764 110.875 69.4857 108.033 73.3859ZM103.752 68.7366C105.405 66.1003 106.369 63.0067 106.369 59.6984C106.369 56.3723 105.396 53.2499 103.722 50.5833C102.048 53.1907 100.987 56.3723 100.987 59.6984C100.987 62.9577 102.136 66.168 103.752 68.7366Z" fill="#D0D1D3"/>
</g>
<defs>
<clipPath id="clip0">
<rect width="150" height="149.94" fill="white"/>
</clipPath>
</defs>
</svg>
