<svg width="150" height="57" viewBox="0 0 150 57" fill="none" xmlns="http://www.w3.org/2000/svg">
<g clip-path="url(#clip0)">
<path d="M74.9981 0C33.3888 0 0.0351562 12.4718 0.0351562 28.1084C0.0351562 43.6529 33.6643 56.22 74.9986 56.22C116.336 56.22 149.967 43.6094 149.967 28.1084C149.966 12.6106 116.336 0 74.9981 0V0ZM149.508 25.938C149.535 26.0752 149.554 26.214 149.578 26.3471C149.558 26.2145 149.531 26.0768 149.508 25.938Z" fill="#C9C9CA"/>
<path d="M75.0004 1.12305C34.2187 1.12305 1.18359 13.1774 1.18359 28.0947C1.18359 43.0048 34.2187 55.0669 75.0004 55.0669C115.787 55.0669 148.814 43.0048 148.814 28.0947C148.814 13.1785 115.787 1.12305 75.0004 1.12305" fill="url(#paint0_radial)"/>
<path d="M75.3356 6.77887C110.008 6.77887 138.637 15.2495 143.01 26.2132V26.2111C140.089 14.6772 110.757 5.61621 74.9943 5.61621C37.2982 5.61621 6.74219 15.6814 6.74219 28.103C6.74219 29.1154 6.94675 30.1098 7.33724 31.087C7.16799 30.4498 7.08183 29.7934 7.08089 29.1341C7.08192 16.7892 37.6389 6.77887 75.3356 6.77887V6.77887Z" fill="url(#paint1_linear)"/>
<path d="M145.275 25.2891C145.574 26.1971 145.726 27.1468 145.727 28.1028C145.727 41.7015 114.06 52.7237 74.9928 52.7237C40.2264 52.7237 11.3219 43.9916 5.375 32.4939C9.88737 44.4442 39.4449 53.6761 75.2751 53.7155H75.708C114.673 53.6771 146.227 42.7663 146.227 29.3032C146.228 27.9375 145.902 26.5931 145.275 25.2891V25.2891Z" fill="url(#paint2_linear)"/>
<path d="M88.6053 31.8921C88.4495 31.4964 88.4205 31.0521 88.5101 30.6103C88.5416 30.4534 88.3392 30.3125 88.1734 30.4829C86.5893 32.1345 86.4712 34.2708 87.509 35.2299C87.8793 35.5748 88.306 35.7297 88.7602 35.7587C88.0844 34.9011 87.7648 33.2195 88.6053 31.8921V31.8921Z" fill="url(#paint3_linear)"/>
<path d="M104.653 35.0725H104.655C104.736 34.9161 104.817 34.7509 104.903 34.5738C104.969 34.4376 104.936 34.3992 104.88 34.3764C104.717 34.3179 104.549 34.1931 104.526 34.0642C104.515 34.0409 104.514 34.0186 104.512 33.9922L104.514 34.0062C104.535 34.2553 104.6 34.7245 104.653 35.0725V35.0725Z" fill="url(#paint4_linear)"/>
<path d="M106.453 28.6045C106.982 29.1115 107.305 29.7262 107.365 30.2918C107.388 30.5595 107.592 30.589 107.759 30.3555C107.802 30.2918 107.852 30.2125 107.911 30.1235C107.865 30.0587 107.815 29.9966 107.768 29.9355C107.359 29.4642 106.919 29.0197 106.453 28.6045V28.6045Z" fill="url(#paint5_linear)"/>
<path d="M84.5117 27.5635C84.9364 28.144 85.1347 28.9732 85.1052 30.0343C85.098 30.3093 85.2984 30.2912 85.4289 30.1037C85.5034 29.9996 85.5692 29.9075 85.6381 29.8127V29.8044C85.3284 28.853 84.853 27.9188 84.5117 27.5635V27.5635Z" fill="url(#paint6_linear)"/>
<path d="M104.237 30.3703C102.931 29.7431 100.938 30.8934 99.1345 33.1125C97.6564 34.9272 96.8599 36.7724 96.8324 38.5716C96.821 39.2127 97.0639 40.0051 97.6284 40.2941C97.8038 40.3915 97.9948 40.4576 98.1929 40.4893C98.1295 40.2535 98.0964 40.0106 98.0945 39.7664C98.0723 37.9097 98.6492 36.0557 100.131 34.2384C101.921 32.0301 103.805 30.9296 105.113 31.5376C105.045 31.0518 104.792 30.6329 104.237 30.3703V30.3703Z" fill="url(#paint7_linear)"/>
<path d="M65.1682 34.0485C66.5447 32.182 68.0953 31.4761 69.8633 30.7122C70.0964 30.6102 70.1244 30.4787 70.0798 30.2726C70.0042 29.9204 69.7587 29.0462 69.6836 28.8359C69.7396 29.0281 69.6898 29.1752 69.4599 29.2606C67.4536 30.0224 65.4421 31.2053 64.0506 33.0692C62.472 35.1842 62.0489 37.7281 63.1034 39.1937C63.3545 39.5365 63.6539 39.7908 63.9843 39.9565C63.4162 38.2061 63.831 35.859 65.1682 34.0485V34.0485Z" fill="url(#paint8_linear)"/>
<path d="M75.2702 45.119C76.6266 45.119 78.2937 45.119 79.4216 45.1123C79.5894 45.103 79.709 45.0082 79.7971 44.8829C81.4828 42.2416 83.2825 39.3761 85.005 36.7328C85.3825 38.0664 85.5767 38.6868 86.2795 39.315C86.9947 39.9536 87.6561 40.1214 88.6292 40.1297C89.5132 40.1405 90.3843 39.7873 91.4211 39.357C91.7708 39.2078 92.1065 39.0277 92.4243 38.8189C92.4243 38.329 92.474 37.8364 92.561 37.3662C92.5683 37.3154 92.5185 36.9897 92.2404 37.1829C91.6637 37.6021 91.0329 37.9413 90.3651 38.1912C89.4102 38.5475 88.9653 38.6811 88.0813 38.6728C86.9694 38.664 85.9672 38.1912 85.2629 37.0912C84.8688 36.4972 84.7056 35.5914 84.6684 34.9264C84.6632 34.8534 84.5679 34.7239 84.4633 34.8917C82.5942 37.7484 80.8489 40.5088 78.9938 43.4095C78.897 43.5462 78.8131 43.6353 78.621 43.6415C77.4749 43.6415 76.2195 43.6384 74.9574 43.6456C74.8253 43.6456 74.7306 43.585 74.7031 43.4928C74.802 43.9356 74.9641 44.7379 75.0066 44.9253C75.0346 45.0522 75.1293 45.119 75.2702 45.119V45.119Z" fill="url(#paint9_linear)"/>
<path d="M93.4168 43.5396C93.7296 44.1404 94.4314 44.8147 94.8571 45.0265C97.288 46.2244 100.759 44.8665 102.988 42.7234C103.011 42.6939 103.016 42.6919 103.047 42.6572C103.149 43.0419 103.275 43.5096 103.293 43.5743C103.445 44.072 103.683 44.5241 103.892 44.7639C105.417 46.4875 108.655 45.7029 112.026 43.0948C113.91 41.6385 115.306 40.1759 117.017 38.1857C117.086 38.1028 117.08 37.9806 117.041 37.7942C116.943 37.3612 116.79 36.5782 116.704 36.1846C116.701 36.2503 116.678 36.3136 116.638 36.3658C114.852 38.5436 112.877 40.6022 110.989 42.0585C108.052 44.3336 105.121 44.911 103.673 43.4526C103.13 42.9104 102.834 42.1356 102.798 41.4784C102.781 41.1221 102.6 41.1056 102.429 41.2728C100.698 42.9876 97.6899 44.8861 94.9477 43.5334C93.5339 42.8353 92.7964 41.5256 92.5312 40.0843C92.5333 40.0993 92.5385 40.1174 92.5421 40.1335C92.7115 41.1548 92.9337 42.6292 93.4168 43.5396V43.5396Z" fill="url(#paint10_linear)"/>
<path d="M92.2086 34.2384C93.1107 33.7501 93.9031 32.7143 93.8047 31.0338C93.7524 30.1974 93.5106 29.3356 93.119 28.6406C93.3852 29.1476 93.4966 29.738 93.4023 30.36C93.2293 31.4445 92.6415 32.4005 91.6425 32.8956C90.7958 33.3104 89.8066 33.2374 89.1136 32.6195C88.9056 32.4281 88.7404 32.1947 88.6289 31.9349C88.8071 32.7542 88.9629 33.3565 89.1763 33.6791C89.8294 34.6641 90.9605 34.9127 92.2086 34.2384V34.2384Z" fill="url(#paint11_linear)"/>
<path d="M119.038 20.0466C118.47 21.0311 107.489 37.7491 106.795 39.4783C106.575 40.0257 106.549 40.4442 106.773 40.7456C106.999 41.0491 107.33 41.1645 107.705 41.1583C107.744 40.947 107.824 40.7093 107.924 40.4581C108.618 38.7227 118.902 23.0954 119.466 22.1062C119.513 22.0218 119.496 21.927 119.481 21.8638C119.448 21.7069 119.103 20.0455 119.069 19.8896C119.079 19.944 119.068 19.9998 119.038 20.0466V20.0466Z" fill="url(#paint12_linear)"/>
<path d="M73.4648 27.8271C73.497 27.8618 73.5223 27.8965 73.5503 27.9312C74.2112 28.9147 74.5716 30.299 74.6079 31.7289C74.6472 32.0303 74.7762 32.0376 74.9222 31.8827C75.0559 31.747 75.1864 31.6025 75.3148 31.4632C75.1216 30.6952 74.8223 30.0043 74.5141 29.3378C74.3992 29.0975 73.8978 28.2358 73.4648 27.8271Z" fill="url(#paint13_linear)"/>
<path d="M55.7425 43.4532C55.9424 43.5541 56.1491 43.4625 56.2485 43.4065C56.9181 43.0637 58.2222 42.0611 58.7841 41.3614C58.9545 41.2024 59.1181 41.3106 59.1725 41.48C59.4071 42.2237 59.751 42.797 60.1363 43.4071C60.5558 44.0865 61.3989 44.7909 62.4912 45.0902C63.9045 45.4864 65.4297 45.5563 67.4344 44.7909C69.0419 44.1756 70.7266 42.9223 72.0219 41.5142C73.5766 39.8264 74.139 38.745 74.7278 38.0075C75.7362 36.7594 77.3059 34.5485 79.5059 32.6717C80.2755 32.0135 81.1181 31.5867 81.6468 31.7939C81.9648 30.9746 81.8141 30.5225 81.476 30.3049C80.9612 29.9699 79.9316 30.4727 79.0626 31.1356C76.6938 32.9296 74.7035 35.7242 73.6957 36.9743C73.1012 37.7097 72.5408 38.7947 70.9882 40.481C68.5474 43.1305 65.3111 44.6536 62.1892 43.6018C60.4854 43.029 59.2523 41.6587 58.7831 39.9755C58.6888 39.6508 58.507 39.5597 58.3299 39.7741C57.826 40.4043 56.7949 41.3298 55.9336 41.9124C55.8394 41.9803 55.6063 42.118 55.4064 42.0186C55.2262 41.9368 54.5866 41.0336 54.4613 40.7736C54.4455 40.7468 54.4348 40.7173 54.4297 40.6866V40.698C54.6545 41.8094 54.6824 41.9388 54.9864 42.4526C55.3308 43.0192 55.6664 43.421 55.7425 43.4532V43.4532Z" fill="url(#paint14_linear)"/>
<path d="M36.918 33.469C37.7062 31.8796 38.8155 31.1209 39.9062 30.4311C40.3754 30.1338 40.5836 29.8459 40.3045 29.0716C40.2252 28.8505 40.1807 28.4528 40.0927 28.1006C40.1206 28.4445 39.9508 28.7402 39.6467 28.8987C38.3147 29.5781 36.7113 30.7429 35.92 32.3317C35.2768 33.6265 35.1463 35.1931 36.1261 36.6815C36.2085 36.8001 36.2975 36.9202 36.3959 37.0305H36.397C36.0821 35.7949 36.4208 34.4639 36.918 33.469V33.469Z" fill="url(#paint15_linear)"/>
<path d="M50.5586 14.1693C55.4014 12.5722 60.7998 13.5821 65.1361 14.5101C65.7426 14.1315 66.2734 13.87 66.8053 13.5784C67.0699 13.4396 66.7737 13.2744 66.6913 13.2744C61.0935 12.2236 55.276 10.8606 49.7186 12.9186C45.8665 14.3563 44.1787 17.4103 44.9933 19.4492C45.1487 19.8382 45.3968 20.1406 45.7205 20.3555C45.4486 18.4751 46.8583 15.3936 50.5586 14.1693V14.1693Z" fill="url(#paint16_linear)"/>
<path d="M34.802 43.4382C36.3893 44.5569 37.9523 44.9277 39.7758 44.9598C43.4797 45.0245 46.8631 43.4952 50.451 39.8544C53.8955 36.3587 56.877 31.4734 59.817 26.6322C59.9144 26.4618 60.0185 26.3857 60.511 26.3215C62.3557 26.0941 64.0083 25.9885 65.6376 25.8357C66.1234 25.7901 66.4926 25.7456 66.6708 25.9217C67.2591 26.5105 67.9437 27.0486 68.3964 27.3117C68.6973 27.3153 68.95 27.3816 69.1266 27.5395C69.3167 27.5147 69.4902 27.409 69.6025 27.2998C69.8138 27.0931 69.8221 26.8513 69.7874 26.6462C69.7144 26.2438 69.6057 25.4509 69.4767 25.221C69.5658 25.396 69.5083 25.6435 69.3327 25.8419C69.2038 25.989 69.0023 26.1283 68.746 26.1252C68.5341 26.12 68.4088 26.0475 68.1426 25.9015C67.5931 25.6078 66.9147 25.1215 66.4584 24.5472C66.3046 24.3545 66.2254 24.3493 65.837 24.3711C64.0948 24.4726 61.3764 24.7336 59.5332 24.9651C59.0889 25.0205 59.0226 25.1039 58.9299 25.2562C55.993 30.1005 52.8577 35.3224 49.4147 38.8187C45.7227 42.5682 42.6516 43.5527 39.3941 43.5781C35.6348 43.6045 32.2897 41.4744 31.4414 37.7316V37.7337C31.8997 39.8249 33.2468 42.3408 34.802 43.4382V43.4382Z" fill="url(#paint17_linear)"/>
<path d="M48.693 27.1646C48.6107 27.0393 48.5655 26.8934 48.5625 26.7436C48.5242 27.3712 48.7774 28.2941 48.9804 28.6023C49.2036 28.9461 49.8318 29.115 50.329 28.7442C51.4528 27.9166 52.4673 27.4344 53.6025 27.2195C53.8941 26.8202 54.209 26.3779 54.5694 25.8808C54.601 25.8419 54.6093 25.7901 54.5958 25.7642C54.5756 25.7192 54.5394 25.7062 54.4664 25.7031C52.8024 25.7492 51.3482 26.2469 49.9395 27.2998C49.534 27.596 48.9488 27.5541 48.693 27.1646V27.1646Z" fill="url(#paint18_linear)"/>
<path d="M93.985 15.8206C91.6571 17.0982 89.2245 17.484 86.6807 17.5063C80.5307 17.5565 74.8013 15.1602 68.8746 13.8728C68.8828 14.1312 68.9502 14.4414 68.7327 14.6051C65.4503 17.0257 62.4822 19.4862 60.4935 22.939C60.4278 23.0197 60.464 23.0943 60.5795 23.086C61.1036 23.0622 61.6106 23.0384 62.1104 23.0109C63.9215 20.1739 65.8589 18.5478 68.8171 16.3643C69.0387 16.1965 69.2599 16.08 69.1874 15.4487C75.1327 16.7688 79.6539 18.9553 87.3317 18.9755C89.6228 18.9833 92.8534 18.2194 94.5914 17.1738C96.5889 15.9723 97.1203 15.0888 97.1918 14.155C97.2151 13.8635 97.1379 13.4305 97.0908 13.2073C97.0229 12.8909 96.9784 12.4869 96.8883 12.1865C96.9188 12.3087 96.9328 12.447 96.9214 12.5988C96.8608 13.6729 96.0301 14.705 93.985 15.8206V15.8206Z" fill="url(#paint19_linear)"/>
<path d="M68.2998 19.8284C68.2267 19.8978 68.1444 19.9688 68.0631 20.0434C67.4763 20.6508 67.2977 21.4551 67.3836 22.0636C67.4318 22.3112 67.5271 22.3594 67.64 22.3381C67.7562 22.3124 67.8701 22.2767 67.9802 22.2314C68.0217 21.8964 68.162 21.5711 68.5007 21.2728C68.7457 21.0564 69.0528 20.9559 69.3153 20.9994C69.5416 20.5509 69.6064 20.0113 69.3303 19.7704C69.0652 19.5415 68.6421 19.5845 68.2998 19.8284Z" fill="url(#paint20_linear)"/>
<path d="M70.6615 21.9342C70.0976 23.013 69.1674 23.5878 68.2751 23.867C68.2751 23.867 68.0882 23.9095 68.1161 24.0804C68.1379 24.272 68.7707 24.6728 69.1659 24.954C69.2234 24.9385 69.3093 24.9069 69.3093 24.9069C69.7671 24.7251 70.5305 24.2595 70.9717 23.2937C71.2545 22.6707 71.4083 22.1818 71.2856 21.1123C71.1965 20.3666 71.0458 19.6923 70.8459 19.3438C71.2317 20.1252 71.0779 21.1284 70.6615 21.9342Z" fill="url(#paint21_linear)"/>
<path d="M54.1395 18.0812C52.5133 21.9043 49.406 24.9365 45.6213 25.0618C43.5046 25.1328 41.8847 24.1348 41.0234 22.6127C41.6527 23.749 42.7175 24.7454 43.6662 25.3425C44.486 25.8532 45.4975 26.1375 46.6545 26.0986C50.5982 25.964 53.5864 22.7137 54.5776 19.9679C54.8423 19.2273 54.6356 18.4339 54.5134 17.8973C54.4637 17.6923 54.3959 17.2246 54.2457 16.8916H54.2441C54.356 17.1666 54.356 17.5716 54.1395 18.0812V18.0812Z" fill="url(#paint22_linear)"/>
<path d="M74.9981 0C33.3888 0 0.0351562 12.4718 0.0351562 28.1084C0.0351562 43.6529 33.6643 56.22 74.9986 56.22C116.336 56.22 149.967 43.6094 149.967 28.1084C149.966 12.6106 116.336 0 74.9981 0V0ZM0.548902 28.4187C0.533884 25.129 1.98397 21.8606 5.03279 18.7838C15.7645 7.95841 43.8838 0.641665 74.8738 0.5153C115.927 0.344396 149.38 12.5852 149.452 27.8019C149.466 31.0925 147.93 34.3174 144.881 37.3916C134.148 48.2191 106.115 55.582 75.1276 55.7052C34.075 55.8766 0.6183 43.6374 0.548902 28.4187V28.4187ZM149.508 25.938C149.535 26.0752 149.554 26.214 149.578 26.3471C149.558 26.2145 149.531 26.0768 149.508 25.938Z" fill="#4B4B4B"/>
<path d="M0.257812 28.1087C0.257812 28.8431 0.3443 29.5723 0.494488 30.2906C0.378622 29.674 0.317789 29.0484 0.312709 28.421C0.298208 25.0874 1.78869 21.7221 4.86288 18.6205C15.6547 7.73497 43.8025 0.410457 74.8696 0.279949C79.1743 0.260787 83.3925 0.380938 87.5035 0.626935C83.3393 0.365519 79.1679 0.234601 74.9955 0.234375C33.5524 0.234375 0.257812 12.6616 0.257812 28.1087Z" fill="url(#paint23_linear)"/>
<path d="M145.049 37.5653C134.294 48.4093 106.154 55.8105 75.1294 55.9395C70.8362 55.9614 66.5435 55.8447 62.2578 55.5894C66.3978 55.8535 70.6585 55.9871 74.9999 55.9871C116.207 55.9871 149.733 43.406 149.733 28.1184C149.733 27.5343 149.679 26.9558 149.586 26.3799C149.654 26.8527 149.683 27.3297 149.688 27.8087C149.706 31.1429 148.123 34.4636 145.049 37.5653Z" fill="url(#paint24_linear)"/>
<path d="M74.9945 3.48242C35.9254 3.48242 4.25391 14.5026 4.25391 28.1034C4.25391 41.7021 35.9254 52.7244 74.9945 52.7244C114.06 52.7244 145.728 41.7021 145.728 28.1034C145.728 14.5026 114.06 3.48242 74.9945 3.48242V3.48242ZM74.9945 50.5917C37.2984 50.5917 6.74236 40.526 6.74236 28.1029C6.74236 15.6803 37.2978 5.61561 74.9945 5.61561C112.693 5.61561 143.246 15.6808 143.246 28.1029C143.246 40.5265 112.693 50.5917 74.9945 50.5917Z" fill="white"/>
<path d="M119.037 20.0467C119.135 19.8753 119.034 19.75 118.818 19.75C117.684 19.75 116.204 19.7536 115.028 19.7536C114.747 19.7536 114.605 19.7847 114.472 20.0467C114.037 20.88 108.742 28.8136 107.757 30.3533C107.59 30.5879 107.386 30.5578 107.362 30.2896C107.265 29.3739 106.473 28.319 105.228 27.8187C104.278 27.4329 103.351 27.3635 102.389 27.4924C100.647 27.726 99.0964 28.6468 97.7317 29.681C95.6752 31.2451 93.9014 33.2695 91.6134 34.7657C90.3642 35.5793 88.6516 36.2903 87.5076 35.2297C86.4697 34.2695 86.5893 32.1343 88.172 30.4827C88.3377 30.3124 88.5402 30.4532 88.5086 30.6101C88.3579 31.3595 88.5407 32.1011 89.1078 32.6201C89.8013 33.2379 90.7899 33.3115 91.6372 32.8961C92.6378 32.4015 93.2245 31.4434 93.3965 30.3605C93.6616 28.6732 92.3638 27.1879 90.7402 27.0693C89.4232 26.9761 88.1591 27.435 86.928 28.4516C86.3128 28.9643 85.9596 29.3398 85.4267 30.1026C85.2951 30.2896 85.0952 30.3087 85.103 30.0332C85.1636 27.8772 84.2723 26.6628 82.4882 26.6245C81.1044 26.5887 79.6268 27.3428 78.4735 28.2594C77.2109 29.2719 76.1067 30.6189 74.9203 31.8816C74.7742 32.0364 74.6453 32.0292 74.6059 31.7277C74.5696 30.2973 74.2092 28.913 73.5484 27.9301C73.3117 27.5888 72.8218 27.4194 72.408 27.6504C72.2169 27.754 71.5529 28.0606 71.0661 28.4511C70.8284 28.6494 70.7357 28.9348 70.8393 29.3014C71.4763 31.4393 71.337 33.8646 70.4711 35.917C69.6777 37.7912 68.1323 39.4883 66.3145 40.059C65.1197 40.4376 63.8732 40.2522 63.1031 39.191C62.0486 37.7254 62.4717 35.1815 64.0503 33.0665C65.4418 31.2026 67.4533 30.0197 69.4596 29.2579C69.6963 29.1652 69.7455 29.0145 69.6777 28.8141C69.5689 28.4847 69.3954 28.0362 69.3239 27.8322C69.1406 27.3438 68.6232 27.2615 67.9935 27.3309C66.5356 27.5007 65.2207 27.9995 63.9213 28.6955C60.5198 30.5174 58.8144 34.0427 58.0655 35.9304C57.7066 36.8383 57.398 37.4017 56.9982 37.9046C56.4611 38.5789 55.7899 39.1921 54.5574 40.2734C54.4465 40.3734 54.3657 40.579 54.4584 40.7722C54.5838 41.0321 55.2239 41.9353 55.4036 42.0172C55.6035 42.1166 55.8365 41.9788 55.9313 41.911C56.7926 41.3284 57.8237 40.4029 58.3276 39.7726C58.5042 39.5582 58.686 39.6494 58.7807 39.9741C59.25 41.6572 60.4831 43.0276 62.1869 43.6004C65.3082 44.6501 68.544 43.1291 70.9858 40.4796C72.538 38.7933 73.0983 37.7083 73.6934 36.9729C74.7017 35.7227 76.692 32.9272 79.0597 31.1342C79.9298 30.4724 80.9588 29.968 81.4741 30.3035C81.889 30.5729 82.0236 31.1948 81.3561 32.4072C78.9417 36.8196 75.3869 42.0027 74.7328 43.256C74.6152 43.4745 74.7204 43.6475 74.9482 43.6475C76.2108 43.6413 77.4657 43.6444 78.6118 43.6444C78.8039 43.6356 78.8878 43.547 78.9841 43.4124C80.8392 40.5101 82.584 37.7492 84.4541 34.8941C84.5582 34.7279 84.6545 34.8573 84.6592 34.9283C84.6964 35.5938 84.8611 36.498 85.2532 37.0936C85.958 38.1936 86.9601 38.6664 88.0721 38.6747C88.9561 38.6851 89.401 38.5504 90.3559 38.1936C91.0233 37.943 91.654 37.6041 92.2312 37.1858C92.5093 36.9926 92.559 37.3184 92.5518 37.3691C92.124 39.6722 92.6507 42.403 94.9413 43.532C97.6841 44.8837 100.693 42.9851 102.423 41.2714C102.593 41.1062 102.774 41.1217 102.792 41.4775C102.827 42.1358 103.125 42.911 103.666 43.4517C105.116 44.9085 108.046 44.3316 110.982 42.0581C112.871 40.6013 114.845 38.5432 116.632 36.3649C116.694 36.28 116.746 36.1427 116.619 36.0081C116.349 35.7238 115.955 35.3991 115.685 35.1474C115.562 35.0448 115.382 35.0743 115.276 35.1531C113.449 36.8901 111.805 38.8757 109.425 40.5132C108.622 41.0756 107.345 41.5267 106.769 40.7499C106.546 40.4485 106.572 40.0285 106.792 39.4826C107.488 37.7492 118.469 21.0318 119.037 20.0467V20.0467ZM104.525 34.065C104.549 34.1934 104.714 34.3167 104.88 34.3767C104.935 34.3995 104.969 34.4379 104.902 34.5735C104.437 35.5751 104.008 36.1505 103.422 37.0216C102.886 37.8243 102.277 38.4525 101.545 39.0548C100.437 39.971 98.8996 40.9664 97.6282 40.2957C97.0637 40.0046 96.8192 39.2144 96.8322 38.5732C96.8612 36.7735 97.6572 34.9278 99.1342 33.1131C100.936 30.8939 102.929 29.7437 104.236 30.3709C105.588 31.0162 105.157 32.5828 104.552 33.8133C104.505 33.9065 104.5 33.9883 104.525 34.065" fill="white"/>
<path d="M39.3991 43.5819C35.3051 43.6114 31.7006 41.0784 31.2858 36.7012C31.0564 34.2749 31.742 32.1102 33.1155 30.3281C34.3336 28.7402 36.3979 27.4217 38.1401 27.0985C38.7113 26.9955 39.4736 27.0628 39.7906 27.4378C40.2846 28.0142 40.1407 28.6481 39.6487 28.8992C38.3167 29.5787 36.7133 30.7434 35.9219 32.3323C35.2787 33.6271 35.1482 35.1937 36.1281 36.6821C37.7744 39.1628 42.3557 39.2327 46.6164 35.2729C47.6724 34.3029 48.6159 33.3723 49.5782 32.2717C51.454 30.124 52.077 29.3405 54.5722 25.8815C54.6038 25.8427 54.6121 25.7909 54.5986 25.765C54.5784 25.7199 54.5422 25.707 54.4691 25.7039C52.8052 25.75 51.352 26.2476 49.9423 27.3005C49.5357 27.5962 48.9505 27.5543 48.6947 27.1648C48.4103 26.7236 48.6139 26.1492 49.0831 25.8261C51.352 24.2486 53.8327 23.9606 56.3657 23.5324C56.3641 23.5324 56.5428 23.5396 56.6862 23.348C57.7256 22.0149 58.5102 20.8114 59.6201 19.4607C60.7372 18.0924 62.1785 16.8381 63.281 15.8909C64.8197 14.5672 65.8063 14.1223 66.8089 13.577C67.0736 13.4382 66.7768 13.273 66.6945 13.273C61.0966 12.2222 55.2791 10.8591 49.7211 12.9172C45.8696 14.3548 44.1813 17.4088 44.9959 19.4478C45.5708 20.8947 47.475 21.1293 49.2566 20.2583C50.8128 19.4901 52.1329 18.3162 53.0776 16.8604C53.6198 16.025 54.7633 16.6273 54.1455 18.0795C52.5193 21.9026 49.4119 24.9348 45.6272 25.0601C42.4044 25.1668 40.325 22.7975 40.3333 19.8729C40.3442 14.1047 46.7676 10.3055 53.5142 9.73681C61.6404 9.06667 69.3373 11.2314 77.4039 12.2097C83.5865 12.9571 89.5143 12.9726 95.7269 11.5463C96.4602 11.3868 96.9781 11.8545 96.9273 12.5966C96.8668 13.6691 96.0355 14.7013 93.9909 15.8179C91.6625 17.0955 89.2299 17.4813 86.6866 17.5036C80.5366 17.5538 74.8072 15.1576 68.8805 13.8701C68.8888 14.1285 68.9561 14.4387 68.7386 14.6024C65.4562 17.023 62.4882 19.4835 60.4995 22.9363C60.4337 23.0171 60.4699 23.0916 60.5854 23.0833C62.311 22.9927 63.8647 22.9492 65.4743 22.8203C65.755 22.7969 65.7654 22.7276 65.7421 22.5214C65.6007 21.3308 65.9471 19.9724 66.9943 19.0376C68.0653 18.0779 69.4077 17.9692 70.2964 18.659C71.3078 19.4478 71.2188 20.8663 70.6667 21.93C70.1027 23.0088 69.1726 23.5836 68.2802 23.8628C68.2802 23.8628 68.0933 23.9052 68.1212 24.0761C68.1559 24.3465 69.3725 25.0218 69.4766 25.2015C69.577 25.3709 69.5268 25.636 69.3393 25.8385C69.2104 25.9856 69.0089 26.1249 68.7526 26.1213C68.5407 26.1166 68.4154 26.0441 68.1492 25.8981C67.6003 25.6039 66.9213 25.1181 66.465 24.5438C66.3112 24.3511 66.232 24.346 65.8436 24.3677C64.1014 24.4692 61.383 24.7302 59.5398 24.9617C59.0955 25.0171 59.0292 25.1005 58.9365 25.2528C55.9995 30.0971 52.8642 35.319 49.4213 38.8153C45.7277 42.571 42.6566 43.555 39.3991 43.5819V43.5819ZM67.3833 22.0647C67.4314 22.3122 67.5267 22.3604 67.6396 22.3391C68.1984 22.2273 68.8095 21.7663 69.1731 21.235C69.5045 20.7508 69.6583 20.0521 69.33 19.7714C69.0374 19.5213 68.5615 19.5938 68.2077 19.9051C67.507 20.526 67.2942 21.4059 67.3833 22.0647" fill="white"/>
</g>
<defs>
<radialGradient id="paint0_radial" cx="0" cy="0" r="1" gradientUnits="userSpaceOnUse" gradientTransform="translate(74.5038 92.7502) scale(323.015 164.06)">
<stop stop-color="#00082E"/>
<stop offset="0.155" stop-color="#000A30"/>
<stop offset="0.242" stop-color="#010F39"/>
<stop offset="0.312" stop-color="#011946"/>
<stop offset="0.373" stop-color="#02275A"/>
<stop offset="0.414" stop-color="#03346C"/>
<stop offset="0.439" stop-color="#0B4F87"/>
<stop offset="0.48" stop-color="#1676AF"/>
<stop offset="0.513" stop-color="#1C8EC7"/>
<stop offset="0.533" stop-color="#1F97D0"/>
<stop offset="1" stop-color="#1F97D0"/>
</radialGradient>
<linearGradient id="paint1_linear" x1="74.863" y1="56.8393" x2="74.863" y2="-0.264109" gradientUnits="userSpaceOnUse">
<stop stop-color="#00082E"/>
<stop offset="0.321" stop-color="#010A30"/>
<stop offset="0.501" stop-color="#030F39"/>
<stop offset="0.647" stop-color="#071846"/>
<stop offset="0.773" stop-color="#0D245A"/>
<stop offset="0.809" stop-color="#0F2961"/>
<stop offset="0.839" stop-color="#0B386E"/>
<stop offset="0.896" stop-color="#054E83"/>
<stop offset="0.951" stop-color="#015B90"/>
<stop offset="1" stop-color="#006094"/>
</linearGradient>
<linearGradient id="paint2_linear" x1="13631.2" y1="56.852" x2="13631.2" y2="-0.303799" gradientUnits="userSpaceOnUse">
<stop stop-color="#00082E"/>
<stop offset="0.321" stop-color="#010A30"/>
<stop offset="0.501" stop-color="#030F39"/>
<stop offset="0.647" stop-color="#071846"/>
<stop offset="0.773" stop-color="#0D245A"/>
<stop offset="0.809" stop-color="#0F2961"/>
<stop offset="0.839" stop-color="#0B386E"/>
<stop offset="0.896" stop-color="#054E83"/>
<stop offset="0.951" stop-color="#015B90"/>
<stop offset="1" stop-color="#006094"/>
</linearGradient>
<linearGradient id="paint3_linear" x1="87.8" y1="47.157" x2="87.8" y2="7.03472" gradientUnits="userSpaceOnUse">
<stop stop-color="#00082E"/>
<stop offset="0.321" stop-color="#010A30"/>
<stop offset="0.501" stop-color="#030F39"/>
<stop offset="0.647" stop-color="#071846"/>
<stop offset="0.773" stop-color="#0D245A"/>
<stop offset="0.809" stop-color="#0F2961"/>
<stop offset="0.839" stop-color="#0B386E"/>
<stop offset="0.896" stop-color="#054E83"/>
<stop offset="0.951" stop-color="#015B90"/>
<stop offset="1" stop-color="#006094"/>
</linearGradient>
<linearGradient id="paint4_linear" x1="104.735" y1="47.0949" x2="104.735" y2="7.23732" gradientUnits="userSpaceOnUse">
<stop stop-color="#00082E"/>
<stop offset="0.321" stop-color="#010A30"/>
<stop offset="0.501" stop-color="#030F39"/>
<stop offset="0.647" stop-color="#071846"/>
<stop offset="0.773" stop-color="#0D245A"/>
<stop offset="0.809" stop-color="#0F2961"/>
<stop offset="0.839" stop-color="#0B386E"/>
<stop offset="0.896" stop-color="#054E83"/>
<stop offset="0.951" stop-color="#015B90"/>
<stop offset="1" stop-color="#006094"/>
</linearGradient>
<linearGradient id="paint5_linear" x1="107.192" y1="46.98" x2="107.192" y2="7.3178" gradientUnits="userSpaceOnUse">
<stop stop-color="#00082E"/>
<stop offset="0.321" stop-color="#010A30"/>
<stop offset="0.501" stop-color="#030F39"/>
<stop offset="0.647" stop-color="#071846"/>
<stop offset="0.773" stop-color="#0D245A"/>
<stop offset="0.809" stop-color="#0F2961"/>
<stop offset="0.839" stop-color="#0B386E"/>
<stop offset="0.896" stop-color="#054E83"/>
<stop offset="0.951" stop-color="#015B90"/>
<stop offset="1" stop-color="#006094"/>
</linearGradient>
<linearGradient id="paint6_linear" x1="85.0699" y1="47.2436" x2="85.0699" y2="7.02797" gradientUnits="userSpaceOnUse">
<stop stop-color="#00082E"/>
<stop offset="0.321" stop-color="#010A30"/>
<stop offset="0.501" stop-color="#030F39"/>
<stop offset="0.647" stop-color="#071846"/>
<stop offset="0.773" stop-color="#0D245A"/>
<stop offset="0.809" stop-color="#0F2961"/>
<stop offset="0.839" stop-color="#0B386E"/>
<stop offset="0.896" stop-color="#054E83"/>
<stop offset="0.951" stop-color="#015B90"/>
<stop offset="1" stop-color="#006094"/>
</linearGradient>
<linearGradient id="paint7_linear" x1="100.978" y1="47.1505" x2="100.978" y2="7.09172" gradientUnits="userSpaceOnUse">
<stop stop-color="#00082E"/>
<stop offset="0.321" stop-color="#010A30"/>
<stop offset="0.501" stop-color="#030F39"/>
<stop offset="0.647" stop-color="#071846"/>
<stop offset="0.773" stop-color="#0D245A"/>
<stop offset="0.809" stop-color="#0F2961"/>
<stop offset="0.839" stop-color="#0B386E"/>
<stop offset="0.896" stop-color="#054E83"/>
<stop offset="0.951" stop-color="#015B90"/>
<stop offset="1" stop-color="#006094"/>
</linearGradient>
<linearGradient id="paint8_linear" x1="66.331" y1="47.1216" x2="66.331" y2="7.10518" gradientUnits="userSpaceOnUse">
<stop stop-color="#00082E"/>
<stop offset="0.321" stop-color="#010A30"/>
<stop offset="0.501" stop-color="#030F39"/>
<stop offset="0.647" stop-color="#071846"/>
<stop offset="0.773" stop-color="#0D245A"/>
<stop offset="0.809" stop-color="#0F2961"/>
<stop offset="0.839" stop-color="#0B386E"/>
<stop offset="0.896" stop-color="#054E83"/>
<stop offset="0.951" stop-color="#015B90"/>
<stop offset="1" stop-color="#006094"/>
</linearGradient>
<linearGradient id="paint9_linear" x1="83.6239" y1="47.1515" x2="83.6239" y2="7.0627" gradientUnits="userSpaceOnUse">
<stop stop-color="#00082E"/>
<stop offset="0.321" stop-color="#010A30"/>
<stop offset="0.501" stop-color="#030F39"/>
<stop offset="0.647" stop-color="#071846"/>
<stop offset="0.773" stop-color="#0D245A"/>
<stop offset="0.809" stop-color="#0F2961"/>
<stop offset="0.839" stop-color="#0B386E"/>
<stop offset="0.896" stop-color="#054E83"/>
<stop offset="0.951" stop-color="#015B90"/>
<stop offset="1" stop-color="#006094"/>
</linearGradient>
<linearGradient id="paint10_linear" x1="104.824" y1="47.2473" x2="104.824" y2="6.85604" gradientUnits="userSpaceOnUse">
<stop stop-color="#00082E"/>
<stop offset="0.321" stop-color="#010A30"/>
<stop offset="0.501" stop-color="#030F39"/>
<stop offset="0.647" stop-color="#071846"/>
<stop offset="0.773" stop-color="#0D245A"/>
<stop offset="0.809" stop-color="#0F2961"/>
<stop offset="0.839" stop-color="#0B386E"/>
<stop offset="0.896" stop-color="#054E83"/>
<stop offset="0.951" stop-color="#015B90"/>
<stop offset="1" stop-color="#006094"/>
</linearGradient>
<linearGradient id="paint11_linear" x1="91.2107" y1="47.2824" x2="91.2107" y2="6.993" gradientUnits="userSpaceOnUse">
<stop stop-color="#00082E"/>
<stop offset="0.321" stop-color="#010A30"/>
<stop offset="0.501" stop-color="#030F39"/>
<stop offset="0.647" stop-color="#071846"/>
<stop offset="0.773" stop-color="#0D245A"/>
<stop offset="0.809" stop-color="#0F2961"/>
<stop offset="0.839" stop-color="#0B386E"/>
<stop offset="0.896" stop-color="#054E83"/>
<stop offset="0.951" stop-color="#015B90"/>
<stop offset="1" stop-color="#006094"/>
</linearGradient>
<linearGradient id="paint12_linear" x1="113.046" y1="47.1636" x2="113.046" y2="7.13662" gradientUnits="userSpaceOnUse">
<stop stop-color="#00082E"/>
<stop offset="0.321" stop-color="#010A30"/>
<stop offset="0.501" stop-color="#030F39"/>
<stop offset="0.647" stop-color="#071846"/>
<stop offset="0.773" stop-color="#0D245A"/>
<stop offset="0.809" stop-color="#0F2961"/>
<stop offset="0.839" stop-color="#0B386E"/>
<stop offset="0.896" stop-color="#054E83"/>
<stop offset="0.951" stop-color="#015B90"/>
<stop offset="1" stop-color="#006094"/>
</linearGradient>
<linearGradient id="paint13_linear" x1="74.3942" y1="47.1871" x2="74.3942" y2="7.05412" gradientUnits="userSpaceOnUse">
<stop stop-color="#00082E"/>
<stop offset="0.321" stop-color="#010A30"/>
<stop offset="0.501" stop-color="#030F39"/>
<stop offset="0.647" stop-color="#071846"/>
<stop offset="0.773" stop-color="#0D245A"/>
<stop offset="0.809" stop-color="#0F2961"/>
<stop offset="0.839" stop-color="#0B386E"/>
<stop offset="0.896" stop-color="#054E83"/>
<stop offset="0.951" stop-color="#015B90"/>
<stop offset="1" stop-color="#006094"/>
</linearGradient>
<linearGradient id="paint14_linear" x1="68.1433" y1="47.1575" x2="68.1433" y2="7.12506" gradientUnits="userSpaceOnUse">
<stop stop-color="#00082E"/>
<stop offset="0.321" stop-color="#010A30"/>
<stop offset="0.501" stop-color="#030F39"/>
<stop offset="0.647" stop-color="#071846"/>
<stop offset="0.773" stop-color="#0D245A"/>
<stop offset="0.809" stop-color="#0F2961"/>
<stop offset="0.839" stop-color="#0B386E"/>
<stop offset="0.896" stop-color="#054E83"/>
<stop offset="0.951" stop-color="#015B90"/>
<stop offset="1" stop-color="#006094"/>
</linearGradient>
<linearGradient id="paint15_linear" x1="37.9164" y1="47.1699" x2="37.9164" y2="7.10946" gradientUnits="userSpaceOnUse">
<stop stop-color="#00082E"/>
<stop offset="0.321" stop-color="#010A30"/>
<stop offset="0.501" stop-color="#030F39"/>
<stop offset="0.647" stop-color="#071846"/>
<stop offset="0.773" stop-color="#0D245A"/>
<stop offset="0.809" stop-color="#0F2961"/>
<stop offset="0.839" stop-color="#0B386E"/>
<stop offset="0.896" stop-color="#054E83"/>
<stop offset="0.951" stop-color="#015B90"/>
<stop offset="1" stop-color="#006094"/>
</linearGradient>
<linearGradient id="paint16_linear" x1="55.8528" y1="47.3977" x2="55.8528" y2="6.95777" gradientUnits="userSpaceOnUse">
<stop stop-color="#00082E"/>
<stop offset="0.321" stop-color="#010A30"/>
<stop offset="0.501" stop-color="#030F39"/>
<stop offset="0.647" stop-color="#071846"/>
<stop offset="0.773" stop-color="#0D245A"/>
<stop offset="0.809" stop-color="#0F2961"/>
<stop offset="0.839" stop-color="#0B386E"/>
<stop offset="0.896" stop-color="#054E83"/>
<stop offset="0.951" stop-color="#015B90"/>
<stop offset="1" stop-color="#006094"/>
</linearGradient>
<linearGradient id="paint17_linear" x1="50.6214" y1="47.1616" x2="50.6214" y2="7.09136" gradientUnits="userSpaceOnUse">
<stop stop-color="#00082E"/>
<stop offset="0.321" stop-color="#010A30"/>
<stop offset="0.501" stop-color="#030F39"/>
<stop offset="0.647" stop-color="#071846"/>
<stop offset="0.773" stop-color="#0D245A"/>
<stop offset="0.809" stop-color="#0F2961"/>
<stop offset="0.839" stop-color="#0B386E"/>
<stop offset="0.896" stop-color="#054E83"/>
<stop offset="0.951" stop-color="#015B90"/>
<stop offset="1" stop-color="#006094"/>
</linearGradient>
<linearGradient id="paint18_linear" x1="51.5826" y1="47.2556" x2="51.5826" y2="7.04587" gradientUnits="userSpaceOnUse">
<stop stop-color="#00082E"/>
<stop offset="0.321" stop-color="#010A30"/>
<stop offset="0.501" stop-color="#030F39"/>
<stop offset="0.647" stop-color="#071846"/>
<stop offset="0.773" stop-color="#0D245A"/>
<stop offset="0.809" stop-color="#0F2961"/>
<stop offset="0.839" stop-color="#0B386E"/>
<stop offset="0.896" stop-color="#054E83"/>
<stop offset="0.951" stop-color="#015B90"/>
<stop offset="1" stop-color="#006094"/>
</linearGradient>
<linearGradient id="paint19_linear" x1="78.8367" y1="47.1872" x2="78.8367" y2="7.08901" gradientUnits="userSpaceOnUse">
<stop stop-color="#00082E"/>
<stop offset="0.321" stop-color="#010A30"/>
<stop offset="0.501" stop-color="#030F39"/>
<stop offset="0.647" stop-color="#071846"/>
<stop offset="0.773" stop-color="#0D245A"/>
<stop offset="0.809" stop-color="#0F2961"/>
<stop offset="0.839" stop-color="#0B386E"/>
<stop offset="0.896" stop-color="#054E83"/>
<stop offset="0.951" stop-color="#015B90"/>
<stop offset="1" stop-color="#006094"/>
</linearGradient>
<linearGradient id="paint20_linear" x1="68.4237" y1="47.197" x2="68.4237" y2="7.08206" gradientUnits="userSpaceOnUse">
<stop stop-color="#00082E"/>
<stop offset="0.321" stop-color="#010A30"/>
<stop offset="0.501" stop-color="#030F39"/>
<stop offset="0.647" stop-color="#071846"/>
<stop offset="0.773" stop-color="#0D245A"/>
<stop offset="0.809" stop-color="#0F2961"/>
<stop offset="0.839" stop-color="#0B386E"/>
<stop offset="0.896" stop-color="#054E83"/>
<stop offset="0.951" stop-color="#015B90"/>
<stop offset="1" stop-color="#006094"/>
</linearGradient>
<linearGradient id="paint21_linear" x1="69.7389" y1="47.1654" x2="69.7389" y2="7.11167" gradientUnits="userSpaceOnUse">
<stop stop-color="#00082E"/>
<stop offset="0.321" stop-color="#010A30"/>
<stop offset="0.501" stop-color="#030F39"/>
<stop offset="0.647" stop-color="#071846"/>
<stop offset="0.773" stop-color="#0D245A"/>
<stop offset="0.809" stop-color="#0F2961"/>
<stop offset="0.839" stop-color="#0B386E"/>
<stop offset="0.896" stop-color="#054E83"/>
<stop offset="0.951" stop-color="#015B90"/>
<stop offset="1" stop-color="#006094"/>
</linearGradient>
<linearGradient id="paint22_linear" x1="47.8731" y1="47.2442" x2="47.8731" y2="7.09531" gradientUnits="userSpaceOnUse">
<stop stop-color="#00082E"/>
<stop offset="0.321" stop-color="#010A30"/>
<stop offset="0.501" stop-color="#030F39"/>
<stop offset="0.647" stop-color="#071846"/>
<stop offset="0.773" stop-color="#0D245A"/>
<stop offset="0.809" stop-color="#0F2961"/>
<stop offset="0.839" stop-color="#0B386E"/>
<stop offset="0.896" stop-color="#054E83"/>
<stop offset="0.951" stop-color="#015B90"/>
<stop offset="1" stop-color="#006094"/>
</linearGradient>
<linearGradient id="paint23_linear" x1="58.573" y1="69.6744" x2="41.2475" y2="5.0148" gradientUnits="userSpaceOnUse">
<stop stop-color="#A5A5A6"/>
<stop offset="0.35" stop-color="#D7D7D7"/>
<stop offset="0.65" stop-color="#D7D7D7"/>
<stop offset="1" stop-color="#A5A5A6"/>
</linearGradient>
<linearGradient id="paint24_linear" x1="104.03" y1="33.9245" x2="86.7425" y2="-30.5931" gradientUnits="userSpaceOnUse">
<stop stop-color="#A5A5A6"/>
<stop offset="0.35" stop-color="#D7D7D7"/>
<stop offset="0.65" stop-color="#D7D7D7"/>
<stop offset="1" stop-color="#A5A5A6"/>
</linearGradient>
<clipPath id="clip0">
<rect width="150" height="56.22" fill="white"/>
</clipPath>
</defs>
</svg>
