<svg width="150" height="150" viewBox="0 0 150 150" fill="none" xmlns="http://www.w3.org/2000/svg">
<path fill-rule="evenodd" clip-rule="evenodd" d="M0 0H150V150H0V0Z" fill="white"/>
<path fill-rule="evenodd" clip-rule="evenodd" d="M6.62109 88.5192H11.9151V94.3401H21.3724V88.5192H26.6002V104.856H21.3724V97.9773H11.8474V104.79H6.62109V88.5192ZM27.1948 88.5192H32.3534L37.7781 94.8031L43.1367 88.5192H48.2299L40.3578 98.5065V104.856H35.1323V98.0435L27.1948 88.5192V88.5192ZM48.8914 88.5192H54.1177V101.152H62.5182C63.8411 101.152 64.701 99.8317 64.701 98.4411V88.5192H69.9257V101.55C69.9257 103.6 67.6114 104.79 66.2877 104.79H48.8914V88.5192ZM71.0502 88.5192H88.4489C90.4994 88.5192 92.1531 89.7744 92.1531 92.3238V104.823L86.9275 104.856V94.9346C86.9275 93.5479 86.4637 92.7207 84.6778 92.7207H76.8065V104.892H71.0502V88.5192V88.5192ZM93.7413 88.5192H108.954C111.998 88.5192 114.347 90.9658 114.347 92.8506V100.359C114.313 101.681 112.461 104.855 110.146 104.855H93.7421V88.5192H93.7413V88.5192ZM99.0657 101.219H107.095C108.251 101.219 109.146 100.359 109.146 99.2994V94.5377C109.146 93.3798 108.194 92.688 106.972 92.688H99.0657V101.219V101.219ZM120.797 88.45H137.103V104.856H131.28V100.625H121.258V104.856H115.372V94.2054C115.239 90.6351 118.415 88.45 120.797 88.45V88.45ZM121.192 94.2755V96.9182H131.248V92.7494H122.779C121.788 92.7502 121.192 93.3471 121.192 94.2755ZM138.16 88.4865H143.386V105.352H138.16V88.4865ZM75.3217 41.2188C53.6368 41.2188 36.0568 49.8986 36.0568 60.6026C36.0568 71.3073 53.6368 79.988 75.3217 79.988C97.005 79.988 114.586 71.3081 114.586 60.6026C114.585 49.8994 97.0043 41.2188 75.3217 41.2188V41.2188ZM71.5965 45.533C76.0781 43.9486 89.3928 45.533 94.5647 48.017C96.2199 49.6045 87.1843 54.7047 76.4259 56.9155C61.0443 60.0174 68.3546 48.1539 71.5965 45.533ZM45.181 68.5012C41.7998 66.0904 35.179 59.191 46.1467 52.0184C51.9403 48.6395 55.1814 47.8785 59.1813 47.052C61.1136 46.6365 62.4925 47.1205 60.768 48.5695C57.1129 52.3632 49.5256 64.9137 48.8369 67.6747C48.2836 69.5385 47.1809 70.0186 45.181 68.5012V68.5012ZM76.7683 76.504C70.286 77.192 55.8717 75.0551 55.5947 73.1952C55.8717 68.7089 78.4936 61.2602 82.5619 65.3985C84.2879 68.6397 80.9775 76.2963 76.7683 76.504V76.504ZM109.739 63.4648C108.082 67.2592 102.496 71.5377 90.7718 74.4348C88.9765 74.8457 88.3563 73.7438 89.5282 72.7088C91.4613 71.5369 100.772 55.9498 101.944 52.8441C102.634 51.2566 103.944 51.8799 104.773 52.4993C108.498 54.9125 111.325 58.8447 109.739 63.4648V63.4648Z" fill="#295BA7"/>
</svg>
