<svg width="108" height="173" viewBox="0 0 108 173" fill="none" xmlns="http://www.w3.org/2000/svg">
<path d="M106.918 86.2759C106.918 133.485 83.1497 171.424 54.156 171.424C25.1505 171.424 1.37891 133.485 1.37891 86.2759C1.37891 39.0519 25.1505 1.11328 54.156 1.11328C83.1497 1.11328 106.918 39.0519 106.918 86.2759Z" fill="white"/>
<path fill-rule="evenodd" clip-rule="evenodd" d="M46.6921 93.8378H62.2792V97.8389H46.6921V93.8378ZM48.5947 99.4121H60.3912V103.872H48.5947V99.4121ZM31.3259 75.2039H77.6611V77.2048H31.3259V75.2039ZM28.8584 79.0076H80.1197V81.0078H28.8584V79.0076ZM28.7922 71.4623H80.062V73.4631H28.7922V71.4623ZM62.5865 85.3453C60.0107 87.7894 60.0254 92.188 60.0254 92.188H48.9752C48.9752 92.188 48.9903 87.7894 46.4141 85.3453C44.6226 83.6352 42.4301 83.2679 42.4301 83.2679C40.9942 82.9785 40.9928 82.7945 40.9928 82.7032H67.9874C67.9874 82.7032 67.9874 82.9631 66.5531 83.2679C66.5531 83.2679 64.3722 83.6352 62.5865 85.3453ZM31.5454 82.7032H37.1086C37.1086 86.1404 34.9763 87.6827 31.5454 86.9185V82.7032ZM51.2584 27.2468C53.4831 22.6649 53.9076 15.7919 54.4639 15.6699C55.0198 15.7919 55.4445 22.6649 57.6691 27.2318C59.7618 31.554 64.2553 35.2042 63.9917 35.6315C63.6843 36.1662 61.1964 34.8222 59.9376 34.2268C57.9324 33.2338 56.3077 32.4854 56.3077 32.4854C56.3077 32.4854 55.5029 43.4363 58.064 53.5164C60.1571 61.7791 65.1626 69.3089 65.6164 69.9656H59.235C59.0299 69.6142 58.8254 69.2782 58.6497 68.9268C56.9081 65.735 55.6639 62.9705 54.4639 58.205C53.2488 62.9705 52.0341 65.735 50.2925 68.9268C50.103 69.2763 49.9078 69.6226 49.7072 69.9656H43.3156C43.7706 69.3089 48.7851 61.7792 50.8782 53.5168C53.4246 43.4516 52.6341 32.4854 52.6341 32.4854C52.6341 32.4854 50.9951 33.2491 48.9899 34.2265C47.7458 34.8375 45.2579 36.1662 44.9358 35.6315C44.6869 35.2042 49.1804 31.5537 51.2584 27.2468ZM31.3228 69.9656C31.2982 69.1562 30.8971 58.068 28.4045 49.3619C25.6751 39.8164 20.1882 34.1348 20.5567 33.5698C20.8935 33.0354 25.4335 33.9975 28.8379 36.4413C32.4705 39.053 36.0344 43.3599 35.7721 43.6806C35.6115 43.8793 34.3847 42.8099 32.1748 41.9549C29.8226 41.0381 28.7939 41.2065 28.7939 41.2065C28.7939 41.2065 32.6944 47.9419 34.6279 55.2422C36.248 61.3668 37.0908 69.2782 37.135 69.9656H31.3228ZM77.6762 69.9656C77.7058 69.1562 78.1008 58.068 80.6035 49.3619C83.3257 39.8164 88.8142 34.1348 88.4481 33.5698C88.1116 33.0354 83.5741 33.9975 80.1645 36.4413C76.5346 39.053 72.9633 43.3599 73.2268 43.6806C73.3879 43.8793 74.6175 42.8099 76.8271 41.9549C79.1839 41.0381 80.2085 41.2065 80.2085 41.2065C80.2085 41.2065 76.3007 47.9419 74.3684 55.2422C72.7582 61.3668 71.9099 69.2782 71.8657 69.9656H77.6762ZM77.4567 82.7032H71.8951C71.8951 86.1404 74.0319 87.6827 77.4567 86.9185V82.7032Z" fill="#E21A22"/>
<path d="M54.1543 0C84.1141 0 107.999 38.9309 107.999 86.2769C107.999 133.624 84.1133 172.54 54.1547 172.54C24.1788 172.54 0.304688 133.624 0.304688 86.2769C0.304688 38.9306 24.1784 0 54.1547 0H54.1543ZM54.1543 1.38973C25.374 1.38973 1.62745 39.0836 1.62745 86.2769C1.62745 133.456 25.374 171.165 54.1543 171.165C82.9284 171.165 106.667 133.456 106.667 86.2769C106.667 39.0836 82.9284 1.38973 54.1543 1.38973Z" fill="#09264A"/>
<path d="M6.70346 103.889H101.586C101.586 103.889 99.713 130.28 85.2376 149.586C74.964 163.301 62.3035 167.684 54.2537 167.684C45.3113 167.684 33.6187 163.606 23.2506 149.51C8.93669 130.067 6.70312 103.889 6.70312 103.889" fill="#0C2E59"/>
<path d="M23.2571 112.395L19.7801 121.666H19.2074L15.8415 112.411L15.4743 119.558C15.4538 119.681 15.432 120.032 15.432 120.307C15.432 120.933 16.2278 120.964 16.657 120.964H16.7711V121.666H12.8555V120.979C13.1734 120.963 14.0555 120.963 14.3235 120.628C14.5167 120.368 14.5577 119.91 14.6367 118.902L14.9588 112.166C15.0042 111.601 14.9537 111.388 14.8111 111.28C14.5854 111.097 13.8671 111.082 13.6196 111.067V110.38H16.9496L19.9671 118.581L23.051 110.38H26.3351V111.067H26.2223C25.5245 111.067 25.2257 111.082 25.0824 111.25C24.9375 111.418 24.9184 111.769 24.9754 112.655L25.3255 119.176C25.3474 119.558 25.3604 120.337 25.5758 120.658C25.8346 121.055 26.5194 120.978 26.8842 120.964V121.666H22.0936V120.979C22.4407 120.948 22.9586 120.933 23.2766 120.78C23.5121 120.674 23.6527 120.49 23.6527 120.124C23.6527 119.956 23.6304 119.467 23.6082 119.299L23.2575 112.395L23.2571 112.395ZM45.097 110.333H45.6533L45.8874 113.113H45.2727C44.936 112.074 44.2963 110.791 43.0244 110.791C42.1902 110.791 41.3471 111.525 41.3471 112.303C41.3471 112.792 41.4716 113.128 41.8726 113.541C42.4757 114.182 43.4138 114.823 44.112 115.358C45.2286 116.213 46.0922 117.175 46.0922 118.78C46.0922 120.521 44.6183 122.047 42.7612 122.047C42.0849 122.047 41.473 121.804 40.8336 121.605L40.7074 121.559H40.5878C40.3988 121.559 40.4223 121.635 40.3988 121.788H39.8483L39.5396 118.81H40.1864C40.5058 119.848 41.3297 121.268 42.5837 121.268C43.1882 121.268 44.592 120.826 44.592 119.436C44.592 118.794 44.3855 118.336 43.9889 117.878C43.5834 117.435 42.9865 116.993 42.2049 116.442C40.2305 115.022 39.8483 113.983 39.8483 112.96C39.8483 111.265 41.4627 110.028 42.805 110.028C43.3229 110.028 43.8238 110.135 44.2511 110.287L44.5934 110.456L44.7896 110.531L44.8628 110.562C44.9653 110.562 45.0385 110.409 45.097 110.333ZM32.6898 111.891L31.285 116.076H33.9883L32.6898 111.891ZM32.242 110.852L31.9862 110.012H33.804L36.8407 119.558C37.2011 120.657 37.1645 120.887 38.4305 120.978V121.666H33.6109V120.978C33.9429 120.963 34.3907 120.963 34.7039 120.857C34.9439 120.765 35.0834 120.627 35.0834 120.322C35.0834 119.986 34.9367 119.451 34.7829 118.963L34.1463 116.885H31.1226C30.8036 117.832 30.3058 119.1 30.2532 120.123C30.2197 120.749 30.619 120.842 31.086 120.903L31.6713 120.963L31.7694 121.666H27.7653V120.994C28.6025 120.795 28.8819 120.612 29.1923 119.818C29.2887 119.574 29.3872 119.268 29.5082 118.916L32.2423 110.852H32.242ZM53.7174 111.204H51.449V115.511H53.4541C53.8784 115.511 54.0832 115.511 54.2299 115.373C54.464 115.144 54.4931 114.411 54.5078 114.136H55.1519V117.802H54.5078C54.4637 116.534 54.5229 116.335 53.3078 116.335H51.449V119.864C51.449 120.444 51.464 120.643 51.5515 120.734C51.6685 120.872 52.1663 120.841 52.3125 120.841H53.981C55.342 120.841 55.5177 120.093 55.8104 118.734H56.4395L56.1909 121.666H48.0827V120.963C49.3415 121.024 49.6342 120.886 49.6342 119.619V112.426C49.6342 111.097 49.2536 111.051 48.0827 111.081V110.379H55.8104L55.8983 113.037H55.2982C55.0784 111.661 55.0347 111.204 53.7174 111.204ZM79.5497 113.082H78.9792L79.1843 110.028H79.6667C79.7396 110.18 79.7844 110.272 79.9454 110.333C80.0031 110.364 80.0768 110.379 80.1938 110.379H86.6628C87.0289 110.379 87.2188 110.364 87.3213 110.318C87.4383 110.272 87.4679 110.15 87.5119 110.028H87.9943L88.2434 113.082H87.6289C87.5553 112.7 87.3942 111.769 87.0729 111.418C86.8679 111.219 86.6332 111.204 86.2093 111.204H84.4966V119.482C84.4966 120.245 84.5551 120.551 84.7601 120.719C85.0526 120.948 86.0043 120.963 86.2967 120.978V121.666H80.8963V120.978C81.1743 120.963 82.1701 120.948 82.4473 120.734C82.638 120.582 82.6965 120.306 82.6965 119.589V111.204H81.1743C80.5599 111.204 80.1353 111.158 79.9158 111.799C79.7692 112.212 79.6667 112.655 79.5497 113.082ZM89.8825 110.379H94.9471V111.066C93.2048 111.158 93.3224 111.448 93.3224 113.189V119.36C93.425 120.825 93.6445 120.872 95.0056 120.978V121.666H89.9554V120.978C90.3071 120.948 90.7021 120.948 91.0393 120.841C91.1851 120.795 91.2147 120.749 91.2877 120.627C91.4927 120.2 91.5072 119.345 91.5072 118.291V112.685C91.5072 111.249 91.2147 111.173 89.8825 111.066V110.379ZM62.0307 116H63.1723C63.6113 115.984 64.0212 115.984 64.4161 115.724C64.8408 115.449 65.2213 114.839 65.2213 113.479C65.2213 111.402 64.065 111.051 63.1429 111.051C62.7918 111.036 62.3087 111.067 62.0307 111.067V116ZM73.2128 111.891L71.8074 116.076H74.5154L73.2128 111.891ZM74.3248 110.012L77.369 119.558C77.7207 120.657 77.6911 120.887 78.9496 120.978V121.666H74.1349V120.978C74.5739 120.963 75.613 121.04 75.613 120.322C75.613 119.986 75.4519 119.451 75.3054 118.962L74.6764 116.885H71.6464C71.2953 117.909 70.8706 119.024 70.7828 120.138C70.7096 121.024 71.7196 120.963 72.2907 120.978V121.666H68.4118C66.8897 121.727 65.675 121.284 64.7235 119.573C64.4896 119.146 63.6113 117.313 63.3334 116.809H62.0451L62.0601 119.222C62.0601 120.734 62.1921 120.963 63.0554 120.963H63.8315V121.666H58.577V120.963C59.8796 121.024 60.2017 120.872 60.2017 119.558V112.105C60.2017 111.387 60.2307 111.097 59.5429 111.036C59.2211 111.02 58.8991 111.02 58.577 111.02V110.333C59.938 110.302 61.3285 110.317 62.6749 110.317C63.5091 110.317 64.2996 110.271 65.1194 110.531C66.0852 110.852 66.9779 111.615 66.9779 113.31C66.9779 115.357 65.8657 116.014 65.09 116.365C65.4558 116.747 65.661 117.068 66.3926 118.87C67.139 120.657 67.4463 120.917 68.3242 121.054C69.3342 121.009 69.5393 120.382 70.0371 118.916L72.7738 110.852L72.5102 110.012H74.3248" fill="white"/>
</svg>
