<svg width="150" height="150" viewBox="0 0 150 150" fill="none" xmlns="http://www.w3.org/2000/svg">
<path fill-rule="evenodd" clip-rule="evenodd" d="M0 0H150V150H0V0Z" fill="white"/>
<path fill-rule="evenodd" clip-rule="evenodd" d="M62.6747 85.974L74.9996 93.4025L87.3238 85.974V115.183C83.2717 115.689 79.0508 115.858 74.9996 115.858C70.9468 115.858 66.7267 115.689 62.6747 115.183V85.974ZM74.9996 31.9453C71.7904 31.9453 63.8568 37.5171 63.8568 37.5171C61.9203 38.7557 60.0597 40.109 58.2849 41.5699L74.9996 51.5307L91.7135 41.5699C89.9391 40.1094 88.079 38.756 86.1432 37.5171C86.1425 37.5171 78.2073 31.9453 74.9996 31.9453V31.9453ZM87.3238 73.1417V56.9344L74.9996 64.5318L62.6747 56.9344V73.1417L74.9996 80.5703L87.3238 73.1417V73.1417ZM16.75 99.9875V100.663C16.9189 100.831 17.0877 101.169 17.2566 101.337C18.7764 102.858 23.1662 104.883 23.1662 104.883C26.3738 106.234 29.5815 107.584 32.79 108.767L33.4647 67.0641C27.5551 74.9984 22.4891 83.9491 18.6068 93.2345C18.6075 93.2352 16.75 97.6226 16.75 99.9875V99.9875ZM98.2985 46.9729V66.5582L110.455 59.2978C106.571 54.908 102.688 50.856 98.2985 46.9729V46.9729ZM116.533 67.0641L117.04 108.767C120.416 107.583 123.623 106.234 126.832 104.883C126.832 104.883 131.223 102.858 132.743 101.337C132.911 101.169 133.08 100.831 133.247 100.663V99.9875C133.247 97.6226 131.389 93.2345 131.389 93.2345C127.509 83.9491 122.443 74.9984 116.533 67.0641V67.0641ZM98.2985 113.663C101 113.156 103.533 112.649 106.065 111.975C105.896 97.1168 105.559 74.9977 105.559 74.9977L98.2985 79.389V113.663V113.663ZM51.6999 113.663V79.3897L44.4402 74.9984C44.4402 74.9984 44.1025 97.1176 43.9336 111.975C46.4658 112.65 48.9981 113.156 51.6999 113.663V113.663ZM51.6999 46.9729C47.3086 50.8552 43.427 54.9072 39.5431 59.2978L51.6999 66.5582V46.9729V46.9729Z" fill="#E0922F"/>
<path fill-rule="evenodd" clip-rule="evenodd" d="M87.8317 35.1555C87.8317 35.1555 78.7137 28.9082 75.0002 28.9082C71.2859 28.9082 62.1679 35.1555 62.1679 35.1555C41.9078 49.3379 25.699 69.0914 16.076 92.223C16.076 92.223 13.543 97.9629 13.543 100.833C13.543 101.339 13.543 101.508 13.7126 101.847C13.8807 102.185 14.0503 102.522 14.2184 102.691C16.2441 104.885 21.9847 107.419 21.9847 107.419C38.1936 114.509 56.2599 118.561 75.0002 118.561C93.7413 118.561 111.807 114.509 128.015 107.419C128.015 107.419 133.756 104.885 135.781 102.691C135.95 102.522 136.119 102.185 136.289 101.847C136.456 101.508 136.456 101.339 136.456 100.833C136.456 97.9629 133.924 92.223 133.924 92.223C124.3 69.0914 108.092 49.3379 87.8317 35.1555V35.1555ZM96.6104 43.2603C102.565 48.2005 108.047 53.683 112.987 59.6372L96.6104 69.5988V43.2603V43.2603ZM62.8434 35.9998C62.8434 35.9998 71.4548 30.0903 75.0002 30.0903C78.5456 30.0903 87.1555 35.9998 87.1555 35.9998C89.8581 37.8573 92.2215 39.7141 94.7537 41.7405L75.0002 53.558L55.246 41.7405C57.7797 39.7141 60.1423 37.8566 62.8434 35.9998ZM53.3892 43.2603V69.5988L37.0123 59.6372C41.9525 53.683 47.435 48.2005 53.3892 43.2603V43.2603ZM34.4793 111.133C30.4265 109.783 26.3745 108.263 22.4906 106.405C22.4906 106.405 17.2573 104.211 15.4005 102.185C15.2316 102.015 15.0628 101.677 14.8939 101.509C14.725 101.171 14.725 100.834 14.725 100.496C14.725 97.9629 16.9203 92.5607 16.9203 92.5607C21.6478 81.4186 27.8951 71.1186 35.3236 61.8325L34.4793 111.133V111.133ZM53.3892 115.691C49.5061 115.015 45.791 114.341 42.0767 113.327L42.7522 71.9621L53.3892 78.3775V115.691V115.691ZM89.013 116.873C84.4552 117.211 79.7261 117.549 75.0002 117.549C70.2719 117.549 65.546 117.21 60.9866 116.873V82.9377L75.0002 91.3802L89.013 82.9377V116.873ZM96.6104 115.691V78.3775L107.248 71.9621L107.923 113.327C104.209 114.341 100.494 115.015 96.6104 115.691V115.691ZM108.935 112.99L108.261 70.1046L95.5972 77.7028V115.86C93.7413 116.198 91.8845 116.535 90.027 116.704V81.0786L75.0002 90.1958L59.9742 81.0786V116.704C58.1167 116.535 56.2599 116.198 54.4008 115.86V77.7036L41.739 70.1054L41.0627 112.99C39.206 112.485 37.3485 111.977 35.6613 111.471L36.336 60.4815L54.4016 71.2867V42.4144L75.0002 54.7409L95.5972 42.4144V71.2859L113.664 60.4808L114.339 111.471C112.65 111.977 110.793 112.484 108.935 112.99ZM135.105 101.508C134.938 101.676 134.769 102.014 134.599 102.184C132.743 104.21 127.509 106.405 127.509 106.405C123.624 108.262 119.574 109.782 115.353 111.132L114.677 61.8309C122.106 71.117 128.353 81.4171 133.081 92.5591C133.081 92.5591 135.275 97.9613 135.275 100.494C135.275 100.833 135.275 101.171 135.105 101.508Z" fill="white"/>
<path fill-rule="evenodd" clip-rule="evenodd" d="M137.472 90.7033C127.51 66.8971 110.795 46.637 89.8595 32.1176C89.8595 32.1176 79.3905 24.6875 75.0015 24.6875C70.6118 24.6875 60.1436 32.1176 60.1436 32.1176C39.2081 46.6362 22.4927 66.8963 12.5311 90.7033C12.5311 90.7033 9.32422 98.4696 9.32422 102.354C9.32422 102.692 9.32422 103.199 9.49309 103.535C9.66273 104.042 9.83082 104.38 10.1686 104.718C12.8689 107.42 20.4671 110.797 20.4671 110.797C37.1817 118.225 55.5866 122.446 75.0023 122.446C94.4181 122.446 112.821 118.225 129.535 110.797C129.535 110.797 137.135 107.42 139.835 104.718C140.173 104.38 140.343 104.043 140.51 103.535C140.68 103.199 140.68 102.692 140.68 102.354C140.68 98.4696 137.472 90.7033 137.472 90.7033V90.7033ZM136.291 101.847C136.121 102.185 135.952 102.522 135.784 102.691C133.758 104.885 128.018 107.419 128.018 107.419C111.81 114.51 93.7442 118.561 75.0031 118.561C56.2628 118.561 38.1965 114.51 21.9876 107.419C21.9876 107.419 16.247 104.885 14.2213 102.691C14.0533 102.522 13.8836 102.185 13.7155 101.847C13.5459 101.508 13.5459 101.34 13.5459 100.833C13.5459 97.963 16.0789 92.2231 16.0789 92.2231C25.7011 69.0916 41.91 49.3381 62.17 35.1557C62.17 35.1557 71.2881 28.9084 75.0023 28.9084C78.7158 28.9084 87.8338 35.1557 87.8338 35.1557C108.094 49.3381 124.302 69.0916 133.926 92.2231C133.926 92.2231 136.458 97.963 136.458 100.833C136.459 101.34 136.459 101.508 136.291 101.847Z" fill="black"/>
<path fill-rule="evenodd" clip-rule="evenodd" d="M95.596 71.2855V42.4141L74.999 54.7405L54.4004 42.4141V71.2855L36.3348 60.4804L35.6602 111.47C37.3473 111.976 39.2048 112.483 41.0615 112.989L41.7378 70.1043L54.3996 77.7025V115.859C56.258 116.198 58.1147 116.535 59.973 116.704V81.0782L74.999 90.1955L90.0258 81.0782V116.704C91.8833 116.535 93.7401 116.198 95.596 115.859V77.7032L108.259 70.105L108.934 112.99C110.792 112.484 112.648 111.977 114.337 111.471L113.662 60.4812L95.596 71.2855V71.2855ZM90.0258 74.6621L74.999 83.7801L59.973 74.6621V52.2075L74.999 61.1567L90.0258 52.2075V74.6621Z" fill="black"/>
</svg>
