<svg width="150" height="34" viewBox="0 0 150 34" fill="none" xmlns="http://www.w3.org/2000/svg">
<g clip-path="url(#clip0)">
<path d="M58.3828 25.6773H61.2308V7.71582H58.2344V25.6773H58.3828ZM64.3426 25.6773H67.1902V7.71582H64.1949V25.6773H64.3426V25.6773ZM112.02 31.1453C113.87 31.4554 115.524 30.7025 116.62 29.6719C118.159 28.2151 119.141 26.3163 120.78 21.8789L123.922 13.4955L123.988 13.3157H120.976L120.944 13.3967L118.111 21.7139L115.098 13.3967L115.064 13.3157H111.775L111.84 13.4955L116.539 25.2673C116.162 26.316 115.557 27.1985 114.967 27.789C114.213 28.5091 113.166 28.8358 112.02 28.6409V31.1453" fill="#00498F"/>
<path d="M105.639 13.0048C101.938 13.0048 99.4 15.6738 99.4 19.4884C99.4 23.3685 101.906 25.9885 105.639 25.9885C109.371 25.9885 111.861 23.3685 111.861 19.4884C111.86 15.6738 109.323 13.0048 105.639 13.0048ZM105.622 23.5825C103.756 23.5825 102.364 21.9595 102.364 19.4722C102.364 16.9836 103.756 15.3633 105.622 15.3633C107.521 15.3633 108.897 16.9836 108.897 19.4722C108.897 21.9595 107.505 23.5825 105.622 23.5825ZM50.0527 12.9717C46.2536 12.9717 43.8148 15.5921 43.8148 19.456C43.8148 23.336 46.2536 25.9568 50.0527 25.9568C53.851 25.9568 56.2747 23.336 56.2747 19.456C56.2747 15.5921 53.851 12.9717 50.0527 12.9717ZM50.0357 23.549C48.169 23.549 46.7778 21.9117 46.7778 19.4397C46.7778 16.9505 48.169 15.3298 50.0357 15.3298C51.9356 15.3298 53.3103 16.9505 53.3103 19.4397C53.3103 21.9117 51.9183 23.549 50.0357 23.549ZM78.7696 16.2794H84.6487V18.5392H78.7696V16.2794ZM41.7834 20.5201C42.4059 22.4841 42.7334 24.4495 42.9636 25.6286L39.7705 25.6448C39.59 24.63 39.4098 23.2211 38.8537 21.5183C38.2149 19.4876 37.4127 18.5546 35.5135 18.5546H34.056V25.6279H31.043V8.42046C31.6817 8.42046 32.4342 8.37109 33.2372 8.37109H35.6601C38.0993 8.37109 39.7041 8.87829 40.818 9.84521C41.7506 10.6463 42.2582 11.8585 42.2582 13.2505C42.2582 15.5265 40.9326 16.8359 39.4588 17.4098C40.5399 17.9163 41.2272 18.8007 41.7834 20.5201V20.5201ZM35.9714 10.8438H34.9736C34.5474 10.8438 34.2685 10.8769 34.056 10.8769V16.279H35.8078C37.8709 16.279 39.2787 15.2145 39.2787 13.5282C39.2791 11.7768 38.1324 10.8607 35.9714 10.8438ZM97.5175 20.5201C98.1388 22.4841 98.4667 24.4495 98.6961 25.6286L95.5034 25.6448C95.3229 24.63 95.1427 23.2211 94.5862 21.5183C93.9467 19.4876 93.1452 18.5546 91.2464 18.5546H89.7893V25.6279H86.7763V8.42046C87.415 8.42046 88.1678 8.37109 88.9701 8.37109H91.3942C93.8337 8.37109 95.437 8.87829 96.5517 9.84521C97.4854 10.6463 97.9926 11.8585 97.9926 13.2505C97.9926 15.5265 96.6658 16.8359 95.1925 17.4098C96.2739 17.9163 96.9605 18.8007 97.5175 20.5201V20.5201ZM91.7043 10.8438H90.7065C90.2807 10.8438 90.0022 10.8769 89.7897 10.8769V16.279H91.5415C93.6046 16.279 95.0116 15.2145 95.0116 13.5282C95.0116 11.7768 93.8657 10.8607 91.7043 10.8438V10.8438ZM69.8797 22.8616C70.567 23.2878 71.8279 23.6967 72.9255 23.6967C74.3993 23.6967 74.9882 23.2215 74.9882 22.3205C74.9882 21.4041 74.5135 21.0118 72.9421 20.4387C70.633 19.6195 69.6182 18.2603 69.6182 16.8194C69.6182 14.7412 71.3376 13.021 74.1046 13.021C75.4144 13.021 76.5603 13.4133 77.2646 13.8229L76.6753 15.8208C76.0049 15.5103 75.2189 15.2314 74.1054 15.2476C72.9591 15.2642 72.5005 15.788 72.5005 16.5243C72.5005 17.3767 73.3687 17.8677 74.4818 18.2441C76.6922 18.9804 77.8713 20.225 77.8713 22.0918C77.8555 24.3015 76.0049 25.9225 72.8931 25.9225C71.4857 25.9225 70.1427 25.6282 69.2919 24.9899L69.8797 22.8616V22.8616ZM133.62 25.2194C132.998 25.5152 131.704 25.8905 130.132 25.8905C126.547 25.8577 123.878 23.402 123.878 19.6022C123.878 15.9026 126.284 13.0376 130.608 13.0376C131.835 13.0376 132.981 13.3647 133.652 13.6759L133.128 15.8532C132.604 15.5917 131.834 15.4274 130.672 15.4274C128.134 15.4274 126.939 17.0982 126.956 19.4722C126.956 22.1246 128.413 23.5976 130.656 23.5976C131.802 23.5976 132.604 23.336 133.21 23.0745L133.62 25.2194ZM137.173 20.1768C137.255 22.7124 138.778 23.6149 140.872 23.6149C142.363 23.6149 143.378 23.3685 144.262 23.0256L144.704 25.0898C143.371 25.6659 141.933 25.9612 140.481 25.9572C136.583 25.9572 134.258 23.3865 134.258 19.6534C134.258 16.1486 136.37 13.0553 140.185 13.0553C144.181 13.0553 145.391 16.4278 145.391 18.9322C145.391 19.4733 145.391 19.8821 145.326 20.1606L137.173 20.1768ZM142.592 18.064C142.609 16.8359 142.247 15.1821 140.005 15.1821C137.942 15.1821 137.337 16.7048 137.188 18.064H142.592" fill="#00498F"/>
<path d="M0.996094 2.93601C0.997089 2.42376 1.20097 1.93277 1.56311 1.57048C1.92525 1.2082 2.41617 1.00412 2.92841 1.00293H17.8116C18.8923 1.00293 19.7597 1.87187 19.7597 2.93601V30.9656C19.7597 32.0316 18.8919 32.8979 17.8116 32.8979H2.92879C2.41655 32.8972 1.92552 32.6933 1.56331 32.3311C1.20111 31.9689 0.997268 31.4779 0.996471 30.9656L0.996094 2.93601Z" fill="white"/>
<path d="M1.80078 6.24194V2.93574C1.80148 2.63624 1.92076 2.34921 2.13254 2.13743C2.34432 1.92565 2.63136 1.80636 2.93086 1.80566H17.814C18.4528 1.80566 18.9596 2.31324 18.9596 2.93574V6.24194H1.80078ZM1.80078 7.04494H18.9596V26.8565H1.80078V7.04494Z" fill="#00498F"/>
<path d="M0.998193 2.93615C0.999188 2.4239 1.20307 1.93291 1.56521 1.57063C1.92736 1.20834 2.41827 1.00427 2.93052 1.00308H17.8137C18.8944 1.00308 19.7619 1.87202 19.7619 2.93615V30.9658C19.7619 32.0318 18.894 32.8981 17.8137 32.8981H2.93089C2.41865 32.8973 1.92762 32.6935 1.56541 32.3312C1.20321 31.969 0.999367 31.478 0.99857 30.9658L0.998193 2.93615ZM20.7442 2.93615C20.7447 2.55118 20.6692 2.1699 20.5221 1.81414C20.375 1.45837 20.1592 1.13511 19.8871 0.862838C19.6149 0.59057 19.2917 0.374648 18.936 0.22743C18.5803 0.0802111 18.1991 0.00458647 17.8141 0.004884H2.93089C2.54587 0.00453698 2.16457 0.0801224 1.80879 0.227314C1.45302 0.374506 1.12977 0.590414 0.857533 0.862682C0.5853 1.13495 0.369434 1.45823 0.222287 1.81402C0.0751415 2.16981 -0.000394966 2.55113 1.55566e-06 2.93615V30.9658C-0.000395327 31.3507 0.0751518 31.732 0.222316 32.0877C0.369481 32.4434 0.585371 32.7666 0.857624 33.0387C1.12988 33.3109 1.45314 33.5266 1.80891 33.6737C2.16467 33.8207 2.54595 33.8961 2.93089 33.8955H17.8141C19.4344 33.8955 20.7442 32.5865 20.7442 30.9658V2.93615Z" fill="#00498F"/>
<path d="M1.80078 27.6582V30.9652C1.80148 31.2647 1.92074 31.5519 2.1325 31.7638C2.34425 31.9757 2.63129 32.0951 2.93086 32.096H17.814C18.4528 32.096 18.9596 31.5877 18.9596 30.9652V27.6582H1.80078Z" fill="#00498F"/>
<path d="M9.15361 23.6965V19.2919C9.56861 19.2781 9.98331 19.2564 10.3975 19.2267C10.2505 18.8827 10.1021 18.5386 9.92231 18.2108C9.67588 18.244 9.41512 18.244 9.15323 18.2598V17.3434C8.54847 17.4781 7.93617 17.5763 7.31963 17.6377V23.6961C7.31963 25.0387 6.69751 25.3997 6.32031 25.6443H10.1518C9.79231 25.3993 9.15361 25.0391 9.15361 23.6965ZM18.0608 25.6285C17.7492 25.3334 17.3558 24.8756 17.1606 23.9738C16.7989 22.32 16.046 19.9472 14.4584 18.178C16.0136 17.3264 16.9635 15.9846 16.9635 14.3315C16.9794 13.1516 16.3734 11.907 15.2927 11.1707C14.8349 10.8772 14.2945 10.6635 13.6558 10.5312C13.8853 11.0238 14.0323 11.5471 14.0658 12.0713C14.7373 12.5947 15.0968 13.3969 15.0968 14.3631C15.0968 15.5919 14.4739 17.0321 12.2966 17.7692C12.4771 18.1124 12.6565 18.4731 12.8042 18.8167C12.9188 18.7843 13.0341 18.7504 13.1486 18.7187C14.1626 19.8978 14.9818 21.7476 15.2272 23.4666C15.4077 24.7113 14.966 25.333 14.671 25.6281H18.0608" fill="white"/>
<path d="M14.2445 23.6473C13.917 23.3526 13.524 22.8944 13.3439 21.9938C12.9829 20.34 12.2636 18.015 10.8226 16.3623C10.8878 16.3291 10.9372 16.3133 11.0031 16.2798C12.64 15.4459 13.6393 14.0532 13.6393 12.3507C13.6551 11.155 13.0492 9.92775 11.9685 9.19069C11.1173 8.61793 9.971 8.3877 8.51422 8.3877H2.99609C3.37291 8.63376 3.99466 8.99437 3.99466 10.3366V21.6995C3.99466 23.0595 3.37254 23.4028 2.99609 23.6477H6.8272C6.46659 23.4028 5.82864 23.0595 5.82864 21.6995V17.2953C7.17124 17.2953 8.43245 17.1306 9.49621 16.8522C10.4627 18.015 11.1832 19.817 11.412 21.4697C11.5755 22.7128 11.1497 23.353 10.855 23.6469H14.2445V23.6473ZM5.82864 16.2798V9.40322H8.43245C9.38203 9.42018 10.0855 9.61612 10.6432 10.0095C11.3784 10.5322 11.7718 11.3676 11.7718 12.3669C11.7718 14.0528 10.6097 16.1988 5.82864 16.2798Z" fill="white"/>
<path d="M9.15234 15.2963V11.4162H11.2154C11.0728 11.0005 10.8037 10.6398 10.446 10.3845H6.31943C6.69662 10.6298 7.31875 10.9742 7.31875 12.333V15.7556C8.00644 15.6569 8.62856 15.51 9.15234 15.2963V15.2963ZM12.9017 29.8852C12.9017 30.4422 13.2291 30.8665 13.8015 30.8665C14.2115 30.8665 14.5872 30.7511 14.7515 30.5556L14.6527 31.1958C14.5058 31.2591 14.2439 31.3431 13.8185 31.3431C12.9017 31.3431 12.263 30.8016 12.263 29.8852C12.263 29.3942 12.4597 29.0174 12.7536 28.7717C13.0159 28.5437 13.3757 28.4103 13.8185 28.4103C14.2439 28.4103 14.5062 28.4929 14.6527 28.5739V29.1809C14.4726 28.9846 14.2115 28.8859 13.8015 28.8859C13.2291 28.8859 12.9017 29.3121 12.9017 29.8852ZM5.48477 30.5733C5.35364 30.3106 5.23909 30.0977 5.04201 30.0164C5.46782 29.9342 5.68072 29.6716 5.6973 29.3117C5.6973 28.9349 5.53376 28.6564 5.23909 28.5434C5.05859 28.4763 4.81366 28.4763 4.4538 28.4763H3.02868C3.16056 28.5588 3.24158 28.8362 3.24158 29.0988V30.6701C3.24158 30.8996 3.16056 31.1954 3.02868 31.2915H4.04382C3.91382 31.195 3.8313 30.8992 3.8313 30.6701V30.1629H4.25635C4.48621 30.1629 4.61659 30.2609 4.71494 30.4229C4.86265 30.6698 4.97795 31.0142 5.15732 31.2745L5.99197 31.2911C5.73084 31.0963 5.61628 30.8499 5.48477 30.5733ZM5.07555 29.3271C5.07555 29.606 4.84607 29.7213 4.48621 29.7213H3.8313V28.9353H4.48621C4.84569 28.9353 5.07555 29.034 5.07555 29.3271V29.3271ZM7.07231 30.6219C6.90952 30.4746 6.827 30.2296 6.827 29.8852C6.827 29.5416 6.90952 29.2966 7.07231 29.1323C7.21927 28.985 7.41634 28.9032 7.67861 28.9032C7.92391 28.9032 8.12099 28.9854 8.2687 29.1323C8.43224 29.2974 8.51401 29.5416 8.51401 29.8852C8.51401 30.2304 8.43224 30.4746 8.2687 30.6219C8.19198 30.7004 8.10014 30.7626 7.99871 30.8046C7.89729 30.8467 7.78839 30.8677 7.67861 30.8665C7.41634 30.8665 7.21927 30.7696 7.07231 30.6219V30.6219ZM7.6624 31.3586C8.05505 31.3586 8.38288 31.244 8.62856 31.0304C8.92211 30.7858 9.13614 30.4101 9.13614 29.8852C9.13614 29.3614 8.92211 28.985 8.62856 28.7216C8.38288 28.5257 8.05505 28.4111 7.6624 28.4111C7.28521 28.4111 6.95813 28.5264 6.71245 28.7216C6.41777 28.985 6.20487 29.3614 6.20487 29.8852C6.20487 30.4101 6.41777 30.7858 6.71245 31.0304C6.95813 31.2436 7.28483 31.3586 7.6624 31.3586ZM11.3296 28.4763C11.3959 28.5257 11.4283 28.5739 11.4117 28.6413C11.4117 28.7062 11.3782 28.8041 11.313 28.9025L10.7572 29.7047L10.1995 28.8859C10.1343 28.7868 10.0691 28.6896 10.0853 28.6074C10.1012 28.5592 10.1185 28.5095 10.1837 28.4763H9.05399C9.25107 28.5588 9.34753 28.7058 9.49562 28.9187L10.412 30.2134V30.6713C10.412 30.9004 10.331 31.1962 10.1995 31.2757H11.2154C11.0843 31.1958 11.0029 30.9004 11.0029 30.6713V30.2134L11.8375 29.0344C11.9683 28.8704 12.1492 28.5739 12.3444 28.4767H11.3296V28.4763ZM16.7663 30.8337H16.0447V30.065H17.1258L17.191 29.6392H16.0447V28.9353H16.683C17.0433 28.9353 17.3387 28.9518 17.4853 29.0992V28.4763H15.2421C15.3732 28.5739 15.4561 28.8704 15.4561 29.0988V30.6701C15.4561 30.9158 15.3732 31.1954 15.2421 31.2915H17.5022L17.6002 30.6038C17.4363 30.8182 17.1258 30.8337 16.7663 30.8337V30.8337ZM15.3416 4.62179C15.406 4.71976 15.5541 4.83469 15.6517 4.88368C15.8925 5.01544 16.1632 5.08292 16.4377 5.07963C16.847 5.07963 17.0934 4.90026 17.0934 4.63762C17.0934 4.32674 16.7818 4.27776 16.3074 4.21144C15.7018 4.13042 15.3736 3.85195 15.3736 3.36133C15.3902 2.86958 15.8488 2.49352 16.5206 2.49352C16.9781 2.49352 17.2893 2.59112 17.4857 2.68947V3.3278C17.4209 3.21287 17.2735 3.1311 17.1258 3.06591C16.9308 3.00028 16.7264 2.96718 16.5206 2.96793C16.1917 2.96793 15.9961 3.09907 15.9961 3.26185C15.9961 3.5407 16.2576 3.57348 16.83 3.68766C17.4035 3.80372 17.7476 4.04865 17.7317 4.55622C17.7151 5.14519 17.2558 5.53859 16.4377 5.53859C16.0771 5.53859 15.6189 5.47265 15.3416 5.32569V4.62179V4.62179ZM5.59857 4.75179C5.45161 4.4737 5.33744 4.26118 5.12491 4.16283C5.58312 4.06448 5.81185 3.80334 5.81185 3.40994C5.81185 3.03275 5.64831 2.73845 5.33781 2.6239C5.14074 2.54213 4.89543 2.54213 4.51899 2.54213H3.01172C3.16056 2.6401 3.24158 2.93515 3.24158 3.19704V4.84977C3.24158 5.09621 3.16056 5.40746 3.01172 5.48923H4.09319C3.94623 5.40746 3.86333 5.09621 3.86333 4.84977V4.32599H4.32267C4.55253 4.32599 4.68253 4.40776 4.78126 4.58863C4.94517 4.84939 5.05897 5.21038 5.25529 5.48923H6.12386C5.86121 5.30948 5.73084 5.03064 5.59857 4.75179V4.75179ZM5.17315 3.44235C5.17315 3.73777 4.92784 3.85195 4.55215 3.85195H3.86295V3.01654H4.55215C4.92784 3.01654 5.17315 3.1311 5.17315 3.44235ZM7.26938 4.80153C7.08889 4.63724 7.00787 4.37611 7.00787 4.01624C7.00787 3.67221 7.08889 3.41032 7.26938 3.22945C7.41634 3.08249 7.62924 2.98414 7.89113 2.98414C8.1534 2.98414 8.36592 3.08249 8.51401 3.22945C8.69338 3.40994 8.7921 3.67221 8.7921 4.01624C8.7921 4.37611 8.69338 4.63724 8.51401 4.80153C8.36592 4.94849 8.1534 5.04684 7.89113 5.04684C7.62924 5.04684 7.41634 4.94849 7.26938 4.80153V4.80153ZM7.89113 5.571C8.30111 5.571 8.64477 5.45607 8.90628 5.22734C9.21753 4.9647 9.43043 4.57243 9.43043 4.01624C9.43043 3.47551 9.21753 3.06628 8.90628 2.80515C8.64477 2.59149 8.30111 2.47656 7.89113 2.47656C7.48228 2.47656 7.13787 2.59149 6.87598 2.80515C6.56549 3.06628 6.35145 3.47551 6.35145 4.01624C6.35145 4.5728 6.56549 4.96507 6.87598 5.22734C7.13825 5.45607 7.49811 5.571 7.89113 5.571V5.571ZM12.1492 4.73672C11.9845 4.94849 11.6412 5.01481 11.2637 5.01481H10.6913V3.19742C10.6913 2.95211 10.773 2.6401 10.9042 2.54251H9.83966C9.98662 2.64048 10.0691 2.95173 10.0691 3.19742V4.85014C10.0691 5.11279 9.98662 5.39088 9.83966 5.4896H12.0504L12.1492 4.73672V4.73672ZM14.8178 4.73672C14.6527 4.94849 14.3098 5.03064 13.9327 5.01481H13.3433V3.19742C13.3433 2.95211 13.4251 2.6401 13.5728 2.54251H12.5083C12.6552 2.64048 12.737 2.95173 12.737 3.19742V4.85014C12.737 5.11279 12.6552 5.40783 12.5083 5.50505H14.7032L14.8178 4.73672" fill="white"/>
<path d="M146.495 12.9408C146.495 12.0311 147.18 11.3457 148.059 11.3457C148.928 11.3457 149.613 12.0315 149.613 12.9408C149.613 13.8651 148.928 14.546 148.059 14.546C147.181 14.546 146.495 13.8651 146.495 12.9408ZM148.06 14.8663C149.106 14.8663 150 14.0531 150 12.9408C150 11.8382 149.106 11.0254 148.06 11.0254C147.003 11.0254 146.109 11.8382 146.109 12.9408C146.109 14.0528 147.003 14.8663 148.06 14.8663ZM147.653 13.093H148.039L148.623 14.0531H148.999L148.369 13.0779C148.694 13.0376 148.943 12.8646 148.943 12.4682C148.943 12.0311 148.684 11.8382 148.161 11.8382H147.318V14.0528H147.653V13.093V13.093ZM147.653 12.8085V12.1227H148.111C148.344 12.1227 148.593 12.1732 148.593 12.4479C148.593 12.7881 148.339 12.8085 148.055 12.8085H147.653Z" fill="#00498F"/>
</g>
<defs>
<clipPath id="clip0">
<rect width="150" height="33.9" fill="white"/>
</clipPath>
</defs>
</svg>
