<svg width="150" height="150" viewBox="0 0 150 150" fill="none" xmlns="http://www.w3.org/2000/svg">
<path fill-rule="evenodd" clip-rule="evenodd" d="M0 0H150V150H0V0Z" fill="white"/>
<path fill-rule="evenodd" clip-rule="evenodd" d="M23.8421 79.8301C28.2319 79.8301 27.684 84.4945 27.7619 84.6907H23.2149C23.2149 84.651 23.2149 83.279 21.9613 83.279H12.7903C10.9873 83.279 10.9873 86.4159 12.6332 86.4937C15.612 86.6501 20.4718 86.6104 24.4694 86.8066C26.3502 86.9248 27.9969 88.1396 27.9969 90.1777C27.9969 90.2555 28.0755 93.7052 28.0755 93.7052C28.1144 96.0561 26.0771 97.1541 24.0779 97.1541H10.9873C8.7928 97.1541 6.98975 95.548 6.67614 93.3908C6.59754 92.8713 6.59754 92.343 6.67614 91.8235H11.2223C11.2223 91.8235 11.1437 93.783 13.1032 93.783C16.5521 93.783 18.5116 93.8624 21.6469 93.783C23.9986 93.7433 24.39 90.3341 21.6469 90.1777C18.3552 90.0212 15.8463 89.9037 11.6923 89.7855C8.87062 89.7076 6.83177 88.6104 6.83177 86.3365V82.809C6.83177 81.1631 8.39982 79.8301 10.5943 79.8301H23.8421V79.8301ZM34.6605 80.3787C34.5819 80.497 34.6605 87.2774 34.6605 92.4515C34.6605 93.1963 35.1305 93.783 36.0706 93.783H44.85C45.7909 93.783 46.0259 93.0002 46.0259 92.3729C46.1045 87.7482 46.1045 80.5756 46.0259 80.4581H51.0421C51.0421 80.4581 51.0818 89.0804 51.1207 93.7052C51.1604 95.783 49.3962 97.1144 46.8881 97.1541C42.1848 97.2335 39.8331 97.1541 35.4433 97.1541C32.3858 97.1541 29.7602 96.253 29.7206 93.7052C29.6816 88.4524 29.5641 80.497 29.642 80.3787H34.6605V80.3787ZM68.5225 80.4581C73.1472 80.4581 73.6172 83.8292 73.6172 84.8478C73.6172 87.591 71.3053 88.7279 71.187 88.7676C71.2267 88.7676 73.9309 89.7862 73.9309 92.4515C73.9309 93.941 73.6958 97.1144 68.5217 97.1541C62.5647 97.2335 52.9619 97.1541 52.923 97.1541V80.4581H68.5225V80.4581ZM67.2688 87.3552C68.2089 87.3552 68.9933 86.8066 68.9933 85.5529C68.9933 84.4556 68.0921 83.8292 67.1124 83.8292C63.8207 83.8292 58.059 83.7498 57.9415 83.8292V87.3552C58.0582 87.4338 63.6627 87.3552 67.2688 87.3552ZM67.3466 93.783C68.3264 93.783 69.3061 93.236 69.3061 91.9807C69.3061 90.8041 68.3264 90.0609 67.268 90.0991C64.2105 90.1388 58.0574 90.0991 57.9399 90.1784V93.7838C58.0582 93.8616 63.3491 93.783 67.3466 93.783V93.783ZM82.7897 80.4581H88.9024L97.9184 97.1541H92.9785L91.1762 93.783H80.6723L78.7906 97.1541H73.7744L82.7897 80.4581V80.4581ZM85.7671 84.142L82.4753 90.1777H89.2175L85.7671 84.142ZM113.517 83.8292C114.771 83.8292 115.555 85.3171 115.555 86.4937C115.555 87.6703 114.731 88.924 113.517 88.924C109.91 88.924 104.423 88.9637 104.346 88.924V83.8292C104.463 83.7498 110.224 83.8292 113.517 83.8292V83.8292ZM104.346 91.98C104.384 91.98 110.382 92.0196 113.361 91.98C114.653 91.9403 115.711 93.313 115.711 94.4896V97.1541H120.179V94.5674C120.179 92.1372 117.632 90.7263 117.593 90.7263C117.711 90.6866 120.102 89.0804 120.102 86.4159C120.102 83.279 118.849 80.4581 114.223 80.4581H99.3293V97.1541H104.346V91.98V91.98ZM126.921 80.3787C126.803 80.5351 126.999 87.2774 126.999 92.4515C126.999 93.1963 127.391 93.783 128.411 93.783H137.111C138.052 93.783 138.288 93.0002 138.288 92.3729C138.365 87.7482 138.444 80.5756 138.365 80.4581H143.305C143.305 80.4581 143.343 89.0804 143.383 93.7052C143.423 95.783 141.737 97.1144 139.229 97.1541C134.447 97.2335 132.095 97.1541 127.784 97.1541C124.728 97.1541 122.023 96.2927 121.985 93.7052C121.905 88.4524 121.905 80.497 121.985 80.3787H126.921V80.3787Z" fill="black"/>
<path d="M76.1665 47.1183C69.885 47.1183 64.0882 48.7852 59.816 51.3143C55.4403 53.9049 52.6792 57.388 52.6792 60.8797C52.6792 64.3637 55.4278 67.8087 59.7864 70.3673C64.0602 72.8762 69.8694 74.5221 76.1657 74.5221C82.5126 74.5221 88.3459 72.8793 92.6353 70.3743C97.0172 67.8141 99.7712 64.366 99.7712 60.8797C99.7712 57.3841 97.0048 53.8978 92.6065 51.3065C88.3225 48.7821 82.5017 47.1183 76.1665 47.1183V47.1183ZM59.4573 50.7057C63.8299 48.1167 69.755 46.4102 76.1665 46.4102C82.6293 46.4102 88.5762 48.1128 92.9644 50.6972C97.5775 53.4154 100.48 57.1203 100.48 60.8782C100.48 64.6298 97.5892 68.2982 92.9917 70.9837C88.6035 73.547 82.6426 75.2287 76.1665 75.2287C69.7433 75.2287 63.8065 73.5431 59.4308 70.9743C54.8566 68.2888 51.9727 64.6259 51.9727 60.8782C51.9719 57.125 54.8675 53.4232 59.4573 50.7057Z" fill="black"/>
<path fill-rule="evenodd" clip-rule="evenodd" d="M69.6434 55.6609L80.5566 58.0336L69.7616 60.2864L67.3897 66.217L65.0178 60.1682L55.0547 58.0336L65.0178 55.8983L67.2714 50.2051L69.6434 55.6609ZM81.6235 61.2351L86.2483 62.1844L81.6235 63.2521L80.6734 65.7423L79.6065 63.133L75.3366 62.1844L79.6065 61.2351L80.5566 58.8631L81.6235 61.2351V61.2351ZM92.8917 61.2351L97.5165 62.1844L92.8917 63.2521L91.9415 65.7423L90.8746 63.133L86.7222 62.1844L90.8746 61.2351L91.9415 58.8631L92.8917 61.2351V61.2351ZM89.9268 54.2376L94.5516 55.1862L89.9268 56.1348L88.9766 58.7449L87.9097 56.1348L83.6398 55.1862L87.9097 54.2376L88.8584 51.8649L89.9268 54.2376ZM85.537 66.81L90.2824 67.8776L85.6553 68.8262L84.5884 71.3172L83.52 68.8262L79.3691 67.8776L83.52 66.929L84.5884 64.5563L85.537 66.81ZM73.3203 67.6403L77.9466 68.708L73.3203 69.6566L72.3709 72.1475L71.304 69.5383L67.0341 68.708L71.304 67.7586L72.2526 65.2684L73.3203 67.6403Z" fill="black"/>
</svg>
