<svg width="40" height="40" viewBox="0 0 40 40" fill="none" xmlns="http://www.w3.org/2000/svg">
<path d="M21.6673 36.6676H15.0007C14.5586 36.6676 14.1347 36.492 13.8221 36.1794C13.5096 35.8668 13.334 35.4429 13.334 35.0009V24.6676H10.0007C9.55862 24.6676 9.1347 24.492 8.82214 24.1794C8.50958 23.8668 8.33398 23.4429 8.33398 23.0009V17.0009C8.33398 16.5589 8.50958 16.1349 8.82214 15.8224C9.1347 15.5098 9.55862 15.3342 10.0007 15.3342H13.334V12.5009C13.4508 9.96149 14.5684 7.57164 16.4423 5.85388C18.3162 4.13612 20.794 3.23022 23.334 3.33423H28.334C28.776 3.33423 29.1999 3.50983 29.5125 3.82239C29.8251 4.13495 30.0007 4.55887 30.0007 5.0009V11.0009C30.0007 11.4429 29.8251 11.8669 29.5125 12.1794C29.1999 12.492 28.776 12.6676 28.334 12.6676H23.334V15.3342H28.334C28.5913 15.3323 28.8456 15.39 29.0769 15.5027C29.3083 15.6155 29.5103 15.7803 29.6673 15.9842C29.8226 16.1912 29.9275 16.4315 29.9738 16.6861C30.0201 16.9407 30.0064 17.2025 29.934 17.4509L28.2673 23.4509C28.1665 23.8114 27.9473 24.1275 27.6449 24.3482C27.3426 24.5689 26.9747 24.6814 26.6007 24.6676H23.334V35.0009C23.334 35.4429 23.1584 35.8668 22.8458 36.1794C22.5333 36.492 22.1093 36.6676 21.6673 36.6676ZM16.6673 33.3342H20.0007V23.0009C20.0007 22.5589 20.1762 22.1349 20.4888 21.8224C20.8014 21.5098 21.2253 21.3342 21.6673 21.3342H25.4007L26.134 18.6676H21.6673C21.2253 18.6676 20.8014 18.492 20.4888 18.1794C20.1762 17.8668 20.0007 17.4429 20.0007 17.0009V12.5009C20.0434 11.646 20.4134 10.8404 21.034 10.2509C21.6545 9.66138 22.4781 9.33316 23.334 9.33423H26.6673V6.66757H23.334C21.6787 6.56672 20.0503 7.12262 18.8023 8.21467C17.5542 9.30673 16.7871 10.8468 16.6673 12.5009V17.0009C16.6673 17.4429 16.4917 17.8668 16.1792 18.1794C15.8666 18.492 15.4427 18.6676 15.0007 18.6676H11.6673V21.3342H15.0007C15.4427 21.3342 15.8666 21.5098 16.1792 21.8224C16.4917 22.1349 16.6673 22.5589 16.6673 23.0009V33.3342Z" fill="black"/>
</svg>
