<svg width="40" height="40" viewBox="0 0 40 40" fill="none" xmlns="http://www.w3.org/2000/svg">
<path d="M19.9977 12.2949C17.9537 12.2949 15.9935 13.1069 14.5482 14.5522C13.103 15.9974 12.291 17.9577 12.291 20.0016C12.291 22.0455 13.103 24.0057 14.5482 25.451C15.9935 26.8963 17.9537 27.7083 19.9977 27.7083C22.0416 27.7083 24.0018 26.8963 25.4471 25.451C26.8924 24.0057 27.7043 22.0455 27.7043 20.0016C27.7043 17.9577 26.8924 15.9974 25.4471 14.5522C24.0018 13.1069 22.0416 12.2949 19.9977 12.2949ZM19.9977 25.0066C18.6698 25.0066 17.3964 24.4791 16.4574 23.5402C15.5185 22.6012 14.991 21.3278 14.991 19.9999C14.991 18.6721 15.5185 17.3986 16.4574 16.4597C17.3964 15.5207 18.6698 14.9933 19.9977 14.9933C21.3255 14.9933 22.599 15.5207 23.5379 16.4597C24.4769 17.3986 25.0044 18.6721 25.0044 19.9999C25.0044 21.3278 24.4769 22.6012 23.5379 23.5402C22.599 24.4791 21.3255 25.0066 19.9977 25.0066Z" fill="black"/>
<path d="M28.0096 13.8082C29.0018 13.8082 29.8062 13.0038 29.8062 12.0115C29.8062 11.0192 29.0018 10.2148 28.0096 10.2148C27.0173 10.2148 26.2129 11.0192 26.2129 12.0115C26.2129 13.0038 27.0173 13.8082 28.0096 13.8082Z" fill="black"/>
<path d="M34.2222 10.1864C33.8364 9.19007 33.2468 8.28524 32.4911 7.52986C31.7355 6.77449 30.8304 6.18522 29.8339 5.79977C28.6678 5.36203 27.4359 5.12533 26.1906 5.09977C24.5856 5.02977 24.0772 5.00977 20.0072 5.00977C15.9372 5.00977 15.4156 5.00977 13.8239 5.09977C12.5796 5.12403 11.3485 5.36077 10.1839 5.79977C9.18713 6.18477 8.28185 6.77388 7.52613 7.52931C6.77041 8.28474 6.18095 9.18981 5.79557 10.1864C5.35775 11.3525 5.1216 12.5845 5.09724 13.8298C5.02557 15.4331 5.00391 15.9414 5.00391 20.0131C5.00391 24.0831 5.00391 24.6014 5.09724 26.1964C5.12224 27.4431 5.35724 28.6731 5.79557 29.8414C6.18204 30.8377 6.77207 31.7424 7.52797 32.4977C8.28387 33.253 9.18901 33.8424 10.1856 34.2281C11.348 34.6834 12.5795 34.9371 13.8272 34.9781C15.4322 35.0481 15.9406 35.0698 20.0106 35.0698C24.0806 35.0698 24.6022 35.0698 26.1939 34.9781C27.4391 34.9528 28.671 34.7167 29.8372 34.2798C30.8335 33.8934 31.7383 33.3036 32.4939 32.5481C33.2494 31.7925 33.8392 30.8877 34.2256 29.8914C34.6639 28.7248 34.8989 27.4948 34.9239 26.2481C34.9956 24.6448 35.0172 24.1364 35.0172 20.0648C35.0172 15.9931 35.0172 15.4764 34.9239 13.8814C34.9045 12.6186 34.6671 11.3685 34.2222 10.1864ZM32.1922 26.0731C32.1815 27.0336 32.0062 27.9852 31.6739 28.8864C31.4236 29.5345 31.0404 30.1231 30.549 30.6142C30.0576 31.1054 29.4688 31.4882 28.8206 31.7381C27.9293 32.0688 26.9878 32.2442 26.0372 32.2564C24.4539 32.3298 24.0072 32.3481 19.9472 32.3481C15.8839 32.3481 15.4689 32.3481 13.8556 32.2564C12.9055 32.2448 11.9644 32.0695 11.0739 31.7381C10.4234 31.4897 9.83224 31.1076 9.33872 30.6164C8.8452 30.1251 8.4603 29.5358 8.20891 28.8864C7.88132 27.9948 7.70609 27.0545 7.69057 26.1048C7.61891 24.5214 7.60224 24.0748 7.60224 20.0148C7.60224 15.9531 7.60224 15.5381 7.69057 13.9231C7.70135 12.9631 7.87666 12.0121 8.20891 11.1114C8.71724 9.79643 9.75891 8.76143 11.0739 8.2581C11.9649 7.92833 12.9056 7.75304 13.8556 7.73977C15.4406 7.6681 15.8856 7.6481 19.9472 7.6481C24.0089 7.6481 24.4256 7.6481 26.0372 7.73977C26.9879 7.7512 27.9295 7.92655 28.8206 8.2581C29.4688 8.50855 30.0575 8.89177 30.5489 9.38315C31.0402 9.87453 31.4235 10.4632 31.6739 11.1114C32.0015 12.003 32.1767 12.9434 32.1922 13.8931C32.2639 15.4781 32.2822 15.9231 32.2822 19.9848C32.2822 24.0448 32.2822 24.4814 32.2106 26.0748H32.1922V26.0731Z" fill="black"/>
</svg>
