<svg width="22" height="33" viewBox="0 0 22 33" fill="none" xmlns="http://www.w3.org/2000/svg">
<path d="M18.867 0.504272L18.8553 0.503742C18.4246 0.484161 17.9961 0.541771 17.6061 0.669411C17.2158 0.797165 16.8825 0.988953 16.628 1.22068L16.627 1.22157L1.04711 15.3308C1.04674 15.3312 1.04636 15.3315 1.04598 15.3319C0.675352 15.6726 0.5 16.0722 0.5 16.456C0.5 16.8402 0.675709 17.2402 1.04711 17.5811L1.05095 17.5847L1.05093 17.5847L16.1035 31.6963L16.1098 31.7021L16.1159 31.7082C16.3237 31.917 16.5944 32.0987 16.9159 32.2358C17.2371 32.3727 17.5971 32.46 17.9731 32.4892C18.349 32.5183 18.728 32.4884 19.0851 32.4021C19.4424 32.3159 19.7653 32.1764 20.035 31.9973L20.0436 31.9916L20.0524 31.9862C20.322 31.8228 20.5363 31.6266 20.6898 31.4146C20.8427 31.2033 20.9326 30.9804 20.9637 30.7592C20.9948 30.5387 20.9685 30.3139 20.8825 30.0948C20.7961 29.8747 20.6486 29.6589 20.4387 29.4639L20.437 29.4623L20.437 29.4623L6.97381 16.8324L6.57759 16.4607L6.98082 16.0966L20.9421 3.49081C20.9422 3.49071 20.9423 3.4906 20.9424 3.4905C21.1556 3.29737 21.3068 3.08296 21.3972 2.86352C21.4872 2.64505 21.5174 2.42075 21.4905 2.20051C21.4636 1.97973 21.3783 1.75695 21.2304 1.54515C21.0819 1.33264 20.8726 1.13503 20.6075 0.969131L18.867 0.504272ZM18.867 0.504272L18.8788 0.504257M18.867 0.504272L18.8788 0.504257M18.8788 0.504257C19.5227 0.503307 20.1344 0.673294 20.6074 0.96907L18.8788 0.504257Z" fill="white" stroke="black"/>
</svg>
