<svg width="316" height="82" viewBox="0 0 316 82" fill="none" xmlns="http://www.w3.org/2000/svg">
<g clip-path="url(#clip0)">
<path d="M100.659 80.1526C99.45 79.173 98.3728 78.3614 98.2677 78.3614C98.1626 78.3614 97.059 79.1171 95.7979 80.0686C94.5367 81.0201 93.4594 81.7198 93.3806 81.6638C93.328 81.5799 93.6959 80.2365 94.1951 78.6133C94.9308 76.2904 95.0622 75.6468 94.7731 75.4229C94.5892 75.2829 93.512 74.3874 92.3559 73.4638L90.2539 71.7846L93.3806 71.6447L96.5073 71.5048L97.4269 68.6502C97.9261 67.0549 98.4253 65.7676 98.5304 65.7676C98.6355 65.7676 98.8194 66.2993 98.9771 66.971C99.1347 67.6147 99.5026 68.958 99.7653 69.9655L100.291 71.7846L103.417 71.9246L106.544 72.0645L103.996 73.9676L101.473 75.8427L102.367 78.8652C102.839 80.5164 103.26 81.8877 103.26 81.9437C103.26 82.1956 102.577 81.7198 100.659 80.1526Z" fill="black"/>
<path d="M119.313 80.0972C116.791 77.9982 117.343 77.9702 114.006 80.433C113.007 81.1887 112.114 81.7484 112.061 81.6644C111.983 81.6085 112.35 80.3211 112.85 78.8098C113.349 77.3266 113.769 75.9832 113.769 75.8713C113.769 75.7313 112.692 74.7518 111.378 73.6883L108.961 71.7853L112.088 71.6453L115.214 71.5054L116.134 68.6508C116.948 66.104 117.448 65.1245 117.448 66.076C117.448 66.244 117.816 67.6433 118.262 69.1545L119.103 71.9252H122.151L125.199 71.9532L124.41 72.6528C123.99 73.0167 122.887 73.8562 121.993 74.4999C121.074 75.1436 120.338 75.8153 120.338 76.0112C120.338 76.1791 120.706 77.5504 121.126 79.0617C121.573 80.573 121.914 81.8324 121.914 81.8883C121.914 82.1962 121.31 81.7764 119.313 80.0972Z" fill="black"/>
<path d="M138.337 80.2929C137.18 79.3693 136.103 78.5297 135.919 78.4458C135.735 78.3898 134.632 79.0335 133.449 79.9011C132.267 80.7686 131.137 81.5523 130.953 81.6362C130.717 81.7202 130.901 80.8526 131.505 79.0055C132.004 77.4942 132.425 76.1229 132.425 75.927C132.425 75.7591 131.347 74.7516 130.06 73.6881L127.695 71.785L130.796 71.701L133.922 71.6171L134.789 68.9024C135.262 67.4191 135.735 66.0758 135.84 65.9638C135.946 65.8519 136.418 67.1392 136.891 68.8464L137.785 71.9249H140.754C142.383 71.9249 143.723 72.0089 143.723 72.1488C143.697 72.2608 142.646 73.1004 141.358 74.0239C140.071 74.9475 138.993 75.7871 138.993 75.871C138.993 75.983 139.361 77.2983 139.782 78.8096C140.228 80.3209 140.544 81.6362 140.517 81.7762C140.465 81.8881 139.493 81.2444 138.337 80.2929Z" fill="black"/>
<path d="M156.885 80.1784C155.676 79.1709 154.573 78.3593 154.441 78.3593C154.31 78.3593 153.206 79.1149 151.971 80.0385C150.763 80.962 149.659 81.7176 149.528 81.7176C149.397 81.7176 149.712 80.5422 150.185 79.1429C150.658 77.7156 151.104 76.3443 151.131 76.0924C151.183 75.7845 150.448 75.0289 149.081 73.9374C147.899 73.0139 146.848 72.1183 146.769 71.9504C146.638 71.7265 147.478 71.6426 149.58 71.6426H152.576L153.417 69.0678C153.889 67.6405 154.31 66.2972 154.389 66.0733C154.573 65.4576 154.757 65.8494 155.65 68.8999L156.491 71.7825L159.433 71.8665C161.062 71.8944 162.376 72.0344 162.376 72.1463C162.376 72.2583 161.404 73.0419 160.248 73.8815C159.092 74.7211 158.041 75.5327 157.91 75.7006C157.699 75.9804 158.488 79.4228 159.223 81.3818C159.355 81.7176 159.381 81.9975 159.276 81.9975C159.171 81.9975 158.093 81.1859 156.885 80.1784Z" fill="black"/>
<path d="M175.541 80.1805C174.307 79.173 173.203 78.3614 173.072 78.3614C172.914 78.3614 172.599 78.5293 172.389 78.7252C171.443 79.5928 168.368 81.7477 168.237 81.6358C168.185 81.5518 168.552 80.2085 169.052 78.6132C169.577 77.018 169.919 75.6467 169.814 75.5627C169.682 75.4508 168.605 74.5552 167.37 73.5757L165.137 71.7846L168.263 71.6446L171.39 71.5047L172.257 68.7341C172.756 67.2228 173.203 65.9074 173.256 65.8515C173.334 65.7675 173.781 67.0829 174.254 68.7341L175.147 71.7846L178.3 71.9245L181.427 72.0644L180.639 72.6242C180.218 72.932 179.062 73.7716 178.09 74.5272L176.33 75.8706L176.724 77.1859C176.908 77.9136 177.302 79.2849 177.591 80.2644C177.88 81.216 178.011 81.9996 177.932 81.9996C177.827 81.9716 176.75 81.16 175.541 80.1805Z" fill="black"/>
<path d="M312.273 59.2735C309.488 57.2585 305.941 55.3834 301.369 53.5643C298.584 52.4448 297.848 52.2489 296.43 52.3049C294.301 52.3888 293.881 52.2209 293.224 51.0735C292.567 49.954 291.91 49.6742 288.521 49.1704C286.472 48.8346 285.946 48.6667 285.526 48.1069L285.026 47.4353L285.946 47.1554C286.472 46.9875 287.076 46.6237 287.26 46.3438C287.47 46.0359 287.759 45.896 287.917 46.008C288.101 46.1199 288.232 46.1479 288.232 46.0919C288.232 46.0359 287.759 45.6441 287.181 45.2243C286.603 44.8325 286.13 44.6086 286.13 44.7486C286.13 44.9165 286.261 45.1124 286.393 45.1963C286.655 45.3643 286.761 46.7356 286.498 46.7356C286.419 46.7356 285.788 46.4837 285.079 46.1479C284.212 45.7561 283.581 45.1963 283.135 44.4687C282.557 43.5452 282.294 43.3772 281.506 43.3772C280.823 43.3772 280.376 43.1533 279.798 42.5656C279.299 42.0339 278.642 41.6981 277.932 41.5581C276.408 41.3062 275.436 40.8865 275.252 40.4107C275.147 40.0748 274.99 40.0748 274.569 40.2987C274.201 40.5226 273.282 40.4387 271.048 40.0189C269.393 39.711 266.503 39.2632 264.664 39.0394C262.824 38.8155 256.335 38.0039 250.239 37.2482C232.635 35.0093 234.001 35.0933 220.443 35.681C209.434 36.1568 204.705 36.1568 203.575 35.681C203.023 35.4571 202.944 34.5615 203.444 34.2257C203.601 34.1138 206.649 34.0018 210.196 34.0018C217.08 33.9738 219.366 33.7499 227.38 32.1827L231.558 31.3711L233.817 31.9028C235.972 32.4066 249.424 34.5895 255.52 35.4011C266.844 36.9404 273.387 37.9759 274.044 38.3397C274.333 38.5076 274.701 38.8994 274.858 39.2073C275.121 39.767 275.147 39.767 275.489 39.2912C275.804 38.8155 275.935 38.8155 278.405 39.2912C284.238 40.4667 287.943 42.3417 292.147 46.1759C293.408 47.3233 294.249 47.8551 295.195 48.1069C295.93 48.3028 297.376 48.9465 298.453 49.5622C299.504 50.2059 301.159 51.0175 302.131 51.4093C306.624 53.2004 311.091 55.9711 313.955 58.6858C314.98 59.6933 315.347 60.197 315.216 60.5329C315.137 60.7847 314.953 61.0086 314.848 61.0086C314.743 61.0086 313.587 60.225 312.273 59.2735Z" fill="black"/>
<path d="M0.183922 49.6188C0.0788239 49.5349 0 48.8632 0 48.1635C0 47.156 0.315296 46.2885 1.31373 44.2734C2.36472 42.1465 2.57491 41.5308 2.33844 41.111C1.6553 39.7397 2.81139 38.6202 5.22865 38.3403C6.48984 38.2004 8.27651 37.6127 10.9565 36.4932C13.0848 35.5977 14.8714 34.842 14.924 34.8141C14.9765 34.7861 14.8714 34.4782 14.7138 34.1424C14.4773 33.6386 14.5036 33.4427 14.8714 32.9949C15.4758 32.2953 15.9487 32.3233 16.3166 33.1069C16.4742 33.4427 16.6581 33.7506 16.6844 33.8066C16.7369 33.8625 17.6566 33.4987 18.7601 33.0229C20.573 32.2113 20.7044 32.0994 20.4154 31.5956C20.1526 31.1479 20.2052 30.9799 20.6781 30.4762C21.2036 29.9165 21.335 29.8885 22.9378 30.1963C24.4617 30.4762 24.8033 30.4482 26.4323 29.8885C28.1401 29.3008 28.1927 29.2448 27.3256 29.1608C26.1695 29.0489 25.9068 28.769 26.117 27.8734C26.3272 26.9219 26.9578 26.782 28.9809 27.2857C30.9515 27.7615 31.477 27.6775 33.8155 26.5861C35.0504 25.9984 35.6021 25.5226 36.1014 24.655C36.7582 23.5636 37.7567 22.9758 38.3347 23.3397C38.65 23.5636 39.6484 23.3117 44.7983 21.6885C47.1104 20.9608 51.7873 19.5055 55.1767 18.47C62.8227 16.1192 70.6262 13.6844 74.62 12.453C76.3016 11.9212 78.1145 11.3895 78.6926 11.2496C79.2706 11.0816 84.7094 9.65434 90.7789 8.03114C103.759 4.56083 107.779 3.55332 114.032 2.26595C122.282 0.530797 131.61 -0.168862 142.671 0.0830152C148.504 0.222947 150.475 0.390865 154.915 1.09052C165.924 2.82568 165.189 2.60179 173.938 7.19155C182.346 11.6134 192.777 17.0707 199.03 20.2892C214.138 28.0694 218.08 30.2243 218.08 30.6441C218.08 30.896 217.475 31.3717 216.661 31.8195L215.268 32.5472L202.21 25.4946C195.037 21.6325 187.943 17.7984 186.471 16.9588C185 16.1472 181.899 14.44 179.587 13.1526C175.199 10.7458 172.572 9.26253 168.473 6.93967L166.029 5.54035L165.504 6.268C164.9 7.10759 164.611 7.16356 163.533 6.60383C162.404 6.04411 149.976 3.97312 145.693 3.63728C140.963 3.27346 131.583 3.27346 127.695 3.63728C122.597 4.11305 112.009 5.82021 107.726 6.85571C103.47 7.8912 90.0169 11.4175 86.8377 12.341C85.8392 12.6209 81.8718 13.7683 78.0357 14.8598C71.9662 16.595 69.2074 17.3786 63.1905 19.1417C62.4811 19.3656 60.5105 19.9533 58.8552 20.4291C57.1999 20.9328 55.492 21.4366 55.0454 21.5485C54.625 21.6605 52.8909 22.1642 51.2355 22.668C49.5802 23.1717 47.8724 23.6755 47.4257 23.7874C43.8524 24.767 38.2296 26.6141 35.7335 27.6216C31.3719 29.4407 30.5311 29.6646 29.7692 29.3567C29.1649 29.1328 29.1123 29.1608 29.2437 29.6926C29.375 30.1963 29.1386 30.4202 27.457 31.2318C26.0644 31.9035 25.1448 32.1833 24.1989 32.1833C23.1742 32.1833 22.9115 32.2673 23.0166 32.5752C23.0954 32.827 22.8064 33.1069 22.1495 33.4147L21.1511 33.8905L22.0707 33.7226C24.7244 33.3308 27.3519 32.9949 31.2405 32.6031C39.1492 31.8195 58.1721 32.1833 57.3313 33.0789C57.0948 33.3308 53.4426 33.5827 42.1708 34.1424C26.7739 34.898 24.5142 35.2618 10.5624 39.4878C5.04473 41.139 4.70316 41.2789 4.83453 41.8386C4.93963 42.2584 4.78198 42.6502 4.33532 43.098C3.96747 43.4618 3.67845 43.9936 3.67845 44.3014C3.67845 44.5813 3.25806 45.225 2.75884 45.7007C2.25962 46.1765 1.83922 46.8202 1.83922 47.128C1.83922 47.4359 1.52393 48.1635 1.15608 48.7513C0.39412 49.9267 0.420394 49.8987 0.183922 49.6188Z" fill="black"/>
<path d="M105.362 21.9666C103.706 18.8042 100.737 9.87653 101.184 9.37278C101.263 9.3168 101.946 9.17687 102.682 9.06493C103.995 8.925 104.022 8.925 104.205 9.70861C104.731 12.2274 107.332 19.4758 108.436 21.4909C109.224 22.9741 109.014 23.338 107.306 23.3659C106.15 23.3659 106.097 23.338 105.362 21.9666Z" fill="black"/>
<path d="M38.966 61.1489C37.4158 60.7851 36.4962 60.3933 35.8131 59.8335C35.5766 59.6376 35.6292 59.3018 35.9707 58.4622C36.2335 57.8745 36.5225 57.2868 36.6013 57.2028C36.7064 57.0909 37.3896 57.3148 38.1515 57.6506C39.15 58.1264 40.0696 58.3223 41.4096 58.3223C43.4327 58.3503 44.1421 58.0144 44.1421 56.951C44.1421 55.9994 43.459 55.5796 40.6213 54.74C37.6786 53.8725 36.7852 53.3127 36.1546 51.9414C35.235 49.8704 35.997 47.5196 38.0201 46.2602C39.1762 45.5325 39.4915 45.4766 41.9088 45.4766C44.6151 45.4766 47.0323 46.1202 47.0323 46.8199C47.0323 47.0158 46.7959 47.6875 46.5069 48.3592L46.0076 49.5626L45.1406 49.0868C44.6676 48.8069 43.4327 48.5551 42.3817 48.4711C40.6213 48.3592 40.4637 48.3871 39.8068 49.0868C39.15 49.7865 39.1237 49.8984 39.4915 50.4581C39.7017 50.794 40.3323 51.2138 40.8841 51.4097C41.4358 51.5776 42.7759 51.9974 43.8531 52.3332C47.1637 53.3687 48.3986 55.3557 47.4265 58.0984C46.8747 59.6656 45.6135 60.7011 43.6692 61.1769C41.8562 61.6527 41.068 61.6247 38.966 61.1489Z" fill="#F91B07"/>
<path d="M84.0015 61.2616C80.4807 60.366 78.0371 57.2595 78.0371 53.5653C78.0371 50.2909 79.3771 47.8561 82.0046 46.3169C84.8422 44.6937 89.3878 45.1694 91.3321 47.3244L92.094 48.164L91.0431 49.1155C89.8081 50.2349 89.5717 50.2909 88.9674 49.5633C87.9426 48.3599 85.0262 48.2479 83.3971 49.3954C80.8222 51.1865 81.0061 55.8602 83.7387 57.5674C85.3152 58.5469 87.496 58.407 88.9411 57.2595L89.9132 56.4759L90.8591 57.3994C91.3846 57.9312 91.8576 58.351 91.9101 58.379C91.9364 58.407 91.9101 58.6029 91.805 58.8547C91.5685 59.5544 89.703 60.7018 88.1003 61.1496C86.445 61.6254 85.4991 61.6254 84.0015 61.2616Z" fill="#F91B07"/>
<path d="M160.408 61.1775C156.703 60.198 154.496 57.2874 154.496 53.3693C154.496 48.8635 157.439 45.6731 161.879 45.3932C165.348 45.1693 168.106 46.6526 169.578 49.5072C172.021 54.3489 169.42 60.114 164.27 61.2615C162.589 61.6253 162.116 61.6253 160.408 61.1775ZM164.743 57.6233C166.136 56.7837 166.845 55.3004 166.845 53.2574C166.845 51.97 166.714 51.4103 166.188 50.5707C165.085 48.8635 163.219 48.1639 161.275 48.6956C158.385 49.5352 157.018 53.3973 158.7 56.112C159.935 58.127 162.746 58.8267 164.743 57.6233Z" fill="#F91B07"/>
<path d="M190.334 61.2067C184.396 59.5835 182.478 52.0831 186.84 47.5773C188.416 45.9541 190.387 45.2545 192.988 45.3944C197.297 45.6463 200.135 48.4169 200.424 52.6429C200.608 55.3296 200.135 56.8128 198.611 58.6319C196.535 61.0388 193.382 62.0183 190.334 61.2067ZM194.591 57.7644C196.272 56.8968 197.192 54.8258 196.903 52.5029C196.351 48.0811 190.361 47.0176 188.548 51.0476C188.311 51.5794 188.127 52.6988 188.127 53.5384C188.127 57.0927 191.517 59.3036 194.591 57.7644Z" fill="#F91B07"/>
<path d="M220.525 61.1502C218.686 60.7304 217.293 59.9468 217.293 59.3871C217.293 59.1912 217.529 58.5475 217.818 57.9598L218.318 56.8963L219.684 57.596C220.788 58.1837 221.444 58.3236 223.021 58.3516C224.755 58.3516 225.018 58.2676 225.464 57.6799C225.727 57.3161 225.964 56.9523 225.964 56.8403C225.964 56.1407 224.991 55.5809 222.574 54.8813C218.633 53.7059 217.503 52.6424 217.503 50.0956C217.503 48.9202 217.635 48.4724 218.265 47.6328C219.421 46.1216 220.735 45.5338 223.257 45.3939C224.808 45.3099 225.78 45.4219 226.804 45.7577C228.854 46.4854 228.906 46.5413 228.276 48.0806C227.987 48.8082 227.698 49.4239 227.671 49.4799C227.645 49.5079 227.225 49.34 226.752 49.0881C225.464 48.3884 222.469 48.2205 221.628 48.8082C220.262 49.7598 220.998 51.2151 223.073 51.6349C225.228 52.0547 227.461 53.0062 228.25 53.8178C230.299 55.8608 229.353 59.611 226.515 60.8424C224.991 61.4861 222.417 61.626 220.525 61.1502Z" fill="#F91B07"/>
<path d="M49.9219 53.4534V45.6172H53.9419C59.5647 45.6172 61.1149 46.2889 62.3235 49.1994C63.3745 51.6902 62.4812 54.4889 60.2215 55.9162C59.1443 56.5598 58.6188 56.6998 56.2278 56.8117L53.469 56.9516L53.3901 59.1346L53.3113 61.2895H51.6297H49.9219V53.4534ZM58.6188 52.9216C58.9078 52.5578 59.118 51.8581 59.118 51.2424C59.0917 49.3394 58.1459 48.6957 55.3345 48.6957H53.3376V51.1585C53.3376 52.5298 53.3901 53.7052 53.4427 53.7612C53.4952 53.8172 54.5725 53.8172 55.8337 53.7332C57.8306 53.6213 58.1721 53.5093 58.6188 52.9216Z" fill="#F91B07"/>
<path d="M65.0824 61.1216C64.9773 61.0097 64.8984 57.4834 64.8984 53.2574V45.6172H70.5738H76.2228L76.144 47.1005L76.0652 48.5557L72.3342 48.6397L68.5769 48.7237V50.2349V51.7742H71.8612H75.1455V53.3134V54.8527H71.8612H68.5769V56.5318V58.211H72.5444H76.4855L76.4067 59.6943L76.3279 61.1496L70.784 61.2335C67.7624 61.2615 65.1875 61.2056 65.0824 61.1216Z" fill="#F91B07"/>
<path d="M94.3262 53.4534V45.6172H96.034H97.7419V53.4534V61.2895H96.034H94.3262V53.4534Z" fill="#F91B07"/>
<path d="M99.3184 60.9544C99.3184 60.7585 100.711 57.2602 102.419 53.1742L105.545 45.7578H107.332H109.145L112.351 53.3701C114.111 57.5401 115.477 61.0384 115.398 61.1223C115.32 61.2063 114.531 61.2902 113.638 61.2902H112.009L111.326 59.6111L110.643 57.9319H107.306H103.995L103.312 59.6111L102.603 61.2902H100.974C99.8176 61.2902 99.3184 61.1783 99.3184 60.9544ZM108.935 53.538C108.593 52.6425 108.094 51.3551 107.831 50.6554L107.306 49.424L106.255 52.0547C105.651 53.51 105.23 54.7974 105.283 54.9373C105.335 55.0493 106.334 55.1332 107.463 55.1332H109.539L108.935 53.538Z" fill="#F91B07"/>
<path d="M117.106 61.0936C117.001 61.0097 116.922 57.4834 116.922 53.2575V45.6172H118.761H120.6V51.9141V58.211H124.147H127.694V59.7503V61.2895H122.492C119.628 61.2895 117.185 61.2056 117.106 61.0936Z" fill="#F91B07"/>
<path d="M135.578 53.4534V45.6172H136.997H138.442L141.017 50.2349C142.436 52.7537 143.671 54.8527 143.75 54.8527C143.855 54.8527 145.063 52.7817 146.482 50.2349L149.057 45.6172H150.45H151.868L151.921 52.194C151.947 55.8042 151.973 59.3025 152 59.9742V61.1496L150.371 61.2335L148.715 61.3175L148.663 56.8117L148.584 52.3339L146.535 55.9721C144.669 59.3025 144.406 59.6103 143.723 59.6103C143.04 59.6103 142.777 59.2745 140.859 55.9161L138.731 52.222V56.7557V61.2895H137.155H135.578V53.4534Z" fill="#F91B07"/>
<path d="M175.778 54.9926V48.6957H173.414H171.049V47.1564V45.6172H177.486H183.923V47.1564V48.6957H181.559H179.194V54.9926V61.2895H177.486H175.778V54.9926Z" fill="#F91B07"/>
<path d="M203.024 61.0936C202.919 61.0097 202.84 57.4834 202.84 53.2575V45.6172H207.018C211.405 45.6172 212.378 45.8131 213.823 46.9325C216.214 48.8356 216.371 53.2295 214.112 55.2445C213.718 55.6083 213.218 55.9721 213.061 56.0281C212.877 56.0841 213.402 57.1196 214.374 58.5469C215.241 59.8902 215.977 61.0377 215.977 61.1216C215.977 61.2056 215.163 61.2895 214.164 61.2895H212.325L210.932 59.1346L209.54 56.9516L208.016 56.8677L206.518 56.7837V59.0506V61.2895H204.863C203.943 61.2895 203.103 61.2056 203.024 61.0936ZM211.195 53.2575C212.141 52.5018 212.456 51.2424 212.01 50.2069C211.484 49.0875 210.617 48.6957 208.436 48.6957H206.518V51.3824V54.097L208.515 53.9571C209.934 53.8452 210.696 53.6493 211.195 53.2575Z" fill="#F91B07"/>
</g>
<defs>
<clipPath id="clip0">
<rect width="315.296" height="82" fill="white"/>
</clipPath>
</defs>
</svg>
