<?xml version="1.0" encoding="utf-8"?>
<!-- Generator: Adobe Illustrator 24.2.3, SVG Export Plug-In . SVG Version: 6.00 Build 0)  -->
<svg version="1.1" id="Слой_1" xmlns="http://www.w3.org/2000/svg" xmlns:xlink="http://www.w3.org/1999/xlink" x="0px" y="0px"
	 viewBox="0 0 103 99" style="enable-background:new 0 0 103 99;" xml:space="preserve">
<style type="text/css">
	.st0{clip-path:url(#SVGID_2_);}
	.st1{fill:none;stroke:#F91B07;stroke-width:2;stroke-linecap:round;stroke-linejoin:round;}
</style>
<g>
	<defs>
		<rect id="SVGID_1_" y="0.3" width="102.1" height="98.3"/>
	</defs>
	<clipPath id="SVGID_2_">
		<use xlink:href="#SVGID_1_"  style="overflow:visible;"/>
	</clipPath>
	<g class="st0">
		<path class="st1" d="M70.6,68.9l5.3,4.8l7.6-9.4"/>
		<path class="st1" d="M100.7,47.9c-4.3,0.6-8.7,0.2-12.9-1c-4.2-1.2-8.1-3.2-11.5-6c-3.4,2.8-7.3,4.8-11.5,6
			c-4.2,1.2-8.6,1.5-12.9,1c0,0-4.7,40.3,24.3,48.9C105.4,88.2,100.7,47.9,100.7,47.9z"/>
		<path class="st1" d="M59.8,23.1L56.7,26c-1.2,1.2-2.9,1.8-4.6,1.8H32.6c-1.7,0-3.3-0.6-4.6-1.8l-3.1-2.9"/>
		<path class="st1" d="M59,43.2v-2.3c0-1.1,0.4-2.2,1.1-3c0.7-0.8,1.7-1.4,2.8-1.6l8.9-1.2"/>
		<path class="st1" d="M12.1,35.1l8.9,1.2c1.1,0.2,2.1,0.7,2.8,1.5s1.1,1.9,1.1,3v2.3H12.1"/>
		<path class="st1" d="M5.3,29.6V51"/>
		<path class="st1" d="M5.3,29.5l-3.5-3.8c-0.2-0.2-0.4-0.4-0.5-0.7c-0.1-0.3-0.2-0.6-0.2-0.9v-4.2c0-0.3,0-0.5,0.2-0.8
			c0.1-0.3,0.3-0.5,0.4-0.7c0.2-0.2,0.4-0.3,0.7-0.5s0.5-0.2,0.8-0.2h8l7-13.5c0.7-0.9,1.6-1.6,2.6-2.2s2.1-0.8,3.3-0.8h35.9
			c1.1,0,2.3,0.3,3.3,0.8c1,0.5,1.9,1.3,2.6,2.2l6.9,13.5h8c0.3,0,0.5,0.1,0.8,0.2c0.3,0.1,0.5,0.3,0.7,0.5c0.2,0.2,0.3,0.4,0.4,0.7
			c0.1,0.3,0.2,0.5,0.2,0.8v4.2c0,0.3-0.1,0.6-0.2,0.8s-0.3,0.5-0.5,0.7l-3.5,3.9v7.3"/>
		<path class="st1" d="M18.2,51v0.8c0,0.9-0.2,1.7-0.5,2.5c-0.3,0.8-0.8,1.5-1.4,2.1c-0.6,0.6-1.3,1.1-2.1,1.4s-1.6,0.5-2.5,0.5l0,0
			c-0.9,0-1.7-0.2-2.5-0.5c-0.8-0.3-1.5-0.8-2.1-1.4c-0.6-0.6-1.1-1.3-1.4-2.1c-0.3-0.8-0.5-1.6-0.5-2.5V51"/>
		<path class="st1" d="M47,51h-3.8H12.1"/>
		<path class="st1" d="M36.9,43.2H47"/>
	</g>
</g>
</svg>
