<?xml version="1.0" encoding="utf-8"?>
<!-- Generator: Adobe Illustrator 24.2.3, SVG Export Plug-In . SVG Version: 6.00 Build 0)  -->
<svg version="1.1" id="Слой_1" xmlns="http://www.w3.org/2000/svg" xmlns:xlink="http://www.w3.org/1999/xlink" x="0px" y="0px"
	 viewBox="0 0 102 78" style="enable-background:new 0 0 102 78;" xml:space="preserve">
<style type="text/css">
	.st0{fill:none;stroke:#F91B07;stroke-width:2;stroke-linecap:round;stroke-linejoin:round;}
</style>
<path class="st0" d="M83.1,50.9l-2.4,2.1c-1,0.8-2.2,1.3-3.6,1.3H62c-1.3,0-2.6-0.5-3.5-1.3L56,50.9"/>
<path class="st0" d="M92.4,65.6h-9.9v-1.7c0-0.8,0.3-1.6,0.9-2.2c0.5-0.6,1.3-1,2.1-1.1l6.9-0.9"/>
<path class="st0" d="M46.1,59.7l6.9,0.9c0.8,0.1,1.6,0.5,2.1,1.1c0.5,0.6,0.9,1.4,0.9,2.2v1.7h-9.9"/>
<path class="st0" d="M40.7,55.7v15.7"/>
<path class="st0" d="M40.7,55.7L38,52.8c-0.2-0.1-0.3-0.3-0.4-0.5s-0.1-0.4-0.1-0.6v-3.1c0-0.4,0.2-0.8,0.5-1.1
	c0.3-0.3,0.7-0.4,1.1-0.4h6.3l5.4-9.9c0.5-0.7,1.2-1.2,2-1.6c0.8-0.4,1.6-0.6,2.5-0.6h28c0.9,0,1.7,0.2,2.5,0.6
	c0.8,0.4,1.5,0.9,2,1.6l5.4,9.9h6.3c0.4,0,0.8,0.2,1.1,0.4c0.3,0.3,0.5,0.7,0.5,1.1v3.1c0,0.2,0,0.4-0.1,0.6
	c-0.1,0.2-0.2,0.4-0.4,0.5l-2.7,2.9v15.7"/>
<path class="st0" d="M87.7,71.4V72c0,1.3,0.5,2.5,1.5,3.4c0.9,0.9,2.2,1.4,3.5,1.4l0,0c1.3,0,2.6-0.5,3.5-1.4
	c0.9-0.9,1.5-2.1,1.5-3.4v-0.6"/>
<path class="st0" d="M50.8,71.4V72c0,1.3-0.5,2.5-1.5,3.4c-0.9,0.9-2.2,1.4-3.5,1.4l0,0c-1.3,0-2.6-0.5-3.5-1.4
	c-0.9-0.9-1.5-2.1-1.5-3.4v-0.6"/>
<path class="st0" d="M92.4,71.3H70.2H46.1"/>
<path class="st0" d="M65.3,65.6h7.9"/>
<path class="st0" d="M71,30.7c-0.8-6.4-3.4-12.5-7.7-17.4c-4.3-5-10-8.7-16.5-10.6c-6.5-2-13.4-2.1-19.9-0.4
	c-6.5,1.7-12.4,5.1-16.9,10c-4.5,4.8-7.5,10.7-8.5,17.1c-1,6.4-0.1,12.9,2.6,18.8c2.8,5.9,7.3,10.9,12.9,14.4
	c5.7,3.5,12.3,5.4,19.1,5.4"/>
<path class="st0" d="M63.7,31c-0.7-5-2.8-9.7-6.2-13.5c-3.4-3.9-7.8-6.7-12.9-8.2c-5-1.5-10.4-1.7-15.5-0.4
	c-5.1,1.3-9.7,3.9-13.3,7.6c-3.6,3.7-6,8.2-7,13.2c-1,4.9-0.4,10,1.5,14.7c2,4.7,5.3,8.7,9.6,11.6c4.3,2.9,9.4,4.6,14.6,4.9
	c0.5,0,1,0,1.6,0"/>
<path class="st0" d="M36.1,11.6v4.3"/>
<path class="st0" d="M19.2,18.3l3.2,3"/>
<path class="st0" d="M12.2,34.4h4.5"/>
<path class="st0" d="M19.2,50.5l3.2-3"/>
<path class="st0" d="M53,18.3l-3.2,3"/>
<path class="st0" d="M25.7,34.4h10.4V20.8"/>
</svg>
