<?xml version="1.0" encoding="utf-8"?>
<!-- Generator: Adobe Illustrator 24.2.3, SVG Export Plug-In . SVG Version: 6.00 Build 0)  -->
<svg version="1.1" id="Слой_1" xmlns="http://www.w3.org/2000/svg" xmlns:xlink="http://www.w3.org/1999/xlink" x="0px" y="0px"
	 viewBox="0 0 100 92" style="enable-background:new 0 0 100 92;" xml:space="preserve">
<style type="text/css">
	.st0{fill:none;stroke:#F91B07;stroke-width:2;stroke-linecap:round;stroke-linejoin:round;}
</style>
<path class="st0" d="M59.6,31.6c0,1.5,0.7,2.9,1.8,3.9c1.2,1,2.8,1.6,4.4,1.6c1.7,0,3.2-0.6,4.4-1.6c1.2-1,1.8-2.4,1.8-3.9
	c0-3.2-2.6-4.7-6.2-5.8c-3.3-1-6.2-2.6-6.2-5.8c0-1.5,0.7-2.9,1.8-3.9c1.2-1,2.8-1.6,4.4-1.6c1.7,0,3.2,0.6,4.4,1.6
	c1.2,1,1.8,2.4,1.8,3.9"/>
<path class="st0" d="M65.8,10.9v3.3"/>
<path class="st0" d="M65.8,37.5v3.3"/>
<path class="st0" d="M65.8,48c13.1,0,23.7-9.9,23.7-22.1S78.9,3.7,65.8,3.7c-13.1,0-23.7,9.9-23.7,22.1S52.8,48,65.8,48z"/>
<path class="st0" d="M52.3,69.7h5.6c5.4,0,10.6-1.5,15-4.3l1.7-1.1c0.7-0.5,1.2-1.2,1.5-2c0.2-0.8,0.1-1.6-0.3-2.3l-0.2-0.1
	c-1.3-1.1-2.8-1.8-4.5-2.1c-1.7-0.3-3.5-0.2-5.1,0.2c-3.8,1.1-8,0.9-11.7-0.4c-13.4-7.9-26-6.5-35.4-0.2"/>
<path class="st0" d="M76.5,59.7l8.4-3.1c1.5-0.6,3-1,4.6-1.3c1.4-0.3,2.9-0.3,4.3,0c1.1,0.3,2,0.9,2.7,1.7c0.7,0.8,1.2,1.7,1.3,2.7
	l0,0c0.1,0.7,0,1.4-0.4,2c-0.3,0.6-0.9,1.1-1.5,1.5L70.6,76.5c-5.1,2.6-11,3.8-16.9,3.5c-22.2-1.2-34.9-2.4-34.9-2.4"/>
<path class="st0" d="M2,86.1h13.7c0.7,0,1.4-0.3,1.9-0.8c0.5-0.5,0.8-1.1,0.8-1.8V50.5c0-0.3-0.1-0.6-0.2-0.9
	c-0.1-0.3-0.3-0.6-0.6-0.8c-0.3-0.2-0.6-0.4-0.9-0.6C16.4,48,16.1,48,15.7,48H2"/>
</svg>
