<?xml version="1.0" encoding="utf-8"?>
<!-- Generator: Adobe Illustrator 24.2.3, SVG Export Plug-In . SVG Version: 6.00 Build 0)  -->
<svg version="1.1" id="Слой_1" xmlns="http://www.w3.org/2000/svg" xmlns:xlink="http://www.w3.org/1999/xlink" x="0px" y="0px"
	 viewBox="0 0 101 73" style="enable-background:new 0 0 101 73;" xml:space="preserve">
<style type="text/css">
	.st0{fill:none;stroke:#F91B07;stroke-width:2;stroke-linecap:round;stroke-linejoin:round;}
</style>
<path class="st0" d="M71,66.4c0,0-4.7-10.7,7.7-19.1c0,0,1.9-1.2,1.9-2.6c0-1.4-1.9-2.6-1.9-2.6C66.4,33.6,71,23,71,23"/>
<path class="st0" d="M96.9,66.4c0,0,4.7-10.7-7.7-19.1c0,0-1.9-1.2-1.9-2.6c0-1.4,1.9-2.6,1.9-2.6c12.4-8.4,7.7-19.1,7.7-19.1"/>
<path class="st0" d="M67.6,18h32.3"/>
<path class="st0" d="M67.6,71.4h32.3"/>
<path class="st0" d="M59,23.6l-3.1,3c-1.2,1.2-2.8,1.9-4.5,1.9H32.1c-1.7,0-3.3-0.7-4.5-1.9l-3.1-3"/>
<path class="st0" d="M70.8,44.5H58.2v-2.4c0-1.1,0.4-2.2,1.1-3.1c0.7-0.9,1.7-1.5,2.8-1.7l5.2-0.8"/>
<path class="st0" d="M11.9,36.1l8.8,1.3c1.1,0.2,2.1,0.8,2.8,1.6c0.7,0.9,1.1,2,1.1,3.1v2.4H11.9"/>
<path class="st0" d="M5.1,30.4v22.4"/>
<path class="st0" d="M5.1,30.4l-3.5-4c-0.2-0.2-0.4-0.5-0.5-0.8C1,25.4,1,25.1,1,24.8v-4.4c0-0.3,0-0.6,0.1-0.8
	c0.1-0.3,0.3-0.5,0.4-0.7s0.4-0.4,0.7-0.5c0.3-0.1,0.5-0.2,0.8-0.2H11l6.9-14.1c0.7-0.9,1.5-1.7,2.5-2.2c1-0.5,2.1-0.8,3.2-0.8h35.5
	c1.1,0,2.2,0.3,3.3,0.8c1,0.5,1.9,1.3,2.5,2.2l4.3,8.7"/>
<path class="st0" d="M17.9,52.8v0.8c0,1.8-0.6,3.5-1.8,4.8c-1.2,1.3-2.8,2-4.6,2.1l0,0c-0.9,0-1.7-0.2-2.5-0.6S7.5,59,6.9,58.4
	c-0.6-0.6-1.1-1.4-1.4-2.2c-0.3-0.8-0.5-1.7-0.4-2.6v-0.8"/>
<path class="st0" d="M67.2,52.8H42.6H11.9"/>
<path class="st0" d="M36.3,44.5h10.1"/>
</svg>
