<?xml version="1.0" encoding="utf-8"?>
<!-- Generator: Adobe Illustrator 24.2.3, SVG Export Plug-In . SVG Version: 6.00 Build 0)  -->
<svg version="1.1" id="Слой_1" xmlns="http://www.w3.org/2000/svg" xmlns:xlink="http://www.w3.org/1999/xlink" x="0px" y="0px"
	 viewBox="0 0 100 87" style="enable-background:new 0 0 100 87;" xml:space="preserve">
<style type="text/css">
	.st0{clip-path:url(#SVGID_2_);}
	.st1{fill:none;stroke:#F91B07;stroke-width:2;stroke-linecap:round;stroke-linejoin:round;}
</style>
<g>
	<defs>
		<rect id="SVGID_1_" y="0.7" width="100" height="86.2"/>
	</defs>
	<clipPath id="SVGID_2_">
		<use xlink:href="#SVGID_1_"  style="overflow:visible;"/>
	</clipPath>
	<g class="st0">
		<path class="st1" d="M22.1,47.9c-0.1-1-0.2-2-0.2-3c0-3.5,0.7-7,2.1-10.3c1.4-3.3,3.5-6.2,6.1-8.7c2.6-2.5,5.7-4.5,9.1-5.8
			c3.4-1.4,7.1-2,10.7-2c3.7,0,7.3,0.7,10.7,2c3.4,1.4,6.5,3.3,9.1,5.8c2.6,2.5,4.7,5.5,6.1,8.7c1.4,3.3,2.1,6.8,2.1,10.3
			c0,2.8-0.4,5.5-1.3,8.2"/>
		<path class="st1" d="M88,54.9c-1.8-3-2.7-6.5-2.7-9.9v-0.2c-0.1-5,1.9-9.8,5.5-13.5l1.8-1.8l-7.5-12.6l-2.5,0.6
			c-5,1.2-10.4,0.4-14.8-2.1l-0.2-0.1c-4.5-2.5-7.9-6.5-9.4-11.3l-0.7-2.4h-15L41.8,4c-1.5,4.8-4.8,8.9-9.4,11.3h-0.1h-0.1
			c-4.5,2.6-9.8,3.3-14.9,2.2l-2.5-0.5L7.4,29.5l1.8,1.8c3.6,3.7,5.6,8.5,5.5,13.5V45c0,2.6-0.5,5.2-1.6,7.7"/>
		<path class="st1" d="M18.3,85c4.2,0,7.6-3.3,7.6-7.3c0-4-3.4-7.3-7.6-7.3s-7.6,3.3-7.6,7.3C10.7,81.8,14.1,85,18.3,85z"/>
		<path class="st1" d="M78.5,85c4.2,0,7.6-3.3,7.6-7.3c0-4-3.4-7.3-7.6-7.3s-7.6,3.3-7.6,7.3C70.9,81.8,74.3,85,78.5,85z"/>
		<path class="st1" d="M13.6,57.4l1.7,2.2c0.3,0.3,0.6,0.6,1,0.8s0.8,0.3,1.3,0.3h36.8c6,0,12-1.2,17.4-3.6L72,57"/>
		<path class="st1" d="M43.9,60.7v-9"/>
		<path class="st1" d="M86.1,77.7h7.8c0.7,0,1.4-0.1,2-0.4c0.6-0.3,1.2-0.6,1.7-1.1c0.5-0.5,0.9-1,1.1-1.6c0.3-0.6,0.4-1.2,0.4-1.9
			v-1.2"/>
		<path class="st1" d="M10.7,77.7H4.1c-0.8,0-1.6-0.3-2.2-0.9C1.3,76.3,1,75.5,1,74.7V61c0-0.5,0.1-0.9,0.3-1.4
			c0.2-0.4,0.5-0.8,0.8-1.2c0.3-0.3,0.8-0.6,1.2-0.8c0.5-0.2,0.9-0.3,1.4-0.3h8.9l0.4-0.3c7.3-5.1,15.9-8.2,24.8-9
			c9.4-0.8,18.8,1.1,27,5.5L72,57c0,0,18.8,0,27,7.9v3.8h-3.8l-3.7-2.1v-2.2"/>
		<path class="st1" d="M25.9,77.7h45.1"/>
		<path class="st1" d="M17.4,77.7c0,0.2,0.1,0.3,0.2,0.5c0.1,0.1,0.2,0.2,0.4,0.3c0.2,0.1,0.3,0.1,0.5,0c0.2,0,0.3-0.1,0.5-0.2
			c0.1-0.1,0.2-0.3,0.2-0.4c0-0.2,0-0.3-0.1-0.5c-0.1-0.2-0.2-0.3-0.3-0.4c-0.1-0.1-0.3-0.1-0.5-0.1c-0.1,0-0.2,0-0.3,0.1
			c-0.1,0-0.2,0.1-0.3,0.2c-0.1,0.1-0.1,0.2-0.2,0.3C17.4,77.5,17.4,77.6,17.4,77.7L17.4,77.7z"/>
		<path class="st1" d="M77.6,77.7c0,0.2,0.1,0.3,0.2,0.5c0.1,0.1,0.2,0.2,0.4,0.3c0.2,0.1,0.3,0.1,0.5,0c0.2,0,0.3-0.1,0.5-0.2
			c0.1-0.1,0.2-0.3,0.2-0.4c0-0.2,0-0.3-0.1-0.5c-0.1-0.2-0.2-0.3-0.3-0.4c-0.1-0.1-0.3-0.1-0.5-0.1c-0.1,0-0.2,0-0.3,0.1
			C78,77,78,77,77.9,77.1c-0.1,0.1-0.1,0.2-0.2,0.3C77.6,77.5,77.6,77.6,77.6,77.7L77.6,77.7z"/>
	</g>
</g>
</svg>
