<?xml version="1.0" encoding="utf-8"?>
<!-- Generator: Adobe Illustrator 24.2.3, SVG Export Plug-In . SVG Version: 6.00 Build 0)  -->
<svg version="1.1" id="Слой_1" xmlns="http://www.w3.org/2000/svg" xmlns:xlink="http://www.w3.org/1999/xlink" x="0px" y="0px"
	 viewBox="0 0 99 94" style="enable-background:new 0 0 99 94;" xml:space="preserve">
<style type="text/css">
	.st0{fill:none;stroke:#F91B07;stroke-width:2;stroke-linecap:round;stroke-linejoin:round;}
</style>
<path class="st0" d="M70.9,63.8c1.7,0,3.4-0.2,5.1-0.6l2.1,3.2c0.5,0.6,1.1,1,1.8,1.2c0.7,0.2,1.5,0,2.1-0.4l3.9-2
	c0.3-0.1,0.6-0.3,0.8-0.6c0.2-0.3,0.4-0.6,0.5-0.9c0.1-0.3,0.1-0.7,0.1-1c0-0.3-0.2-0.7-0.4-1l-2.1-3.2c2.3-2.1,4-4.8,4.9-7.8h4.2
	c0.7,0,1.3-0.2,1.8-0.7c0.5-0.5,0.8-1.1,0.9-1.8V44c0-0.4-0.1-0.7-0.3-1c-0.2-0.3-0.4-0.6-0.6-0.8c-0.3-0.2-0.6-0.4-0.9-0.5
	c-0.3-0.1-0.7-0.1-1-0.1h-4.2c-1-3-2.7-5.7-5-7.7l2.1-3.2c0.2-0.3,0.3-0.6,0.3-1c0-0.3,0-0.7-0.1-1c-0.1-0.3-0.3-0.6-0.5-0.9
	c-0.2-0.3-0.5-0.5-0.8-0.6l-3.9-2c-0.7-0.3-1.4-0.4-2.1-0.3c-0.7,0.2-1.3,0.6-1.8,1.2l-2.1,3.2c-1.6-0.4-3.3-0.5-5-0.5"/>
<path class="st0" d="M70.9,52.9c1.2,0,2.3-0.2,3.4-0.7c1.1-0.5,2-1.3,2.7-2.2c0.5-0.7,0.9-1.5,1.1-2.4c0.2-0.9,0.2-1.8,0-2.7
	c-0.2-0.9-0.6-1.7-1.1-2.4c-0.5-0.7-1.2-1.3-2-1.7c-1.3-0.8-2.7-1.2-4.2-1.1"/>
<path class="st0" d="M57.3,59.2v-37c-2-0.9-3.7-2.4-5-4.3c-1.2-1.9-1.9-4.1-2-6.5c0.1-2.2,0.7-4.3,1.8-6.1c1.1-1.8,2.7-3.3,4.5-4.3
	V7c0,0.9,0.3,1.7,0.7,2.4c0.5,0.7,1.1,1.3,1.8,1.6l0,0c1.5,0.8,3.1,1.2,4.8,1.2c1.7,0,3.3-0.4,4.8-1.2l0,0c0.7-0.3,1.4-0.9,1.8-1.6
	s0.7-1.5,0.8-2.4V1.1c1.8,1,3.4,2.5,4.5,4.3c1.1,1.8,1.7,3.9,1.8,6.1c-0.1,2.3-0.8,4.6-2,6.5c-1.2,1.9-3,3.4-5,4.3v37v11
	c2,0.9,3.7,2.4,5,4.3s1.9,4.1,2,6.4c-0.1,2.2-0.7,4.3-1.8,6.1c-1.1,1.8-2.6,3.3-4.5,4.3v-5.9c0-0.9-0.3-1.7-0.7-2.4
	s-1.1-1.3-1.8-1.6l0,0c-1.5-0.8-3.1-1.2-4.8-1.2c-1.6,0-3.3,0.4-4.8,1.2l0,0c-0.7,0.3-1.4,0.9-1.8,1.6c-0.5,0.7-0.7,1.5-0.7,2.4v5.9
	c-1.8-1-3.4-2.4-4.5-4.3c-1.1-1.8-1.7-3.9-1.8-6.1c0.1-2.3,0.8-4.5,2-6.5c1.2-1.9,3-3.4,5-4.3L57.3,59.2z"/>
<path class="st0" d="M50.3,44H38.6c-2,0-3.9-0.7-5.4-1.9L29.4,39"/>
<path class="st0" d="M14.2,51.7l10.6,1.3c1.2,0.1,2.3,0.6,3.2,1.5c0.9,0.9,1.4,2.1,1.5,3.4v2.4H14.2"/>
<path class="st0" d="M6,45.9v22.8"/>
<path class="st0" d="M6,45.9l-4.2-4.1c-0.2-0.2-0.4-0.4-0.6-0.7C1.1,40.8,1,40.5,1,40.2v-4.4c0.1-0.6,0.3-1.2,0.8-1.6
	c0.5-0.4,1-0.6,1.6-0.6h9.6l8.3-14.4c0.9-1,2-1.8,3.2-2.3c1.2-0.5,2.5-0.8,3.8-0.8h17.2"/>
<path class="st0" d="M21.4,68.7v0.9c-0.2,2-1.1,3.9-2.5,5.2c-1.4,1.3-3.3,2-5.2,1.8c-1.9,0.1-3.8-0.5-5.2-1.8S6.2,71.6,6,69.6v-0.9"
	/>
<path class="st0" d="M50.3,68.7H14.2"/>
<path class="st0" d="M43.7,60.3h6.1"/>
<path class="st0" d="M21.8,33.4h28.9"/>
</svg>
