<svg width="22" height="33" viewBox="0 0 22 33" fill="none" xmlns="http://www.w3.org/2000/svg">
<path d="M3.13295 32.4957L3.14467 32.4963C3.57542 32.5158 4.00394 32.4582 4.39389 32.3306C4.78418 32.2028 5.1175 32.011 5.37204 31.7793L5.37301 31.7784L20.9529 17.6692C20.9533 17.6688 20.9536 17.6685 20.954 17.6681C21.3246 17.3274 21.5 16.9278 21.5 16.544C21.5 16.1598 21.3243 15.7598 20.9529 15.4189L20.9491 15.4153L20.9491 15.4153L5.89648 1.30375L5.89021 1.29787L5.88414 1.29178C5.67626 1.08302 5.40555 0.901314 5.08415 0.764245C4.76293 0.627257 4.40286 0.53997 4.0269 0.51082C3.65101 0.481675 3.27197 0.511646 2.91486 0.597858C2.55756 0.684114 2.23473 0.823599 1.96497 1.00272L1.95639 1.00842L1.94759 1.01375C1.67796 1.17722 1.46368 1.37337 1.31021 1.58536C1.15726 1.79665 1.06745 2.01956 1.03626 2.24075C1.00517 2.46133 1.03147 2.68607 1.11748 2.90516C1.20392 3.12534 1.35138 3.34108 1.56128 3.53614L1.563 3.53774L1.563 3.53775L15.0262 16.1676L15.4224 16.5393L15.0192 16.9034L1.05791 29.5092C1.0578 29.5093 1.05768 29.5094 1.05756 29.5095C0.844411 29.7026 0.693175 29.917 0.602788 30.1365C0.512799 30.3549 0.482565 30.5793 0.509472 30.7995C0.536445 31.0203 0.621655 31.243 0.769649 31.4548C0.918141 31.6674 1.12741 31.865 1.39252 32.0309L3.13295 32.4957ZM3.13295 32.4957L3.12123 32.4957M3.13295 32.4957L3.12123 32.4957M3.12123 32.4957C2.47727 32.4967 1.86565 32.3267 1.39262 32.0309L3.12123 32.4957Z" fill="white" stroke="black"/>
</svg>
