<svg width="50" height="50" viewBox="0 0 50 50" fill="none" xmlns="http://www.w3.org/2000/svg">
<path d="M7.57626 0V10.9064H0.537109V50H7.57626H9.03398H49.4614V0H7.57626ZM7.57626 48.5423H1.9947V12.3641H7.57614V48.5423H7.57626ZM48.0036 48.5423H9.03386V10.9064V1.45772H48.0036V48.5423V48.5423Z" fill="#CB4134"/>
<path d="M42.5622 10.9062H14.4785V12.364H42.5622V10.9062Z" fill="#CB4134"/>
<path d="M42.5622 16.7383H14.4785V18.196H42.5622V16.7383Z" fill="#CB4134"/>
<path d="M42.5622 22.5664H14.4785V24.0241H42.5622V22.5664Z" fill="#CB4134"/>
<path d="M42.5622 28.3984H14.4785V29.8562H42.5622V28.3984Z" fill="#CB4134"/>
<path d="M42.5622 34.2305H14.4785V35.6882H42.5622V34.2305Z" fill="#CB4134"/>
<path d="M42.5622 40.0586H14.4785V41.5163H42.5622V40.0586Z" fill="#CB4134"/>
</svg>
