<svg width="71" height="50" viewBox="0 0 71 50" fill="none" xmlns="http://www.w3.org/2000/svg">
<path d="M34.2139 15.0399C34.2139 15.6447 34.4737 16.5356 36.7201 17.2843C37.6742 17.6023 40.5776 18.5701 40.5776 21.4036C40.5776 23.3625 39.2196 25.0093 37.3958 25.4543V25.8776C37.3958 26.4234 36.9534 26.8657 36.4077 26.8657C35.8621 26.8657 35.4197 26.4234 35.4197 25.8776V25.4543C33.5958 25.0093 32.2377 23.3625 32.2377 21.4036C32.2377 20.8577 32.6801 20.4155 33.2258 20.4155C33.7715 20.4155 34.2139 20.8577 34.2139 21.4036C34.2139 22.6134 35.1981 23.5974 36.4077 23.5974C37.6174 23.5974 38.6014 22.6132 38.6014 21.4036C38.6014 20.7068 38.3037 19.8952 36.0952 19.1592C33.5356 18.3058 32.2377 16.92 32.2377 15.0399C32.2377 13.0811 33.5958 11.4343 35.4197 10.9892V10.5659C35.4197 10.0201 35.8621 9.57786 36.4077 9.57786C36.9534 9.57786 37.3958 10.0201 37.3958 10.5659V10.9892C39.2196 11.4343 40.5776 13.0811 40.5776 15.0399C40.5776 15.5857 40.1352 16.028 39.5895 16.028C39.0438 16.028 38.6014 15.5857 38.6014 15.0399C38.6014 13.8302 37.6173 12.8462 36.4077 12.8462C35.1982 12.8462 34.2139 13.8302 34.2139 15.0399ZM70.8355 0.988088V35.4554C70.8355 36.0012 70.3931 36.4434 69.8474 36.4434H68.8555V42.0957C68.8555 42.3747 68.7374 42.6409 68.5307 42.8282C68.3481 42.9934 68.1114 43.0838 67.8675 43.0838C67.835 43.0838 67.8024 43.0822 67.7698 43.0789L64.8956 42.7935V49.0119C64.8956 49.3106 64.7606 49.593 64.5283 49.7806C64.351 49.9239 64.1314 50 63.9075 50C63.8382 50 63.7684 49.9926 63.6994 49.9779L0.790997 36.4237C0.789284 36.4233 0.787704 36.423 0.785991 36.4226L0.780062 36.4213C0.765175 36.4181 0.750947 36.4137 0.736323 36.4098C0.725125 36.4069 0.713663 36.4044 0.702596 36.4011C0.689027 36.3971 0.675852 36.3921 0.662414 36.3874C0.657539 36.3857 0.652533 36.384 0.647659 36.3822C0.637778 36.3786 0.627765 36.3756 0.618016 36.3716C0.615645 36.3707 0.613405 36.3697 0.611033 36.3687C0.599045 36.3637 0.587319 36.3579 0.575594 36.3525C0.56321 36.3469 0.550694 36.3417 0.538574 36.3355C0.535544 36.334 0.532645 36.3321 0.529615 36.3304C0.52922 36.3303 0.528825 36.33 0.528298 36.3297C0.517099 36.3238 0.506296 36.3175 0.495361 36.3112C0.484426 36.3048 0.47336 36.299 0.46282 36.2923C0.457814 36.2892 0.453071 36.2856 0.448065 36.2823C0.438447 36.2761 0.429094 36.2694 0.41974 36.2629C0.410386 36.2564 0.400768 36.2499 0.391678 36.2429C0.385354 36.2382 0.379294 36.233 0.373102 36.228C0.364802 36.2214 0.356634 36.2147 0.348597 36.2079C0.340824 36.2012 0.33292 36.1946 0.325278 36.1877C0.317901 36.1811 0.310918 36.174 0.303804 36.1672C0.29669 36.1603 0.289576 36.1537 0.282725 36.1467C0.276533 36.1403 0.270473 36.1338 0.264412 36.1274C0.256376 36.1187 0.248603 36.1096 0.24083 36.1005C0.23477 36.0935 0.228446 36.0869 0.222649 36.0798C0.217906 36.074 0.213559 36.068 0.208948 36.062C0.201043 36.0519 0.193533 36.0415 0.186024 36.0311C0.180886 36.0238 0.175221 36.0171 0.170215 36.0097C0.166262 36.0038 0.162837 35.9976 0.158884 35.9915C0.15177 35.9806 0.145051 35.9695 0.138332 35.9582C0.133589 35.9502 0.128451 35.9423 0.123972 35.934C0.119888 35.9265 0.116067 35.919 0.112115 35.9115C0.106977 35.9017 0.102102 35.8918 0.0973596 35.8818C0.0928802 35.8726 0.0885327 35.8632 0.0843168 35.8539C0.0803645 35.8451 0.0765439 35.8361 0.072855 35.8271C0.0694296 35.8188 0.0662677 35.8105 0.0631059 35.8021C0.0590218 35.7912 0.0553329 35.7802 0.051644 35.7692C0.0482187 35.7592 0.0447933 35.7493 0.0417632 35.739C0.039787 35.7324 0.0379426 35.7258 0.0360981 35.7192C0.0324093 35.7062 0.0295109 35.6929 0.0264808 35.6796C0.0239776 35.6689 0.0210792 35.6584 0.0189713 35.6476C0.0180491 35.643 0.0172586 35.6382 0.0163364 35.6336C0.0133062 35.6169 0.0111983 35.5997 0.00909041 35.5826C0.00777296 35.5726 0.00592853 35.5629 0.00487457 35.5527C0.00461108 35.5502 0.00447933 35.5478 0.00421584 35.5455C0.00158094 35.5158 0 35.4858 0 35.4554V0.988088C0 0.442268 0.4424 0 0.988088 0H69.8474C70.3931 0 70.8355 0.442268 70.8355 0.988088ZM59.5939 34.4673C60.0619 29.5741 63.9662 25.6699 68.8593 25.2019V11.2414C63.9662 10.7734 60.0619 6.86918 59.5939 1.97604H11.2415C10.7736 6.86932 6.86932 10.7736 1.97618 11.2414V25.2019C6.86932 25.6699 10.7736 29.5741 11.2415 34.4673H59.5939ZM9.25311 34.4673C8.80123 30.6651 5.77834 27.6422 1.97618 27.1903V34.4673H9.25311ZM9.25311 1.97618H1.97618V9.25311C5.77834 8.80109 8.80123 5.77834 9.25311 1.97618ZM68.8593 1.97618H61.5824C62.0343 5.77834 65.0571 8.80123 68.8593 9.25311V1.97618ZM62.9193 42.5974L18.2352 38.1606L62.9194 47.7883V42.5974H62.9193ZM66.8793 36.4434H20.9399L66.8793 41.0047V36.4434V36.4434ZM68.8593 34.4673V27.1903C65.0571 27.6422 62.0343 30.6651 61.5824 34.4673H67.8649C67.8657 34.4673 67.8666 34.4671 67.8674 34.4671C67.8682 34.4671 67.8691 34.4673 67.8699 34.4673H68.8593ZM45.7417 10.4644C45.2953 10.7783 45.1879 11.3946 45.5017 11.841C46.8193 13.7153 47.5158 15.9216 47.5158 18.2217C47.5158 24.3466 42.5327 29.3297 36.4077 29.3297C30.2826 29.3297 25.2995 24.3466 25.2995 18.2217C25.2995 12.0967 30.2826 7.11357 36.4077 7.11357C38.7079 7.11357 40.9145 7.81011 42.7888 9.12795C43.2353 9.44217 43.8516 9.33466 44.1654 8.88805C44.4792 8.44169 44.3719 7.82539 43.9255 7.51144C41.7165 5.95843 39.1169 5.1374 36.4077 5.1374C29.193 5.1374 23.3233 11.007 23.3233 18.2217C23.3233 25.4363 29.193 31.3059 36.4077 31.3059C43.6225 31.3059 49.492 25.4363 49.492 18.2217C49.492 15.5126 48.6712 12.9133 47.1182 10.7044C46.8047 10.2581 46.1882 10.1508 45.7417 10.4644Z" fill="#CB4134"/>
</svg>
