<svg width="50" height="50" viewBox="0 0 50 50" fill="none" xmlns="http://www.w3.org/2000/svg">
<g clip-path="url(#clip0)">
<path d="M7.49932 35.0025H22.4993C22.9593 35.0025 23.3326 34.6292 23.3326 34.1692C23.3326 33.7093 22.9593 33.3359 22.4993 33.3359H7.49932C7.03936 33.3359 6.66602 33.7093 6.66602 34.1692C6.66602 34.6292 7.03936 35.0025 7.49932 35.0025Z" fill="#CB4134"/>
<path d="M49.1667 21.6706H4.1667C3.70674 21.6706 3.3334 22.0439 3.3334 22.5039C3.3334 22.9639 3.70674 23.3372 4.1667 23.3372H48.3334V39.1705C48.3334 40.5488 47.2117 41.6705 45.8334 41.6705H4.1667C3.00752 41.6705 1.6667 40.8155 1.6667 39.1705V20.8372C1.6667 20.3772 1.29336 20.0039 0.833398 20.0039C0.373438 20.0039 0 20.3772 0 20.8372V39.1705C0 41.1731 1.62246 43.3372 4.1667 43.3372H45.8334C48.1309 43.3372 50.0001 41.4681 50.0001 39.1705V22.5039C50 22.0439 49.6267 21.6706 49.1667 21.6706Z" fill="#CB4134"/>
<path d="M45.8333 6.66797H4.1667C1.86914 6.66797 0 8.53711 0 10.8346V15.8346C0 16.2945 0.37334 16.6679 0.833301 16.6679H45.8333C46.2933 16.6679 46.6666 16.2945 46.6666 15.8346C46.6666 15.3746 46.2933 15.0013 45.8333 15.0013H1.6667V10.8346C1.6667 9.45625 2.78838 8.33457 4.1667 8.33457H45.8334C47.2117 8.33457 48.3334 9.45625 48.3334 10.8346V19.1679C48.3334 19.6278 48.7067 20.0012 49.1667 20.0012C49.6267 20.0012 50 19.6278 50 19.1679V10.8346C50 8.53711 48.1309 6.66797 45.8333 6.66797Z" fill="#CB4134"/>
<path d="M29.166 31.6666C29.626 31.6666 29.9993 31.2933 29.9993 30.8333C29.9993 30.3733 29.626 30 29.166 30H22.4993C22.0394 30 21.666 30.3733 21.666 30.8333C21.666 31.2933 22.0394 31.6666 22.4993 31.6666H29.166Z" fill="#CB4134"/>
<path d="M7.49932 31.6666H19.166C19.626 31.6666 19.9993 31.2933 19.9993 30.8333C19.9993 30.3733 19.626 30 19.166 30H7.49932C7.03936 30 6.66602 30.3733 6.66602 30.8333C6.66602 31.2933 7.03936 31.6666 7.49932 31.6666Z" fill="#CB4134"/>
</g>
<defs>
<clipPath id="clip0">
<rect width="50" height="50" fill="white"/>
</clipPath>
</defs>
</svg>
