<svg xmlns="http://www.w3.org/2000/svg" xmlns:xlink="http://www.w3.org/1999/xlink" viewBox="0 0 315.24 81.97"><defs><style>.cls-1{fill:none;}.cls-2{clip-path:url(#clip-path);}.cls-3{fill:#fbfbfb;}.cls-4{fill:#f91b07;}</style><clipPath id="clip-path" transform="translate(0 -0.03)"><rect class="cls-1" width="315.3" height="82"/></clipPath></defs><g id="Слой_2" data-name="Слой 2"><g id="Слой_1-2" data-name="Слой 1"><g class="cls-2"><path class="cls-3" d="M100.66,80.15a21.57,21.57,0,0,0-2.39-1.79,20.54,20.54,0,0,0-2.47,1.71,12,12,0,0,1-2.42,1.59,22,22,0,0,1,.82-3c.73-2.32.86-3,.57-3.19l-2.41-2-2.11-1.68,3.13-.14,3.13-.14.92-2.85a13.57,13.57,0,0,1,1.1-2.88c.11,0,.29.53.45,1.2s.52,2,.79,3l.52,1.81,3.13.14,3.12.14L104,74l-2.53,1.87.9,3c.47,1.65.89,3,.89,3.07C103.26,82.2,102.58,81.72,100.66,80.15Z" transform="translate(0 -0.03)"/><path class="cls-3" d="M119.31,80.1c-2.52-2.1-2-2.13-5.3.33a7,7,0,0,1-2,1.23,14.59,14.59,0,0,1,.79-2.85c.5-1.48.92-2.83.92-2.94a14.9,14.9,0,0,0-2.39-2.18L109,71.79l3.13-.14,3.12-.14.92-2.86c.82-2.55,1.32-3.53,1.32-2.57,0,.16.37,1.56.81,3.07l.84,2.78h3.05l3,0-.79.7c-.42.37-1.52,1.21-2.42,1.85A5.21,5.21,0,0,0,120.34,76c0,.17.37,1.54.79,3s.78,2.77.78,2.83C121.91,82.2,121.31,81.78,119.31,80.1Z" transform="translate(0 -0.03)"/><path class="cls-3" d="M138.34,80.29c-1.16-.92-2.24-1.76-2.42-1.84a8.19,8.19,0,0,0-2.47,1.45c-1.18.87-2.31,1.65-2.5,1.74s0-.79.56-2.63c.49-1.52.92-2.89.92-3.08a13,13,0,0,0-2.37-2.24l-2.37-1.9,3.11-.09,3.12-.08.87-2.72A26.44,26.44,0,0,1,135.84,66a9,9,0,0,1,1,2.89l.9,3.07h3a9.37,9.37,0,0,1,3,.23A16.94,16.94,0,0,1,141.36,74,20.79,20.79,0,0,0,139,75.87c0,.11.37,1.43.79,2.94a21.92,21.92,0,0,1,.74,3A7.39,7.39,0,0,1,138.34,80.29Z" transform="translate(0 -0.03)"/><path class="cls-3" d="M156.88,80.18a15.87,15.87,0,0,0-2.44-1.82A17.9,17.9,0,0,0,152,80a17.6,17.6,0,0,1-2.44,1.68,8.14,8.14,0,0,1,.65-2.58c.48-1.42.92-2.8.95-3s-.68-1.06-2-2.15a19.5,19.5,0,0,1-2.31-2c-.13-.22.71-.31,2.81-.31h3l.84-2.57c.47-1.43.89-2.77,1-3,.18-.61.37-.22,1.26,2.83l.84,2.88,2.94.09a9.68,9.68,0,0,1,2.95.28,13.72,13.72,0,0,1-2.13,1.73,25.61,25.61,0,0,0-2.34,1.82c-.21.28.58,3.72,1.31,5.68.13.34.16.62.06.62A18.66,18.66,0,0,1,156.88,80.18Z" transform="translate(0 -0.03)"/><path class="cls-3" d="M175.54,80.18a17,17,0,0,0-2.47-1.82,1.32,1.32,0,0,0-.68.37,25.67,25.67,0,0,1-4.15,2.91,18.56,18.56,0,0,1,.81-3,10.93,10.93,0,0,0,.76-3c-.13-.11-1.21-1-2.44-2l-2.23-1.8,3.12-.14,3.13-.14.87-2.77c.5-1.51.94-2.82,1-2.88a13.67,13.67,0,0,1,1,2.88l.9,3,3.15.14,3.13.14-.79.56c-.42.31-1.58,1.15-2.55,1.91l-1.76,1.34.39,1.32c.19.72.58,2.09.87,3.07a4.83,4.83,0,0,1,.34,1.74C177.83,82,176.75,81.16,175.54,80.18Z" transform="translate(0 -0.03)"/><path class="cls-3" d="M312.27,59.27a50.29,50.29,0,0,0-10.9-5.71c-2.79-1.12-3.52-1.31-4.94-1.26-2.13.09-2.55-.08-3.21-1.23s-1.31-1.4-4.7-1.9c-2-.34-2.57-.5-3-1.06l-.5-.67.92-.28a2.93,2.93,0,0,0,1.31-.82c.21-.3.5-.44.66-.33s.31.14.31.08a6.27,6.27,0,0,0-1.05-.87c-.58-.39-1.05-.61-1.05-.47a.62.62,0,0,0,.26.45c.26.16.37,1.54.11,1.54a11,11,0,0,1-1.42-.59,4.17,4.17,0,0,1-1.94-1.68c-.58-.92-.85-1.09-1.63-1.09a2.19,2.19,0,0,1-1.71-.81,3.42,3.42,0,0,0-1.87-1c-1.52-.25-2.49-.67-2.68-1.15s-.26-.34-.68-.11-1.29.14-3.52-.28c-1.66-.31-4.55-.76-6.39-1l-14.42-1.79C232.63,35,234,35.09,220.44,35.68c-11,.48-15.73.48-16.87,0a.87.87,0,0,1-.13-1.45A55.77,55.77,0,0,1,210.2,34c6.88,0,9.17-.25,17.18-1.82l4.18-.81,2.26.53c2.15.51,15.6,2.69,21.7,3.5C266.84,36.94,273.39,38,274,38.34a2.53,2.53,0,0,1,.82.87c.26.56.29.56.63.08s.44-.47,2.91,0a25.94,25.94,0,0,1,13.75,6.89,7.35,7.35,0,0,0,3.05,1.93,17.1,17.1,0,0,1,3.25,1.45,28.8,28.8,0,0,0,3.68,1.85A39.23,39.23,0,0,1,314,58.69c1,1,1.4,1.51,1.27,1.84s-.27.48-.37.48A25.12,25.12,0,0,1,312.27,59.27Z" transform="translate(0 -0.03)"/><path class="cls-3" d="M.18,49.62A3.81,3.81,0,0,1,0,48.16c0-1,.32-1.87,1.31-3.89s1.26-2.74,1-3.16c-.68-1.37.47-2.49,2.89-2.77A23.42,23.42,0,0,0,11,36.49l4-1.68c.06,0-.05-.33-.21-.67A.86.86,0,0,1,14.87,33c.61-.69,1.08-.67,1.45.12.15.33.34.64.36.7A11.11,11.11,0,0,0,18.76,33c1.81-.81,1.94-.92,1.66-1.42s-.21-.62.26-1.12.65-.59,2.26-.28a5.1,5.1,0,0,0,3.49-.31c1.71-.59,1.76-.65.9-.73-1.16-.11-1.42-.39-1.21-1.29S27,26.78,29,27.29s2.5.39,4.84-.7a4.48,4.48,0,0,0,2.28-1.93c.66-1.1,1.66-1.68,2.23-1.32.32.22,1.32,0,6.47-1.65,2.31-.73,7-2.18,10.38-3.22,7.64-2.35,15.45-4.79,19.44-6,1.68-.53,3.49-1.06,4.07-1.2s6-1.6,12.09-3.22c13-3.47,17-4.48,23.25-5.76A124.91,124.91,0,0,1,142.67.08a74.3,74.3,0,0,1,12.24,1c11,1.74,10.28,1.51,19,6.1,8.41,4.42,18.84,9.88,25.09,13.1,15.11,7.78,19.05,9.93,19.05,10.35,0,.26-.6.73-1.42,1.18l-1.39.73-13.06-7.06C195,21.63,187.94,17.8,186.47,17s-4.57-2.52-6.88-3.81c-4.39-2.4-7-3.89-11.12-6.21L166,5.54l-.53.73c-.6.84-.89.89-2,.33S150,4,145.69,3.64a145.91,145.91,0,0,0-18,0,197,197,0,0,0-20,3.22c-4.26,1-17.71,4.56-20.89,5.48L78,14.86c-6.07,1.73-8.83,2.52-14.85,4.28-.71.23-2.68.81-4.33,1.29s-3.37,1-3.81,1.12-2.16.61-3.81,1.12-3.37,1-3.81,1.12c-3.58,1-9.2,2.82-11.7,3.83-4.36,1.82-5.2,2-6,1.74-.61-.23-.66-.2-.53.33s-.1.73-1.78,1.54a7.43,7.43,0,0,1-3.26.95c-1,0-1.29.09-1.18.4s-.21.53-.87.83l-1,.48.92-.17c2.65-.39,5.28-.73,9.17-1.12,7.91-.78,26.93-.42,26.09.48-.24.25-3.89.5-15.16,1.06-15.4.76-17.66,1.12-31.61,5.35C5,41.14,4.7,41.28,4.83,41.84a1.29,1.29,0,0,1-.49,1.26,2.11,2.11,0,0,0-.66,1.2,3,3,0,0,1-.92,1.4,2.9,2.9,0,0,0-.92,1.43,4.51,4.51,0,0,1-.68,1.62C.39,49.93.42,49.9.18,49.62Z" transform="translate(0 -0.03)"/><path class="cls-3" d="M105.36,22c-1.65-3.17-4.62-12.09-4.18-12.6a11.17,11.17,0,0,1,1.5-.31c1.32-.13,1.34-.13,1.53.65a71.88,71.88,0,0,0,4.23,11.78c.78,1.48.57,1.85-1.13,1.88C106.15,23.37,106.1,23.34,105.36,22Z" transform="translate(0 -0.03)"/><path class="cls-4" d="M39,61.15a7.49,7.49,0,0,1-3.16-1.32c-.23-.19-.18-.53.16-1.37a9.75,9.75,0,0,1,.63-1.26c.11-.11.79.11,1.55.45a6.94,6.94,0,0,0,3.26.67c2,0,2.73-.31,2.73-1.37s-.68-1.37-3.52-2.21-3.83-1.43-4.47-2.8A4.49,4.49,0,0,1,38,46.26c1.16-.73,1.47-.78,3.89-.78,2.71,0,5.12.64,5.12,1.34a6.67,6.67,0,0,1-.52,1.54l-.5,1.2-.87-.47a8.43,8.43,0,0,0-2.76-.62c-1.76-.11-1.92-.08-2.57.62s-.69.81-.32,1.37a3.19,3.19,0,0,0,1.39.95l3,.92c3.31,1,4.55,3,3.58,5.77a4.89,4.89,0,0,1-3.76,3.08A8,8,0,0,1,39,61.15Z" transform="translate(0 -0.03)"/><path class="cls-4" d="M84,61.26a8.22,8.22,0,0,1-2-14.94c2.84-1.63,7.39-1.15,9.33,1l.76.84-1,1c-1.23,1.11-1.47,1.17-2.07.44-1-1.2-3.94-1.31-5.57-.16-2.58,1.79-2.39,6.46.34,8.17a4.64,4.64,0,0,0,5.2-.31l1-.78,1,.92a13.39,13.39,0,0,0,1,1s0,.22-.1.47c-.24.7-2.11,1.85-3.71,2.3A6.78,6.78,0,0,1,84,61.26Z" transform="translate(0 -0.03)"/><path class="cls-4" d="M160.41,61.18a7.64,7.64,0,0,1-5.91-7.81,8,8,0,0,1,15.08-3.86,8.15,8.15,0,0,1-5.31,11.75A6.22,6.22,0,0,1,160.41,61.18Zm4.33-3.56a4.7,4.7,0,0,0,2.11-4.36,4.38,4.38,0,0,0-5.58-4.56c-2.89.84-4.25,4.7-2.57,7.41A4.52,4.52,0,0,0,164.74,57.62Z" transform="translate(0 -0.03)"/><path class="cls-4" d="M190.33,61.21a8.18,8.18,0,0,1-3.49-13.63,8.07,8.07,0,0,1,13.58,5.06,7.26,7.26,0,0,1-1.81,6A8.08,8.08,0,0,1,190.33,61.21Zm4.26-3.45a5,5,0,0,0,2.31-5.26c-.55-4.42-6.54-5.48-8.35-1.45a7.38,7.38,0,0,0-.42,2.49A4.45,4.45,0,0,0,194.59,57.76Z" transform="translate(0 -0.03)"/><path class="cls-4" d="M220.52,61.15c-1.83-.42-3.23-1.2-3.23-1.76a5.41,5.41,0,0,1,.53-1.43l.5-1.06,1.36.7a6.19,6.19,0,0,0,3.34.75c1.74,0,2-.08,2.44-.67a2.86,2.86,0,0,0,.5-.84c0-.7-1-1.26-3.39-2-3.94-1.17-5.07-2.24-5.07-4.78a3.3,3.3,0,0,1,.76-2.47c1.16-1.51,2.48-2.1,5-2.24a8.93,8.93,0,0,1,3.54.37c2,.73,2.11.78,1.48,2.32-.29.73-.58,1.34-.61,1.4a3.59,3.59,0,0,1-.92-.39c-1.29-.7-4.28-.87-5.12-.28-1.37.95-.63,2.41,1.44,2.82a11.73,11.73,0,0,1,5.18,2.19c2.05,2,1.1,5.79-1.74,7A10.64,10.64,0,0,1,220.52,61.15Z" transform="translate(0 -0.03)"/><path class="cls-4" d="M49.92,53.45V45.62h4c5.62,0,7.17.67,8.38,3.58a5.41,5.41,0,0,1-2.1,6.72c-1.08.64-1.6.78-4,.89L53.47,57l-.08,2.18-.08,2.16H49.92Zm8.7-.53a3,3,0,0,0,.5-1.68c0-1.9-1-2.54-3.79-2.54h-2v2.46a19.21,19.21,0,0,0,.1,2.6,12.14,12.14,0,0,0,2.39,0C57.83,53.62,58.17,53.51,58.62,52.92Z" transform="translate(0 -0.03)"/><path class="cls-4" d="M65.08,61.12c-.1-.11-.18-3.64-.18-7.86V45.62H76.22l-.08,1.48-.07,1.46-3.74.08-3.75.08v3.05h6.57v3.08H68.58v3.36h7.91l-.08,1.48-.08,1.46-5.55.08A52.56,52.56,0,0,1,65.08,61.12Z" transform="translate(0 -0.03)"/><path class="cls-4" d="M94.33,53.45V45.62h3.41V61.29H94.33Z" transform="translate(0 -0.03)"/><path class="cls-4" d="M99.32,61c0-.19,1.39-3.69,3.1-7.78l3.12-7.41h3.6l3.21,7.61c1.76,4.17,3.13,7.67,3.05,7.75a5.55,5.55,0,0,1-1.76.17H112l-.68-1.68-.69-1.68H104l-.69,1.68-.71,1.68H101C99.82,61.29,99.32,61.18,99.32,61Zm9.61-7.41c-.34-.9-.84-2.18-1.1-2.88l-.52-1.24-1.06,2.63a13.8,13.8,0,0,0-1,2.89,6.85,6.85,0,0,0,2.18.19h2.08Z" transform="translate(0 -0.03)"/><path class="cls-4" d="M117.11,61.09c-.11-.08-.19-3.61-.19-7.83V45.62h3.68V58.21h7.09v3.08h-5.2A36.77,36.77,0,0,1,117.11,61.09Z" transform="translate(0 -0.03)"/><path class="cls-4" d="M135.58,53.45V45.62h2.86L141,50.23c1.42,2.52,2.65,4.62,2.73,4.62a50.14,50.14,0,0,0,2.73-4.62l2.58-4.61h2.81l0,6.57c0,3.61.05,7.11.08,7.78v1.18l-1.63.08-1.66.09-.05-4.51-.08-4.48-2,3.64c-1.87,3.33-2.13,3.64-2.82,3.64s-.94-.34-2.86-3.69l-2.13-3.7v9.07h-3.15Z" transform="translate(0 -0.03)"/><path class="cls-4" d="M175.78,55V48.7h-4.73V45.62h12.87V48.7h-4.73V61.29h-3.41Z" transform="translate(0 -0.03)"/><path class="cls-4" d="M203,61.09c-.1-.08-.18-3.61-.18-7.83V45.62H207c4.38,0,5.36.19,6.8,1.31,2.39,1.91,2.55,6.3.29,8.31a5,5,0,0,1-1.05.79c-.18,0,.34,1.09,1.31,2.52S216,61,216,61.12a5.15,5.15,0,0,1-1.82.17h-1.84l-1.39-2.16L209.54,57,208,56.87l-1.5-.09v4.51h-1.66A4.88,4.88,0,0,1,203,61.09Zm8.18-7.83a2.61,2.61,0,0,0,.81-3c-.53-1.12-1.39-1.51-3.57-1.51h-1.92v5.4l2-.14A5,5,0,0,0,211.2,53.26Z" transform="translate(0 -0.03)"/></g></g></g></svg>