<?xml version="1.0" standalone="no"?>
<!DOCTYPE svg PUBLIC "-//W3C//DTD SVG 20010904//EN"
 "http://www.w3.org/TR/2001/REC-SVG-20010904/DTD/svg10.dtd">
<svg version="1.0" xmlns="http://www.w3.org/2000/svg"
 width="270.000000pt" height="270.000000pt" viewBox="0 0 270.000000 270.000000"
 preserveAspectRatio="xMidYMid meet">
<metadata>
Created by potrace 1.11, written by Peter Selinger 2001-2013
</metadata>
<g transform="translate(0.000000,270.000000) scale(0.100000,-0.100000)"
fill="#000000" stroke="none">
<path d="M1198 2033 c24 -8 41 -17 38 -20 -3 -3 -26 2 -52 11 -67 23 -99 21
-117 -8 -16 -23 -15 -24 16 -31 28 -7 23 -9 -39 -15 -39 -4 -80 -13 -92 -19
-29 -15 -37 -14 -22 4 7 8 21 15 31 15 33 0 29 17 -9 29 -44 15 -146 2 -230
-29 -29 -11 -64 -20 -77 -20 -13 0 -27 -4 -30 -10 -3 -5 -15 -10 -26 -10 -27
0 -95 -44 -115 -75 -9 -14 -23 -25 -31 -25 -9 0 -13 -6 -9 -15 3 -8 2 -14 -2
-14 -19 3 -32 -2 -32 -13 0 -6 -7 -20 -17 -30 -9 -10 -11 -18 -5 -18 6 0 9 -7
6 -15 -4 -8 -15 -15 -25 -15 -11 0 -19 -7 -19 -17 0 -23 10 -35 40 -51 49 -26
61 -39 62 -74 1 -32 2 -34 18 -19 9 9 14 22 12 29 -3 9 14 4 46 -12 55 -28 68
-49 52 -90 -13 -35 -13 -43 3 -49 9 -3 13 4 13 22 1 67 3 73 24 66 12 -4 20
-2 20 5 0 6 6 10 12 8 7 -3 13 -13 13 -24 0 -12 6 -18 17 -16 9 1 19 -2 23 -8
3 -5 15 -10 25 -10 10 0 20 -5 22 -10 2 -6 17 -13 33 -16 17 -3 32 -9 33 -15
2 -5 13 -9 24 -9 11 0 33 -14 49 -31 16 -17 29 -26 29 -19 0 17 41 2 63 -22 9
-11 17 -15 17 -9 0 6 7 8 16 4 8 -3 26 0 40 8 28 15 81 1 76 -20 -1 -7 1 -11
5 -8 45 24 90 28 98 9 3 -10 13 -12 30 -8 14 4 25 2 25 -4 0 -5 5 -10 11 -10
8 0 8 4 0 14 -15 17 12 26 49 15 14 -4 19 -7 13 -8 -7 -1 -13 -6 -13 -11 0 -6
6 -9 13 -8 7 2 11 -5 9 -17 -3 -18 -2 -18 13 3 9 12 21 20 26 16 6 -4 3 -14
-7 -25 -10 -11 -12 -19 -6 -19 7 0 12 5 12 10 0 6 8 10 17 10 9 0 32 14 50 32
18 18 33 27 33 20 0 -17 -32 -52 -47 -52 -12 0 -17 -15 -16 -47 1 -19 -34 -16
-41 3 -3 8 -10 13 -15 10 -5 -4 -20 -2 -33 3 -13 5 -35 12 -50 15 -16 4 -27
11 -25 17 1 7 -4 14 -11 16 -10 4 -12 -3 -7 -31 6 -30 2 -44 -24 -85 -27 -42
-38 -50 -73 -56 -32 -6 -46 -3 -69 14 -17 12 -43 21 -65 21 l-37 0 24 -23 c13
-13 27 -22 32 -20 9 5 10 -21 0 -30 -3 -4 -12 -2 -20 4 -19 16 -16 -1 5 -24
19 -22 1 -16 -29 10 -14 12 -22 10 -58 -10 -39 -22 -44 -37 -14 -37 8 0 11 4
8 10 -3 5 1 10 9 10 10 0 16 -9 16 -25 0 -16 -6 -25 -15 -25 -8 0 -15 5 -15
11 0 5 -4 8 -9 5 -5 -4 -11 -1 -13 6 -5 15 -28 1 -28 -17 0 -9 8 -12 21 -10
38 7 40 -5 6 -35 -18 -16 -27 -30 -20 -30 6 0 19 10 27 22 9 12 16 19 16 14 0
-5 9 3 21 18 11 14 27 26 35 26 8 0 14 5 14 10 0 6 10 10 22 10 21 0 21 0 2
-15 -10 -8 -27 -15 -37 -15 -10 0 -15 -4 -12 -10 3 -5 2 -10 -4 -10 -17 0 -31
-34 -20 -51 7 -10 11 -11 17 -2 11 18 66 37 59 21 -2 -7 3 -20 11 -28 14 -13
15 -12 9 3 -3 9 -2 19 3 22 6 4 10 0 10 -8 0 -8 7 -20 15 -27 12 -10 15 -10
15 3 0 8 6 18 13 21 6 4 2 4 -10 2 -15 -3 -23 1 -23 10 0 8 -4 14 -10 14 -18
0 -10 22 10 27 25 7 26 17 1 29 -18 8 -18 12 -6 39 13 29 14 29 21 7 5 -16 10
-20 19 -12 8 6 17 6 29 -3 13 -10 15 -18 8 -37 -13 -34 30 -104 58 -95 10 3
21 1 25 -5 9 -15 2 -21 -24 -23 -11 -1 -21 -7 -21 -14 0 -20 -36 -33 -69 -27
-17 4 -31 10 -31 14 0 9 -61 32 -68 26 -2 -3 7 -8 21 -11 14 -4 28 -13 31 -21
3 -8 16 -14 29 -14 14 0 29 -6 35 -13 14 -17 -12 -52 -33 -44 -8 4 -15 3 -16
-1 -5 -44 -5 -52 3 -52 4 0 8 7 8 15 0 8 9 15 19 15 11 0 22 6 24 13 4 8 6 8
6 -3 1 -9 13 -1 32 20 29 33 29 33 9 4 -12 -18 -25 -47 -29 -65 -6 -27 -12
-34 -28 -32 -27 3 -35 -26 -13 -48 8 -8 31 -25 51 -37 34 -21 38 -21 81 -6 25
8 56 26 68 40 13 13 32 24 42 24 10 0 18 5 18 12 0 9 3 9 12 0 18 -18 41 -15
98 15 43 22 50 30 46 48 -4 15 1 28 16 41 12 10 19 14 15 8 -9 -16 40 -5 54
12 15 18 -11 20 -29 2 -7 -7 -12 -8 -12 -2 0 5 5 15 12 22 9 9 9 12 0 12 -7 0
-15 -7 -18 -15 -9 -23 -26 -18 -19 5 4 11 2 20 -4 20 -6 0 -11 -9 -11 -20 0
-17 -3 -18 -25 -8 -14 6 -25 16 -25 22 0 6 -4 5 -9 -3 -8 -12 -12 -12 -25 -2
-8 7 -14 18 -13 23 3 18 -20 20 -27 3 -3 -9 -2 -13 4 -10 5 3 7 -1 4 -9 -8
-20 -47 -32 -52 -16 -3 7 -13 21 -23 31 -11 11 -15 19 -11 19 5 0 19 -12 31
-26 12 -14 24 -24 27 -21 6 6 -22 58 -32 59 -38 3 -38 21 -1 38 21 11 21 11 3
-4 -11 -9 -17 -18 -14 -21 8 -8 39 25 33 35 -9 14 16 70 28 64 7 -3 1 4 -13
16 -14 12 -19 19 -12 15 6 -3 12 -1 12 4 0 6 -5 11 -12 11 -6 0 -4 6 7 13 21
16 12 40 -13 34 -10 -2 -32 5 -49 15 -35 21 -64 18 -97 -11 -19 -16 -19 -15
-2 11 17 26 22 27 74 24 l57 -4 -40 18 c-22 10 -43 16 -47 14 -13 -8 -9 5 8
31 9 13 13 30 9 37 -4 7 2 2 13 -11 11 -13 24 -21 31 -17 6 4 11 2 11 -5 0 -6
-8 -9 -18 -7 -10 3 -24 -2 -31 -10 -12 -12 -11 -13 8 -7 13 4 21 2 21 -5 0 -6
11 -5 30 5 17 9 30 12 30 8 0 -4 6 1 13 12 11 14 16 15 22 5 5 -9 4 -11 -3 -6
-8 5 -12 0 -12 -12 0 -11 -7 -23 -16 -26 -9 -4 -14 -9 -11 -12 3 -3 15 -1 26
6 24 12 28 1 11 -31 -6 -10 -7 -19 -2 -19 5 0 12 -12 15 -27 3 -16 9 -37 13
-47 5 -14 4 -17 -4 -12 -7 4 -12 2 -12 -3 0 -6 4 -11 10 -11 11 0 34 -39 27
-47 -3 -2 -15 0 -26 7 -14 7 -21 7 -21 0 0 -5 4 -10 9 -10 5 0 16 -7 25 -15
18 -18 43 -10 51 16 4 10 11 19 16 19 5 0 9 9 9 20 0 10 6 23 14 27 7 4 13 19
12 33 -1 15 4 24 12 23 13 -3 17 13 4 21 -5 3 -7 22 -6 43 2 21 4 73 5 115 2
53 7 79 16 82 7 3 13 10 13 15 0 6 -7 8 -15 5 -12 -5 -15 2 -16 32 l-1 39 -12
-37 c-15 -50 -30 -62 -22 -17 5 27 2 39 -11 50 -28 22 -61 39 -78 39 -8 0 -15
5 -15 11 0 5 -4 7 -10 4 -5 -3 -18 8 -28 25 -19 31 -25 30 -47 -10 -7 -12 -6
-13 6 -4 11 9 17 9 27 -2 7 -8 9 -14 5 -14 -4 0 1 -7 12 -16 12 -9 16 -18 10
-22 -16 -11 -38 -59 -32 -69 3 -4 -8 -9 -23 -9 -26 -2 -27 0 -14 14 12 11 13
17 3 23 -9 5 -7 16 9 44 12 20 22 39 22 42 0 16 -39 -32 -59 -71 -15 -31 -27
-43 -36 -39 -8 3 -15 10 -15 15 0 6 6 8 14 5 15 -6 17 23 3 34 -15 11 51 106
77 111 27 5 59 -9 51 -22 -3 -5 3 -14 14 -19 27 -15 36 -14 23 2 -9 10 -7 19
4 35 13 19 13 22 0 22 -8 0 -16 -5 -18 -11 -6 -18 -68 24 -68 46 1 19 1 19 14
3 14 -19 32 -25 21 -8 -12 19 16 49 56 62 37 11 39 13 23 25 -23 17 -11 28 15
13 32 -17 41 -4 41 55 0 44 -4 57 -22 69 -33 24 -46 20 -57 -16 l-9 -33 -1 31
c-1 36 -17 52 -51 56 -20 2 -26 -3 -31 -27 l-7 -30 -1 32 c-2 54 -64 72 -74
21 -4 -21 -4 -21 -6 4 0 15 -11 34 -23 44 -20 14 -20 15 -3 9 11 -4 43 -12 70
-17 28 -5 65 -16 83 -24 49 -23 137 -44 190 -45 26 -1 36 -3 22 -6 -72 -11
-72 -11 -54 -39 22 -33 59 -50 114 -53 25 -1 47 -6 48 -12 3 -6 9 -6 17 1 11
9 19 7 33 -7 11 -10 21 -24 24 -32 7 -24 37 -20 58 7 12 15 39 49 60 77 42 52
48 73 28 93 -9 9 -8 15 8 27 26 19 38 19 30 -2 -6 -14 -4 -14 14 2 l21 19 -21
8 c-25 9 -55 -4 -70 -32 -9 -17 -20 -20 -68 -19 -50 1 -52 3 -22 8 l35 7 -55
17 c-104 32 -374 107 -383 107 -4 0 -15 7 -23 15 -9 8 -32 15 -52 15 -20 0
-62 7 -92 15 -71 19 -108 18 -52 -2z m-25 -29 c15 -3 27 -10 27 -14 0 -9 -75
11 -87 24 -4 5 1 6 12 3 11 -3 32 -9 48 -13z m104 0 c-3 -3 -12 -4 -19 -1 -8
3 -5 6 6 6 11 1 17 -2 13 -5z m40 -10 c-3 -3 -12 -4 -19 -1 -8 3 -5 6 6 6 11
1 17 -2 13 -5z m-44 -31 c-7 -2 -19 -2 -25 0 -7 3 -2 5 12 5 14 0 19 -2 13 -5z
m27 -23 c16 -11 -5 -14 -69 -10 -20 1 -31 -2 -27 -8 3 -6 2 -13 -4 -17 -5 -3
-11 -16 -11 -28 -1 -16 -3 -14 -8 8 -7 33 -24 36 -106 21 l-40 -7 29 17 c46
26 207 42 236 24z m60 0 c0 -5 -2 -10 -4 -10 -3 0 -8 5 -11 10 -3 6 -1 10 4
10 6 0 11 -4 11 -10z m153 -37 c31 -9 57 -21 57 -26 0 -5 -8 -6 -17 -2 -10 4
-37 13 -61 21 -23 7 -50 18 -60 24 -15 10 -15 11 3 5 11 -3 46 -13 78 -22z
m-816 11 c-3 -3 -12 -4 -19 -1 -8 3 -5 6 6 6 11 1 17 -2 13 -5z m948 -55 c7
-7 0 -8 -20 -3 -16 3 -34 11 -40 17 -7 6 0 7 20 3 17 -4 35 -12 40 -17z m-794
-7 c-7 -2 -18 1 -23 6 -8 8 -4 9 13 5 13 -4 18 -8 10 -11z m49 -82 c-12 -16
-24 -30 -26 -30 -7 0 5 20 24 43 24 27 25 20 2 -13z m110 -37 c-24 -27 -45
-50 -47 -52 -2 -2 -3 -1 -3 3 0 8 80 96 88 96 2 0 -15 -21 -38 -47z m667 31
c-3 -3 -12 -4 -19 -1 -8 3 -5 6 6 6 11 1 17 -2 13 -5z m-828 -66 c1 -5 -3 -8
-9 -8 -5 0 -10 12 -9 28 0 24 1 25 9 7 5 -11 9 -23 9 -27z m511 38 c0 -2 -7
-6 -15 -10 -8 -3 -15 -1 -15 4 0 6 7 10 15 10 8 0 15 -2 15 -4z m-572 -26 c19
-16 21 -23 12 -40 -14 -25 -20 -26 -15 0 2 12 -3 21 -15 25 -10 3 -24 12 -30
20 -19 23 20 19 48 -5z m1025 5 c-3 -9 -8 -14 -10 -11 -3 3 -2 9 2 15 9 16 15
13 8 -4z m-1337 -53 c-3 -2 -67 27 -76 35 -2 2 1 8 8 12 8 5 24 -2 41 -18 16
-14 28 -27 27 -29z m1375 40 c-12 -22 -41 -48 -41 -36 0 8 40 54 47 54 2 0 -1
-8 -6 -18z m-684 -46 c-2 -6 -18 -11 -36 -11 -17 0 -36 -7 -41 -15 -9 -13 -10
-13 -11 0 0 8 -3 10 -5 4 -2 -5 -18 -9 -35 -8 -18 1 -32 -3 -36 -11 -2 -8 -11
-11 -19 -8 -8 3 -12 8 -10 12 3 4 0 13 -5 21 -8 13 -10 13 -18 0 -6 -8 -13
-11 -17 -7 -4 3 -1 13 5 21 10 12 17 12 30 4 13 -8 35 -7 82 3 69 16 122 13
116 -5z m-429 -5 c-7 -11 -15 -18 -19 -15 -4 2 -12 -4 -18 -13 -6 -10 -11 -13
-11 -8 0 16 33 55 48 55 10 0 10 -4 0 -19z m-177 -16 c49 -27 46 -31 -12 -13
-22 6 -39 17 -39 25 0 17 1 17 51 -12z m69 21 c0 -3 -4 -8 -10 -11 -5 -3 -10
-1 -10 4 0 6 5 11 10 11 6 0 10 -2 10 -4z m140 -10 c0 -3 -4 -8 -10 -11 -5 -3
-10 -1 -10 4 0 6 5 11 10 11 6 0 10 -2 10 -4z m445 -6 c8 -13 -5 -13 -25 0
-13 8 -13 10 2 10 9 0 20 -4 23 -10z m-357 -29 c-8 -12 -18 -18 -21 -14 -4 3
1 14 11 23 22 23 28 17 10 -9z m342 6 c0 -2 -14 -16 -32 -33 -18 -16 -26 -20
-18 -9 19 25 50 52 50 42z m-165 -17 c3 -5 1 -10 -4 -10 -6 0 -11 5 -11 10 0
6 2 10 4 10 3 0 8 -4 11 -10z m-360 -14 c26 -7 45 -19 45 -29 0 -7 -4 -7 -12
1 -7 7 -19 12 -28 12 -9 0 -25 7 -36 16 -19 15 -19 16 1 9 11 -4 25 -8 30 -9z
m220 2 c-3 -7 -16 -18 -30 -24 -22 -11 -24 -10 -15 6 14 26 54 41 45 18z m-69
-25 c-10 -10 -19 5 -10 18 6 11 8 11 12 0 2 -7 1 -15 -2 -18z m147 -10 c-11
-31 -15 -35 -24 -22 -4 8 -3 19 3 26 15 19 28 16 21 -4z m97 8 c0 -5 -9 -7
-20 -4 -11 3 -20 7 -20 9 0 2 9 4 20 4 11 0 20 -4 20 -9z m235 -12 c-13 -41
-83 -141 -88 -128 -3 9 -6 9 -6 2 -1 -17 49 -74 60 -67 5 3 9 1 9 -4 0 -23
-31 -20 -55 6 -20 21 -27 24 -34 13 -7 -10 -12 -8 -24 10 -19 26 -15 38 7 20
10 -8 16 -9 21 -1 9 15 -5 32 -21 26 -7 -3 -16 0 -20 6 -4 7 -3 8 4 4 7 -4 12
-1 12 8 0 15 40 44 40 29 1 -4 7 4 16 19 8 15 20 25 27 23 6 -3 21 8 32 25 24
35 29 38 20 9z m-495 -15 c55 -22 51 -37 -5 -16 -25 9 -45 20 -45 24 0 11 4
10 50 -8z m185 -4 c3 -5 1 -10 -4 -10 -6 0 -11 5 -11 10 0 6 2 10 4 10 3 0 8
-4 11 -10z m109 -25 c-14 -19 -29 -35 -31 -35 -5 0 7 18 36 53 26 31 23 18 -5
-18z m-143 -15 c22 -29 73 -55 90 -44 5 3 6 -2 3 -11 -7 -17 -33 -13 -70 10
-12 8 -36 18 -55 22 -18 5 -35 15 -37 22 -3 10 0 11 16 2 34 -18 47 -13 27 9
-10 11 -13 20 -7 20 6 0 21 -13 33 -30z m489 -96 c-18 -21 -24 -10 -9 18 8 14
14 18 17 10 2 -7 -2 -19 -8 -28z m45 -4 c3 -5 -1 -10 -10 -10 -9 0 -13 5 -10
10 3 6 8 10 10 10 2 0 7 -4 10 -10z m-71 -24 c17 6 20 -4 10 -30 -8 -21 -24
-21 -24 0 0 13 -3 14 -14 5 -9 -8 -16 -8 -20 -2 -4 5 -2 12 3 16 6 3 8 13 5
23 -5 16 -4 16 9 -1 8 -10 21 -15 31 -11z m-266 -7 c-2 -6 -8 -10 -13 -10 -5
0 -11 4 -13 10 -2 6 4 11 13 11 9 0 15 -5 13 -11z m297 -29 c3 -5 1 -10 -4
-10 -6 0 -11 5 -11 10 0 6 2 10 4 10 3 0 8 -4 11 -10z m65 -60 c-6 -11 -13
-20 -16 -20 -2 0 0 9 6 20 6 11 13 20 16 20 2 0 0 -9 -6 -20z m-142 -52 c-6
-18 -28 -21 -28 -4 0 9 7 16 16 16 9 0 14 -5 12 -12z m-65 -113 c1 -5 -6 -11
-15 -13 -11 -2 -18 3 -18 13 0 17 30 18 33 0z m-185 -7 c-7 -19 -35 -21 -41
-3 -5 11 0 15 19 15 16 0 24 -5 22 -12z m225 -4 c9 -9 -4 -35 -14 -28 -5 3 -9
0 -9 -6 0 -6 -11 -16 -25 -22 -17 -8 -25 -19 -25 -36 l0 -25 25 27 c14 15 25
31 25 37 0 6 8 6 20 -1 27 -15 19 -42 -26 -87 -19 -19 -31 -39 -28 -45 4 -7 2
-8 -5 -4 -6 4 -9 12 -5 17 3 6 -4 7 -20 3 -16 -4 -26 -2 -26 5 0 6 7 11 15 11
23 0 18 16 -5 17 -11 1 -20 -3 -20 -8 0 -6 -4 -7 -10 -4 -14 9 -13 66 1 63 6
-2 14 3 16 10 8 21 -25 13 -41 -10 -21 -30 -37 -12 -30 33 6 35 34 52 34 21 0
-12 5 -10 23 6 21 20 51 23 76 7 6 -3 16 1 23 9 14 17 22 19 31 10z m-163
-124 c0 -5 -4 -10 -10 -10 -5 0 -10 5 -10 10 0 6 5 10 10 10 6 0 10 -4 10 -10z
m56 -161 c-29 -23 -42 -20 -33 6 4 8 18 15 33 15 l27 0 -27 -21z m284 -11 c0
-14 -17 -8 -35 12 -17 19 -17 19 9 7 14 -7 26 -15 26 -19z m-53 -38 c23 0 33
-5 33 -15 0 -8 -2 -15 -4 -15 -2 0 -12 -3 -20 -6 -13 -5 -15 -2 -9 12 4 12 -3
8 -21 -11 l-27 -30 5 27 c4 15 1 30 -6 34 -7 5 -8 2 -3 -7 6 -11 5 -11 -5 -2
-7 6 -9 17 -5 23 5 8 10 9 18 1 6 -6 26 -11 44 -11z m-274 -20 c-6 -22 -18
-26 -28 -10 -8 13 3 30 20 30 8 0 11 -7 8 -20z"/>
<path d="M1230 1460 c-6 -11 -8 -20 -6 -20 3 0 10 9 16 20 6 11 8 20 6 20 -3
0 -10 -9 -16 -20z"/>
<path d="M1233 1048 c2 -7 10 -13 17 -13 7 0 15 6 18 13 2 7 -5 12 -18 12 -13
0 -20 -5 -17 -12z"/>
<path d="M2094 1839 c14 -11 23 -25 20 -30 -3 -6 -12 -5 -21 2 -13 11 -14 9
-11 -16 3 -27 28 -49 28 -25 0 6 7 18 15 26 13 14 13 17 0 31 -8 8 -13 19 -10
24 4 5 -6 9 -21 9 l-27 0 27 -21z"/>
<path d="M2152 1802 c-10 -10 -25 -29 -34 -41 -10 -15 -21 -20 -29 -15 -21 13
-75 8 -100 -9 -13 -9 -29 -17 -35 -17 -19 0 -44 -35 -44 -62 0 -25 -36 -68
-57 -68 -7 0 -15 -10 -19 -22 -3 -13 -15 -35 -25 -50 -24 -33 -24 -34 2 -41
15 -4 19 -11 15 -24 -4 -12 2 -27 14 -41 15 -16 17 -22 6 -22 -7 0 -16 7 -20
15 -3 8 -12 12 -21 9 -8 -3 -15 -1 -15 6 0 6 5 8 10 5 6 -3 10 3 10 14 0 12
-7 21 -15 21 -8 0 -12 -6 -9 -14 6 -17 -12 -31 -21 -16 -3 5 -21 10 -38 9 -31
-1 -31 -1 12 -16 30 -11 39 -18 30 -24 -7 -4 -17 -5 -21 -3 -10 6 -10 7 2 -55
5 -29 18 -64 29 -77 18 -23 20 -23 25 -6 7 19 56 49 56 33 0 -5 10 -12 23 -16
21 -7 21 -8 1 -12 -12 -2 -25 -17 -33 -38 -7 -19 -15 -35 -19 -35 -12 1 -38
24 -51 45 -7 11 -10 13 -8 4 3 -8 -6 -25 -19 -38 -13 -13 -21 -27 -18 -32 3
-5 -11 -9 -30 -9 -41 0 -54 -14 -29 -30 16 -10 16 -11 1 -6 -10 3 -20 1 -23
-4 -4 -6 1 -10 9 -10 8 0 18 -5 21 -10 4 -7 -3 -8 -22 -4 -15 4 -29 11 -31 16
-2 4 -8 8 -13 8 -20 0 2 -19 47 -41 34 -18 44 -28 42 -43 -2 -13 -9 -20 -20
-18 -9 1 -19 -2 -23 -8 -4 -6 6 -8 28 -5 29 5 35 2 40 -15 5 -21 -16 -29 -28
-10 -7 11 -65 10 -65 -1 0 -4 7 -9 15 -13 8 -3 15 -1 15 5 0 6 4 8 10 4 5 -3
7 -12 3 -20 -3 -9 1 -15 10 -15 15 0 32 -54 22 -70 -3 -5 -18 -11 -34 -15 -18
-4 -35 -18 -49 -44 -12 -21 -19 -41 -15 -44 3 -4 -2 -18 -11 -32 -16 -25 -16
-26 10 -35 20 -8 36 -6 68 9 50 22 84 63 122 145 25 55 26 65 21 151 -6 87 -5
93 12 88 22 -6 71 39 71 65 0 37 15 45 55 28 53 -22 61 -21 79 19 17 35 36 47
36 23 1 -14 50 61 50 75 0 5 -5 5 -11 1 -9 -5 -10 4 -4 32 8 47 13 53 26 34 8
-11 9 -3 6 28 -3 23 -1 40 3 37 10 -6 17 13 25 65 3 19 12 51 19 70 23 58 29
74 31 94 1 11 7 22 13 24 19 6 14 47 -8 67 -11 10 -20 30 -20 44 l0 26 -20
-25 c-10 -14 -22 -22 -26 -18 -4 4 -1 14 6 23 17 21 4 19 -18 -3z m28 -52 c0
-5 -7 -10 -15 -10 -8 0 -15 5 -15 10 0 6 7 10 15 10 8 0 15 -4 15 -10z m30
-20 c0 -5 -4 -10 -10 -10 -5 0 -10 5 -10 10 0 6 5 10 10 10 6 0 10 -4 10 -10z
m-70 -35 c0 -2 -20 -10 -45 -18 -41 -14 -49 -14 -107 4 -42 13 -49 17 -23 12
72 -12 126 -11 138 2 10 10 37 10 37 0z m50 -11 c0 -8 -4 -12 -10 -9 -5 3 -10
10 -10 16 0 5 5 9 10 9 6 0 10 -7 10 -16z m-35 -157 c-8 -20 -19 -37 -25 -37
-14 0 -22 18 -10 25 5 3 10 19 10 35 0 16 8 36 18 46 16 17 17 17 20 -7 2 -13
-4 -41 -13 -62z m-257 -5 c2 -15 10 -34 18 -43 16 -17 2 -39 -26 -39 -14 0
-19 42 -12 109 3 22 16 4 20 -27z m-54 -7 c-6 -16 -24 -21 -24 -7 0 11 11 22
21 22 5 0 6 -7 3 -15z m256 -110 c0 -19 -4 -35 -10 -35 -5 0 -10 16 -10 35 0
19 5 35 10 35 6 0 10 -16 10 -35z m-199 2 c-7 -7 -14 -8 -21 -1 -6 6 -2 10 12
11 16 2 18 -1 9 -10z m173 -70 c3 3 6 1 6 -5 0 -16 -12 -15 -36 4 -18 15 -18
15 2 5 12 -6 24 -7 28 -4z m-18 -69 c-11 -15 -16 -18 -16 -7 0 16 21 42 28 34
2 -2 -3 -14 -12 -27z m-42 -12 c-8 -32 -37 -32 -42 1 -2 16 3 22 20 25 30 5
30 5 22 -26z m-197 -79 c8 0 6 -8 -4 -24 -15 -22 -33 -31 -33 -15 0 4 -3 18
-7 31 -5 21 -4 23 13 16 10 -4 24 -8 31 -8z m73 -12 c0 -8 -7 -15 -15 -15 -8
0 -15 7 -15 15 0 8 7 15 15 15 8 0 15 -7 15 -15z m-165 -25 c19 -8 19 -9 -2
-9 -12 -1 -25 4 -28 9 -7 12 2 12 30 0z m55 -46 c0 -8 -4 -14 -10 -14 -5 0
-10 9 -10 21 0 11 5 17 10 14 6 -3 10 -13 10 -21z m-3 -216 c-3 -8 -6 -5 -6 6
-1 11 2 17 5 13 3 -3 4 -12 1 -19z m-112 -78 c-3 -5 -12 -10 -18 -10 -7 0 -6
4 3 10 19 12 23 12 15 0z"/>
<path d="M1536 1712 c-3 -6 1 -13 10 -16 23 -9 28 -2 10 13 -8 7 -17 8 -20 3z"/>
<path d="M1590 1710 c0 -5 5 -10 11 -10 5 0 7 5 4 10 -3 6 -8 10 -11 10 -2 0
-4 -4 -4 -10z"/>
<path d="M1669 1678 c-11 -20 -12 -38 -1 -22 11 18 49 26 57 13 4 -6 2 -15 -5
-19 -8 -5 -3 -10 15 -14 35 -9 40 -3 23 30 -10 21 -20 27 -46 28 -22 1 -37 -5
-43 -16z"/>
<path d="M1550 1640 c0 -5 5 -10 11 -10 5 0 7 5 4 10 -3 6 -8 10 -11 10 -2 0
-4 -4 -4 -10z"/>
<path d="M1685 1610 c-3 -5 -1 -10 4 -10 6 0 11 5 11 10 0 6 -2 10 -4 10 -3 0
-8 -4 -11 -10z"/>
<path d="M1640 1584 c0 -39 30 -95 57 -105 32 -12 46 -11 38 2 -4 6 2 13 14
16 12 3 21 10 21 15 0 6 -7 7 -16 4 -9 -3 -22 -6 -30 -6 -9 0 -12 -4 -9 -10 3
-5 3 -10 -2 -10 -12 0 -35 16 -34 24 3 19 0 27 -8 22 -13 -8 -22 22 -15 50 4
14 2 24 -5 24 -6 0 -11 -12 -11 -26z"/>
<path d="M1489 1548 c6 -16 18 -24 40 -26 27 -3 31 0 31 22 0 24 -4 26 -40 26
-37 0 -39 -2 -31 -22z"/>
<path d="M1588 1538 c-2 -13 -6 -21 -9 -18 -8 6 -49 -29 -49 -40 0 -4 15 -6
33 -5 17 2 48 3 67 4 25 1 31 4 23 12 -6 6 -22 12 -35 12 -21 0 -24 3 -20 28
2 16 2 29 -1 29 -3 0 -7 -10 -9 -22z"/>
<path d="M460 1531 c0 -7 7 -19 15 -27 19 -20 19 -5 0 20 -9 11 -15 14 -15 7z"/>
<path d="M604 1436 c-8 -22 3 -33 18 -18 9 9 9 15 0 24 -9 9 -13 7 -18 -6z"/>
<path d="M680 1441 c0 -5 5 -13 10 -16 6 -3 10 -2 10 4 0 5 -4 13 -10 16 -5 3
-10 2 -10 -4z"/>
<path d="M1355 1439 c-4 -6 -5 -12 -2 -15 2 -3 7 2 10 11 7 17 1 20 -8 4z"/>
<path d="M546 1405 c-3 -8 -1 -15 4 -15 6 0 10 7 10 15 0 8 -2 15 -4 15 -2 0
-6 -7 -10 -15z"/>
<path d="M1651 1404 c0 -11 3 -14 6 -6 3 7 2 16 -1 19 -3 4 -6 -2 -5 -13z"/>
<path d="M775 1399 c-4 -6 -13 -8 -21 -5 -14 5 -32 -19 -22 -29 10 -10 47 9
51 26 6 21 2 25 -8 8z"/>
<path d="M1605 1400 c-19 -8 -19 -9 3 -9 12 -1 22 4 22 9 0 6 -1 10 -2 9 -2 0
-12 -4 -23 -9z"/>
<path d="M1695 1400 c-3 -6 2 -13 12 -17 16 -6 15 -8 -6 -13 -23 -5 -23 -6 -6
-23 23 -24 50 -5 34 24 -5 11 -7 24 -4 29 3 6 -1 10 -9 10 -8 0 -18 -5 -21
-10z"/>
<path d="M595 1390 c-3 -5 -2 -10 4 -10 5 0 13 5 16 10 3 6 2 10 -4 10 -5 0
-13 -4 -16 -10z"/>
<path d="M1620 1351 c-34 -18 -35 -20 -33 -75 1 -31 -2 -56 -7 -56 -5 0 -8
-13 -7 -30 1 -21 7 -30 20 -30 16 0 17 2 3 21 -15 22 -15 24 24 66 13 15 13
16 -2 10 -13 -5 -18 -1 -18 12 0 11 -3 27 -7 36 -5 14 -2 16 18 10 13 -4 42
-15 64 -25 22 -10 51 -21 65 -25 21 -7 22 -6 9 7 -8 8 -26 18 -41 21 -36 9
-63 36 -49 50 13 13 14 27 3 27 -4 0 -23 -9 -42 -19z"/>
<path d="M568 1338 c9 -9 15 -9 24 0 9 9 7 12 -12 12 -19 0 -21 -3 -12 -12z"/>
<path d="M870 1338 c0 -9 5 -20 11 -23 17 -11 20 0 4 21 -13 17 -14 17 -15 2z"/>
<path d="M925 1330 c-3 -5 -2 -10 4 -10 5 0 13 5 16 10 3 6 2 10 -4 10 -5 0
-13 -4 -16 -10z"/>
<path d="M960 1331 c0 -5 -10 -13 -22 -17 -13 -4 -25 -10 -28 -14 -3 -4 -24
-14 -48 -22 l-43 -15 35 -27 c20 -15 40 -25 45 -21 11 6 61 -15 61 -27 0 -4 6
-8 13 -8 6 1 2 9 -10 19 -23 20 -31 51 -13 51 6 0 10 6 10 14 0 8 6 16 13 19
9 3 9 7 0 17 -6 7 -9 19 -6 26 3 8 2 14 -1 14 -3 0 -6 -4 -6 -9z m-10 -55 c0
-2 -8 -10 -17 -17 -16 -13 -17 -12 -4 4 13 16 21 21 21 13z"/>
<path d="M1066 1295 c-3 -8 -1 -15 4 -15 6 0 10 7 10 15 0 8 -2 15 -4 15 -2 0
-6 -7 -10 -15z"/>
<path d="M1315 1300 c3 -5 8 -10 11 -10 2 0 4 5 4 10 0 6 -5 10 -11 10 -5 0
-7 -4 -4 -10z"/>
<path d="M1627 1271 c26 -25 33 -26 33 -6 0 8 -4 15 -9 15 -5 0 -18 3 -28 6
-15 6 -14 3 4 -15z"/>
<path d="M785 1263 c6 -5 30 -24 55 -42 l45 -33 -35 32 c-31 27 -91 68 -65 43z"/>
<path d="M740 1240 c12 -22 12 -22 34 -14 22 8 2 34 -26 34 -16 0 -17 -3 -8
-20z"/>
<path d="M1703 1244 c0 -16 20 -25 35 -15 6 4 2 10 -12 17 -17 8 -23 8 -23 -2z"/>
<path d="M767 1214 c-8 -8 1 -24 14 -24 5 0 9 7 9 15 0 15 -12 20 -23 9z"/>
<path d="M1640 1208 c0 -7 5 -20 10 -28 8 -12 10 -9 10 13 0 15 -4 27 -10 27
-5 0 -10 -6 -10 -12z"/>
<path d="M915 1191 c22 -26 55 -46 55 -34 0 4 -17 19 -38 32 -36 23 -37 23
-17 2z"/>
<path d="M1040 1200 c0 -5 5 -10 11 -10 5 0 7 5 4 10 -3 6 -8 10 -11 10 -2 0
-4 -4 -4 -10z"/>
<path d="M1708 1203 c7 -3 16 -2 19 1 4 3 -2 6 -13 5 -11 0 -14 -3 -6 -6z"/>
<path d="M548 1173 c7 -3 16 -2 19 1 4 3 -2 6 -13 5 -11 0 -14 -3 -6 -6z"/>
<path d="M836 1165 c-14 -37 -8 -45 22 -29 15 7 37 14 50 14 25 0 30 15 6 24
-26 10 -54 7 -54 -6 0 -10 -2 -10 -9 0 -7 11 -10 10 -15 -3z"/>
<path d="M910 1129 c0 -5 5 -7 10 -4 6 3 10 8 10 11 0 2 -4 4 -10 4 -5 0 -10
-5 -10 -11z"/>
<path d="M938 1113 c7 -3 16 -2 19 1 4 3 -2 6 -13 5 -11 0 -14 -3 -6 -6z"/>
<path d="M600 1100 c0 -5 5 -10 11 -10 5 0 7 5 4 10 -3 6 -8 10 -11 10 -2 0
-4 -4 -4 -10z"/>
<path d="M480 1070 c0 -5 5 -10 11 -10 5 0 7 5 4 10 -3 6 -8 10 -11 10 -2 0
-4 -4 -4 -10z"/>
<path d="M715 1040 c-3 -5 -1 -10 4 -10 6 0 11 5 11 10 0 6 -2 10 -4 10 -3 0
-8 -4 -11 -10z"/>
<path d="M1624 1034 c9 -8 16 -20 16 -26 0 -6 3 -9 6 -6 8 9 -14 48 -27 48 -6
0 -3 -7 5 -16z"/>
<path d="M550 1021 c0 -9 30 -24 36 -18 2 1 -6 8 -16 15 -11 7 -20 8 -20 3z"/>
<path d="M1537 988 c-28 -43 -34 -68 -18 -68 5 0 11 10 13 23 2 13 9 21 19 20
11 -2 15 6 16 32 1 19 0 35 -1 35 -1 0 -14 -19 -29 -42z"/>
<path d="M655 1000 c4 -6 11 -8 16 -5 14 9 11 15 -7 15 -8 0 -12 -5 -9 -10z"/>
<path d="M630 975 c18 -14 42 -27 52 -31 10 -3 18 -10 18 -15 0 -5 7 -9 15 -9
25 0 17 15 -16 27 -20 8 -28 16 -23 24 4 8 3 9 -5 5 -6 -4 -23 -1 -36 8 -39
25 -42 19 -5 -9z"/>
<path d="M853 984 c0 -8 6 -14 14 -14 7 0 13 4 13 9 0 5 -6 11 -13 14 -8 3
-14 -1 -14 -9z"/>
<path d="M1591 974 c-25 -31 -26 -44 -6 -44 9 0 12 6 8 17 -7 17 -3 17 52 -1
14 -5 13 -3 -3 6 -15 7 -22 18 -19 30 7 26 -8 22 -32 -8z"/>
<path d="M1123 953 c4 -3 2 -12 -3 -18 -8 -9 -4 -14 13 -17 21 -4 23 -2 13 19
-6 12 -15 23 -20 23 -5 0 -6 -3 -3 -7z"/>
<path d="M830 921 c-8 -17 -5 -22 21 -35 17 -9 35 -13 39 -11 5 3 6 -3 4 -12
-2 -10 0 -25 6 -33 8 -13 11 -13 26 2 15 15 15 16 -2 15 -14 -2 -18 4 -16 21
3 17 -2 22 -18 22 -12 0 -18 4 -15 10 4 6 11 8 16 5 5 -4 9 -1 9 4 0 6 -9 11
-20 11 -11 0 -20 5 -20 10 0 17 -19 11 -30 -9z m25 -11 c3 -5 1 -10 -4 -10 -6
0 -11 5 -11 10 0 6 2 10 4 10 3 0 8 -4 11 -10z"/>
<path d="M1395 930 c3 -5 8 -10 11 -10 2 0 4 5 4 10 0 6 -5 10 -11 10 -5 0 -7
-4 -4 -10z"/>
<path d="M1415 910 c-3 -6 1 -7 9 -4 18 7 21 14 7 14 -6 0 -13 -4 -16 -10z"/>
<path d="M1556 904 c-5 -12 -2 -15 10 -10 8 3 28 -1 45 -9 39 -21 37 -5 -2 18
-38 21 -45 21 -53 1z"/>
<path d="M1660 870 c0 -5 5 -10 10 -10 6 0 10 5 10 10 0 6 -4 10 -10 10 -5 0
-10 -4 -10 -10z"/>
<path d="M949 848 c4 -12 13 -24 20 -26 9 -3 9 2 0 22 -15 32 -32 35 -20 4z"/>
<path d="M1600 856 c0 -2 7 -7 16 -10 8 -3 12 -2 9 4 -6 10 -25 14 -25 6z"/>
<path d="M1070 826 c0 -9 5 -16 10 -16 6 0 10 4 10 9 0 6 -4 13 -10 16 -5 3
-10 -1 -10 -9z"/>
<path d="M1023 785 c11 -23 37 -43 37 -27 -1 9 -36 52 -43 52 -3 0 0 -11 6
-25z"/>
<path d="M1010 746 c0 -8 71 -48 76 -44 2 3 -1 9 -8 15 -17 12 -68 34 -68 29z"/>
</g>
</svg>
