<svg width="150" height="48" viewBox="0 0 150 48" fill="none" xmlns="http://www.w3.org/2000/svg">
<g clip-path="url(#clip0)">
<path d="M76.8103 45.905C77.6589 47.5039 80.1267 47.0503 80.4789 45.4428C81.494 46.9222 83.8444 46.2316 84.0685 44.6754C85.0516 45.747 87.0017 45.3179 87.4436 43.9303C87.45 43.91 87.4372 43.9506 87.4436 43.9303C94.6773 40.9555 99.9715 35.5737 102.042 29.1491C102.482 28.9654 102.866 28.6708 103.158 28.2942C105.395 28.8204 107.895 29.8728 108.816 27.373C110.791 27.8992 114.931 29.2772 116.184 25.9267C119.079 26.3216 123.289 26.5842 123.816 23.5582C126.316 23.5582 130.657 23.1632 130.657 20.2685C133.158 20.2685 137.499 18.5574 136.973 16.5838C139.21 16.3213 142.237 13.9527 142.237 12.3741C144.473 11.7166 146.974 10.0055 146.447 7.76936C147.762 6.97949 149.999 6.05834 149.999 4.74332C149.999 3.42829 148.946 2.37478 147.762 2.37478C146.577 2.37478 142.103 2.6459 140.525 2.6459C138.947 2.6459 119.868 2.38225 115.394 2.6459C110.921 2.90848 105.263 3.03229 102.499 2.76972C100.464 2.57332 93.5288 2.17625 89.3649 3.28953C80.5461 -1.08035 69.4549 -1.08142 60.634 3.28953C56.4712 2.17732 49.5353 2.57438 47.4988 2.76758C44.7353 3.03123 39.0781 2.90634 34.6036 2.64376C30.1302 2.38012 11.0507 2.64376 9.472 2.64376C7.89333 2.64376 3.41991 2.37265 2.23511 2.37265C1.05031 2.37265 0 3.42616 0 4.74118C0 6.05727 2.23724 6.97842 3.55333 7.76722C3.02604 10.0045 5.52693 11.7144 7.76311 12.3719C7.76311 13.9506 10.7892 16.3191 13.0264 16.5817C12.5002 18.5564 16.8423 20.2663 19.3421 20.2663C19.3421 23.16 23.6843 23.556 26.1841 23.556C26.7103 26.5821 30.9212 26.3195 33.8159 25.9246C35.069 29.2762 39.2105 27.8982 41.1841 27.3709C42.1052 29.8718 44.6051 28.8182 46.8423 28.292C47.1476 28.6891 47.5318 28.9645 47.9577 29.147C50.0285 35.5727 55.3238 40.9544 62.5564 43.9293C62.5617 43.9495 62.55 43.909 62.5564 43.9293C62.9983 45.3169 64.9484 45.7459 65.9315 44.6743C66.1556 46.2305 68.506 46.9201 69.5211 45.4417C69.8723 47.0492 72.3411 47.5029 73.1886 45.9039C73.3904 47.3993 76.6085 47.3993 76.8103 45.905V45.905Z" fill="black"/>
<path d="M52.2374 28.8203C53.0113 30.589 55.4567 30.2207 56.9211 29.6689C58.8745 32.6405 62.1236 35.0592 66.1242 36.5204L62.9466 41.9065C56.7696 39.2156 52.1969 34.7112 50.1816 29.4074C50.895 29.3285 51.59 29.13 52.2374 28.8203V28.8203Z" fill="white"/>
<path d="M62.4853 43.3075C55.6658 40.4277 50.6533 35.3896 48.5773 29.3503C48.9199 29.4251 49.2753 29.4539 49.6308 29.4475C51.6641 34.9413 56.3596 39.6101 62.7105 42.3821C62.5827 42.6753 62.5065 42.9884 62.4853 43.3075V43.3075ZM66.0536 43.4687C66.0527 43.4719 66.0516 43.4751 66.0504 43.4783C65.0396 45.9653 62.0413 44.5265 63.3979 42.1782L66.6289 36.7025C67.2213 36.9032 67.8286 37.0825 68.4499 37.2426C68.4627 37.3269 66.0888 43.3555 66.0536 43.4687V43.4687ZM69.4703 44.2425C68.8448 46.7306 65.8454 45.9717 66.551 43.6427L69.1191 37.4027C69.7296 37.5415 70.3519 37.6589 70.9849 37.7539C70.9913 37.7774 69.4703 44.2425 69.4703 44.2425V44.2425ZM72.9916 44.6353C72.7685 47.3123 69.482 46.848 70.0712 44.1817C70.0712 44.1838 71.5389 37.8467 71.5442 37.8329C72.1612 37.9108 72.7866 37.9706 73.4217 38.0069C73.4442 38.0645 72.9937 44.582 72.9916 44.6353V44.6353ZM73.5637 44.5948C73.5637 44.5958 73.9138 38.1147 73.9191 38.0986C74.534 38.1243 75.4423 38.1424 76.0753 38.0784C76.1052 38.1339 76.5129 44.5275 76.5193 44.5798C76.7178 47.2003 73.4068 47.2536 73.5637 44.5948V44.5948ZM2.16412 3.94971C2.45871 3.7245 3.09274 3.73624 3.89435 3.69141C7.97283 3.69141 17.4469 3.95505 19.2893 3.95505C21.1316 3.95505 34.1579 5.40243 36.1967 6.06101C37.1178 6.32465 37.3153 7.24474 36.1967 7.31092C35.078 7.3771 21.1721 7.57563 19.1985 7.57563C17.6679 7.57563 9.70626 7.54895 5.10476 6.63633C2.61562 6.14213 1.27925 4.6243 2.16412 3.94971V3.94971ZM6.64393 8.82234C9.01246 8.88852 20.854 8.9547 22.2363 8.88852C23.6175 8.82234 34.3415 8.23101 35.5914 8.16483C38.2951 8.02287 39.1704 9.22688 36.3151 9.87585C34.8678 10.2057 21.5126 11.7182 11.381 11.5207C9.47251 11.5869 6.90758 10.5995 6.249 9.67838C5.59149 8.75723 6.31518 8.82234 6.64393 8.82234V8.82234ZM11.2497 13.1655C12.8945 13.1655 32.3018 11.7182 36.3813 10.8632C39.9293 10.3231 39.1288 12.1462 37.6963 12.4419C36.4923 12.6906 22.104 15.4679 14.802 15.5992C12.3673 15.5341 9.53868 13.2307 11.2497 13.1655V13.1655ZM16.1832 17.244C18.4866 16.9804 33.8153 14.5467 37.96 13.4281C41.7086 12.4568 40.9519 14.9481 39.6048 15.3366C38.4051 15.6824 25.3413 18.8622 22.3676 19.0212C21.1067 19.0875 19.8424 19.0023 18.6019 18.7672C14.4006 17.9272 16.1832 17.244 16.1832 17.244V17.244ZM22.3676 20.665C24.0124 20.3363 37.3676 17.3091 41.1835 15.8628C43.0429 15.2149 43.6022 17.0412 42.4334 17.5728C41.7097 17.9015 31.4468 22.1775 26.5784 22.4411C24.8023 22.4411 21.5169 21.4848 22.3676 20.665V20.665ZM44.1433 17.9015C42.6309 18.6252 33.4204 22.5073 29.8671 23.2972C29.3739 23.4285 28.853 23.6462 28.8947 23.9205C29.2106 26.0212 35.7494 24.2344 36.2031 24.0892C38.7178 23.2833 43.8445 21.4015 46.0187 19.2827C45.4925 19.0202 44.2757 18.1652 44.1433 17.9015ZM46.9068 20.1388C45.9205 20.7963 39.4725 24.1532 36.5126 25.0733C34.966 25.5889 36.5937 27.1793 39.6144 26.3179C42.9532 25.8002 47.828 21.8498 48.6178 21.1261C48.2229 20.9286 47.3679 20.4024 46.9068 20.1388ZM49.9339 21.916C48.7416 22.7315 46.4468 24.2557 44.9898 25.2281C44.3888 25.6294 42.9543 26.4225 42.9852 27.0565C43.0002 27.3597 43.5766 27.935 46.2098 26.9786C47.8472 26.3083 49.8293 24.9452 51.5126 22.5084C51.1838 22.408 50.3278 22.1124 49.9339 21.916V21.916ZM52.8938 22.9023C52.2768 23.5192 51.4795 24.3624 50.6992 25.1395C49.9809 26.066 48.3798 26.7331 48.9306 27.8037C49.5272 28.9629 51.4058 27.2945 52.0826 26.6563C53.0389 25.7522 53.9622 24.5578 54.3091 23.3623C53.848 23.231 53.3218 23.0997 52.8938 22.9023Z" fill="white"/>
<path d="M29.9983 3.42926C31.7093 3.42926 37.4977 3.82419 39.6037 3.82419C45.6536 3.82419 53.8405 2.75681 59.4678 3.91279C62.9656 4.63114 63.4673 5.64409 63.4673 6.73282C63.4673 8.14925 62.2835 8.99995 61.4446 9.61477C60.4583 10.3385 57.4312 12.1146 57.2999 16.7204C56.5111 16.3916 55.3925 16.1941 56.1823 14.5493C57.5603 11.7922 60.659 8.43424 55.3594 7.00394C54.5236 6.77872 53.4936 6.63142 52.2351 6.58873C48.3541 6.45744 42.7258 6.42862 40.8173 6.09986C38.9099 5.77111 31.7082 4.08891 30.1957 3.89251C29.5371 3.82313 29.5371 3.49437 29.9983 3.42926V3.42926Z" fill="white"/>
<path d="M45.2092 7.43087C46.5904 7.43087 50.8205 7.40205 52.239 7.4693C56.1628 7.65609 58.9646 9.56778 56.1307 13.1553C55.5757 13.8566 54.092 15.3263 53.4996 15.8526C52.9734 16.2475 51.9861 15.5889 52.841 14.6027C51.7224 15.2602 50.3412 15.1289 50.9987 13.6164C50.0114 14.4063 48.3676 14.4714 49.3539 12.4327C48.6964 12.9589 46.8541 12.8938 48.0378 11.314C47.0515 11.6428 45.9329 11.0504 46.6566 10.0641C45.4067 10.2627 44.683 9.34043 45.9991 8.61781C44.7492 8.94336 44.4204 7.49598 45.2092 7.43087V7.43087ZM41.3495 6.73173C40.8169 6.69757 38.506 6.32185 38.5615 7.5675C38.617 8.81421 41.1841 8.34349 41.7114 8.24529C42.6827 8.0649 43.4587 7.76817 43.4363 7.36576C43.4139 6.95268 42.402 6.79791 41.3495 6.73173ZM41.4435 8.86758C40.882 8.91027 38.8636 8.811 39.1785 9.95098C39.2778 10.3096 40.0196 11.0354 42.5013 10.4324C43.5889 10.1677 44.1525 9.58486 44.1525 9.12162C44.1525 8.71707 42.6902 8.77258 41.4435 8.86758V8.86758ZM43.0371 10.7184C42.6379 10.7846 40.3238 10.9426 40.7112 12.1092C40.9824 12.9226 41.3986 12.6653 42.1042 12.7497C42.5696 12.8052 46.0172 11.8339 45.4782 10.728C45.3181 10.3993 44.3041 10.5103 43.0371 10.7184V10.7184ZM44.1813 12.3718C41.8864 13.3036 41.9163 13.9345 42.0209 14.275C42.1245 14.6165 43.1769 15.0382 45.3544 13.974C46.457 13.4349 46.4709 12.8223 46.1998 12.3889C45.8614 11.8456 45.0053 12.0367 44.1813 12.3718ZM45.7877 13.9387C43.3989 14.7713 43.5356 15.5313 43.7245 15.9775C43.9326 16.4706 44.6873 16.9957 46.6811 15.7256C47.8852 14.9592 48.6686 14.3166 48.4541 13.8064C48.2598 13.3431 47.1209 13.4638 45.7877 13.9387V13.9387ZM46.7228 16.3318C46.0962 16.7118 45.8112 17.2263 46.2062 17.8123C46.9128 18.8626 48.9963 17.0096 49.5193 16.4428C49.9079 16.0223 50.1566 15.5804 49.9367 15.257C49.7093 14.9239 49.0027 14.9496 46.7228 16.3318V16.3318ZM50.4949 16.5101C47.7133 17.9286 47.9802 18.616 48.3676 18.9096C48.7956 19.2341 49.8043 19.5746 51.4908 17.6255C52.2305 16.7716 51.8238 15.8366 50.4949 16.5101V16.5101ZM51.8836 17.998C51.2965 18.6545 49.9207 19.6439 50.9859 20.3815C51.8836 21.0027 52.4098 20.3207 52.8517 19.898C55.407 17.4398 54.5617 15.8835 51.8836 17.998V17.998Z" fill="white"/>
<path d="M60.2764 5.10791C62.2297 6.08457 63.0377 7.12207 61.0321 8.53956C60.7866 8.71248 61.0897 9.14263 61.3352 8.96972C63.5426 7.41133 63.0676 5.79424 60.5123 4.63719C60.2433 4.5027 60.0085 4.97342 60.2764 5.10791Z" fill="black"/>
<path d="M87.0867 27.3814C87.0867 25.2829 84.9252 23.1845 82.5247 22.4608C81.8832 22.3156 81.9846 21.7456 82.4841 21.5204C82.9644 21.3027 85.7663 19.3493 85.7268 16.889C85.7268 14.5013 82.9239 10.8828 74.7584 10.8828C69.9551 10.8828 65.9524 11.9683 63.5508 13.9953C64.1101 14.4297 64.7516 15.0808 64.7516 15.8045V29.0476C64.6715 29.8439 64.2713 30.495 63.6298 31.2187C65.7859 32.7493 69.6466 34.2095 75.1896 34.1914C81.1136 34.0462 87.0867 32.3021 87.0867 27.3814Z" fill="white"/>
<path d="M75.166 21.0021C77.7138 21.0021 79.7793 19.3524 79.7793 17.3174C79.7793 15.2825 77.7138 13.6328 75.166 13.6328C72.6182 13.6328 70.5527 15.2825 70.5527 17.3174C70.5527 19.3524 72.6182 21.0021 75.166 21.0021Z" fill="black"/>
<path d="M75.7594 31.1971C78.6156 31.1971 80.931 29.4557 80.931 27.3075C80.931 25.1594 78.6156 23.418 75.7594 23.418C72.9033 23.418 70.5879 25.1594 70.5879 27.3075C70.5879 29.4557 72.9033 31.1971 75.7594 31.1971Z" fill="black"/>
<path d="M55.1244 20.9518C55.3048 20.0541 55.594 19.1821 55.9804 18.3442C55.958 18.3111 55.2738 17.4358 53.5884 19.8716C52.6576 21.2154 54.3014 21.7566 55.1244 20.9518ZM55.0699 25.089C54.3761 25.8949 53.7218 26.5716 53.2895 27.1117C52.3865 28.241 54.7358 29.6329 56.0018 28.0275C55.5631 27.0933 55.2498 26.1053 55.0699 25.089V25.089ZM87.4502 4.03796C87.8225 3.82708 88.2143 3.65264 88.6201 3.51707C80.1962 -0.453608 69.8031 -0.453608 61.3803 3.51707C61.818 3.66864 62.2108 3.84156 62.5491 4.03796C70.3496 0.640464 79.718 0.670351 87.4502 4.03796Z" fill="white"/>
<path d="M91.3274 14.4848C90.3817 11.1952 88.0207 9.85665 87.1049 9.21622C85.2636 7.93002 85.364 6.029 86.9373 4.39056C79.4197 1.22149 70.491 1.25778 63.062 4.39056C64.6354 6.029 64.7346 7.93002 62.8945 9.21622C61.9786 9.85665 59.6165 11.1952 58.6719 14.4848C66.7018 6.20939 83.2975 6.20832 91.3274 14.4848V14.4848ZM97.7627 28.822C96.9878 30.5907 94.5424 30.2224 93.079 29.6706C91.1257 32.6422 87.8766 35.0609 83.875 36.5221L87.0536 41.9082C93.2306 39.2173 97.8022 34.7129 99.8196 29.4091C99.1058 29.3304 98.4104 29.132 97.7627 28.822V28.822Z" fill="white"/>
<path d="M87.5145 43.3075C94.334 40.4277 99.3475 35.3896 101.423 29.3503C101.076 29.4234 100.723 29.456 100.369 29.4475C98.3356 34.9413 93.6402 39.6101 87.2892 42.3821C87.4171 42.6753 87.4933 42.9884 87.5145 43.3075V43.3075ZM83.9451 43.4687L83.9494 43.4783C84.9602 45.9653 87.9585 44.5265 86.6018 42.1782L83.3708 36.7025C82.7784 36.9032 82.1722 37.0825 81.5499 37.2426C81.5371 37.3269 83.9109 43.3555 83.9451 43.4687V43.4687ZM80.5284 44.2425C81.1549 46.7306 84.1532 45.9717 83.4477 43.6427C83.4477 43.6427 81.0141 37.7261 80.8796 37.4027C80.2701 37.5415 79.6478 37.6589 79.0148 37.7539C79.0084 37.7774 80.5284 44.2425 80.5284 44.2425V44.2425ZM77.0081 44.6353C77.2312 47.3123 80.5166 46.848 79.9274 44.1817C79.9285 44.1838 78.4609 37.8467 78.4544 37.8329C77.8375 37.9108 77.2109 37.9706 76.5769 38.0069C76.5556 38.0645 77.006 44.582 77.0081 44.6353ZM147.836 3.94971C147.541 3.7245 146.907 3.73624 146.106 3.69141C142.027 3.69141 132.553 3.95505 130.711 3.95505C128.868 3.95505 115.842 5.40243 113.803 6.06101C112.882 6.32465 112.685 7.24474 113.803 7.31092C114.922 7.3771 128.827 7.57563 130.8 7.57563C132.332 7.57563 140.294 7.54895 144.894 6.63633C147.385 6.14213 148.722 4.6243 147.836 3.94971V3.94971ZM143.355 8.82234C140.986 8.88852 129.146 8.9547 127.764 8.88852C126.382 8.82234 115.658 8.23101 114.408 8.16483C111.705 8.02287 110.828 9.22688 113.685 9.87585C115.131 10.2057 128.487 11.7182 138.618 11.5207C140.525 11.5869 143.091 10.5995 143.75 9.67838C144.408 8.75723 143.685 8.82234 143.355 8.82234V8.82234ZM138.75 13.1655C137.105 13.1655 117.698 11.7182 113.619 10.8632C110.071 10.3231 110.871 12.1462 112.304 12.4419C113.508 12.6906 127.895 15.4679 135.198 15.5992C137.632 15.5341 140.46 13.2307 138.75 13.1655V13.1655ZM133.817 17.244C131.514 16.9804 116.185 14.5467 112.041 13.4281C108.292 12.4568 109.048 14.9481 110.396 15.3366C111.595 15.6824 124.659 18.8622 127.632 19.0212C128.893 19.0875 130.157 19.0023 131.398 18.7672C135.599 17.9272 133.817 17.244 133.817 17.244V17.244ZM127.632 20.665C125.987 20.3363 112.632 17.3091 108.816 15.8628C106.958 15.2149 106.398 17.0412 107.566 17.5728C108.29 17.9015 118.553 22.1775 123.421 22.4411C125.198 22.4411 128.483 21.4848 127.632 20.665V20.665ZM105.855 17.9015C107.368 18.6252 116.579 22.5073 120.132 23.2972C120.625 23.4285 121.146 23.6462 121.104 23.9205C120.788 26.0212 114.249 24.2344 113.796 24.0892C111.282 23.2833 106.154 21.4015 103.98 19.2827C104.507 19.0202 105.724 18.1652 105.855 17.9015V17.9015ZM103.092 20.1388C104.078 20.7963 110.526 24.1532 113.486 25.0733C115.033 25.5889 113.405 27.1793 110.384 26.3179C107.046 25.8002 102.171 21.8498 101.381 21.1261C101.777 20.9287 102.632 20.4024 103.092 20.1388V20.1388ZM100.067 21.916C101.258 22.7315 103.554 24.2557 105.011 25.2281C105.612 25.6294 107.047 26.4225 107.016 27.0565C107.001 27.3597 106.424 27.935 103.791 26.9786C102.154 26.3083 100.172 24.9452 98.4883 22.5084C98.816 22.4081 99.671 22.1124 100.067 21.916V21.916ZM97.1049 22.9023C97.7219 23.5192 98.5203 24.3624 99.3006 25.1395C100.02 26.066 101.621 26.7331 101.069 27.8037C100.473 28.9629 98.594 27.2946 97.9183 26.6563C96.9619 25.7522 96.0376 24.5578 95.6907 23.3623C96.1518 23.231 96.678 23.0997 97.1049 22.9023Z" fill="white"/>
<path d="M120 3.42926C118.289 3.42926 112.501 3.82419 110.395 3.82419C104.344 3.82419 96.157 2.75681 90.5308 3.91279C87.0329 4.63114 86.5312 5.64409 86.5312 6.73282C86.5312 8.14925 87.7139 8.99995 88.5529 9.61477C89.5402 10.3385 92.5673 12.1146 92.6986 16.7204C93.4874 16.3916 94.606 16.1941 93.8172 14.5493C92.4382 11.7922 89.3406 8.43424 94.6402 7.00394C95.476 6.77872 96.506 6.63142 97.7655 6.58873C101.647 6.45744 107.275 6.42862 109.182 6.09986C111.09 5.77111 118.291 4.08891 119.804 3.89251C120.461 3.82313 120.461 3.49437 120 3.42926V3.42926Z" fill="white"/>
<path d="M104.791 7.43087C103.409 7.43087 99.1793 7.40205 97.7607 7.4693C93.837 7.65609 91.0351 9.56778 93.8691 13.1553C94.4241 13.8566 95.9078 15.3263 96.5002 15.8526C97.0264 16.2475 98.0137 15.5889 97.1577 14.6027C98.2774 15.2602 99.6586 15.1289 99.001 13.6164C99.9873 14.4063 101.632 14.4714 100.646 12.4327C101.303 12.9589 103.146 12.8938 101.961 11.314C102.948 11.6428 104.067 11.0504 103.342 10.0641C104.593 10.2627 105.317 9.34043 104 8.61781C105.252 8.94336 105.58 7.49598 104.791 7.43087V7.43087ZM108.651 6.73173C109.184 6.69757 111.495 6.32185 111.439 7.5675C111.384 8.81421 108.817 8.34349 108.289 8.24529C107.318 8.0649 106.542 7.76817 106.565 7.36576C106.587 6.95268 107.599 6.79791 108.651 6.73173ZM108.558 8.86758C109.119 8.91027 111.138 8.811 110.822 9.95098C110.723 10.3096 109.982 11.0354 107.501 10.4324C106.412 10.1677 105.849 9.58486 105.849 9.12162C105.849 8.71707 107.311 8.77258 108.558 8.86758V8.86758ZM106.963 10.7184C107.362 10.7846 109.676 10.9426 109.289 12.1092C109.017 12.9226 108.601 12.6653 107.896 12.7497C107.43 12.8052 103.983 11.8339 104.522 10.728C104.683 10.3993 105.697 10.5103 106.963 10.7184V10.7184ZM105.82 12.3718C108.113 13.3036 108.083 13.9345 107.98 14.275C107.875 14.6165 106.824 15.0382 104.646 13.974C103.544 13.4349 103.529 12.8223 103.8 12.3889C104.139 11.8456 104.995 12.0367 105.82 12.3718V12.3718ZM104.212 13.9387C106.601 14.7713 106.464 15.5313 106.275 15.9775C106.067 16.4706 105.312 16.9957 103.318 15.7256C102.114 14.9592 101.33 14.3166 101.546 13.8064C101.741 13.3431 102.879 13.4638 104.212 13.9387V13.9387ZM103.277 16.3318C103.904 16.7118 104.189 17.2263 103.794 17.8123C103.088 18.8626 101.003 17.0096 100.48 16.4428C100.093 16.0223 99.8432 15.5804 100.063 15.257C100.29 14.9239 100.998 14.9496 103.277 16.3318V16.3318ZM99.5059 16.5101C102.288 17.9286 102.021 18.616 101.633 18.9096C101.205 19.2341 100.197 19.5746 98.51 17.6255C97.7703 16.7716 98.177 15.8366 99.5059 16.5101V16.5101ZM98.1162 17.998C98.7032 18.6545 100.079 19.6439 99.0149 20.3815C98.1162 21.0027 97.59 20.3207 97.1491 19.898C94.5938 17.4398 95.4392 15.8835 98.1162 17.998Z" fill="white"/>
<path d="M89.7233 5.10791C87.77 6.08457 86.962 7.12207 88.9687 8.53956C89.2131 8.71248 88.9099 9.14263 88.6644 8.96972C86.4582 7.41133 86.9331 5.79424 89.4885 4.63719C89.7564 4.5027 89.9912 4.97342 89.7233 5.10791V5.10791Z" fill="black"/>
<path d="M94.8754 20.9514C94.694 20.0537 94.4058 19.1817 94.0183 18.3438C94.0407 18.3107 94.7249 17.4354 96.4103 19.8712C97.3422 21.2151 95.6984 21.7562 94.8754 20.9514ZM94.9288 25.0886C95.6226 25.8945 96.278 26.5712 96.7103 27.1113C97.6133 28.2406 95.264 29.6325 93.998 28.0271C94.4367 27.0868 94.7527 26.1026 94.9288 25.0886Z" fill="white"/>
</g>
<defs>
<clipPath id="clip0">
<rect width="150" height="47.04" fill="white"/>
</clipPath>
</defs>
</svg>
