<svg width="158" height="34" viewBox="0 0 158 34" fill="none" xmlns="http://www.w3.org/2000/svg">
<g filter="url(#filter0_d)">
<mask id="path-1-inside-1" fill="white">
<path d="M4 0.500622L12.0281 0.578583L18.4268 0.500397C21.2502 0.500397 22.5993 0.735198 24.1039 1.4077C26.1124 2.33052 27.4296 4.42645 27.4296 6.64754C27.4296 7.72674 27.1464 8.77471 26.6134 9.65057C25.7667 11.0115 24.9825 11.5431 22.9435 12.0593C25.3906 12.7632 26.3317 13.3733 27.3352 14.6871C27.9626 15.5004 28.3387 16.7518 28.3387 17.9404C28.3387 20.2709 26.959 22.5234 24.952 23.54C23.2892 24.3846 21.1558 24.7915 18.3965 24.7915C17.6123 24.7915 15.354 24.76 11.5895 24.7288C9.89618 24.6819 7.38666 24.7288 4 24.7913V19.1762L5.85018 19.2544V6.00605L4 6.08447L4 0.500622ZM14.4754 10.37H15.6677C16.9849 10.37 17.0473 10.37 17.5803 10.1354C17.8316 10.026 18.0508 9.90087 18.2397 9.65057C18.6158 9.21287 18.8031 8.61833 18.8031 7.97705C18.8031 6.47543 17.9564 5.74023 16.2949 5.74023H16.1687L15.2276 5.77169L14.4754 5.74023V10.37ZM14.4754 19.4887H15.0708C16.2631 19.4887 16.9225 19.4577 17.4554 19.3169C18.3965 19.051 19.0544 18.1437 19.0544 17.0176C19.0544 16.2042 18.7102 15.4692 18.1452 15.0625C17.5801 14.7183 17.0473 14.5931 15.322 14.5931H14.4754V19.4887ZM28.6524 19.1762L30.5345 19.2544V6.00605L28.6524 6.08423V0.500164L35.1442 0.578354L43.0169 0.500164C46.7492 0.500164 48.2552 0.875629 50.0125 2.18941C51.6114 3.37826 52.5525 5.44296 52.5525 7.63259C52.5525 8.47721 52.4276 9.3533 52.1139 10.1038C51.549 11.715 50.9521 12.3563 49.1963 13.4355L52.4581 19.2542L53.9641 19.176V24.791C52.1141 24.7598 50.7328 24.7286 49.7917 24.7286C48.8506 24.7286 47.4405 24.7598 45.5264 24.791L41.4485 14.9219H39.1277V19.2546L40.9155 19.1764V24.7915C38.2811 24.7603 36.3058 24.729 34.9871 24.729C33.577 24.729 31.4756 24.7603 28.6524 24.7915V19.1762ZM39.1595 10.464H40.7586C42.6103 10.464 43.5194 9.65057 43.5194 8.07075C43.5194 6.58486 42.6727 5.83416 40.885 5.83416H39.1597L39.1595 10.464ZM55.3742 19.1762L57.1315 19.2544L60.6447 6.00628L58.7624 6.08447V0.500397C62.4629 0.531856 65.1917 0.578583 67.0739 0.578583C69.1128 0.578583 72.1553 0.531856 76.2333 0.500397V6.08447L74.3192 6.00628L77.8947 19.2544L79.6519 19.1762V24.7913C77.0802 24.76 75.1659 24.7288 73.8806 24.7288C72.5315 24.7288 70.4925 24.76 67.7956 24.7913V19.1762L69.6153 19.2544L69.1128 16.8455H63.2167L62.6515 19.2544L64.5019 19.1762V24.7913C62.4324 24.76 60.8945 24.7288 59.891 24.7288C58.8568 24.7288 57.3827 24.76 55.3742 24.7913V19.1762ZM64.1577 13.1072H68.1093L66.6353 7.25758L66.3521 5.94358L66.1328 4.69226C65.8511 6.27208 65.7886 6.64754 65.6942 7.05401L64.1577 13.1072ZM80.818 0.500622L88.8478 0.578583L95.2465 0.500397C98.0684 0.500397 99.4176 0.735198 100.923 1.4077C102.931 2.33052 104.248 4.42645 104.248 6.64754C104.248 7.72674 103.966 8.77471 103.432 9.65057C102.585 11.0115 101.801 11.5431 99.7632 12.0593C102.209 12.7632 103.15 13.3733 104.153 14.6871C104.781 15.5004 105.157 16.7518 105.157 17.9404C105.157 20.2709 103.777 22.5234 101.77 23.54C100.107 24.3846 97.9755 24.7915 95.2145 24.7915C94.4303 24.7915 92.172 24.76 88.4077 24.7288C86.7144 24.6819 84.2049 24.7288 80.8182 24.7913V19.1762L82.6684 19.2544V6.00605L80.8182 6.08423L80.818 0.500622ZM91.2934 10.37H92.4857C93.8029 10.37 93.8653 10.37 94.3985 10.1354C94.6496 10.026 94.8691 9.90087 95.0577 9.65057C95.434 9.21287 95.6228 8.61833 95.6228 7.97705C95.6228 6.47543 94.7761 5.74023 93.1131 5.74023H92.9882L92.0471 5.77169L91.2936 5.74023L91.2934 10.37ZM91.2934 19.4887H91.8903C93.0811 19.4887 93.7405 19.4577 94.2736 19.3169C95.2145 19.051 95.8738 18.1437 95.8738 17.0176C95.8738 16.2042 95.5284 15.4692 94.9635 15.0625C94.3983 14.7183 93.8653 14.5931 92.14 14.5931H91.2934V19.4887ZM105.566 0.500622C108.195 0.531853 110.199 0.578583 111.521 0.578583C112.813 0.578583 114.788 0.531856 117.359 0.500397V6.08447L115.82 6.00628V16.2042C115.82 17.6276 115.878 18.0968 116.168 18.6131C116.517 19.2544 117.388 19.5827 118.419 19.5827C119.392 19.5827 120.249 19.2229 120.612 18.5819C120.932 18.0968 121.004 17.6276 121.004 16.2042V6.00628L119.421 6.08447V0.500397C121.338 0.531856 122.747 0.578583 123.691 0.578583C124.606 0.578583 125.884 0.531856 127.612 0.500397V6.08447L126.044 6.00628V15.6411C126.044 18.9884 125.288 20.9436 123.444 22.6641C121.629 24.3221 119.276 25.198 116.575 25.198C113.903 25.198 111.55 24.3221 109.734 22.6641C107.919 20.9436 107.164 18.9884 107.164 15.6411V6.00628L105.566 6.08447V0.500622ZM142.207 0.500622H147.348C147.29 2.69025 147.247 3.73822 147.247 4.92685V7.5234L142.164 7.55463C141.728 5.47442 140.755 4.48892 139.216 4.48892C138.068 4.48892 137.095 5.365 137.095 6.38151C137.095 6.67878 137.182 7.02278 137.371 7.25758C137.589 7.55463 137.807 7.80494 138.126 7.97705C138.315 8.07075 138.591 8.21163 138.998 8.47744L140.378 9.14995C140.857 9.41599 141.38 9.65056 141.975 9.99479C144.052 11.0115 144.24 11.1052 145.083 11.6526C147.377 13.076 148.539 15.0625 148.539 17.7685C148.539 22.2886 145.214 25.2919 140.16 25.2919C139.187 25.2919 138.185 25.198 137.241 24.9322C135.963 24.6192 135.396 24.3533 134.176 23.3366V24.7913H128.992C129.035 22.6016 129.093 21.5537 129.093 20.3961C129.093 19.5827 129.093 18.441 129.035 16.8924H134.263C134.452 17.9718 134.641 18.3783 135.149 18.9414C135.803 19.6923 136.834 20.1615 137.88 20.1615C138.838 20.1615 139.637 19.4577 139.637 18.5817C139.637 17.6276 138.78 16.8924 136.209 15.6726C135.396 15.2659 134.859 15.0001 134.67 14.8904L133.044 14.0146C132.23 13.5766 131.504 13.1699 131.01 12.763C129.34 11.6528 128.367 9.5881 128.367 7.28882C128.367 2.97179 131.475 0 136.079 0C136.936 0 137.778 0.0624684 138.664 0.265816C140.073 0.500623 140.668 0.735199 142.207 1.4859L142.207 0.500622ZM151.066 0.76643C152.693 0.76643 154 2.17414 154 3.92607C154 5.66205 152.693 7.06974 151.066 7.06974C149.454 7.06974 148.147 5.66205 148.147 3.92607C148.147 2.17414 149.454 0.76643 151.066 0.76643ZM149.396 5.77169C150.325 6.78843 151.836 6.78843 152.751 5.77169C153.205 5.27848 153.459 4.61237 153.459 3.9182C153.459 3.22403 153.205 2.55792 152.751 2.06471C151.836 1.04797 150.326 1.04797 149.396 2.06471C148.946 2.5651 148.684 3.2221 148.684 3.92584C148.684 4.6143 148.946 5.27084 149.396 5.77169ZM150.021 2.08021H151.066C151.488 2.08021 151.676 2.1429 151.865 2.29905C152.042 2.43781 152.162 2.64557 152.199 2.8781C152.33 3.51914 152.068 3.9573 151.56 4.12918C151.531 4.12918 151.517 4.12919 151.502 4.14492L152.446 5.67777H151.633L150.703 4.05099V5.67777H150.021V2.08021ZM150.95 3.75395C151.284 3.75395 151.458 3.59757 151.517 3.33153C151.604 2.94056 151.386 2.67452 150.979 2.67452H150.703V3.75395H150.95Z"/>
</mask>
<path d="M4 0.500622L12.0281 0.578583L18.4268 0.500397C21.2502 0.500397 22.5993 0.735198 24.1039 1.4077C26.1124 2.33052 27.4296 4.42645 27.4296 6.64754C27.4296 7.72674 27.1464 8.77471 26.6134 9.65057C25.7667 11.0115 24.9825 11.5431 22.9435 12.0593C25.3906 12.7632 26.3317 13.3733 27.3352 14.6871C27.9626 15.5004 28.3387 16.7518 28.3387 17.9404C28.3387 20.2709 26.959 22.5234 24.952 23.54C23.2892 24.3846 21.1558 24.7915 18.3965 24.7915C17.6123 24.7915 15.354 24.76 11.5895 24.7288C9.89618 24.6819 7.38666 24.7288 4 24.7913V19.1762L5.85018 19.2544V6.00605L4 6.08447L4 0.500622ZM14.4754 10.37H15.6677C16.9849 10.37 17.0473 10.37 17.5803 10.1354C17.8316 10.026 18.0508 9.90087 18.2397 9.65057C18.6158 9.21287 18.8031 8.61833 18.8031 7.97705C18.8031 6.47543 17.9564 5.74023 16.2949 5.74023H16.1687L15.2276 5.77169L14.4754 5.74023V10.37ZM14.4754 19.4887H15.0708C16.2631 19.4887 16.9225 19.4577 17.4554 19.3169C18.3965 19.051 19.0544 18.1437 19.0544 17.0176C19.0544 16.2042 18.7102 15.4692 18.1452 15.0625C17.5801 14.7183 17.0473 14.5931 15.322 14.5931H14.4754V19.4887ZM28.6524 19.1762L30.5345 19.2544V6.00605L28.6524 6.08423V0.500164L35.1442 0.578354L43.0169 0.500164C46.7492 0.500164 48.2552 0.875629 50.0125 2.18941C51.6114 3.37826 52.5525 5.44296 52.5525 7.63259C52.5525 8.47721 52.4276 9.3533 52.1139 10.1038C51.549 11.715 50.9521 12.3563 49.1963 13.4355L52.4581 19.2542L53.9641 19.176V24.791C52.1141 24.7598 50.7328 24.7286 49.7917 24.7286C48.8506 24.7286 47.4405 24.7598 45.5264 24.791L41.4485 14.9219H39.1277V19.2546L40.9155 19.1764V24.7915C38.2811 24.7603 36.3058 24.729 34.9871 24.729C33.577 24.729 31.4756 24.7603 28.6524 24.7915V19.1762ZM39.1595 10.464H40.7586C42.6103 10.464 43.5194 9.65057 43.5194 8.07075C43.5194 6.58486 42.6727 5.83416 40.885 5.83416H39.1597L39.1595 10.464ZM55.3742 19.1762L57.1315 19.2544L60.6447 6.00628L58.7624 6.08447V0.500397C62.4629 0.531856 65.1917 0.578583 67.0739 0.578583C69.1128 0.578583 72.1553 0.531856 76.2333 0.500397V6.08447L74.3192 6.00628L77.8947 19.2544L79.6519 19.1762V24.7913C77.0802 24.76 75.1659 24.7288 73.8806 24.7288C72.5315 24.7288 70.4925 24.76 67.7956 24.7913V19.1762L69.6153 19.2544L69.1128 16.8455H63.2167L62.6515 19.2544L64.5019 19.1762V24.7913C62.4324 24.76 60.8945 24.7288 59.891 24.7288C58.8568 24.7288 57.3827 24.76 55.3742 24.7913V19.1762ZM64.1577 13.1072H68.1093L66.6353 7.25758L66.3521 5.94358L66.1328 4.69226C65.8511 6.27208 65.7886 6.64754 65.6942 7.05401L64.1577 13.1072ZM80.818 0.500622L88.8478 0.578583L95.2465 0.500397C98.0684 0.500397 99.4176 0.735198 100.923 1.4077C102.931 2.33052 104.248 4.42645 104.248 6.64754C104.248 7.72674 103.966 8.77471 103.432 9.65057C102.585 11.0115 101.801 11.5431 99.7632 12.0593C102.209 12.7632 103.15 13.3733 104.153 14.6871C104.781 15.5004 105.157 16.7518 105.157 17.9404C105.157 20.2709 103.777 22.5234 101.77 23.54C100.107 24.3846 97.9755 24.7915 95.2145 24.7915C94.4303 24.7915 92.172 24.76 88.4077 24.7288C86.7144 24.6819 84.2049 24.7288 80.8182 24.7913V19.1762L82.6684 19.2544V6.00605L80.8182 6.08423L80.818 0.500622ZM91.2934 10.37H92.4857C93.8029 10.37 93.8653 10.37 94.3985 10.1354C94.6496 10.026 94.8691 9.90087 95.0577 9.65057C95.434 9.21287 95.6228 8.61833 95.6228 7.97705C95.6228 6.47543 94.7761 5.74023 93.1131 5.74023H92.9882L92.0471 5.77169L91.2936 5.74023L91.2934 10.37ZM91.2934 19.4887H91.8903C93.0811 19.4887 93.7405 19.4577 94.2736 19.3169C95.2145 19.051 95.8738 18.1437 95.8738 17.0176C95.8738 16.2042 95.5284 15.4692 94.9635 15.0625C94.3983 14.7183 93.8653 14.5931 92.14 14.5931H91.2934V19.4887ZM105.566 0.500622C108.195 0.531853 110.199 0.578583 111.521 0.578583C112.813 0.578583 114.788 0.531856 117.359 0.500397V6.08447L115.82 6.00628V16.2042C115.82 17.6276 115.878 18.0968 116.168 18.6131C116.517 19.2544 117.388 19.5827 118.419 19.5827C119.392 19.5827 120.249 19.2229 120.612 18.5819C120.932 18.0968 121.004 17.6276 121.004 16.2042V6.00628L119.421 6.08447V0.500397C121.338 0.531856 122.747 0.578583 123.691 0.578583C124.606 0.578583 125.884 0.531856 127.612 0.500397V6.08447L126.044 6.00628V15.6411C126.044 18.9884 125.288 20.9436 123.444 22.6641C121.629 24.3221 119.276 25.198 116.575 25.198C113.903 25.198 111.55 24.3221 109.734 22.6641C107.919 20.9436 107.164 18.9884 107.164 15.6411V6.00628L105.566 6.08447V0.500622ZM142.207 0.500622H147.348C147.29 2.69025 147.247 3.73822 147.247 4.92685V7.5234L142.164 7.55463C141.728 5.47442 140.755 4.48892 139.216 4.48892C138.068 4.48892 137.095 5.365 137.095 6.38151C137.095 6.67878 137.182 7.02278 137.371 7.25758C137.589 7.55463 137.807 7.80494 138.126 7.97705C138.315 8.07075 138.591 8.21163 138.998 8.47744L140.378 9.14995C140.857 9.41599 141.38 9.65056 141.975 9.99479C144.052 11.0115 144.24 11.1052 145.083 11.6526C147.377 13.076 148.539 15.0625 148.539 17.7685C148.539 22.2886 145.214 25.2919 140.16 25.2919C139.187 25.2919 138.185 25.198 137.241 24.9322C135.963 24.6192 135.396 24.3533 134.176 23.3366V24.7913H128.992C129.035 22.6016 129.093 21.5537 129.093 20.3961C129.093 19.5827 129.093 18.441 129.035 16.8924H134.263C134.452 17.9718 134.641 18.3783 135.149 18.9414C135.803 19.6923 136.834 20.1615 137.88 20.1615C138.838 20.1615 139.637 19.4577 139.637 18.5817C139.637 17.6276 138.78 16.8924 136.209 15.6726C135.396 15.2659 134.859 15.0001 134.67 14.8904L133.044 14.0146C132.23 13.5766 131.504 13.1699 131.01 12.763C129.34 11.6528 128.367 9.5881 128.367 7.28882C128.367 2.97179 131.475 0 136.079 0C136.936 0 137.778 0.0624684 138.664 0.265816C140.073 0.500623 140.668 0.735199 142.207 1.4859L142.207 0.500622ZM151.066 0.76643C152.693 0.76643 154 2.17414 154 3.92607C154 5.66205 152.693 7.06974 151.066 7.06974C149.454 7.06974 148.147 5.66205 148.147 3.92607C148.147 2.17414 149.454 0.76643 151.066 0.76643ZM149.396 5.77169C150.325 6.78843 151.836 6.78843 152.751 5.77169C153.205 5.27848 153.459 4.61237 153.459 3.9182C153.459 3.22403 153.205 2.55792 152.751 2.06471C151.836 1.04797 150.326 1.04797 149.396 2.06471C148.946 2.5651 148.684 3.2221 148.684 3.92584C148.684 4.6143 148.946 5.27084 149.396 5.77169ZM150.021 2.08021H151.066C151.488 2.08021 151.676 2.1429 151.865 2.29905C152.042 2.43781 152.162 2.64557 152.199 2.8781C152.33 3.51914 152.068 3.9573 151.56 4.12918C151.531 4.12918 151.517 4.12919 151.502 4.14492L152.446 5.67777H151.633L150.703 4.05099V5.67777H150.021V2.08021ZM150.95 3.75395C151.284 3.75395 151.458 3.59757 151.517 3.33153C151.604 2.94056 151.386 2.67452 150.979 2.67452H150.703V3.75395H150.95Z" fill="black"/>
<path d="M4 0.500622L12.0281 0.578583L18.4268 0.500397C21.2502 0.500397 22.5993 0.735198 24.1039 1.4077C26.1124 2.33052 27.4296 4.42645 27.4296 6.64754C27.4296 7.72674 27.1464 8.77471 26.6134 9.65057C25.7667 11.0115 24.9825 11.5431 22.9435 12.0593C25.3906 12.7632 26.3317 13.3733 27.3352 14.6871C27.9626 15.5004 28.3387 16.7518 28.3387 17.9404C28.3387 20.2709 26.959 22.5234 24.952 23.54C23.2892 24.3846 21.1558 24.7915 18.3965 24.7915C17.6123 24.7915 15.354 24.76 11.5895 24.7288C9.89618 24.6819 7.38666 24.7288 4 24.7913V19.1762L5.85018 19.2544V6.00605L4 6.08447L4 0.500622ZM14.4754 10.37H15.6677C16.9849 10.37 17.0473 10.37 17.5803 10.1354C17.8316 10.026 18.0508 9.90087 18.2397 9.65057C18.6158 9.21287 18.8031 8.61833 18.8031 7.97705C18.8031 6.47543 17.9564 5.74023 16.2949 5.74023H16.1687L15.2276 5.77169L14.4754 5.74023V10.37ZM14.4754 19.4887H15.0708C16.2631 19.4887 16.9225 19.4577 17.4554 19.3169C18.3965 19.051 19.0544 18.1437 19.0544 17.0176C19.0544 16.2042 18.7102 15.4692 18.1452 15.0625C17.5801 14.7183 17.0473 14.5931 15.322 14.5931H14.4754V19.4887ZM28.6524 19.1762L30.5345 19.2544V6.00605L28.6524 6.08423V0.500164L35.1442 0.578354L43.0169 0.500164C46.7492 0.500164 48.2552 0.875629 50.0125 2.18941C51.6114 3.37826 52.5525 5.44296 52.5525 7.63259C52.5525 8.47721 52.4276 9.3533 52.1139 10.1038C51.549 11.715 50.9521 12.3563 49.1963 13.4355L52.4581 19.2542L53.9641 19.176V24.791C52.1141 24.7598 50.7328 24.7286 49.7917 24.7286C48.8506 24.7286 47.4405 24.7598 45.5264 24.791L41.4485 14.9219H39.1277V19.2546L40.9155 19.1764V24.7915C38.2811 24.7603 36.3058 24.729 34.9871 24.729C33.577 24.729 31.4756 24.7603 28.6524 24.7915V19.1762ZM39.1595 10.464H40.7586C42.6103 10.464 43.5194 9.65057 43.5194 8.07075C43.5194 6.58486 42.6727 5.83416 40.885 5.83416H39.1597L39.1595 10.464ZM55.3742 19.1762L57.1315 19.2544L60.6447 6.00628L58.7624 6.08447V0.500397C62.4629 0.531856 65.1917 0.578583 67.0739 0.578583C69.1128 0.578583 72.1553 0.531856 76.2333 0.500397V6.08447L74.3192 6.00628L77.8947 19.2544L79.6519 19.1762V24.7913C77.0802 24.76 75.1659 24.7288 73.8806 24.7288C72.5315 24.7288 70.4925 24.76 67.7956 24.7913V19.1762L69.6153 19.2544L69.1128 16.8455H63.2167L62.6515 19.2544L64.5019 19.1762V24.7913C62.4324 24.76 60.8945 24.7288 59.891 24.7288C58.8568 24.7288 57.3827 24.76 55.3742 24.7913V19.1762ZM64.1577 13.1072H68.1093L66.6353 7.25758L66.3521 5.94358L66.1328 4.69226C65.8511 6.27208 65.7886 6.64754 65.6942 7.05401L64.1577 13.1072ZM80.818 0.500622L88.8478 0.578583L95.2465 0.500397C98.0684 0.500397 99.4176 0.735198 100.923 1.4077C102.931 2.33052 104.248 4.42645 104.248 6.64754C104.248 7.72674 103.966 8.77471 103.432 9.65057C102.585 11.0115 101.801 11.5431 99.7632 12.0593C102.209 12.7632 103.15 13.3733 104.153 14.6871C104.781 15.5004 105.157 16.7518 105.157 17.9404C105.157 20.2709 103.777 22.5234 101.77 23.54C100.107 24.3846 97.9755 24.7915 95.2145 24.7915C94.4303 24.7915 92.172 24.76 88.4077 24.7288C86.7144 24.6819 84.2049 24.7288 80.8182 24.7913V19.1762L82.6684 19.2544V6.00605L80.8182 6.08423L80.818 0.500622ZM91.2934 10.37H92.4857C93.8029 10.37 93.8653 10.37 94.3985 10.1354C94.6496 10.026 94.8691 9.90087 95.0577 9.65057C95.434 9.21287 95.6228 8.61833 95.6228 7.97705C95.6228 6.47543 94.7761 5.74023 93.1131 5.74023H92.9882L92.0471 5.77169L91.2936 5.74023L91.2934 10.37ZM91.2934 19.4887H91.8903C93.0811 19.4887 93.7405 19.4577 94.2736 19.3169C95.2145 19.051 95.8738 18.1437 95.8738 17.0176C95.8738 16.2042 95.5284 15.4692 94.9635 15.0625C94.3983 14.7183 93.8653 14.5931 92.14 14.5931H91.2934V19.4887ZM105.566 0.500622C108.195 0.531853 110.199 0.578583 111.521 0.578583C112.813 0.578583 114.788 0.531856 117.359 0.500397V6.08447L115.82 6.00628V16.2042C115.82 17.6276 115.878 18.0968 116.168 18.6131C116.517 19.2544 117.388 19.5827 118.419 19.5827C119.392 19.5827 120.249 19.2229 120.612 18.5819C120.932 18.0968 121.004 17.6276 121.004 16.2042V6.00628L119.421 6.08447V0.500397C121.338 0.531856 122.747 0.578583 123.691 0.578583C124.606 0.578583 125.884 0.531856 127.612 0.500397V6.08447L126.044 6.00628V15.6411C126.044 18.9884 125.288 20.9436 123.444 22.6641C121.629 24.3221 119.276 25.198 116.575 25.198C113.903 25.198 111.55 24.3221 109.734 22.6641C107.919 20.9436 107.164 18.9884 107.164 15.6411V6.00628L105.566 6.08447V0.500622ZM142.207 0.500622H147.348C147.29 2.69025 147.247 3.73822 147.247 4.92685V7.5234L142.164 7.55463C141.728 5.47442 140.755 4.48892 139.216 4.48892C138.068 4.48892 137.095 5.365 137.095 6.38151C137.095 6.67878 137.182 7.02278 137.371 7.25758C137.589 7.55463 137.807 7.80494 138.126 7.97705C138.315 8.07075 138.591 8.21163 138.998 8.47744L140.378 9.14995C140.857 9.41599 141.38 9.65056 141.975 9.99479C144.052 11.0115 144.24 11.1052 145.083 11.6526C147.377 13.076 148.539 15.0625 148.539 17.7685C148.539 22.2886 145.214 25.2919 140.16 25.2919C139.187 25.2919 138.185 25.198 137.241 24.9322C135.963 24.6192 135.396 24.3533 134.176 23.3366V24.7913H128.992C129.035 22.6016 129.093 21.5537 129.093 20.3961C129.093 19.5827 129.093 18.441 129.035 16.8924H134.263C134.452 17.9718 134.641 18.3783 135.149 18.9414C135.803 19.6923 136.834 20.1615 137.88 20.1615C138.838 20.1615 139.637 19.4577 139.637 18.5817C139.637 17.6276 138.78 16.8924 136.209 15.6726C135.396 15.2659 134.859 15.0001 134.67 14.8904L133.044 14.0146C132.23 13.5766 131.504 13.1699 131.01 12.763C129.34 11.6528 128.367 9.5881 128.367 7.28882C128.367 2.97179 131.475 0 136.079 0C136.936 0 137.778 0.0624684 138.664 0.265816C140.073 0.500623 140.668 0.735199 142.207 1.4859L142.207 0.500622ZM151.066 0.76643C152.693 0.76643 154 2.17414 154 3.92607C154 5.66205 152.693 7.06974 151.066 7.06974C149.454 7.06974 148.147 5.66205 148.147 3.92607C148.147 2.17414 149.454 0.76643 151.066 0.76643ZM149.396 5.77169C150.325 6.78843 151.836 6.78843 152.751 5.77169C153.205 5.27848 153.459 4.61237 153.459 3.9182C153.459 3.22403 153.205 2.55792 152.751 2.06471C151.836 1.04797 150.326 1.04797 149.396 2.06471C148.946 2.5651 148.684 3.2221 148.684 3.92584C148.684 4.6143 148.946 5.27084 149.396 5.77169ZM150.021 2.08021H151.066C151.488 2.08021 151.676 2.1429 151.865 2.29905C152.042 2.43781 152.162 2.64557 152.199 2.8781C152.33 3.51914 152.068 3.9573 151.56 4.12918C151.531 4.12918 151.517 4.12919 151.502 4.14492L152.446 5.67777H151.633L150.703 4.05099V5.67777H150.021V2.08021ZM150.95 3.75395C151.284 3.75395 151.458 3.59757 151.517 3.33153C151.604 2.94056 151.386 2.67452 150.979 2.67452H150.703V3.75395H150.95Z" stroke="black" stroke-width="7.05555" mask="url(#path-1-inside-1)"/>
</g>
<defs>
<filter id="filter0_d" x="0" y="0" width="158" height="33.2919" filterUnits="userSpaceOnUse" color-interpolation-filters="sRGB">
<feFlood flood-opacity="0" result="BackgroundImageFix"/>
<feColorMatrix in="SourceAlpha" type="matrix" values="0 0 0 0 0 0 0 0 0 0 0 0 0 0 0 0 0 0 127 0"/>
<feOffset dy="4"/>
<feGaussianBlur stdDeviation="2"/>
<feColorMatrix type="matrix" values="0 0 0 0 0 0 0 0 0 0 0 0 0 0 0 0 0 0 0.25 0"/>
<feBlend mode="normal" in2="BackgroundImageFix" result="effect1_dropShadow"/>
<feBlend mode="normal" in="SourceGraphic" in2="effect1_dropShadow" result="shape"/>
</filter>
</defs>
</svg>
