<svg width="144" height="200" viewBox="0 0 144 200" fill="none" xmlns="http://www.w3.org/2000/svg">
<path d="M42.7629 88.1831C43.0884 87.4507 43.3683 86.8559 45.4186 86.8559H57.2534C57.9058 86.8559 58.5576 86.5354 58.5576 85.6208V82.3734C58.5576 82.0051 58.9308 81.501 59.909 81.501H84.4179C85.1162 81.501 85.6763 81.8676 85.6763 82.7371V85.3003C85.6763 85.9864 86.0019 86.7186 87.0272 86.7186H106.689C107.388 86.7186 108.32 86.901 107.901 87.7714C107.481 88.6399 101.098 101.358 100.665 102.208C100.499 102.534 100.37 102.968 99.0775 102.968H86.9907C86.4177 102.968 85.4765 102.968 85.4765 104.056V107.083C85.4765 107.519 85.1447 108.172 84.0923 108.172H59.8429C59.0859 108.172 58.5325 107.79 58.5325 107.047V104.382C58.5325 103.802 58.2183 102.951 57.3328 102.951H36.9773C36.3308 102.951 35.722 102.461 36.1097 101.519C36.4974 100.576 42.7626 88.1831 42.7626 88.1831" fill="#C7D6EE"/>
<path d="M37.668 100.104L38.2337 100.105L43.7953 89.2368L43.2294 89.2351L37.668 100.104Z" fill="url(#paint0_linear)"/>
<path d="M57.3809 101.638H38.3431C37.679 101.638 37.4463 101.34 37.7046 100.833C39.1462 98.0173 43.8869 88.7565 44.0095 88.5106C44.1536 88.2215 44.5029 87.868 45.1473 87.868H57.9225C59.2479 87.868 59.4736 87.2991 59.4736 86.2714V83.2107C59.4736 82.799 59.7518 82.5253 60.2406 82.5253H83.6389C84.2677 82.5253 84.5459 82.7294 84.5459 83.1411V85.4022C84.5459 86.293 84.3741 87.7314 86.3962 87.7314H105.731C106.599 87.7314 106.825 88.3063 106.365 89.2169C104.654 92.6069 100.444 100.645 100.313 100.917C100.147 101.264 99.6322 101.569 98.8096 101.569H86.1185C85.0712 101.569 84.0256 102.254 84.0256 103.283V105.895C84.0256 106.37 83.7349 106.707 83.2173 106.707H60.5134C59.811 106.707 59.543 106.316 59.543 105.796V103.419C59.543 102.597 58.985 101.638 57.3809 101.638" fill="#E9CF98"/>
<path d="M82.7678 101.026L85.4344 103.756C85.4344 103.756 85.6248 103.157 86.348 103.009L83.3616 100.273C83.3616 100.273 82.882 100.54 82.7678 101.026V101.026ZM57.4414 102.971C57.4414 102.971 58.5081 103.009 58.5081 104.393L60.9834 100.801L60.2979 100.315L57.4414 102.971ZM83.752 89.3714L86.5638 86.6796C86.5638 86.6796 86.1826 86.6338 85.8004 86.0249L83.0123 88.8103L83.752 89.3714V89.3714ZM82.5361 83.8715L85.1338 81.6957C85.1338 81.6957 85.4199 81.8589 85.5389 82.1168L82.8222 84.5742L82.5361 83.8715V83.8715ZM58.5748 82.4834C58.5748 82.0327 59.001 81.5011 59.6988 81.5011L61.6696 83.894C61.6696 83.894 61.0794 83.894 60.987 84.1078C60.8932 84.3216 60.8003 84.7792 60.8003 84.7792L58.5748 82.4834ZM57.7242 86.7934C57.7242 86.7934 58.5664 86.6623 58.5664 85.7781L60.52 88.0356L59.2748 88.9196L57.7242 86.7934Z" fill="white"/>
<path d="M72.1718 81.5L72.082 82.5294H83.3395C83.709 82.5294 83.9166 82.6206 84.0559 82.8926L85.3025 81.8041C85.3025 81.8041 84.989 81.5 84.4187 81.5H72.1718V81.5Z" fill="url(#paint1_linear)"/>
<path d="M59.7017 81.501C59.4015 81.501 59.0549 81.6468 58.8711 81.8728L59.6789 82.7344C59.6789 82.7344 59.8403 82.5303 60.4868 82.5303H72.0828L72.1726 81.501H59.7017V81.501Z" fill="url(#paint2_linear)"/>
<path d="M58.5769 82.4834V85.6206C58.5769 86.1131 58.4766 86.2338 58.4766 86.2338L59.3678 87.1641C59.3678 87.1641 59.4953 86.8429 59.4953 86.6455V83.537C59.4953 83.3408 59.5132 83.0548 59.5132 83.0548L58.6763 82.0368C58.6763 82.0368 58.5769 82.2148 58.5769 82.4834" fill="url(#paint3_linear)"/>
<path d="M84.5633 82.9588C84.5633 82.9588 84.5391 83.3237 84.5391 83.52C84.5391 83.7162 84.5633 86.3662 84.5633 86.5629C84.5633 86.7591 84.8542 87.123 84.8542 87.123L85.9207 86.1961C85.9207 86.1961 85.6677 86.1127 85.6677 85.6202V82.483C85.6677 82.2143 85.4439 82.0364 85.4439 82.0364L84.5633 82.9588V82.9588Z" fill="url(#paint4_linear)"/>
<path d="M57.3212 86.8598C56.9869 86.8598 45.5025 86.8728 44.8906 86.8728C44.0027 86.8728 43.4805 87.2574 43.4805 87.2574L44.2109 88.2227C44.2109 88.2227 44.5031 87.8689 45.1479 87.8689H58.1068C58.5581 87.8689 58.8972 87.6684 58.8972 87.6684L58.0504 86.6695C58.0504 86.6695 57.6346 86.8598 57.3212 86.8598" fill="url(#paint5_linear)"/>
<path d="M37.3247 100.917L36.0005 101.83C36.0005 101.83 35.8955 102.207 36.0934 102.505C36.2917 102.802 36.5945 102.848 36.5945 102.848L38.3181 101.638C38.3181 101.638 37.3426 101.593 37.7485 100.884C38.1543 100.174 38.1323 99.9066 38.1323 99.9066C38.1323 99.9064 37.6587 99.9829 37.3247 100.917Z" fill="url(#paint6_linear)"/>
<path d="M40.9563 91.9867C39.9002 94.1214 36.3534 100.979 36.2294 101.224C36.105 101.468 35.9805 101.895 35.9805 101.895L37.3473 100.918L43.7518 88.3866C43.7518 88.3866 42.0125 89.8509 40.9563 91.9867" fill="url(#paint7_linear)"/>
<path d="M38.3427 101.668L36.5859 102.909C36.5859 102.909 56.596 102.958 57.1016 102.958C57.6063 102.958 57.8185 103.053 57.8185 103.053L58.7197 102.047C58.7197 102.047 57.8589 101.668 57.3807 101.668H38.3427V101.668Z" fill="url(#paint8_linear)"/>
<path d="M58.332 103.602C58.332 103.602 58.5163 103.966 58.5163 104.256V106.855C58.5163 107.226 58.6639 107.549 58.6639 107.549L59.5431 106.532V103.419C59.5431 102.922 59.2642 102.504 59.2642 102.504L58.332 103.602V103.602Z" fill="url(#paint9_linear)"/>
<path d="M84.0195 103.1V106.213L85.3995 107.398C85.3995 107.398 85.4336 107.082 85.4336 106.711V104.112C85.4336 103.822 85.5192 103.639 85.5192 103.639L84.3127 102.455C84.3127 102.455 84.0195 102.602 84.0195 103.1" fill="url(#paint10_linear)"/>
<path d="M82.992 106.732H72.1445V108.178H84.1479C84.556 108.178 85.0317 107.911 85.1222 107.844L83.7619 106.577C83.7619 106.577 83.6722 106.732 82.992 106.732Z" fill="url(#paint11_linear)"/>
<path d="M59.0781 107.995C59.0781 107.995 59.3575 108.189 60.1383 108.189C60.9183 108.189 72.1438 108.175 72.1438 108.175V106.729H60.5577C60.348 106.729 60.2077 106.691 60.2077 106.691L59.0781 107.995V107.995Z" fill="url(#paint12_linear)"/>
<path d="M62.1949 83.8652C61.5665 83.8652 60.9391 84.2083 60.9391 84.8936V88.2508C60.9391 88.9352 60.5201 89.2096 60.032 89.2096H46.1413C45.577 89.2096 45.1404 89.4408 44.8896 89.9071C44.6843 90.2903 41.2153 97.119 40.0943 99.3259C39.8512 99.8046 40.0635 100.096 40.6873 100.096H60.1024C60.9391 100.096 61.0789 100.85 61.0789 101.603V104.212C61.0789 104.692 61.5667 105.24 62.125 105.24H71.892V83.8652H62.1949Z" fill="url(#paint13_linear)"/>
<path d="M84.9375 101.955L86.0559 103.084C86.0559 103.084 86.335 102.932 87.6402 102.932H99.5679C99.8158 102.932 100.158 102.81 100.158 102.81L93.8524 101.559C93.8524 101.559 86.5527 101.564 86.2112 101.559C86.1984 101.559 86.1856 101.559 86.1727 101.559C85.4326 101.559 84.9375 101.955 84.9375 101.955" fill="url(#paint14_linear)"/>
<path d="M85.3594 87.5313C85.3594 87.5313 85.9046 87.7101 86.3496 87.7101H105.13C105.702 87.7101 106.035 87.752 106.035 87.752L107.553 86.8635C107.553 86.8635 107.066 86.7269 106.579 86.7269H87.0745C86.5871 86.7269 86.3839 86.615 86.3839 86.615L85.3594 87.5313V87.5313Z" fill="url(#paint15_linear)"/>
<path d="M106.585 88.2336C106.585 88.2336 106.671 88.7016 106.509 89.0197C106.347 89.3376 100.671 100.303 100.414 100.806C100.157 101.31 99.5781 101.495 99.5781 101.495L100.225 102.766C100.225 102.766 100.454 102.595 100.59 102.422C100.724 102.25 107.709 88.2909 107.925 87.8013C108.14 87.3112 107.951 87.134 107.951 87.134L106.585 88.2336V88.2336Z" fill="url(#paint16_linear)"/>
<path d="M98.9781 101.59C98.2326 101.59 94.0391 101.621 94.0391 101.621L100.003 102.811C100.003 102.811 100.376 102.659 100.563 102.353C100.749 102.048 100.562 101.957 100.345 102.139C100.128 102.324 99.7552 102.019 99.941 101.805C100.128 101.59 100.314 100.919 100.314 100.919C100.313 100.919 99.724 101.59 98.9781 101.59Z" fill="url(#paint17_linear)"/>
<path d="M43.4968 100.646C39.5911 100.902 38.3438 101.628 38.3438 101.628H56.995C59.116 101.628 58.8739 101.912 58.862 101.925L60.3805 100.348C60.3805 100.348 56.6915 100.348 54.3477 100.306C54.0498 100.301 53.7155 100.298 53.3505 100.298C50.8454 100.298 46.9063 100.423 43.4968 100.646V100.646ZM58.8616 101.926L58.862 101.925L58.8616 101.926Z" fill="url(#paint18_linear)"/>
<path d="M87.4907 100.304C85.8315 100.347 83.2188 100.347 83.2188 100.347L84.96 101.957C84.96 101.957 85.1392 101.58 86.6756 101.58C88.213 101.58 99.2912 101.543 99.2912 101.543C99.2912 101.543 99.4782 100.948 96.2161 100.719C93.6464 100.539 89.7687 100.3 87.8942 100.3C87.7597 100.3 87.6252 100.301 87.4907 100.304" fill="url(#paint19_linear)"/>
<path d="M83.543 89.3765C83.543 89.3765 86.1564 89.3765 87.8161 89.4191C89.4759 89.4616 99.5361 89.0135 102.303 88.7574C105.07 88.5018 105.952 87.7767 105.952 87.7767C105.952 87.7767 88.3625 87.8689 86.8257 87.8689C85.2898 87.8689 85.5041 87.5698 85.5041 87.5698L83.543 89.3765V89.3765Z" fill="url(#paint20_linear)"/>
<path d="M59.3555 102.551C59.3555 102.551 59.5419 103.145 59.5419 103.603V105.662C59.5419 106.211 59.7287 106.486 59.7287 106.486L61.3127 104.93C61.3127 104.93 61.0761 104.381 61.0761 103.969V101.647C61.0761 101.111 60.9397 100.674 60.9397 100.674L59.3555 102.551V102.551Z" fill="url(#paint21_linear)"/>
<path d="M82.6018 101.634C82.6018 102.171 82.565 103.608 82.565 104.02C82.565 104.431 82.4688 104.93 82.4688 104.93L84.0525 106.486C84.0525 106.486 84.2395 106.211 84.2395 105.662V103.603C84.2395 103.145 84.4257 102.551 84.4257 102.551L82.7295 100.631C82.6472 100.959 82.6043 101.296 82.6018 101.634" fill="url(#paint22_linear)"/>
<path d="M60.2422 106.669L71.7972 106.76L71.8438 106.759V105.239L61.7795 105.203L60.2422 106.669Z" fill="url(#paint23_linear)"/>
<path d="M71.8902 105.238H71.8438V106.758L83.725 106.622L81.8149 105.202L71.8902 105.238Z" fill="url(#paint24_linear)"/>
<path d="M60.3977 82.5211C60.0714 82.5211 59.7695 82.6938 59.7695 82.6938L61.3011 84.1738C61.3011 84.1738 61.452 83.8524 62.5312 83.8524H71.8897V82.5211H60.3977Z" fill="url(#paint25_linear)"/>
<path d="M71.8906 82.5219V83.8531H81.2492C82.3284 83.8531 82.5519 84.3145 82.5519 84.3145L84.083 82.8352C84.083 82.8352 83.7095 82.5219 83.3832 82.5219H71.8906V82.5219Z" fill="url(#paint26_linear)"/>
<path d="M59.4784 83.8151V86.5026C59.4784 86.8214 59.3359 87.1991 59.3359 87.1991L60.8358 88.8711C60.8358 88.8711 60.9371 88.7321 60.9371 88.0358C60.9371 87.3391 60.9976 84.6126 60.9976 84.6126L59.4982 82.9606C59.4982 82.9606 59.4784 83.3975 59.4784 83.8151" fill="url(#paint27_linear)"/>
<path d="M82.6172 84.6446V87.9862C82.6172 88.6827 82.9488 88.8711 82.9488 88.8711L84.7818 87.0576C84.7818 87.0576 84.5428 86.6782 84.5428 86.3603C84.5428 86.0415 84.5273 84.0985 84.5273 83.6806C84.5273 83.2628 84.5459 82.8762 84.5459 82.8762L82.6172 84.6446V84.6446Z" fill="url(#paint28_linear)"/>
<path d="M58.2393 87.9054H45.3799C45.0072 87.9054 44.4011 88.0427 44.2148 88.2261L45.3799 89.416C45.3799 89.416 45.7057 89.1875 46.4981 89.1875H59.87C60.2432 89.1875 60.6155 89.0495 60.6155 89.0495L59.125 87.5398C59.125 87.5398 58.7518 87.9054 58.2393 87.9054" fill="url(#paint29_linear)"/>
<path d="M98.293 100.145C98.293 100.145 99.013 99.8787 99.2382 100.719C99.2382 100.719 99.4182 100.985 99.913 100.277C100.408 99.5696 105.089 90.1125 105.043 89.9785C104.997 89.8464 104.052 89.6692 104.052 89.6692L98.293 100.145V100.145Z" fill="url(#paint30_linear)"/>
<path d="M104.186 89.7601C104.412 89.8922 104.637 90.0694 104.322 90.7319C104.007 91.3938 100.407 98.2893 99.6427 99.6147C98.8776 100.94 99.5517 101.471 99.5517 101.471C99.5517 101.471 100.138 101.205 100.313 100.918C100.491 100.631 105.987 89.9361 106.366 89.218C106.744 88.4996 106.482 88.2122 106.482 88.2122L104.186 89.7601V89.7601Z" fill="url(#paint31_linear)"/>
<path d="M71.8906 83.8652V105.24H81.5137C82.0713 105.24 82.5598 105.035 82.5598 104.417V101.229C82.5598 100.613 82.9778 100.134 83.4666 100.134H97.9835C98.4929 100.134 98.9506 99.8412 99.2159 99.3594C100.402 97.2052 103.669 90.9581 103.916 90.4544C104.218 89.8396 104.031 89.4835 103.332 89.4835H84.094C83.2572 89.4835 82.6285 88.8675 82.6285 88.1138V84.6195C82.6285 84.1398 82.3497 83.8655 81.7222 83.8655H71.8906V83.8652Z" fill="url(#paint32_linear)"/>
<path d="M38.1875 101.031L40.0499 99.9221C40.0499 99.9221 39.8366 99.8309 40.1718 99.1716C40.5075 98.5124 43.6521 92.2152 43.6521 92.2152L42.9504 92.066L38.1875 101.031V101.031Z" fill="url(#paint33_linear)"/>
<path d="M38.0167 100.216C37.5506 101.04 37.6445 101.359 37.6445 101.359L38.7624 100.627C38.7624 100.627 43.7476 91.1545 44.2602 90.0558C44.7729 88.9578 44.0089 88.5105 44.0089 88.5105C44.0089 88.5105 38.4828 99.3921 38.0167 100.216" fill="url(#paint34_linear)"/>
<path d="M38.7695 101.666C38.6956 101.714 38.0142 101.797 37.8811 101.666C37.7477 101.536 37.525 101.434 37.7028 101.288C37.8813 101.142 40.0726 99.8624 40.0726 99.8624C40.0726 99.8624 39.8064 100.008 42.0581 100.008H60.0698C60.544 100.008 60.988 100.327 61.0477 100.531C61.1069 100.735 60.9882 100.822 60.8402 100.794C60.6926 100.764 60.307 100.648 60.2182 100.502C60.1293 100.357 60.3367 100.24 59.0329 100.24C57.7295 100.24 47.7756 100.386 45.5246 100.589C43.2729 100.794 40.3096 100.648 38.7695 101.666V101.666ZM105.298 87.8152C105.372 87.7674 106.054 87.6849 106.187 87.8152C106.32 87.9462 106.543 88.0479 106.365 88.1937C106.187 88.3389 103.995 89.6192 103.995 89.6192C103.995 89.6192 104.261 89.474 102.01 89.474H83.9975C83.5236 89.474 83.0793 89.1546 83.0204 88.9504C82.9609 88.7461 83.0792 88.6585 83.2266 88.6881C83.376 88.7176 83.7605 88.834 83.8497 88.9789C83.9382 89.125 83.7306 89.2405 85.0346 89.2405C86.3386 89.2405 96.2912 89.0956 98.5438 88.892C100.795 88.6881 103.758 88.834 105.298 87.8152H105.298ZM44.585 89.4984C44.585 89.2925 44.7013 88.9037 44.6085 88.7899C44.5151 88.675 44.7946 88.5378 44.9812 88.6516C45.1676 88.7664 45.5633 88.8576 45.6098 88.9495C45.6565 89.0407 45.5867 89.2691 45.3305 89.3611C45.074 89.4523 44.8411 89.6584 44.4452 90.5044C44.049 91.3519 41.7891 95.6532 41.7891 95.6532C41.7891 95.6532 42.1156 94.9671 41.9757 94.9436C41.8359 94.921 41.5101 95.4932 41.5101 95.4932L44.585 89.4986V89.4984ZM60.162 89.0936C59.9691 89.1128 59.9153 88.9054 60.0799 88.8784C60.2451 88.8512 60.4641 88.8382 60.656 88.0965C60.8486 87.3547 60.7114 85.1043 60.6837 84.7002C60.656 84.2957 60.4642 83.8108 60.7392 83.5954C61.0132 83.3792 61.2055 83.838 61.9191 83.838C62.6324 83.838 64.252 83.784 64.252 83.784C64.252 83.784 61.974 83.9448 61.5893 83.9993C61.2053 84.0535 60.8758 84.3496 60.9304 84.8888C60.9858 85.4281 60.8486 88.205 60.7392 88.5013C60.629 88.7975 60.4365 89.0668 60.162 89.0938V89.0936ZM75.5306 83.8006C75.2284 83.8143 81.3178 83.8709 81.7015 83.8709C82.0857 83.8709 82.5248 83.9854 82.6074 84.3623C82.6897 84.7403 82.6313 85.9774 82.6313 85.9774C82.6313 85.9774 82.8205 84.3895 83.0952 84.0933C83.3696 83.7959 83.2873 83.3654 82.9307 83.4453C82.5737 83.527 79.7478 83.6138 75.5306 83.8006V83.8006ZM83.6622 100.326C83.4706 100.298 83.2517 100.273 83.1963 100.434C83.1414 100.595 83.4426 100.702 83.1414 100.863C82.8409 101.025 82.6167 101.124 82.6167 100.989C82.6167 100.854 82.7719 100.164 83.3471 100.164C83.9223 100.164 98.1154 100.137 98.3358 100.137C98.554 100.137 98.8282 100.164 98.9373 100.38C99.0467 100.595 99.1836 101.132 99.2662 101.294C99.3478 101.455 99.2115 101.455 98.9643 101.132C98.718 100.809 98.089 100.676 97.5966 100.702C97.1033 100.729 83.6622 100.326 83.6622 100.326V100.326ZM99.3204 100.783C99.3204 100.783 99.1839 100.488 99.1015 100.298C99.0194 100.111 98.7731 100.031 98.7731 100.031C98.7731 100.031 99.0466 99.7072 99.4295 99.0088C99.8133 98.3105 101.62 94.9753 101.811 94.5182C101.811 94.5182 101.401 95.7561 102.195 94.7334C102.195 94.7334 99.6216 99.5187 99.457 99.8418C99.2932 100.165 99.3202 100.783 99.3202 100.783H99.3204ZM61.2459 104.547C61.2459 104.547 61.2786 104.933 61.05 105.094C60.8213 105.255 60.7227 105.544 60.9192 105.673C61.1155 105.801 61.2463 105.737 61.3771 105.544C61.5081 105.351 61.9667 105.19 62.261 105.255C62.2613 105.255 61.2459 105.382 61.2459 104.547V104.547ZM75.3544 105.236C75.3544 105.236 80.8787 105.521 81.206 105.536L81.7622 105.561C81.7622 105.561 81.1761 105.47 81.3494 105.285L75.3542 105.236H75.3544ZM81.9018 105.19C81.9018 105.19 81.7385 105.447 81.9999 105.575C82.2624 105.704 82.5246 105.832 82.688 105.64C82.8513 105.447 82.5572 104.933 82.5895 104.579C82.5895 104.579 82.7205 105.126 81.9018 105.19" fill="white"/>
<path d="M88.6439 105.655H88.338V106.164H88.6439C88.7997 106.164 88.8459 106.103 88.8459 106.003V105.815C88.8459 105.686 88.7849 105.655 88.6439 105.655ZM88.6439 106.329H88.338V106.748H88.1519V105.487H88.6439C88.9227 105.487 89.0319 105.609 89.0319 105.815V106.004C89.0319 106.14 88.9838 106.232 88.8459 106.293L89.191 106.748H88.9708L88.6439 106.329ZM88.5866 107.132C89.2436 107.132 89.5885 106.689 89.5885 106.147C89.5885 105.604 89.2437 105.155 88.5866 105.155C87.929 105.155 87.576 105.604 87.576 106.147C87.576 106.689 87.9288 107.132 88.5866 107.132ZM88.5866 104.988C89.3145 104.988 89.7593 105.505 89.7593 106.145C89.7593 106.775 89.3147 107.299 88.5866 107.299C87.8542 107.299 87.4058 106.775 87.4058 106.145C87.4058 105.505 87.8542 104.988 88.5866 104.988ZM51.1391 113.298H49.1065V110.757H47.1448V117.074H49.1065V114.35H51.1391V117.074H53.1027V110.756H51.1391V113.298ZM87.2266 116.022V110.756H85.2644V117.073H90.0349V116.022H87.2266ZM98.3821 110.756V111.81H100.168V117.074H102.129V111.81H103.916V110.756L98.3821 110.756ZM40.0664 112.072C40.0664 111.282 40.552 110.756 41.2803 110.756H45.2153V111.809H42.3942C42.1749 111.809 42.0306 111.969 42.0306 112.205V115.625C42.0306 115.863 42.1747 116.022 42.3942 116.022H45.2153V117.073H41.2803C40.552 117.073 40.0664 116.546 40.0664 115.758V112.072ZM74.1965 114.511L75.8927 117.073H73.8069L72.3051 114.468V113.644H73.1158C73.3342 113.644 73.4796 113.484 73.4796 113.248V112.204C73.4796 111.968 73.3342 111.81 73.1158 111.81H71.743V117.073H69.7799V110.756H74.229C74.9593 110.756 75.4425 111.282 75.4425 112.072L75.4443 113.348C75.4445 114.044 75.0171 114.511 74.3726 114.511H74.1965ZM80.9991 116.022C81.2162 116.022 81.3621 115.863 81.3621 115.627V112.204C81.3621 111.969 81.2162 111.809 80.9991 111.809H79.6303C79.4121 111.809 79.2655 111.969 79.2655 112.204V115.627C79.2655 115.863 79.4121 116.022 79.6303 116.022H80.9991ZM77.3033 112.072C77.3033 111.282 77.7871 110.756 78.5157 110.756H82.1115C82.8391 110.756 83.3258 111.282 83.3258 112.072V115.758C83.3258 116.546 82.8391 117.073 82.1115 117.073H78.5157C77.7871 117.073 77.3033 116.546 77.3033 115.758V112.072ZM61.8346 110.756H63.9393L65.1953 115.64C65.1986 115.66 65.2093 115.679 65.2253 115.692C65.2414 115.705 65.2617 115.712 65.2824 115.711C65.3269 115.711 65.3617 115.684 65.3699 115.64L66.5911 110.756H68.2382L66.7168 116.177C66.5325 116.794 66.1998 117.073 65.5011 117.073H64.5214C64.0721 117.073 63.7058 116.846 63.4856 116.173L61.8346 110.756ZM57.0488 115.822C57.0488 115.944 57.1212 116.021 57.2316 116.021H60.4568V117.073H56.299C55.5712 117.073 55.0859 116.546 55.0859 115.759V112.072C55.0859 111.283 55.5712 110.756 56.299 110.756H60.4568V111.81H57.2314C57.1211 111.81 57.0485 111.889 57.0485 112.008V113.296H60.0863V114.35H57.0488V115.822ZM93.365 115.822C93.365 115.944 93.4369 116.021 93.5452 116.021H96.772V117.073H92.6137C91.8862 117.073 91.3982 116.546 91.3982 115.759V112.072C91.3982 111.283 91.886 110.756 92.6137 110.756H96.7718V111.81H93.5452C93.4369 111.81 93.365 111.888 93.365 112.008V113.296H96.4006V114.35H93.365V115.822Z" fill="black"/>
<defs>
<linearGradient id="paint0_linear" x1="43.4288" y1="89.4082" x2="43.391" y2="103.651" gradientUnits="userSpaceOnUse">
<stop stop-color="#C7D6EE"/>
<stop offset="0.185" stop-color="#91AFC8"/>
<stop offset="1" stop-color="#002334"/>
</linearGradient>
<linearGradient id="paint1_linear" x1="-37251.2" y1="13362.6" x2="-37242.4" y2="13353.7" gradientUnits="userSpaceOnUse">
<stop stop-color="#E1E8F5"/>
<stop offset="0.899" stop-color="#92A5C1"/>
<stop offset="0.955" stop-color="#476886"/>
<stop offset="1" stop-color="#E1E8F5"/>
</linearGradient>
<linearGradient id="paint2_linear" x1="62.2954" y1="85.2952" x2="71.2462" y2="76.1819" gradientUnits="userSpaceOnUse">
<stop stop-color="#E1E8F5"/>
<stop offset="0.039" stop-color="#476886"/>
<stop offset="0.09" stop-color="#92A5C1"/>
<stop offset="1" stop-color="#E1E8F5"/>
</linearGradient>
<linearGradient id="paint3_linear" x1="57.8814" y1="85.6335" x2="60.7994" y2="82.863" gradientUnits="userSpaceOnUse">
<stop stop-color="#E1E8F5"/>
<stop offset="0.157" stop-color="#C7D6EE"/>
<stop offset="1" stop-color="#E1E8F5"/>
</linearGradient>
<linearGradient id="paint4_linear" x1="86.3809" y1="85.7185" x2="83.2912" y2="82.7849" gradientUnits="userSpaceOnUse">
<stop stop-color="#E1E8F5"/>
<stop offset="0.157" stop-color="#C7D6EE"/>
<stop offset="1" stop-color="#E1E8F5"/>
</linearGradient>
<linearGradient id="paint5_linear" x1="47.3314" y1="91.2789" x2="57.3705" y2="81.0576" gradientUnits="userSpaceOnUse">
<stop stop-color="#476886"/>
<stop offset="0.129" stop-color="#92A5C1"/>
<stop offset="1" stop-color="#E1E8F5"/>
</linearGradient>
<linearGradient id="paint6_linear" x1="37.6673" y1="101.982" x2="36.4968" y2="100.28" gradientUnits="userSpaceOnUse">
<stop stop-color="#002334"/>
<stop offset="0.107" stop-color="white"/>
<stop offset="0.185" stop-color="#91AFC8"/>
<stop offset="0.242" stop-color="#002334"/>
<stop offset="0.534" stop-color="#5E738F"/>
<stop offset="0.758" stop-color="#002334"/>
<stop offset="1" stop-color="#002334"/>
</linearGradient>
<linearGradient id="paint7_linear" x1="44.1164" y1="93.0206" x2="34.96" y2="97.765" gradientUnits="userSpaceOnUse">
<stop stop-color="#91AFC8"/>
<stop offset="1" stop-color="#002334"/>
</linearGradient>
<linearGradient id="paint8_linear" x1="47.8863" y1="103.802" x2="47.2032" y2="99.8578" gradientUnits="userSpaceOnUse">
<stop stop-color="#A5B9CC"/>
<stop offset="1" stop-color="#002334"/>
</linearGradient>
<linearGradient id="paint9_linear" x1="58.5649" y1="105.026" x2="59.7402" y2="105.026" gradientUnits="userSpaceOnUse">
<stop stop-color="#5E738F"/>
<stop offset="0.489" stop-color="#91AFC8"/>
<stop offset="1" stop-color="#91AFC8"/>
</linearGradient>
<linearGradient id="paint10_linear" x1="85.2566" y1="104.926" x2="83.8014" y2="104.926" gradientUnits="userSpaceOnUse">
<stop stop-color="#5E738F"/>
<stop offset="0.32" stop-color="#91AFC8"/>
<stop offset="1" stop-color="#91AFC8"/>
</linearGradient>
<linearGradient id="paint11_linear" x1="77.0128" y1="110.055" x2="80.8861" y2="103.224" gradientUnits="userSpaceOnUse">
<stop stop-color="#A5B9CC"/>
<stop offset="1" stop-color="#002334"/>
</linearGradient>
<linearGradient id="paint12_linear" x1="64.3701" y1="105.229" x2="68.2747" y2="112.114" gradientUnits="userSpaceOnUse">
<stop stop-color="#002334"/>
<stop offset="0.775" stop-color="#A5B9CC"/>
<stop offset="1" stop-color="#A5B9CC"/>
</linearGradient>
<linearGradient id="paint13_linear" x1="52.3168" y1="85.6906" x2="69.7508" y2="116.435" gradientUnits="userSpaceOnUse">
<stop stop-color="#FFEFCF"/>
<stop offset="0.461" stop-color="#FFE4A6"/>
<stop offset="1" stop-color="#BC956E"/>
</linearGradient>
<linearGradient id="paint14_linear" x1="89.9532" y1="105.22" x2="94.8775" y2="99.631" gradientUnits="userSpaceOnUse">
<stop stop-color="#5E738F"/>
<stop offset="0.607" stop-color="#91AFC8"/>
<stop offset="1" stop-color="#C7DFF4"/>
</linearGradient>
<linearGradient id="paint15_linear" x1="93.7496" y1="82.5909" x2="100.242" y2="94.04" gradientUnits="userSpaceOnUse">
<stop stop-color="#E1E8F5"/>
<stop offset="0.815" stop-color="#7F97B4"/>
<stop offset="0.904" stop-color="#476886"/>
<stop offset="1" stop-color="#002334"/>
</linearGradient>
<linearGradient id="paint16_linear" x1="99.6292" y1="102.155" x2="110.199" y2="83.5153" gradientUnits="userSpaceOnUse">
<stop stop-color="#8CA0B5"/>
<stop offset="0.14" stop-color="#E1E8F5"/>
<stop offset="0.815" stop-color="#7F97B4"/>
<stop offset="0.904" stop-color="#476886"/>
<stop offset="1" stop-color="#002334"/>
</linearGradient>
<linearGradient id="paint17_linear" x1="96.7597" y1="102.373" x2="100.575" y2="100.131" gradientUnits="userSpaceOnUse">
<stop stop-color="#002334"/>
<stop offset="0.815" stop-color="#A5B9CC"/>
<stop offset="0.888" stop-color="#002334"/>
<stop offset="1" stop-color="#002334"/>
</linearGradient>
<linearGradient id="paint18_linear" x1="44.3904" y1="96.1179" x2="56.7585" y2="108.71" gradientUnits="userSpaceOnUse">
<stop stop-color="#D4BC7B"/>
<stop offset="0.332" stop-color="#7F5F39"/>
<stop offset="1" stop-color="#D4BC7B"/>
</linearGradient>
<linearGradient id="paint19_linear" x1="94.8032" y1="97.4571" x2="85.969" y2="106.451" gradientUnits="userSpaceOnUse">
<stop stop-color="#D4BC7B"/>
<stop offset="0.332" stop-color="#7F5F39"/>
<stop offset="1" stop-color="#D4BC7B"/>
</linearGradient>
<linearGradient id="paint20_linear" x1="100.472" y1="82.9431" x2="86.1929" y2="97.4804" gradientUnits="userSpaceOnUse">
<stop stop-color="#D4BC7B"/>
<stop offset="0.332" stop-color="#7F5F39"/>
<stop offset="1" stop-color="#D4BC7B"/>
</linearGradient>
<linearGradient id="paint21_linear" x1="59.715" y1="103.58" x2="61.6142" y2="103.58" gradientUnits="userSpaceOnUse">
<stop stop-color="#D3BD8B"/>
<stop offset="1" stop-color="#7F5F39"/>
</linearGradient>
<linearGradient id="paint22_linear" x1="84.0924" y1="103.559" x2="82.1929" y2="103.559" gradientUnits="userSpaceOnUse">
<stop stop-color="#D3BD8B"/>
<stop offset="1" stop-color="#7F5F39"/>
</linearGradient>
<linearGradient id="paint23_linear" x1="64.9961" y1="104.165" x2="68.4316" y2="110.224" gradientUnits="userSpaceOnUse">
<stop stop-color="#7F5F39"/>
<stop offset="0.646" stop-color="#D3BD8B"/>
<stop offset="0.888" stop-color="#FFE4A6"/>
<stop offset="1" stop-color="#FFE4A6"/>
</linearGradient>
<linearGradient id="paint24_linear" x1="78.8096" y1="104.17" x2="75.0562" y2="110.789" gradientUnits="userSpaceOnUse">
<stop stop-color="#7F5F39"/>
<stop offset="0.455" stop-color="#D3BD8B"/>
<stop offset="0.888" stop-color="#FFE4A6"/>
<stop offset="1" stop-color="#FFE4A6"/>
</linearGradient>
<linearGradient id="paint25_linear" x1="63.0822" y1="85.9481" x2="71.087" y2="77.7978" gradientUnits="userSpaceOnUse">
<stop stop-color="#D4BC7B"/>
<stop offset="0.039" stop-color="#7F5F39"/>
<stop offset="0.107" stop-color="#D1AC75"/>
<stop offset="1" stop-color="#D4BC7B"/>
</linearGradient>
<linearGradient id="paint26_linear" x1="80.7809" y1="86.0595" x2="72.6363" y2="77.7668" gradientUnits="userSpaceOnUse">
<stop stop-color="#D4BC7B"/>
<stop offset="0.039" stop-color="#7F5F39"/>
<stop offset="0.107" stop-color="#D1AC75"/>
<stop offset="1" stop-color="#D4BC7B"/>
</linearGradient>
<linearGradient id="paint27_linear" x1="59.0209" y1="86.9459" x2="62.0012" y2="84.1163" gradientUnits="userSpaceOnUse">
<stop stop-color="#FFE292"/>
<stop offset="0.157" stop-color="#D1AC75"/>
<stop offset="1" stop-color="#FFE292"/>
</linearGradient>
<linearGradient id="paint28_linear" x1="84.9064" y1="86.9221" x2="81.7995" y2="83.9722" gradientUnits="userSpaceOnUse">
<stop stop-color="#FFE292"/>
<stop offset="0.157" stop-color="#D1AC75"/>
<stop offset="1" stop-color="#FFE292"/>
</linearGradient>
<linearGradient id="paint29_linear" x1="48.6841" y1="92.3309" x2="57.9735" y2="82.8727" gradientUnits="userSpaceOnUse">
<stop stop-color="#7F5F39"/>
<stop offset="1" stop-color="#BD9B6A"/>
</linearGradient>
<linearGradient id="paint30_linear" x1="100.175" y1="93.6225" x2="104.127" y2="97.6465" gradientUnits="userSpaceOnUse">
<stop stop-color="#7F5F39"/>
<stop offset="1" stop-color="#D4BC7B"/>
</linearGradient>
<linearGradient id="paint31_linear" x1="99.1876" y1="101.135" x2="107.828" y2="84.1905" gradientUnits="userSpaceOnUse">
<stop stop-color="#A78A5E"/>
<stop offset="0.764" stop-color="#7F5F39"/>
<stop offset="0.916" stop-color="#674C2B"/>
<stop offset="1" stop-color="#674C2B"/>
</linearGradient>
<linearGradient id="paint32_linear" x1="93.5396" y1="104.054" x2="68.8035" y2="74.0399" gradientUnits="userSpaceOnUse">
<stop stop-color="#FFEFCF"/>
<stop offset="0.461" stop-color="#FFE4A6"/>
<stop offset="1" stop-color="#BC956E"/>
</linearGradient>
<linearGradient id="paint33_linear" x1="37.454" y1="99.9913" x2="46.0315" y2="91.2581" gradientUnits="userSpaceOnUse">
<stop stop-color="#7F5F39"/>
<stop offset="1" stop-color="#E9CF98"/>
</linearGradient>
<linearGradient id="paint34_linear" x1="36.2858" y1="99.5809" x2="47.8252" y2="87.832" gradientUnits="userSpaceOnUse">
<stop stop-color="#7F5F39"/>
<stop offset="1" stop-color="#E4CB90"/>
</linearGradient>
</defs>
</svg>
