<svg width="150" height="150" viewBox="0 0 150 150" fill="none" xmlns="http://www.w3.org/2000/svg">
<path fill-rule="evenodd" clip-rule="evenodd" d="M0 0H150V150H0V0Z" fill="white"/>
<path fill-rule="evenodd" clip-rule="evenodd" d="M49.757 74.1909L60.1777 58.9393C60.5769 58.3401 60.0975 57.6615 59.2594 57.6615L51.2145 57.6016C50.6153 57.6016 49.4177 58.3603 48.8987 59.0186L45.2661 63.75L40.2157 70.3576L40.2554 58.9385C40.2554 58.1603 39.4367 57.6607 38.9379 57.6607H29.7141C29.0752 57.6607 28.4962 57.9004 28.4768 59.0778C28.4573 60.2357 29.8938 60.4754 29.8938 60.7945V91.318C29.8938 91.897 30.6922 92.7748 31.2518 92.7748L39.1566 92.7351C39.7161 92.7149 40.1947 91.9164 40.1947 91.3772L40.2141 78.6608L45.2645 84.9089L50.6146 91.497C51.0535 92.0161 51.9118 92.7351 52.8106 92.7351L61.3948 92.6752C62.2134 92.6752 62.1333 91.6768 61.934 91.4176C57.8529 85.691 53.7939 79.9488 49.757 74.1909V74.1909ZM79.3809 57.6623H70.2583C69.1805 57.6623 68.9408 58.3011 68.7611 58.9797C68.9603 60.217 70.2583 60.5563 70.2583 60.5766V91.3787C70.2583 92.1974 70.7579 92.7366 71.4567 92.7366L74.7305 92.7164L79.6012 92.6767C80.4992 92.6767 80.7381 92.1382 80.7381 91.3787V58.9393C80.7381 58.1611 80.0798 57.6623 79.3809 57.6623V57.6623Z" fill="#CC2229"/>
<path fill-rule="evenodd" clip-rule="evenodd" d="M107.147 41.9322C97.4453 39.477 86.5266 38.0996 74.9876 38.0996C74.9075 38.0996 74.8273 38.1191 74.7285 38.1191C64.2681 38.1191 54.2863 39.277 45.2633 41.333C19.9302 47.1227 2.20312 60.0585 2.20312 75.0105C2.20312 89.9634 19.9302 102.898 45.2625 108.687C54.2855 110.744 64.2666 111.901 74.7277 111.901H74.9868C86.5258 111.901 97.4445 110.544 107.146 108.089C131.201 102.06 147.791 89.484 147.791 75.0105C147.792 60.5378 131.203 47.9608 107.147 41.9322V41.9322ZM107.147 100.044C97.5854 102.26 86.6254 103.518 74.9876 103.518C74.9075 103.518 74.8273 103.498 74.7285 103.498C64.188 103.498 54.1867 102.44 45.2633 100.583C22.9247 95.9321 7.51347 86.2102 7.51347 75.0113C7.51347 63.8124 22.9247 54.0906 45.2633 49.4393C54.1867 47.5826 64.188 46.5242 74.7285 46.5048H74.9876C86.6254 46.5048 97.5854 47.7623 107.147 49.9778C128.167 54.8088 142.481 64.2311 142.481 75.0105C142.481 85.79 128.167 95.213 107.147 100.044Z" fill="#CC2229"/>
<path fill-rule="evenodd" clip-rule="evenodd" d="M113.438 58.9796C113.14 58.3002 112.62 57.6621 111.941 57.6621H99.6039C99.165 57.6621 98.5658 58.0216 98.5658 58.6201C98.5464 60.3764 100.384 60.3173 100.283 60.5764L89.8828 91.2587C89.7038 91.7778 90.1622 92.7357 90.8011 92.7357L98.0476 92.6758C98.6857 92.6758 99.5845 92.1373 99.8444 91.3583L103.278 81.0583C104.436 77.6241 105.594 74.1908 106.731 70.7574C106.792 70.6181 106.972 70.538 107.151 70.538C107.43 70.538 107.73 70.6376 107.789 70.8376L114.517 91.479C114.657 91.9381 115.595 92.6766 116.093 92.6766L123.639 92.7365C124.078 92.7365 124.598 91.8579 124.458 91.4587L113.438 58.9796V58.9796Z" fill="#CC2229"/>
</svg>
