<svg width="150" height="129" viewBox="0 0 150 129" fill="none" xmlns="http://www.w3.org/2000/svg">
<g clip-path="url(#clip0)">
<path d="M144.839 48.6776C143.453 48.2906 141.91 48.1076 138.659 47.7063C125.202 47.1543 91.947 45.8613 75.0007 45.8613C58.0552 45.8613 24.7995 47.1536 11.3445 47.7063C8.09175 48.1076 6.54675 48.2906 5.1615 48.6776C0.93075 49.6751 0 51.1938 0 54.2238V74.9905C0 78.0213 3.24675 80.0635 5.48475 80.4753C7.72425 80.89 9.141 81.0558 11.4968 81.28C23.532 82.0255 51.4545 83.5795 75 83.6043C98.5463 83.5818 126.467 82.0263 138.503 81.28C140.858 81.0558 142.276 80.8893 144.516 80.4753C146.753 80.0628 150 78.0213 150 74.9905V54.2238C150 51.1938 149.07 49.6751 144.839 48.6776Z" fill="url(#paint0_linear)"/>
<path d="M21.0383 49.4939C27.6593 26.4614 49.4145 9.56161 75.2393 9.56161C100.99 9.56161 122.701 26.3684 129.386 49.3086C129.407 49.3896 129.422 49.4316 129.445 49.5096C133.283 49.0784 136.722 48.4124 139.152 47.7636C139.108 47.6159 139.097 47.5859 139.058 47.4404C131.46 20.1141 105.767 0.00585938 75.2393 0.00585938C44.6093 0.00585938 18.8483 20.2446 11.3438 47.7059C14.7195 48.6306 17.1923 49.0184 21.0383 49.4939Z" fill="url(#paint1_radial)"/>
<path d="M129.227 79.6836C129.16 79.8883 129.086 80.1141 129.051 80.2258C122.011 102.615 100.583 118.899 75.2386 118.899C49.6936 118.899 28.1311 102.364 21.2618 79.7053C17.0633 80.4486 15.6451 80.7313 11.4961 81.2833C19.1836 108.476 44.8066 128.455 75.2386 128.455C105.683 128.455 131.315 108.455 138.989 81.2398C135.333 80.7883 133.18 80.4471 129.227 79.6836V79.6836Z" fill="url(#paint2_radial)"/>
<path d="M22.3907 49.4457C23.9845 48.7872 25.5265 47.7372 27.9302 47.0615C35.0965 28.4427 53.572 15.1842 75.2395 15.1842C96.8395 15.1842 115.269 28.361 122.48 46.8897C122.506 46.9527 122.532 47.0292 122.552 47.0765C123.793 47.5062 127.448 48.9882 128.585 49.484C128.746 49.4877 129.09 49.4997 129.446 49.5095C129.425 49.4429 129.405 49.3758 129.387 49.3085C122.699 26.3757 100.988 9.57422 75.2395 9.57422C49.4215 9.57422 27.6662 26.4665 21.043 49.4945C21.4255 49.4952 22.1537 49.4622 22.3907 49.4457V49.4457Z" fill="url(#paint3_radial)"/>
<path d="M74.8269 11.1324C98.9866 11.1324 120.403 25.5384 128.515 49.2842L128.581 49.4859C128.707 49.4859 129.167 49.5024 129.442 49.5114C129.42 49.4252 129.398 49.3749 129.383 49.3104C122.695 26.3777 100.985 9.57617 75.2356 9.57617C49.4176 9.57617 27.6623 26.4684 21.0391 49.4964C21.5551 49.4882 21.8033 49.4882 22.3883 49.4469C29.6408 26.9034 50.8448 11.1324 74.8269 11.1324V11.1324Z" fill="white"/>
<path d="M127.857 79.7481C126.121 80.7178 123.96 81.6508 122.233 82.1961C122.21 82.2516 122.112 82.4976 122.091 82.5553C114.619 100.572 96.4565 113.29 75.2375 113.29C53.885 113.29 35.6293 100.417 28.2448 82.2223C26.2581 81.6711 23.2881 80.3166 22.1638 79.7511C21.7431 79.7308 21.5166 79.7188 21.2578 79.7053C28.1271 102.361 49.6933 118.899 75.2383 118.899C100.668 118.899 122.151 102.512 129.12 80.0166C129.135 79.9731 129.213 79.7256 129.229 79.6836C128.826 79.6993 128.211 79.7481 127.857 79.7481V79.7481Z" fill="url(#paint4_radial)"/>
<path d="M143.637 50.1836C140.073 49.7501 137.643 49.7966 128.961 49.4973C128.566 49.4831 128.165 49.4711 127.758 49.4568C112.015 48.9168 88.368 48.1953 75 48.1953C61.6328 48.1953 37.986 48.9168 22.2412 49.4568C21.8347 49.4711 21.435 49.4831 21.0413 49.4973C12.3578 49.7966 9.9285 49.7501 6.36375 50.1836C2.79975 50.6208 0 52.1816 0 54.8358V74.0936C0 76.7493 3.37275 78.8996 6.363 78.8996C6.363 78.8996 44.4225 81.2493 75 81.2771C105.578 81.2493 143.637 78.8996 143.637 78.8996C146.627 78.8996 150 76.7493 150 74.0936V54.8358C150 52.1816 147.201 50.6208 143.637 50.1836V50.1836Z" fill="url(#paint5_radial)"/>
<path d="M127.86 79.7491C120.391 101.906 99.385 117.341 75.6572 117.341C51.6879 117.341 30.4194 103.162 22.1649 79.7491C21.8619 79.7334 21.5619 79.7214 21.2656 79.7041C28.1334 102.36 49.7034 118.898 75.2492 118.898C100.803 118.898 122.375 102.35 129.237 79.6816C128.786 79.7026 128.328 79.7274 127.86 79.7491V79.7491Z" fill="white"/>
<path d="M127.901 79.7461L127.855 79.7476C126.12 80.7174 123.96 81.6504 122.232 82.1956C122.208 82.2511 122.11 82.4971 122.09 82.5549C119.726 88.2564 116.291 93.4269 112.023 97.8332C118.703 92.9499 124.151 86.7804 127.901 79.7461V79.7461Z" fill="#8C8C8C"/>
<path d="M39.8926 99.2667C34.8691 94.4817 30.8701 88.6895 28.2451 82.2208C26.2583 81.6688 23.2891 80.3135 22.1641 79.748C23.3662 82.2402 24.7836 84.6228 26.4001 86.8685C29.7068 91.175 33.7148 95.0135 38.2771 98.2617C38.8081 98.6097 39.3466 98.9442 39.8926 99.2667V99.2667Z" fill="#4D4D4D"/>
<path d="M21.2611 79.7066V79.7051L21.2439 79.7081C17.0589 80.4498 15.6391 80.7341 11.4961 81.2831C11.8298 82.4681 12.1996 83.6359 12.6023 84.7916L21.2611 79.7066Z" fill="#252525"/>
<path d="M105.48 58.7108C104.229 55.9148 104.673 56.2081 101.95 56.1361C101.728 56.0611 101.138 56.0611 100.33 56.0611C99.5228 56.0611 99.3742 56.0611 98.7112 56.1361C96.1372 56.1361 96.5782 55.9891 95.6962 57.8281C95.6962 57.8281 91.278 67.7595 89.367 71.8793L89.2935 72.0263C88.926 72.7605 89.1472 72.7605 89.7345 72.7605H93.7087C94.0042 72.7605 94.1498 72.6165 94.2233 72.4665C94.2233 72.4665 94.812 71.2155 95.5477 69.4508H105.26C105.996 71.1435 106.51 72.393 106.51 72.4665C106.584 72.6878 106.805 72.7605 107.025 72.7605H111.145C111.734 72.7605 111.882 72.8378 111.661 72.3195C110.924 70.5548 106.142 60.2536 105.48 58.7108V58.7108ZM97.0178 65.9198C98.2688 62.9775 99.5212 60.1088 99.5212 60.0346C99.5955 59.8868 99.7425 59.8133 99.9622 59.8133C100.036 59.7383 100.259 59.7383 100.478 59.7383C100.626 59.7383 100.845 59.7383 100.919 59.8133C101.065 59.8133 101.215 59.8868 101.286 60.1081C101.583 60.9158 102.684 63.4185 103.714 65.9198H97.0178V65.9198ZM44.0437 55.9141C44.4112 55.9141 44.4855 56.0603 44.4855 56.3551V72.1013C44.4855 72.4673 44.4112 72.6173 43.971 72.6173H40.1445C39.7043 72.6173 39.6308 72.5423 39.6308 72.1013V56.3551C39.6308 56.0603 39.7043 55.9141 39.9975 55.9141H44.0437V55.9141ZM35.877 56.0603C36.3173 56.0603 36.393 56.2066 36.393 56.5763V72.2483C36.393 72.6908 36.3173 72.7643 35.877 72.7643H31.3882C28.7407 72.7643 28.5195 72.7643 27.6375 71.2943C25.7978 68.4255 20.2785 59.9641 20.2785 59.9641V72.2498C20.2785 72.693 20.205 72.765 19.7648 72.765H16.4528C16.0118 72.765 15.9375 72.693 15.9375 72.2498V56.5763C15.9375 56.2081 16.0118 56.0603 16.4528 56.0603H20.2785C23.148 56.0603 23.5155 55.9876 24.5475 57.4591C25.356 58.7843 32.0512 69.084 32.0512 69.084V56.5763C32.0512 56.2081 32.1247 56.0603 32.5672 56.0603H35.877V56.0603ZM134.1 56.0603C134.544 56.0603 134.616 56.2066 134.616 56.5763V72.2483C134.616 72.6908 134.543 72.7643 134.1 72.7643H129.616C126.964 72.7643 126.743 72.7643 125.861 71.2943C124.02 68.4233 118.502 59.9626 118.502 59.9626V72.249C118.502 72.6915 118.429 72.7635 117.986 72.7635H114.677C114.236 72.7635 114.161 72.6915 114.161 72.249V56.5763C114.161 56.2081 114.237 56.0603 114.677 56.0603H118.502C121.372 56.0603 121.741 55.9876 122.769 57.4591C123.653 58.7843 130.275 69.084 130.275 69.084V56.5763C130.275 56.2081 130.349 56.0603 130.791 56.0603H134.1V56.0603ZM60.8933 62.4638C63.837 62.7571 65.9715 63.2715 66.5595 66.0683C66.5595 66.2873 66.6338 67.0238 66.6338 67.8338C66.6338 68.3498 66.6337 69.0098 66.486 69.5993C65.9722 72.2475 63.984 72.762 60.8955 72.762H48.5325C48.0907 72.762 48.0165 72.69 48.0165 72.2475V69.5993C48.0165 69.1568 48.0907 69.0833 48.5325 69.0833H61.0388C61.5548 69.0833 61.7017 68.937 61.7745 68.5673V67.905V67.464C61.7002 67.1685 61.6275 66.7275 60.966 66.6555C59.5673 66.582 55.4482 66.213 52.6507 65.9198C49.0455 65.5515 48.1635 64.008 48.0157 62.6828C47.9422 62.2403 47.9422 61.6523 47.9422 61.1371C47.9422 60.6953 47.9422 60.0338 48.0157 59.5178C48.5317 57.1621 50.298 56.0603 53.3865 56.0603H65.379C65.8222 56.0603 65.97 56.1353 65.97 56.5021V59.2253C65.97 59.5906 65.8222 59.7391 65.379 59.6656H53.6077C53.0925 59.6656 52.8727 59.8861 52.7977 60.4005V61.0628C52.7977 61.4311 53.019 61.7258 53.5335 61.7971C54.9345 61.9471 59.274 62.3146 60.8933 62.4638V62.4638ZM82.155 62.4638C85.101 62.7571 87.2333 63.2715 87.8228 66.0683C87.8228 66.2873 87.8962 67.0238 87.8962 67.8338C87.8962 68.3498 87.8963 69.0098 87.7493 69.5993C87.2355 72.2475 85.2495 72.762 82.158 72.762H69.7957C69.354 72.762 69.2798 72.69 69.2798 72.2475V69.5993C69.2798 69.1568 69.354 69.0833 69.7957 69.0833H82.3042C82.8187 69.0833 82.9635 68.937 83.0393 68.5673V67.905V67.464C82.9628 67.1685 82.8172 66.7275 82.2292 66.6555C80.832 66.582 76.7115 66.213 73.9163 65.9198C70.3095 65.5515 69.5018 64.008 69.2798 62.6828C69.2063 62.2403 69.2063 61.6523 69.2063 61.1371C69.2063 60.6953 69.2063 60.0338 69.2798 59.5178C69.7958 57.1621 71.5612 56.0603 74.6505 56.0603H86.6453C87.0848 56.0603 87.234 56.1353 87.234 56.5021V59.2253C87.234 59.5906 87.0848 59.7391 86.6453 59.6656H74.8717C74.3572 59.6656 74.1375 59.8861 74.0625 60.4005V61.0628C74.0625 61.4311 74.2103 61.7258 74.7998 61.7971C76.1978 61.9471 80.5373 62.3146 82.155 62.4638V62.4638Z" fill="url(#paint6_radial)"/>
</g>
<defs>
<linearGradient id="paint0_linear" x1="75" y1="1.90239" x2="75" y2="106.453" gradientUnits="userSpaceOnUse">
<stop offset="0.194" stop-color="white"/>
<stop offset="0.208" stop-color="#F8F8F8"/>
<stop offset="0.366" stop-color="#AEAEAE"/>
<stop offset="0.513" stop-color="#707070"/>
<stop offset="0.647" stop-color="#404040"/>
<stop offset="0.764" stop-color="#1D1D1D"/>
<stop offset="0.86" stop-color="#080808"/>
<stop offset="0.922"/>
</linearGradient>
<radialGradient id="paint1_radial" cx="0" cy="0" r="1" gradientUnits="userSpaceOnUse" gradientTransform="translate(32.8935 -25.8159) scale(104.597)">
<stop offset="0.202" stop-color="white"/>
<stop offset="0.382" stop-color="#FDFDFD"/>
<stop offset="0.487" stop-color="#F4F4F4"/>
<stop offset="0.573" stop-color="#E6E6E6"/>
<stop offset="0.648" stop-color="#D2D2D2"/>
<stop offset="0.689" stop-color="#C4C4C4"/>
<stop offset="1" stop-color="#333333"/>
</radialGradient>
<radialGradient id="paint2_radial" cx="0" cy="0" r="1" gradientUnits="userSpaceOnUse" gradientTransform="translate(286.024 141.724) scale(217.838)">
<stop offset="0.202" stop-color="white"/>
<stop offset="0.368" stop-color="#E4E4E4"/>
<stop offset="0.594" stop-color="#C4C4C4"/>
<stop offset="1" stop-color="#333333"/>
</radialGradient>
<radialGradient id="paint3_radial" cx="0" cy="0" r="1" gradientUnits="userSpaceOnUse" gradientTransform="translate(58.018 93.6522) scale(66.8767)">
<stop offset="0.202" stop-color="white"/>
<stop offset="0.368" stop-color="#E4E4E4"/>
<stop offset="0.594" stop-color="#C4C4C4"/>
<stop offset="1" stop-color="#333333"/>
</radialGradient>
<radialGradient id="paint4_radial" cx="0" cy="0" r="1" gradientUnits="userSpaceOnUse" gradientTransform="translate(111.983 162.036) scale(126.895)">
<stop offset="0.202" stop-color="white"/>
<stop offset="0.368" stop-color="#E4E4E4"/>
<stop offset="0.594" stop-color="#C4C4C4"/>
<stop offset="1" stop-color="#333333"/>
</radialGradient>
<radialGradient id="paint5_radial" cx="0" cy="0" r="1" gradientUnits="userSpaceOnUse" gradientTransform="translate(73.995 13.2408) scale(100.839)">
<stop offset="0.202" stop-color="white"/>
<stop offset="0.397" stop-color="#FDFDFD"/>
<stop offset="0.51" stop-color="#F4F4F4"/>
<stop offset="0.603" stop-color="#E6E6E6"/>
<stop offset="0.684" stop-color="#D2D2D2"/>
<stop offset="0.728" stop-color="#C4C4C4"/>
<stop offset="1" stop-color="#4D4D4D"/>
</radialGradient>
<radialGradient id="paint6_radial" cx="0" cy="0" r="1" gradientUnits="userSpaceOnUse" gradientTransform="translate(76.3328 23.3371) scale(67.9208 67.9206)">
<stop offset="0.111" stop-color="#4D4D4D"/>
<stop offset="0.248" stop-color="#494949"/>
<stop offset="0.355" stop-color="#404040"/>
<stop offset="0.451" stop-color="#2F2F2F"/>
<stop offset="0.541" stop-color="#181818"/>
<stop offset="0.611"/>
</radialGradient>
<clipPath id="clip0">
<rect width="150" height="128.46" fill="white"/>
</clipPath>
</defs>
</svg>
