<svg width="150" height="124" viewBox="0 0 150 124" fill="none" xmlns="http://www.w3.org/2000/svg">
<g clip-path="url(#clip0)">
<path d="M74.8219 110.359C74.7992 102.979 80.7465 97.0264 88.1749 97.0137C95.4213 97.0253 101.373 102.978 101.519 110.359C101.375 117.655 95.4229 123.608 88.1749 123.712C80.7465 123.608 74.7997 117.655 74.8219 110.359ZM88.1754 118.793C92.1855 118.731 95.5054 114.962 95.5467 110.359C95.5054 105.667 92.1855 101.898 88.1754 101.925C83.9918 101.897 80.6639 105.666 80.7962 110.359C80.6639 114.962 83.9918 118.73 88.1754 118.793ZM116.623 102.628V123.009H111.007V102.628H102.925V98.0683H124.354V102.628H116.623V102.628ZM131.024 117.381L128.921 123.009H122.252L132.787 98.0683H139.809L150 123.009H143.33L141.222 117.381H131.024V117.381ZM136.301 113.17H139.809L136.301 104.033L132.787 113.17H136.301ZM13.3472 102.628V123.009H7.72688V102.628H0V98.0683H21.0777V102.628H13.3472V102.628ZM22.4832 110.359C22.4943 102.979 28.4384 97.0264 35.8256 97.0137C43.1175 97.0253 49.0706 102.978 49.178 110.359C49.0706 117.655 43.1175 123.608 35.8256 123.712C28.4384 123.608 22.4938 117.655 22.4832 110.359ZM35.8256 118.793C39.8832 118.731 43.2006 114.962 43.2043 110.359C43.2 105.667 39.8832 101.898 35.8256 101.925C31.6833 101.897 28.3601 105.666 28.457 110.359C28.3601 114.962 31.6833 118.73 35.8256 118.793ZM61.8246 123.009H64.6318V113.521L74.4706 98.0683H68.1497L61.8246 108.602L55.8508 98.0683H49.1786L59.0173 113.521V123.009H61.8246Z" fill="#AB002F"/>
<path d="M4.52344 43.1671C4.52344 66.9648 35.4669 86.3269 73.5002 86.3269C111.533 86.3269 142.477 66.9648 142.477 43.1671C142.476 19.3673 111.533 0.0078125 73.4997 0.0078125C35.4664 0.0078125 4.52344 19.3673 4.52344 43.1671ZM6.6401 43.1671C6.6401 20.5389 36.6327 2.12818 73.5002 2.12818C110.367 2.12818 140.36 20.5389 140.36 43.1671C140.36 65.8001 110.367 84.2103 73.5002 84.2103C36.6327 84.2098 6.6401 65.8006 6.6401 43.1671V43.1671Z" fill="black"/>
<path d="M66.9816 7.85339C50.8378 8.83922 39.112 13.1181 37.1134 18.7553C36.9098 19.3233 36.805 19.9219 36.8033 20.5253C36.8033 21.4762 37.0721 22.4271 37.6055 23.3363C39.846 27.1537 46.8008 30.3017 56.6978 31.9902L57.7456 32.1617L57.9212 31.115C59.5458 21.2053 63.1118 13.4128 67.7087 9.73351L70.3133 7.64648L66.9816 7.85339V7.85339ZM39.4327 22.2689C39.0877 21.6821 38.9178 21.1032 38.9178 20.5327C38.9178 20.1729 38.9797 19.8215 39.1078 19.4638C40.6334 15.1575 50.9971 11.3962 64.2363 10.1828C60.4597 14.4547 57.5556 21.3387 56.0406 29.7021C47.4374 28.1104 41.2514 25.3693 39.4327 22.2689V22.2689ZM64.0299 31.7484L63.823 32.8999L64.9909 32.9888C67.7606 33.1957 70.6239 33.3073 73.4967 33.3073C76.3722 33.3073 79.2371 33.1957 82.0073 32.9888L83.1731 32.8999L82.9656 31.7484C81.3734 22.8066 77.8311 17.4652 73.4983 17.4652C69.1623 17.4652 65.6217 22.8066 64.0299 31.7484V31.7484ZM73.4988 19.5818C76.4611 19.5818 79.1959 24.0178 80.6368 30.9425C78.2942 31.0954 75.9081 31.1907 73.4967 31.1907C71.0885 31.1907 68.7014 31.0954 66.3615 30.9425C67.7981 24.0178 70.5371 19.5818 73.4988 19.5818V19.5818ZM79.2869 9.73457C83.8822 13.4139 87.4519 21.2074 89.0765 31.1161L89.25 32.1627L90.2962 31.9913C100.197 30.3027 107.156 27.1537 109.389 23.3368C110.257 21.8699 110.422 20.2856 109.885 18.7569C107.887 13.1202 96.1604 8.84134 80.0177 7.85445L76.6903 7.64754L79.2869 9.73457V9.73457ZM82.7656 10.1828C96.0011 11.3962 106.364 15.1643 107.886 19.4638C108.018 19.8215 108.08 20.1729 108.08 20.5327C108.08 21.1032 107.906 21.6821 107.569 22.2689C105.744 25.3688 99.5561 28.1104 90.9571 29.7021C89.4421 21.3392 86.5423 14.4553 82.7656 10.1828V10.1828ZM26.8983 22.9097C19.6429 28.9872 15.8086 36.2072 15.8086 43.7928C15.8086 61.6373 37.5679 76.7206 66.4197 78.8701L69.6423 79.1119L67.1885 77.0159C60.8676 71.6084 56.9423 58.7782 56.9423 43.5303L57.0084 39.9277L56.1237 39.7478C40.9477 37.0279 30.1511 30.6467 28.6139 23.5008L28.2461 21.7853L26.8983 22.9097V22.9097ZM17.9274 43.7928C17.9274 37.2882 21.1003 31.0457 27.0576 25.6238C29.8331 32.8443 40.2037 38.8593 54.8627 41.6581C54.8441 42.4847 54.8277 43.5303 54.8277 43.5303C54.8277 57.6685 58.1827 69.8785 63.7161 76.4661C37.4272 73.661 17.9274 59.9297 17.9274 43.7928V43.7928ZM63.1679 41.8856L63.1616 42.2698C63.1616 56.443 67.6055 67.1358 73.4988 67.1358C79.3901 67.1358 83.8345 56.443 83.8345 42.2698L83.8202 40.7405L82.6836 40.8379C79.6864 41.1004 76.6003 41.2305 73.4999 41.2305C70.3995 41.2305 67.3092 41.1004 64.3199 40.8379L63.179 40.7347L63.1679 41.8856V41.8856ZM81.7052 43.0218C81.5459 56.2091 77.3914 65.0208 73.4988 65.0208C69.6026 65.0208 65.4476 56.2091 65.2925 43.0218C67.9839 43.2202 70.7329 43.344 73.4988 43.344C76.269 43.344 79.0101 43.2202 81.7052 43.0218ZM118.38 23.5008C116.844 30.6467 106.046 37.0274 90.8746 39.7478L89.9856 39.9129L90.0559 43.5298C90.0559 58.7777 86.1285 71.6084 79.8097 77.0154L77.3559 79.1114L80.5743 78.8696C109.429 76.7201 131.189 61.6368 131.189 43.7922C131.189 36.2066 127.35 28.9867 120.095 22.9092L118.751 21.7847L118.38 23.5008V23.5008ZM119.936 25.6238C125.898 31.0457 129.073 37.2882 129.073 43.7928C129.073 59.9297 109.574 73.661 83.2826 76.4661C88.8161 69.8785 92.171 57.6685 92.171 43.5303C92.171 43.5303 92.1504 42.4841 92.1361 41.6581C106.79 38.8593 117.16 32.8438 119.936 25.6238V25.6238Z" fill="black"/>
<path d="M119.13 18.0526C119.227 18.3215 119.316 18.5956 119.386 18.8713C119.785 20.4566 119.702 22.0134 119.185 23.5306C126.069 29.2069 130.126 36.2078 130.126 43.7934C130.126 62.7269 104.772 78.0791 73.4982 78.0791C42.2224 78.0791 16.87 62.7269 16.87 43.7934C16.87 36.2141 20.9319 29.2074 27.8068 23.5306C27.2941 22.0134 27.2115 20.4566 27.6105 18.8713C27.6931 18.5704 27.8031 18.2778 27.9391 17.9971C18.5464 24.6889 12.8516 33.4588 12.8516 43.0637C12.8516 64.0356 40.002 81.035 73.4977 81.035C106.989 81.035 134.144 64.0356 134.144 43.0637C134.145 33.4789 128.473 24.7291 119.13 18.0526V18.0526Z" fill="url(#paint0_linear)"/>
<path d="M81.9253 31.9351C79.2524 32.1357 76.4352 32.2452 73.4978 32.2452C70.5625 32.2452 67.7473 32.1357 65.0745 31.9351H65.066L63.3193 33.2041C66.5419 33.485 69.945 33.6443 73.4994 33.6443C77.0543 33.6443 80.4568 33.485 83.6816 33.2041L81.9253 31.9351ZM112.903 18.6314C110.774 11.595 93.2251 6.42773 73.4999 6.42773C53.7779 6.42773 36.2291 11.5961 34.1003 18.6314C32.2525 24.7353 42.3394 30.3847 58.2536 32.6251L56.8708 30.9419C43.9973 28.7511 36.3456 24.0796 38.1109 19.1129C40.2503 13.0825 55.7898 8.71585 73.4983 8.71585C91.2063 8.71585 106.749 13.0836 108.887 19.1129C110.65 24.0802 103.002 28.7517 90.1252 30.9419L88.7473 32.6251C104.656 30.3847 114.749 24.7353 112.903 18.6314Z" fill="url(#paint1_linear)"/>
<path d="M65.0961 31.9353C66.5741 23.7226 69.7803 18.5902 73.4988 18.5902C77.2215 18.5902 80.4251 23.7226 81.9051 31.9353H81.9348L83.6636 33.1899C82.2041 22.3441 78.2068 15.4131 73.5014 15.4131C68.7929 15.4131 64.7972 22.3441 63.3398 33.1899L65.0681 31.9353H65.0961Z" fill="url(#paint2_linear)"/>
<path d="M84.1865 39.335L82.7726 41.8919C82.7726 42.0782 82.7811 42.2697 82.7811 42.4639C82.7811 56.0773 78.6181 66.3992 73.4984 66.3992C68.374 66.3992 64.2195 56.0762 64.2195 42.4639C64.2195 42.2491 64.2237 42.0358 64.228 41.83L62.8119 39.335C62.7703 40.3727 62.7496 41.4111 62.75 42.4496C62.75 57.8838 67.5622 69.5752 73.5005 69.5752C79.4389 69.5752 84.2553 57.8838 84.2553 42.4496C84.2532 41.4111 84.2303 40.3726 84.1865 39.335V39.335Z" fill="url(#paint3_linear)"/>
<path d="M58.2754 32.6316C60.3096 17.5567 66.3558 6.42676 73.4995 6.42676C65.8409 6.42676 59.3131 16.2872 56.8906 30.9716L58.2548 32.6316H58.2754Z" fill="url(#paint4_linear)"/>
<path d="M88.7261 32.6316H88.7404L90.1046 30.9716C87.6863 16.2872 81.1543 6.42676 73.5 6.42676C80.6437 6.42782 86.6942 17.5567 88.7261 32.6316Z" fill="url(#paint5_linear)"/>
<path d="M91.0551 40.7823L89.3189 38.709H89.3046C89.402 40.3563 89.4575 42.0306 89.4575 43.7313C89.4575 64.3338 82.3117 81.0348 73.5 81.0348C83.3801 81.0348 91.1112 65.5451 91.1112 43.7313C91.1112 42.7333 91.0905 41.7543 91.0551 40.7823V40.7823Z" fill="url(#paint6_linear)"/>
<path d="M57.5457 43.7313C57.5457 42.0306 57.6012 40.3563 57.6965 38.709H57.6848L55.9444 40.7759C55.9075 41.7606 55.8883 42.7459 55.8867 43.7313C55.8867 65.5451 63.6237 81.0349 73.5001 81.0349C64.6915 81.0349 57.5457 64.3334 57.5457 43.7313V43.7313Z" fill="url(#paint7_linear)"/>
<path d="M119.188 23.5306C121.819 25.7012 124.039 28.0697 125.775 30.5854C125.174 26.5845 123.583 22.7973 121.145 19.5682C120.488 19.0455 119.816 18.5405 119.131 18.0537C119.229 18.3225 119.318 18.5966 119.387 18.8723C119.787 20.4572 119.705 22.0134 119.188 23.5306ZM27.8099 23.5306C27.2972 22.0134 27.2146 20.4566 27.6136 18.8713C27.6962 18.5704 27.8062 18.2778 27.9422 17.9971C27.2364 18.5064 26.5411 19.0302 25.8568 19.5682C23.4229 22.7993 21.8316 26.5856 21.2266 30.5854C22.9628 28.0697 25.1784 25.7007 27.8099 23.5306Z" fill="#2D2F34"/>
<path d="M5.58203 43.1677C5.58203 19.9194 35.9879 1.06836 73.5005 1.06836C111.008 1.06836 141.414 19.9194 141.414 43.1677C141.414 66.4209 111.008 85.265 73.5005 85.265C35.9879 85.2645 5.58203 66.4214 5.58203 43.1677V43.1677ZM73.4999 81.0354C106.992 81.0354 134.146 64.0359 134.146 43.064C134.146 22.09 106.992 5.08473 73.4999 5.08473C40.0037 5.08473 12.8517 22.0911 12.8517 43.064C12.8517 64.0359 40.0043 81.0354 73.4999 81.0354Z" fill="url(#paint8_linear)"/>
<path d="M57.5469 43.7313C57.5469 23.3452 64.6928 6.42773 73.5002 6.42773C82.3119 6.42773 89.4583 23.3452 89.4583 43.7313C89.4583 64.3338 82.3119 81.0348 73.5002 81.0348C64.6885 81.0348 57.5469 64.3333 57.5469 43.7313V43.7313ZM73.5002 69.5752C79.4391 69.5752 84.2556 57.8838 84.2556 42.456C84.2556 26.445 79.4385 15.4135 73.5002 15.4135C67.5619 15.4135 62.7497 26.445 62.7497 42.456C62.7497 57.8838 67.5619 69.5752 73.5002 69.5752V69.5752Z" fill="url(#paint9_linear)"/>
<path d="M27.6129 18.8719C29.3633 11.9415 50.5331 1.85449 73.5 1.85449C96.4647 1.85449 116.907 9.06173 119.388 18.8719C122.164 29.868 101.762 39.8195 73.5 39.8195C45.2335 39.8195 24.8326 29.8685 27.6129 18.8719V18.8719ZM73.5 6.4286C53.778 6.4286 36.2293 11.597 34.1004 18.6322C31.715 26.5142 49.2309 33.6452 73.5 33.6452C97.7738 33.6452 115.287 26.5131 112.903 18.6322C110.774 11.5959 93.2262 6.4286 73.5 6.4286V6.4286Z" fill="url(#paint10_linear)"/>
<path d="M62.7878 39.3147L62.8 39.3232L64.2573 41.8923C67.2233 42.1458 70.3078 42.2908 73.4971 42.2908C76.7012 42.2908 79.7931 42.1463 82.7787 41.886L84.1968 39.3222L84.2053 39.3137C80.7948 39.6381 77.2187 39.818 73.4981 39.818C69.9221 39.82 66.3479 39.6521 62.7878 39.3147V39.3147ZM119.625 21.249C119.26 29.1114 107.175 36.0773 89.3102 38.7025L89.3165 38.7089L91.0591 40.7911C108.539 37.6489 120.038 29.9305 119.625 21.249V21.249ZM27.3702 21.249C26.9569 29.939 38.4551 37.6484 55.9319 40.7911L57.6787 38.7089L57.6829 38.7025C39.8151 36.0778 27.7379 29.1119 27.3702 21.249V21.249Z" fill="url(#paint11_linear)"/>
</g>
<defs>
<linearGradient id="paint0_linear" x1="73.4977" y1="76.3445" x2="73.4977" y2="28.373" gradientUnits="userSpaceOnUse">
<stop stop-color="#F0F3F5"/>
<stop offset="0.056" stop-color="#E2E5E8"/>
<stop offset="0.138" stop-color="#D4D8DD"/>
<stop offset="0.242" stop-color="#CCD0D6"/>
<stop offset="0.44" stop-color="#CACED4"/>
<stop offset="0.568" stop-color="#B3B7BD"/>
<stop offset="0.835" stop-color="#797C83"/>
<stop offset="1" stop-color="#52545C"/>
</linearGradient>
<linearGradient id="paint1_linear" x1="73.5015" y1="39.7932" x2="73.5015" y2="13.7985" gradientUnits="userSpaceOnUse">
<stop stop-color="#F0F3F5"/>
<stop offset="0.056" stop-color="#E2E5E8"/>
<stop offset="0.138" stop-color="#D4D8DD"/>
<stop offset="0.242" stop-color="#CCD0D6"/>
<stop offset="0.44" stop-color="#CACED4"/>
<stop offset="0.568" stop-color="#B3B7BD"/>
<stop offset="0.835" stop-color="#797C83"/>
<stop offset="1" stop-color="#52545C"/>
</linearGradient>
<linearGradient id="paint2_linear" x1="82.1311" y1="35.0155" x2="65.9" y2="21.3958" gradientUnits="userSpaceOnUse">
<stop stop-color="#F0F3F5"/>
<stop offset="0.056" stop-color="#E2E5E8"/>
<stop offset="0.138" stop-color="#D4D8DD"/>
<stop offset="0.242" stop-color="#CCD0D6"/>
<stop offset="0.44" stop-color="#CACED4"/>
<stop offset="0.568" stop-color="#B3B7BD"/>
<stop offset="0.835" stop-color="#797C83"/>
<stop offset="1" stop-color="#52545C"/>
</linearGradient>
<linearGradient id="paint3_linear" x1="83.7812" y1="57.6727" x2="60.1132" y2="44.008" gradientUnits="userSpaceOnUse">
<stop stop-color="#F0F3F5"/>
<stop offset="0.056" stop-color="#E2E5E8"/>
<stop offset="0.138" stop-color="#D4D8DD"/>
<stop offset="0.242" stop-color="#CCD0D6"/>
<stop offset="0.44" stop-color="#CACED4"/>
<stop offset="0.568" stop-color="#B3B7BD"/>
<stop offset="0.835" stop-color="#797C83"/>
<stop offset="1" stop-color="#52545C"/>
</linearGradient>
<linearGradient id="paint4_linear" x1="65.1953" y1="1.06419" x2="65.1953" y2="42.2947" gradientUnits="userSpaceOnUse">
<stop stop-color="#F0F3F5"/>
<stop offset="0.056" stop-color="#E2E5E8"/>
<stop offset="0.138" stop-color="#D4D8DD"/>
<stop offset="0.242" stop-color="#CCD0D6"/>
<stop offset="0.44" stop-color="#CACED4"/>
<stop offset="0.568" stop-color="#B3B7BD"/>
<stop offset="0.835" stop-color="#797C83"/>
<stop offset="1" stop-color="#52545C"/>
</linearGradient>
<linearGradient id="paint5_linear" x1="81.8026" y1="1.06419" x2="81.8026" y2="42.2947" gradientUnits="userSpaceOnUse">
<stop stop-color="#F0F3F5"/>
<stop offset="0.056" stop-color="#E2E5E8"/>
<stop offset="0.138" stop-color="#D4D8DD"/>
<stop offset="0.242" stop-color="#CCD0D6"/>
<stop offset="0.44" stop-color="#CACED4"/>
<stop offset="0.568" stop-color="#B3B7BD"/>
<stop offset="0.835" stop-color="#797C83"/>
<stop offset="1" stop-color="#52545C"/>
</linearGradient>
<linearGradient id="paint6_linear" x1="82.3053" y1="0.718051" x2="82.3053" y2="69.5276" gradientUnits="userSpaceOnUse">
<stop stop-color="#F0F3F5"/>
<stop offset="0.056" stop-color="#E2E5E8"/>
<stop offset="0.138" stop-color="#D4D8DD"/>
<stop offset="0.242" stop-color="#CCD0D6"/>
<stop offset="0.44" stop-color="#CACED4"/>
<stop offset="0.568" stop-color="#B3B7BD"/>
<stop offset="0.835" stop-color="#797C83"/>
<stop offset="1" stop-color="#52545C"/>
</linearGradient>
<linearGradient id="paint7_linear" x1="64.6931" y1="0.717463" x2="64.6931" y2="69.5271" gradientUnits="userSpaceOnUse">
<stop stop-color="#F0F3F5"/>
<stop offset="0.056" stop-color="#E2E5E8"/>
<stop offset="0.138" stop-color="#D4D8DD"/>
<stop offset="0.242" stop-color="#CCD0D6"/>
<stop offset="0.44" stop-color="#CACED4"/>
<stop offset="0.568" stop-color="#B3B7BD"/>
<stop offset="0.835" stop-color="#797C83"/>
<stop offset="1" stop-color="#52545C"/>
</linearGradient>
<linearGradient id="paint8_linear" x1="73.4978" y1="1.06836" x2="73.4978" y2="85.265" gradientUnits="userSpaceOnUse">
<stop stop-color="#F0F3F5"/>
<stop offset="0.253" stop-color="#EDF0F3"/>
<stop offset="0.406" stop-color="#E5E8EA"/>
<stop offset="0.531" stop-color="#D7DADC"/>
<stop offset="0.642" stop-color="#C3C5C9"/>
<stop offset="0.744" stop-color="#A9ABAF"/>
<stop offset="0.839" stop-color="#888B90"/>
<stop offset="0.926" stop-color="#63656B"/>
<stop offset="1" stop-color="#3D3F46"/>
</linearGradient>
<linearGradient id="paint9_linear" x1="73.5023" y1="1.06358" x2="73.5023" y2="85.2655" gradientUnits="userSpaceOnUse">
<stop stop-color="#F0F3F5"/>
<stop offset="0.253" stop-color="#EDF0F3"/>
<stop offset="0.406" stop-color="#E5E8EA"/>
<stop offset="0.531" stop-color="#D7DADC"/>
<stop offset="0.642" stop-color="#C3C5C9"/>
<stop offset="0.744" stop-color="#A9ABAF"/>
<stop offset="0.839" stop-color="#888B90"/>
<stop offset="0.926" stop-color="#63656B"/>
<stop offset="1" stop-color="#3D3F46"/>
</linearGradient>
<linearGradient id="paint10_linear" x1="73.5" y1="1.07344" x2="73.5" y2="85.2733" gradientUnits="userSpaceOnUse">
<stop stop-color="#F0F3F5"/>
<stop offset="0.253" stop-color="#EDF0F3"/>
<stop offset="0.406" stop-color="#E5E8EA"/>
<stop offset="0.531" stop-color="#D7DADC"/>
<stop offset="0.642" stop-color="#C3C5C9"/>
<stop offset="0.744" stop-color="#A9ABAF"/>
<stop offset="0.839" stop-color="#888B90"/>
<stop offset="0.926" stop-color="#63656B"/>
<stop offset="1" stop-color="#3D3F46"/>
</linearGradient>
<linearGradient id="paint11_linear" x1="73.4976" y1="18.5307" x2="73.4976" y2="42.5273" gradientUnits="userSpaceOnUse">
<stop stop-color="#CACED4"/>
<stop offset="1" stop-color="#52545C"/>
</linearGradient>
<clipPath id="clip0">
<rect width="150" height="123.72" fill="white"/>
</clipPath>
</defs>
</svg>
