<svg width="150" height="150" viewBox="0 0 150 150" fill="none" xmlns="http://www.w3.org/2000/svg">
<path fill-rule="evenodd" clip-rule="evenodd" d="M0 0H150V150H0V0Z" fill="white"/>
<path fill-rule="evenodd" clip-rule="evenodd" d="M75.0283 138.625C110.162 138.625 138.626 110.16 138.626 75.0274C138.626 39.8387 110.162 11.374 75.0283 11.374C39.8957 11.374 11.375 39.8387 11.375 75.0274C11.375 110.16 39.8957 138.625 75.0283 138.625V138.625ZM138.009 75.0274C138.009 109.768 109.824 137.951 75.0283 137.951C40.2319 137.951 12.0474 109.767 12.0474 75.0274C12.0474 40.2309 40.2319 12.0464 75.0283 12.0464C109.824 12.0464 138.009 40.2309 138.009 75.0274V75.0274Z" fill="#2F4698"/>
<path fill-rule="evenodd" clip-rule="evenodd" d="M75.0283 138.625C110.162 138.625 138.626 110.16 138.626 75.0274C138.626 39.8387 110.162 11.374 75.0283 11.374C39.8957 11.374 11.375 39.8387 11.375 75.0274C11.375 110.16 39.8957 138.625 75.0283 138.625V138.625ZM136.215 75.0274C136.215 108.815 108.816 136.159 75.0283 136.159C41.2397 136.159 13.8404 108.815 13.8404 75.0274C13.8404 41.2395 41.2405 13.8395 75.0283 13.8395C108.816 13.8395 136.215 41.2395 136.215 75.0274V75.0274Z" fill="#2F4799"/>
<path fill-rule="evenodd" clip-rule="evenodd" d="M138.009 75.0278C138.009 40.2314 109.823 12.0469 75.0278 12.0469C40.2314 12.0469 12.0469 40.2314 12.0469 75.0278C12.0469 109.768 40.2314 137.952 75.0278 137.952C109.823 137.953 138.009 109.768 138.009 75.0278ZM134.423 75.0278C134.423 107.806 107.807 134.367 75.0286 134.367C42.2494 134.367 15.6338 107.806 15.6338 75.0278C15.6338 42.1926 42.2494 15.633 75.0286 15.633C107.806 15.633 134.423 42.1926 134.423 75.0278Z" fill="#2F489A"/>
<path fill-rule="evenodd" clip-rule="evenodd" d="M136.215 75.0277C136.215 41.2399 108.816 13.8398 75.0277 13.8398C41.2391 13.8398 13.8398 41.2399 13.8398 75.0277C13.8398 108.816 41.2399 136.16 75.0277 136.16C108.816 136.16 136.215 108.816 136.215 75.0277ZM132.63 75.0277C132.63 106.798 106.855 132.573 75.0277 132.573C43.2011 132.573 17.4259 106.798 17.4259 75.0277C17.4259 43.2011 43.2011 17.4252 75.0277 17.4252C106.855 17.4259 132.63 43.2011 132.63 75.0277Z" fill="#2E4A9B"/>
<path fill-rule="evenodd" clip-rule="evenodd" d="M134.423 75.0277C134.423 42.1924 107.806 15.6328 75.0277 15.6328C42.2484 15.6328 15.6328 42.1924 15.6328 75.0277C15.6328 107.806 42.2484 134.367 75.0277 134.367C107.805 134.367 134.423 107.806 134.423 75.0277ZM130.835 75.0277C130.835 105.789 105.845 130.78 75.0269 130.78C44.2088 130.78 19.2181 105.79 19.2181 75.0277C19.2181 44.2088 44.2088 19.2189 75.0269 19.2189C105.845 19.2189 130.835 44.2096 130.835 75.0277Z" fill="#2E4B9C"/>
<path fill-rule="evenodd" clip-rule="evenodd" d="M132.629 75.0283C132.629 43.2017 106.855 17.4258 75.0276 17.4258C43.2009 17.4258 17.4258 43.2009 17.4258 75.0283C17.4258 106.799 43.2009 132.573 75.0276 132.573C106.855 132.574 132.629 106.799 132.629 75.0283ZM129.043 75.0283C129.043 104.838 104.837 128.988 75.0276 128.988C45.2181 128.988 21.0119 104.838 21.0119 75.0283C21.0119 45.2189 45.2181 21.0127 75.0276 21.0127C104.838 21.0127 129.043 45.2189 129.043 75.0283Z" fill="#2E4C9C"/>
<path fill-rule="evenodd" clip-rule="evenodd" d="M130.835 75.0276C130.835 44.2087 105.845 19.2188 75.0274 19.2188C44.2094 19.2188 19.2188 44.2094 19.2188 75.0276C19.2188 105.789 44.2094 130.78 75.0274 130.78C105.845 130.78 130.835 105.79 130.835 75.0276ZM127.193 75.0276C127.193 103.828 103.828 127.193 75.0274 127.193C46.2266 127.193 22.8609 103.828 22.8609 75.0276C22.8609 46.1706 46.2266 22.8049 75.0274 22.8049C103.828 22.8049 127.193 46.1706 127.193 75.0276V75.0276Z" fill="#2D4E9D"/>
<path fill-rule="evenodd" clip-rule="evenodd" d="M129.043 75.0284C129.043 45.2189 104.838 21.0127 75.0274 21.0127C45.2179 21.0127 21.0117 45.2189 21.0117 75.0284C21.0117 104.838 45.2179 128.988 75.0274 128.988C104.838 128.988 129.043 104.838 129.043 75.0284ZM125.402 75.0284C125.402 102.821 102.876 125.402 75.0274 125.402C47.1791 125.402 24.6539 102.821 24.6539 75.0284C24.6539 47.18 47.1791 24.5988 75.0274 24.5988C102.875 24.5988 125.402 47.18 125.402 75.0284Z" fill="#2D4F9E"/>
<path fill-rule="evenodd" clip-rule="evenodd" d="M127.196 75.0283C127.196 46.1714 103.831 22.8057 75.0298 22.8057C46.229 22.8057 22.8633 46.1714 22.8633 75.0283C22.8633 103.829 46.229 127.194 75.0298 127.194C103.831 127.194 127.196 103.829 127.196 75.0283V75.0283ZM123.61 75.0283C123.61 101.812 101.87 123.609 75.0298 123.609C48.1901 123.609 26.4494 101.812 26.4494 75.0283C26.4494 48.1886 48.1901 26.4478 75.0298 26.4478C101.87 26.4478 123.61 48.1886 123.61 75.0283V75.0283Z" fill="#2D509F"/>
<path fill-rule="evenodd" clip-rule="evenodd" d="M125.404 75.0283C125.404 47.1799 102.878 24.5986 75.0297 24.5986C47.1814 24.5986 24.6562 47.1799 24.6562 75.0283C24.6562 102.821 47.1814 125.402 75.0297 125.402C102.877 125.402 125.404 102.821 125.404 75.0283ZM121.816 75.0283C121.816 100.859 100.86 121.76 75.0297 121.76C49.1986 121.76 28.2423 100.859 28.2423 75.0283C28.2423 49.1403 49.1986 28.2408 75.0297 28.2408C100.861 28.2408 121.816 49.1411 121.816 75.0283V75.0283Z" fill="#2C51A0"/>
<path fill-rule="evenodd" clip-rule="evenodd" d="M123.606 75.0277C123.606 48.188 101.866 26.4473 75.0259 26.4473C48.1861 26.4473 26.4453 48.188 26.4453 75.0277C26.4453 101.811 48.1861 123.608 75.0259 123.608C101.866 123.608 123.606 101.811 123.606 75.0277V75.0277ZM120.021 75.0277C120.021 99.8502 99.8492 119.966 75.0266 119.966C50.2041 119.966 30.0322 99.8495 30.0322 75.0277C30.0322 50.1491 50.2041 30.0334 75.0266 30.0334C99.8492 30.0334 120.021 50.1491 120.021 75.0277V75.0277Z" fill="#2C53A0"/>
<path fill-rule="evenodd" clip-rule="evenodd" d="M121.816 75.0287C121.816 49.1407 100.86 28.2412 75.0297 28.2412C49.1985 28.2412 28.2422 49.1407 28.2422 75.0287C28.2422 100.859 49.1985 121.76 75.0297 121.76C100.861 121.76 121.816 100.86 121.816 75.0287V75.0287ZM118.231 75.0287C118.231 98.8426 98.8997 118.173 75.0297 118.173C51.1597 118.173 31.8283 98.8418 31.8283 75.0287C31.8283 51.1587 51.1597 31.8273 75.0297 31.8273C98.8997 31.8273 118.231 51.1587 118.231 75.0287V75.0287Z" fill="#2C54A1"/>
<path fill-rule="evenodd" clip-rule="evenodd" d="M120.024 75.0277C120.024 50.149 99.8521 30.0332 75.0295 30.0332C50.207 30.0332 30.0352 50.149 30.0352 75.0277C30.0352 99.8503 50.207 119.966 75.0295 119.966C99.8521 119.966 120.024 99.8503 120.024 75.0277V75.0277ZM116.436 75.0277C116.436 97.8891 97.8894 116.38 75.0288 116.38C52.1674 116.38 33.6205 97.8891 33.6205 75.0277C33.6205 52.1662 52.1674 33.6193 75.0288 33.6193C97.8894 33.6193 116.436 52.1662 116.436 75.0277V75.0277Z" fill="#2B55A2"/>
<path fill-rule="evenodd" clip-rule="evenodd" d="M118.227 75.0285C118.227 51.1585 98.8956 31.8271 75.0256 31.8271C51.1556 31.8271 31.8242 51.1585 31.8242 75.0285C31.8242 98.8425 51.1556 118.173 75.0256 118.173C98.8956 118.174 118.227 98.8425 118.227 75.0285V75.0285ZM114.641 75.0285C114.641 96.8813 96.8784 114.588 75.0256 114.588C53.1727 114.588 35.4103 96.8813 35.4103 75.0285C35.4103 53.1196 53.1727 35.4133 75.0256 35.4133C96.8784 35.4133 114.641 53.1196 114.641 75.0285V75.0285Z" fill="#2B56A3"/>
<path fill-rule="evenodd" clip-rule="evenodd" d="M116.437 75.0274C116.437 52.166 97.89 33.6191 75.0294 33.6191C52.168 33.6191 33.6211 52.166 33.6211 75.0274C33.6211 97.8888 52.168 116.38 75.0294 116.38C97.89 116.38 116.437 97.8888 116.437 75.0274V75.0274ZM112.796 75.0274C112.796 95.8709 95.8736 112.793 75.0302 112.793C54.1859 112.793 37.264 95.8709 37.264 75.0274C37.264 54.1272 54.1859 37.2045 75.0302 37.2045C95.8728 37.2052 112.796 54.1272 112.796 75.0274Z" fill="#2B57A4"/>
<path fill-rule="evenodd" clip-rule="evenodd" d="M114.641 75.0283C114.641 53.1195 96.8782 35.4131 75.0254 35.4131C53.1726 35.4131 35.4102 53.1195 35.4102 75.0283C35.4102 96.8811 53.1726 114.588 75.0254 114.588C96.8782 114.588 114.641 96.8811 114.641 75.0283V75.0283ZM110.999 75.0283C110.999 94.8632 94.9178 111.001 75.0254 111.001C55.1337 111.001 39.0523 94.864 39.0523 75.0283C39.0523 55.1359 55.1337 38.9992 75.0254 38.9992C94.9178 38.9992 110.999 55.1367 110.999 75.0283V75.0283Z" fill="#2A59A5"/>
<path fill-rule="evenodd" clip-rule="evenodd" d="M112.793 75.028C112.793 54.1278 95.8713 37.2051 75.0279 37.2051C54.1836 37.2051 37.2617 54.127 37.2617 75.028C37.2617 95.8715 54.1836 112.793 75.0279 112.793C95.8705 112.794 112.793 95.8715 112.793 75.028ZM109.207 75.028C109.207 93.9111 93.9102 109.208 75.0271 109.208C56.144 109.208 40.847 93.9111 40.847 75.028C40.847 56.1442 56.144 40.792 75.0271 40.792C93.9102 40.792 109.207 56.145 109.207 75.028Z" fill="#2A5AA6"/>
<path fill-rule="evenodd" clip-rule="evenodd" d="M111.002 75.0282C111.002 55.1357 94.9202 38.999 75.0278 38.999C55.1361 38.999 39.0547 55.1365 39.0547 75.0282C39.0547 94.863 55.1361 111.001 75.0278 111.001C94.9202 111.001 111.002 94.8638 111.002 75.0282V75.0282ZM107.414 75.0282C107.414 92.9027 92.9015 107.414 75.0278 107.414C57.1533 107.414 42.6408 92.9027 42.6408 75.0282C42.6408 57.0976 57.1533 42.6412 75.0278 42.6412C92.9015 42.6412 107.414 57.0976 107.414 75.0282V75.0282Z" fill="#295BA7"/>
<path fill-rule="evenodd" clip-rule="evenodd" d="M109.208 75.0281C109.208 56.1442 93.9108 40.792 75.0277 40.792C56.1446 40.792 40.8477 56.145 40.8477 75.0281C40.8477 93.9112 56.1446 109.208 75.0277 109.208C93.9108 109.208 109.208 93.9112 109.208 75.0281ZM105.622 75.0281C105.622 91.894 91.8936 105.565 75.0285 105.565C58.1626 105.565 44.4345 91.894 44.4345 75.0281C44.4345 58.1061 58.1626 44.4341 75.0285 44.4341C91.8936 44.4341 105.622 58.1061 105.622 75.0281V75.0281Z" fill="#295CA7"/>
<path fill-rule="evenodd" clip-rule="evenodd" d="M107.414 75.0276C107.414 57.0971 92.9013 42.6406 75.0276 42.6406C57.1531 42.6406 42.6406 57.0971 42.6406 75.0276C42.6406 92.9021 57.1531 107.414 75.0276 107.414C92.9013 107.414 107.414 92.9021 107.414 75.0276V75.0276ZM103.829 75.0276C103.829 90.8849 90.9402 103.772 75.0276 103.772C59.1143 103.772 46.2267 90.8849 46.2267 75.0276C46.2267 59.1143 59.1143 46.2267 75.0276 46.2267C90.9402 46.2267 103.829 59.1143 103.829 75.0276Z" fill="#295DA8"/>
<path fill-rule="evenodd" clip-rule="evenodd" d="M105.621 75.0285C105.621 58.1066 91.8927 44.4346 75.0275 44.4346C58.1616 44.4346 44.4336 58.1066 44.4336 75.0285C44.4336 91.8944 58.1616 105.566 75.0275 105.566C91.8927 105.566 105.621 91.8944 105.621 75.0285V75.0285ZM102.034 75.0285C102.034 89.9325 89.9315 101.98 75.0268 101.98C60.122 101.98 48.0189 89.9333 48.0189 75.0285C48.0189 60.1238 60.122 48.0207 75.0268 48.0207C89.9323 48.0207 102.034 60.1238 102.034 75.0285V75.0285Z" fill="#285EA9"/>
<path fill-rule="evenodd" clip-rule="evenodd" d="M103.828 75.0275C103.828 59.1141 90.94 46.2266 75.0275 46.2266C59.1141 46.2266 46.2266 59.1141 46.2266 75.0275C46.2266 90.8848 59.1141 103.772 75.0275 103.772C90.94 103.772 103.828 90.8848 103.828 75.0275V75.0275ZM100.186 75.0275C100.186 88.9229 88.9228 100.186 75.0275 100.186C61.1313 100.186 49.8687 88.9229 49.8687 75.0275C49.8687 61.0753 61.1313 49.8127 75.0275 49.8127C88.9236 49.8127 100.186 61.0753 100.186 75.0275V75.0275Z" fill="#2860AA"/>
<path fill-rule="evenodd" clip-rule="evenodd" d="M102.034 75.0283C102.034 60.1236 89.9321 48.0205 75.0273 48.0205C60.1226 48.0205 48.0195 60.1236 48.0195 75.0283C48.0195 89.9323 60.1226 101.98 75.0273 101.98C89.9328 101.98 102.034 89.933 102.034 75.0283V75.0283ZM98.393 75.0283C98.393 87.9159 87.9701 98.3932 75.0281 98.3932C62.0845 98.3932 51.6624 87.9151 51.6624 75.0283C51.6624 62.0847 62.0845 51.6066 75.0281 51.6066C87.9701 51.6066 98.393 62.0847 98.393 75.0283Z" fill="#2761AB"/>
<path fill-rule="evenodd" clip-rule="evenodd" d="M100.185 75.0283C100.185 61.0761 88.9213 49.8135 75.0259 49.8135C61.1298 49.8135 49.8672 61.0761 49.8672 75.0283C49.8672 88.9237 61.1298 100.187 75.0259 100.187C88.9221 100.187 100.185 88.9245 100.185 75.0283V75.0283ZM96.5993 75.0283C96.5993 86.9073 86.9609 96.601 75.0259 96.601C63.0909 96.601 53.4533 86.9073 53.4533 75.0283C53.4533 63.0933 63.0909 53.3996 75.0259 53.3996C86.9609 53.3996 96.5993 63.0933 96.5993 75.0283Z" fill="#2762AC"/>
<path fill-rule="evenodd" clip-rule="evenodd" d="M98.3948 75.0282C98.3948 62.0846 87.9719 51.6064 75.0298 51.6064C62.0862 51.6064 51.6641 62.0846 51.6641 75.0282C51.6641 87.9158 62.0862 98.3932 75.0298 98.3932C87.9719 98.394 98.3948 87.9158 98.3948 75.0282ZM94.8086 75.0282C94.8086 85.9546 85.9547 94.8078 75.029 94.8078C64.1026 94.8078 55.2486 85.9546 55.2486 75.0282C55.2486 64.0458 64.1018 55.1926 75.029 55.1926C85.9547 55.1926 94.8086 64.1018 94.8086 75.0282Z" fill="#2663AC"/>
<path fill-rule="evenodd" clip-rule="evenodd" d="M96.603 75.0281C96.603 63.0931 86.9646 53.3994 75.0296 53.3994C63.0947 53.3994 53.457 63.0931 53.457 75.0281C53.457 86.9071 63.0947 96.6008 75.0296 96.6008C86.9646 96.6008 96.603 86.9071 96.603 75.0281ZM93.0161 75.0281C93.0161 84.946 84.9482 93.0139 75.0304 93.0139C65.1126 93.0139 57.0439 84.946 57.0439 75.0281C57.0439 65.0543 65.1126 56.9847 75.0304 56.9847C84.9482 56.9847 93.0161 65.0543 93.0161 75.0281Z" fill="#2664AD"/>
<path fill-rule="evenodd" clip-rule="evenodd" d="M94.81 75.028C94.81 64.0456 85.956 55.1924 75.0304 55.1924C64.104 55.1924 55.25 64.1016 55.25 75.028C55.25 85.9544 64.1032 94.8076 75.0304 94.8076C85.956 94.8076 94.81 85.9544 94.81 75.028ZM91.2247 75.028C91.2247 83.9365 83.9956 91.2215 75.0304 91.2215C66.0651 91.2215 58.8369 83.9372 58.8369 75.028C58.8369 66.062 66.0651 58.8337 75.0304 58.8337C83.9956 58.8345 91.2247 66.0628 91.2247 75.028V75.028Z" fill="#2565AE"/>
<path fill-rule="evenodd" clip-rule="evenodd" d="M93.0161 75.0277C93.0161 65.0539 84.9481 56.9844 75.0303 56.9844C65.1125 56.9844 57.043 65.0539 57.043 75.0277C57.043 84.9456 65.1117 93.0135 75.0295 93.0135C84.9473 93.0135 93.0161 84.9456 93.0161 75.0277ZM89.43 75.0277C89.43 82.9276 82.987 89.3722 75.0295 89.3722C67.0729 89.3722 60.6291 82.9284 60.6291 75.0277C60.6291 67.0703 67.0729 60.6273 75.0295 60.6273C82.987 60.6273 89.43 67.0711 89.43 75.0277Z" fill="#2566AF"/>
<path fill-rule="evenodd" clip-rule="evenodd" d="M91.2237 75.0283C91.2274 72.9006 90.8111 70.7931 89.9985 68.8266C89.186 66.8602 87.9933 65.0735 86.4888 63.569C84.9842 62.0645 83.1975 60.8717 81.2311 60.0592C79.2646 59.2467 77.1571 58.8303 75.0294 58.834C66.0642 58.834 58.8359 66.0622 58.8359 75.0283C58.8359 83.9367 66.0642 91.2218 75.0294 91.2218C83.9947 91.2218 91.2237 83.9367 91.2237 75.0283V75.0283ZM87.6361 75.0283C87.6361 81.9764 81.9775 87.5797 75.0294 87.5797C68.0814 87.5797 62.422 81.9764 62.422 75.0283C62.422 68.0242 68.0814 62.4209 75.0294 62.4209C81.9775 62.4209 87.6361 68.0242 87.6361 75.0283Z" fill="#2467B0"/>
<path fill-rule="evenodd" clip-rule="evenodd" d="M89.4259 75.0284C89.4259 67.0709 82.9829 60.6279 75.0254 60.6279C67.0688 60.6279 60.625 67.0717 60.625 75.0284C60.625 82.9282 67.0688 89.3728 75.0254 89.3728C82.9829 89.3728 89.4259 82.929 89.4259 75.0284ZM85.7837 75.0284C85.7837 80.9678 80.9641 85.7867 75.0254 85.7867C69.086 85.7867 64.2671 80.9678 64.2671 75.0284C64.2671 69.0329 69.086 64.214 75.0254 64.214C80.9641 64.214 85.7837 69.0329 85.7837 75.0284Z" fill="#2468B1"/>
<path fill-rule="evenodd" clip-rule="evenodd" d="M87.6359 75.0283C87.6359 68.0242 81.9773 62.4209 75.0293 62.4209C68.0812 62.4209 62.4219 68.0242 62.4219 75.0283C62.4219 81.9764 68.0812 87.5796 75.0293 87.5796C81.9773 87.5796 87.6359 81.9764 87.6359 75.0283ZM83.9945 75.0283C83.9945 79.9592 80.017 83.9935 75.0293 83.9935C70.0416 83.9935 66.064 79.9592 66.064 75.0283C66.064 70.0414 70.0423 66.007 75.0293 66.007C80.0162 66.007 83.9945 70.0414 83.9945 75.0283Z" fill="#2369B2"/>
<path fill-rule="evenodd" clip-rule="evenodd" d="M85.7861 75.0283C85.7861 69.0327 80.9665 64.2139 75.0278 64.2139C69.0883 64.2139 64.2695 69.0327 64.2695 75.0283C64.2695 80.9678 69.0883 85.7866 75.0278 85.7866C80.9665 85.7866 85.7861 80.9678 85.7861 75.0283ZM82.1992 75.0283C82.1992 78.9506 79.0054 82.2005 75.0278 82.2005C71.0495 82.2005 67.8556 78.9506 67.8556 75.0283C67.8556 71.0499 71.0495 67.8 75.0278 67.8C79.0061 67.8 82.1992 71.0499 82.1992 75.0283Z" fill="#236BB3"/>
<path fill-rule="evenodd" clip-rule="evenodd" d="M83.9931 75.0281C83.9931 70.0412 80.0155 66.0068 75.0278 66.0068C70.0401 66.0068 66.0625 70.0412 66.0625 75.0281C66.0625 79.9589 70.0409 83.9933 75.0278 83.9933C80.0148 83.9933 83.9931 79.9589 83.9931 75.0281ZM80.407 75.0281C80.4066 76.4546 79.8397 77.8225 78.831 78.8312C77.8223 79.8399 76.4543 80.4068 75.0278 80.4072C73.6013 80.4068 72.2333 79.8399 71.2246 78.8312C70.2159 77.8225 69.649 76.4546 69.6486 75.0281C69.6486 72.0023 72.058 69.5929 75.0278 69.5929C77.9983 69.5929 80.407 72.0023 80.407 75.0281Z" fill="#226CB4"/>
<path fill-rule="evenodd" clip-rule="evenodd" d="M82.1992 75.028C82.1992 71.0497 79.0053 67.7998 75.0277 67.7998C71.0494 67.7998 67.8555 71.0497 67.8555 75.028C67.8555 78.9503 71.0494 82.2002 75.0277 82.2002C79.0061 82.2002 82.1992 78.9503 82.1992 75.028ZM78.6138 75.028C78.6138 76.9892 76.9889 78.6134 75.0285 78.6134C73.0673 78.6134 71.4424 76.9884 71.4424 75.028C71.4424 73.0109 73.0673 71.3859 75.0285 71.3859C76.9889 71.3859 78.6138 73.0109 78.6138 75.028V75.028Z" fill="#216DB4"/>
<path fill-rule="evenodd" clip-rule="evenodd" d="M80.4108 75.028C80.4108 72.0022 78.0013 69.5928 75.0315 69.5928C72.0618 69.5928 69.6523 72.0022 69.6523 75.028C69.6763 76.4388 70.2536 77.7837 71.2598 78.7729C72.266 79.7621 73.6205 80.3164 75.0315 80.3164C76.4426 80.3164 77.7971 79.7621 78.8033 78.7729C79.8095 77.7837 80.3868 76.4388 80.4108 75.028V75.028Z" fill="#216EB5"/>
<path fill-rule="evenodd" clip-rule="evenodd" d="M78.6129 75.0279C78.6129 73.0107 76.988 71.3857 75.0276 71.3857C73.0664 71.3857 71.4414 73.0107 71.4414 75.0279C71.4414 76.989 73.0664 78.6132 75.0276 78.6132C76.988 78.614 78.6129 76.989 78.6129 75.0279V75.0279Z" fill="#206FB6"/>
<path fill-rule="evenodd" clip-rule="evenodd" d="M76.8213 75.0288C76.8213 74.0202 76.0352 73.1797 75.0274 73.1797C74.0188 73.1797 73.2344 74.0202 73.2344 75.0288C73.2344 75.9813 74.0188 76.8218 75.0274 76.8218C76.0352 76.8218 76.8213 75.9813 76.8213 75.0288Z" fill="#1E71B8"/>
<path fill-rule="evenodd" clip-rule="evenodd" d="M42.3043 110.272C46.2826 114.25 50.9334 117.613 56.0884 120.021L42.3043 88.4195L30.7615 62.0841C29.3047 66.6788 28.5202 71.6097 28.5202 76.7087C28.5202 89.7643 33.7873 101.643 42.3043 110.272ZM110.271 122.488C124.28 112.122 133.357 95.4797 133.357 76.7094C133.357 57.9376 124.28 41.2967 110.271 30.8745C100.802 23.8144 89.0357 19.668 76.2602 19.668C63.5407 19.668 51.8299 23.8144 42.3043 30.8745C28.2961 41.2967 19.2188 57.9384 19.2188 76.7094C19.2188 95.4797 28.2961 112.122 42.3043 122.488C51.8299 129.548 63.5407 133.751 76.2602 133.751C89.0357 133.75 100.802 129.548 110.271 122.488ZM110.271 43.145C111.952 44.826 113.577 46.675 114.979 48.6362L110.271 59.3945L92.7899 99.6821L83.6565 79.006H68.9199L59.8426 99.6821L42.3043 59.3945L37.5975 48.6362C39.0544 46.6743 40.6233 44.826 42.3043 43.145C45.218 40.1752 48.4679 37.5977 52.054 35.5245L68.6958 74.1311H83.8799L100.522 35.5245C104.108 37.5977 107.358 40.1752 110.271 43.145V43.145ZM110.271 88.4195L121.814 62.0841C123.272 66.6788 124.112 71.6097 124.112 76.7087C124.112 89.7635 118.845 101.643 110.271 110.272C106.35 114.25 101.642 117.613 96.4881 120.021L110.271 88.4195V88.4195ZM76.2602 92.1177L89.6513 122.544C85.3936 123.832 80.9117 124.449 76.2602 124.449C71.6655 124.449 67.1829 123.832 62.9244 122.544L76.2602 92.1177ZM76.2602 62.2522L90.0435 30.9298C85.6737 29.641 81.0783 28.9126 76.2602 28.9126C71.4974 28.9126 66.9027 29.641 62.5322 30.9298L76.2602 62.2522Z" fill="#33348E"/>
<path fill-rule="evenodd" clip-rule="evenodd" d="M41.0139 108.592C45.0227 112.599 49.6839 115.896 54.7979 118.341L41.0139 86.7391L29.5271 60.4036C28.0143 64.9983 27.2298 69.9292 27.2298 75.0282C27.2298 88.0839 32.4969 99.9629 41.0139 108.592V108.592ZM109.037 120.807C122.989 110.441 132.066 93.7985 132.066 75.0282C132.066 56.2572 122.989 39.6154 109.037 29.1933C99.5113 22.1331 87.7452 17.9307 75.0258 17.9307C62.3063 17.9307 50.5394 22.1331 41.0139 29.1933C27.0617 39.6154 17.9844 56.2572 17.9844 75.0282C17.9844 93.7985 27.0617 110.441 41.0139 120.807C50.5394 127.866 62.3063 132.07 75.0258 132.07C87.7452 132.07 99.5113 127.867 109.037 120.807ZM109.037 41.4645C110.735 43.1644 112.291 45.001 113.688 46.9557L109.037 57.714L91.4994 98.0017L82.4221 77.3256H67.6295L58.5521 98.0017L41.0139 57.714L36.3631 46.9557C37.7601 45.0008 39.3156 43.1642 41.0139 41.4645C43.9237 38.4936 47.2222 35.9302 50.8196 33.844L67.4053 72.4507H82.6455L99.2312 33.844C102.829 35.9302 106.127 38.4936 109.037 41.4645V41.4645ZM109.037 86.7391L120.524 60.4036C122.037 64.9983 122.822 69.9292 122.822 75.0282C122.822 88.0831 117.555 99.9629 109.037 108.592C105.028 112.599 100.367 115.896 95.2536 118.341L109.037 86.7391V86.7391ZM75.0258 90.4373L88.3624 120.863C84.0304 122.131 79.5394 122.772 75.0258 122.768C70.5124 122.772 66.0217 122.131 61.69 120.863L75.0258 90.4373ZM75.0258 60.5157L88.7546 29.2493C84.4393 27.9045 79.7886 27.2321 75.0258 27.2321C70.263 27.2321 65.6683 27.9045 61.2977 29.2493L75.0258 60.5157Z" fill="white"/>
</svg>
